<svg width="19" height="17" viewBox="0 0 19 17" fill="none" xmlns="http://www.w3.org/2000/svg">
<g opacity="0.6">
<path d="M1.76418 10.3225V14.6055C1.76418 15.1638 1.98599 15.6993 2.3808 16.0941C2.77561 16.4889 3.3111 16.7107 3.86945 16.7107H16.501C17.0594 16.7107 17.5949 16.4889 17.9897 16.0941C18.3845 15.6993 18.6063 15.1638 18.6063 14.6055V5.34232C18.6063 4.78397 18.3845 4.24849 17.9897 3.85368C17.5949 3.45886 17.0594 3.23706 16.501 3.23706H8.96924L10.2324 4.50022H16.501C16.7244 4.50022 16.9386 4.58894 17.0965 4.74687C17.2544 4.90479 17.3431 5.11898 17.3431 5.34232V14.6055C17.3431 14.8288 17.2544 15.043 17.0965 15.2009C16.9386 15.3589 16.7244 15.4476 16.501 15.4476H3.86945C3.64611 15.4476 3.43191 15.3589 3.27399 15.2009C3.11606 15.043 3.02734 14.8288 3.02734 14.6055V11.5857L1.76418 10.3225Z" fill="#2B4961"/>
<path d="M5.13263 1.34227C5.13263 1.17477 5.19917 1.01412 5.31761 0.895679C5.43606 0.777235 5.5967 0.710693 5.76421 0.710693C5.93171 0.710693 6.09236 0.777235 6.2108 0.895679C6.32925 1.01412 6.39579 1.17477 6.39579 1.34227V2.40754C6.77473 2.44122 7.14526 2.60375 7.43579 2.89427L10.4135 5.87196C10.7292 6.18779 10.9066 6.6161 10.9066 7.06269C10.9066 7.50929 10.7292 7.93759 10.4135 8.25343L6.83958 11.8265C6.68318 11.9829 6.49748 12.1071 6.2931 12.1918C6.08871 12.2764 5.86965 12.32 5.64842 12.32C5.42719 12.32 5.20812 12.2764 5.00374 12.1918C4.79936 12.1071 4.61366 11.9829 4.45726 11.8265L1.48042 8.8488C1.16468 8.53296 0.987305 8.10465 0.987305 7.65806C0.987305 7.21147 1.16468 6.78316 1.48042 6.46732L5.05347 2.89427C5.07873 2.86901 5.10484 2.84375 5.13179 2.82101V1.34227H5.13263ZM5.13263 5.13175V4.60206L2.69894 7.03575H9.6421C9.63589 6.93348 9.59246 6.83702 9.52 6.76459L6.54231 3.78775C6.50077 3.74579 6.45084 3.71307 6.39579 3.69175V5.13175C6.39579 5.29925 6.32925 5.4599 6.2108 5.57834C6.09236 5.69678 5.93171 5.76332 5.76421 5.76332C5.5967 5.76332 5.43606 5.69678 5.31761 5.57834C5.19917 5.4599 5.13263 5.29925 5.13263 5.13175ZM2.71747 8.29806L5.35158 10.9339C5.43054 11.0128 5.53761 11.0571 5.64926 11.0571C5.76091 11.0571 5.86799 11.0128 5.94695 10.9339L8.58189 8.29806H2.71747Z" fill="#2B4961"/>
<path d="M9.34313 11.1317C9.34313 10.7165 9.47282 10.3131 9.63113 9.96873C9.79113 9.61841 9.99997 9.28999 10.1979 9.01378C10.3983 8.73504 10.597 8.49757 10.7452 8.32999C10.8168 8.24831 10.9473 8.1102 10.997 8.05799L11.0012 8.05378C11.0599 7.99509 11.1295 7.94853 11.2062 7.91677C11.2828 7.885 11.365 7.86865 11.448 7.86865C11.5309 7.86865 11.6131 7.885 11.6898 7.91677C11.7664 7.94853 11.8361 7.99509 11.8947 8.05378L12.1516 8.32999C12.2998 8.49757 12.4985 8.7342 12.6981 9.01378C12.8968 9.28999 13.1048 9.61841 13.2657 9.96873C13.424 10.3131 13.5537 10.7165 13.5537 11.1317C13.5537 12.3022 12.6863 13.3422 11.4484 13.3422C10.2097 13.3422 9.34313 12.3022 9.34313 11.1317ZM11.2244 9.75062C11.0543 9.98641 10.8943 10.2433 10.7781 10.4959C10.6602 10.7527 10.6063 10.9675 10.6063 11.1317C10.6063 11.7136 11.0105 12.079 11.4484 12.079C11.8854 12.079 12.2905 11.7136 12.2905 11.1317C12.2905 10.9683 12.2358 10.7527 12.1179 10.4959C11.9928 10.2337 11.8434 9.98392 11.6716 9.74978C11.5997 9.64961 11.5253 9.55133 11.4484 9.45504C11.3711 9.5513 11.2965 9.64958 11.2244 9.74978V9.75062Z" fill="#2B4961"/>
</g>
</svg>
