<svg width="19" height="17" viewBox="0 0 19 17" fill="none" xmlns="http://www.w3.org/2000/svg">
<g opacity="0.6">
<path d="M10.6735 16.7107L9.60269 16.0953L12.0642 11.7876H15.7565C16.083 11.7876 16.396 11.6579 16.6268 11.4271C16.8576 11.1963 16.9873 10.8833 16.9873 10.5568V3.17223C16.9873 2.84581 16.8576 2.53276 16.6268 2.30195C16.396 2.07113 16.083 1.94146 15.7565 1.94146H3.44884C3.12242 1.94146 2.80937 2.07113 2.57856 2.30195C2.34774 2.53276 2.21807 2.84581 2.21807 3.17223V10.5568C2.21807 10.8833 2.34774 11.1963 2.57856 11.4271C2.80937 11.6579 3.12242 11.7876 3.44884 11.7876H8.9873V13.0184H3.44884C2.796 13.0184 2.1699 12.759 1.70827 12.2974C1.24664 11.8358 0.987305 11.2097 0.987305 10.5568V3.17223C0.987305 2.51939 1.24664 1.89329 1.70827 1.43166C2.1699 0.970033 2.796 0.710693 3.44884 0.710693H15.7565C16.4094 0.710693 17.0355 0.970033 17.4971 1.43166C17.9587 1.89329 18.2181 2.51939 18.2181 3.17223V10.5568C18.2181 11.2097 17.9587 11.8358 17.4971 12.2974C17.0355 12.759 16.4094 13.0184 15.7565 13.0184H12.7781L10.6735 16.7107Z" fill="#2B4961"/>
<path d="M4.67961 4.40308H14.5258V5.63385H4.67961V4.40308Z" fill="#2B4961"/>
<path d="M4.67961 8.09521H10.8335V9.32598H4.67961V8.09521Z" fill="#2B4961"/>
</g>
</svg>
