<svg width="17" height="17" viewBox="0 0 17 17" fill="none" xmlns="http://www.w3.org/2000/svg">
<path opacity="0.6" d="M11.2353 8.93469C11.7417 8.39089 12.027 7.67771 12.0353 6.93469C12.0353 6.13268 11.7167 5.36351 11.1496 4.7964C10.5825 4.22929 9.81332 3.91069 9.0113 3.91069C8.20929 3.91069 7.44012 4.22929 6.87301 4.7964C6.3059 5.36351 5.9873 6.13268 5.9873 6.93469C5.99565 7.67771 6.28092 8.39089 6.7873 8.93469C6.08223 9.28579 5.47548 9.80664 5.02164 10.4504C4.56779 11.0942 4.28109 11.8406 4.1873 12.6227C4.16397 12.8349 4.22587 13.0476 4.35939 13.2142C4.49292 13.3807 4.68713 13.4874 4.8993 13.5107C5.11148 13.534 5.32423 13.4721 5.49076 13.3386C5.6573 13.2051 5.76397 13.0109 5.7873 12.7987C5.88277 12.0236 6.25838 11.3102 6.84337 10.7928C7.42837 10.2755 8.18236 9.98988 8.9633 9.98988C9.74425 9.98988 10.4982 10.2755 11.0832 10.7928C11.6682 11.3102 12.0438 12.0236 12.1393 12.7987C12.1616 13.0038 12.2622 13.1924 12.4202 13.3251C12.5782 13.4578 12.7814 13.5243 12.9873 13.5107H13.0753C13.285 13.4866 13.4767 13.3805 13.6086 13.2157C13.7404 13.0509 13.8018 12.8406 13.7793 12.6307C13.6925 11.8528 13.4148 11.1083 12.971 10.4635C12.5272 9.81874 11.931 9.29357 11.2353 8.93469ZM8.9873 8.35869C8.70566 8.35869 8.43035 8.27518 8.19617 8.11871C7.962 7.96223 7.77948 7.73984 7.6717 7.47963C7.56392 7.21943 7.53572 6.93311 7.59067 6.65688C7.64561 6.38066 7.78123 6.12692 7.98038 5.92777C8.17953 5.72862 8.43327 5.593 8.7095 5.53806C8.98573 5.48311 9.27204 5.51131 9.53225 5.61909C9.79245 5.72687 10.0148 5.90939 10.1713 6.14356C10.3278 6.37774 10.4113 6.65305 10.4113 6.93469C10.4113 7.31236 10.2613 7.67456 9.99422 7.94161C9.72717 8.20867 9.36497 8.35869 8.9873 8.35869ZM14.5873 0.710693H3.3873C2.75079 0.710693 2.14034 0.96355 1.69025 1.41364C1.24016 1.86372 0.987305 2.47417 0.987305 3.11069V14.3107C0.987305 14.9472 1.24016 15.5577 1.69025 16.0078C2.14034 16.4578 2.75079 16.7107 3.3873 16.7107H14.5873C15.2238 16.7107 15.8343 16.4578 16.2844 16.0078C16.7344 15.5577 16.9873 14.9472 16.9873 14.3107V3.11069C16.9873 2.47417 16.7344 1.86372 16.2844 1.41364C15.8343 0.96355 15.2238 0.710693 14.5873 0.710693ZM15.3873 14.3107C15.3873 14.5229 15.303 14.7264 15.153 14.8764C15.003 15.0264 14.7995 15.1107 14.5873 15.1107H3.3873C3.17513 15.1107 2.97165 15.0264 2.82162 14.8764C2.67159 14.7264 2.5873 14.5229 2.5873 14.3107V3.11069C2.5873 2.89852 2.67159 2.69504 2.82162 2.54501C2.97165 2.39498 3.17513 2.31069 3.3873 2.31069H14.5873C14.7995 2.31069 15.003 2.39498 15.153 2.54501C15.303 2.69504 15.3873 2.89852 15.3873 3.11069V14.3107Z" fill="#2B4961"/>
</svg>
