<svg width="199" height="199" viewBox="0 0 199 199" fill="none" xmlns="http://www.w3.org/2000/svg">
<circle cx="1.53491" cy="1.56616" r="1.5" fill="#E2E2E2"/>
<circle cx="14.5349" cy="1.56616" r="1.5" fill="#E2E2E2"/>
<circle cx="27.5349" cy="1.56616" r="1.5" fill="#E2E2E2"/>
<circle cx="40.5349" cy="1.56616" r="1.5" fill="#E2E2E2"/>
<circle cx="53.5349" cy="1.56616" r="1.5" fill="#E2E2E2"/>
<circle cx="66.5349" cy="1.56616" r="1.5" fill="#E2E2E2"/>
<circle cx="79.5349" cy="1.56616" r="1.5" fill="#E2E2E2"/>
<circle cx="92.5349" cy="1.56616" r="1.5" fill="#E2E2E2"/>
<circle cx="105.535" cy="1.56616" r="1.5" fill="#E2E2E2"/>
<circle cx="118.535" cy="1.56616" r="1.5" fill="#E2E2E2"/>
<circle cx="131.535" cy="1.56616" r="1.5" fill="#E2E2E2"/>
<circle cx="144.535" cy="1.56616" r="1.5" fill="#E2E2E2"/>
<circle cx="157.535" cy="1.56616" r="1.5" fill="#E2E2E2"/>
<circle cx="170.535" cy="1.56616" r="1.5" fill="#E2E2E2"/>
<circle cx="183.535" cy="1.56616" r="1.5" fill="#E2E2E2"/>
<circle cx="196.535" cy="1.56616" r="1.5" fill="#E2E2E2"/>
<circle cx="1.53491" cy="105.566" r="1.5" fill="#E2E2E2"/>
<circle cx="14.5349" cy="105.566" r="1.5" fill="#E2E2E2"/>
<circle cx="27.5349" cy="105.566" r="1.5" fill="#E2E2E2"/>
<circle cx="40.5349" cy="105.566" r="1.5" fill="#E2E2E2"/>
<circle cx="53.5349" cy="105.566" r="1.5" fill="#E2E2E2"/>
<circle cx="66.5349" cy="105.566" r="1.5" fill="#E2E2E2"/>
<circle cx="79.5349" cy="105.566" r="1.5" fill="#E2E2E2"/>
<circle cx="92.5349" cy="105.566" r="1.5" fill="#E2E2E2"/>
<circle cx="105.535" cy="105.566" r="1.5" fill="#E2E2E2"/>
<circle cx="118.535" cy="105.566" r="1.5" fill="#E2E2E2"/>
<circle cx="131.535" cy="105.566" r="1.5" fill="#E2E2E2"/>
<circle cx="144.535" cy="105.566" r="1.5" fill="#E2E2E2"/>
<circle cx="157.535" cy="105.566" r="1.5" fill="#E2E2E2"/>
<circle cx="170.535" cy="105.566" r="1.5" fill="#E2E2E2"/>
<circle cx="183.535" cy="105.566" r="1.5" fill="#E2E2E2"/>
<circle cx="196.535" cy="105.566" r="1.5" fill="#E2E2E2"/>
<circle cx="1.53491" cy="53.5662" r="1.5" fill="#E2E2E2"/>
<circle cx="14.5349" cy="53.5662" r="1.5" fill="#E2E2E2"/>
<circle cx="27.5349" cy="53.5662" r="1.5" fill="#E2E2E2"/>
<circle cx="40.5349" cy="53.5662" r="1.5" fill="#E2E2E2"/>
<circle cx="53.5349" cy="53.5662" r="1.5" fill="#E2E2E2"/>
<circle cx="66.5349" cy="53.5662" r="1.5" fill="#E2E2E2"/>
<circle cx="79.5349" cy="53.5662" r="1.5" fill="#E2E2E2"/>
<circle cx="92.5349" cy="53.5662" r="1.5" fill="#E2E2E2"/>
<circle cx="105.535" cy="53.5662" r="1.5" fill="#E2E2E2"/>
<circle cx="118.535" cy="53.5662" r="1.5" fill="#E2E2E2"/>
<circle cx="131.535" cy="53.5662" r="1.5" fill="#E2E2E2"/>
<circle cx="144.535" cy="53.5662" r="1.5" fill="#E2E2E2"/>
<circle cx="157.535" cy="53.5662" r="1.5" fill="#E2E2E2"/>
<circle cx="170.535" cy="53.5662" r="1.5" fill="#E2E2E2"/>
<circle cx="183.535" cy="53.5662" r="1.5" fill="#E2E2E2"/>
<circle cx="196.535" cy="53.5662" r="1.5" fill="#E2E2E2"/>
<circle cx="1.53491" cy="157.566" r="1.5" fill="#E2E2E2"/>
<circle cx="14.5349" cy="157.566" r="1.5" fill="#E2E2E2"/>
<circle cx="27.5349" cy="157.566" r="1.5" fill="#E2E2E2"/>
<circle cx="40.5349" cy="157.566" r="1.5" fill="#E2E2E2"/>
<circle cx="53.5349" cy="157.566" r="1.5" fill="#E2E2E2"/>
<circle cx="66.5349" cy="157.566" r="1.5" fill="#E2E2E2"/>
<circle cx="79.5349" cy="157.566" r="1.5" fill="#E2E2E2"/>
<circle cx="92.5349" cy="157.566" r="1.5" fill="#E2E2E2"/>
<circle cx="105.535" cy="157.566" r="1.5" fill="#E2E2E2"/>
<circle cx="118.535" cy="157.566" r="1.5" fill="#E2E2E2"/>
<circle cx="131.535" cy="157.566" r="1.5" fill="#E2E2E2"/>
<circle cx="144.535" cy="157.566" r="1.5" fill="#E2E2E2"/>
<circle cx="157.535" cy="157.566" r="1.5" fill="#E2E2E2"/>
<circle cx="170.535" cy="157.566" r="1.5" fill="#E2E2E2"/>
<circle cx="183.535" cy="157.566" r="1.5" fill="#E2E2E2"/>
<circle cx="196.535" cy="157.566" r="1.5" fill="#E2E2E2"/>
<circle cx="1.53491" cy="27.5662" r="1.5" fill="#E2E2E2"/>
<circle cx="14.5349" cy="27.5662" r="1.5" fill="#E2E2E2"/>
<circle cx="27.5349" cy="27.5662" r="1.5" fill="#E2E2E2"/>
<circle cx="40.5349" cy="27.5662" r="1.5" fill="#E2E2E2"/>
<circle cx="53.5349" cy="27.5662" r="1.5" fill="#E2E2E2"/>
<circle cx="66.5349" cy="27.5662" r="1.5" fill="#E2E2E2"/>
<circle cx="79.5349" cy="27.5662" r="1.5" fill="#E2E2E2"/>
<circle cx="92.5349" cy="27.5662" r="1.5" fill="#E2E2E2"/>
<circle cx="105.535" cy="27.5662" r="1.5" fill="#E2E2E2"/>
<circle cx="118.535" cy="27.5662" r="1.5" fill="#E2E2E2"/>
<circle cx="131.535" cy="27.5662" r="1.5" fill="#E2E2E2"/>
<circle cx="144.535" cy="27.5662" r="1.5" fill="#E2E2E2"/>
<circle cx="157.535" cy="27.5662" r="1.5" fill="#E2E2E2"/>
<circle cx="170.535" cy="27.5662" r="1.5" fill="#E2E2E2"/>
<circle cx="183.535" cy="27.5662" r="1.5" fill="#E2E2E2"/>
<circle cx="196.535" cy="27.5662" r="1.5" fill="#E2E2E2"/>
<circle cx="1.53491" cy="131.566" r="1.5" fill="#E2E2E2"/>
<circle cx="14.5349" cy="131.566" r="1.5" fill="#E2E2E2"/>
<circle cx="27.5349" cy="131.566" r="1.5" fill="#E2E2E2"/>
<circle cx="40.5349" cy="131.566" r="1.5" fill="#E2E2E2"/>
<circle cx="53.5349" cy="131.566" r="1.5" fill="#E2E2E2"/>
<circle cx="66.5349" cy="131.566" r="1.5" fill="#E2E2E2"/>
<circle cx="79.5349" cy="131.566" r="1.5" fill="#E2E2E2"/>
<circle cx="92.5349" cy="131.566" r="1.5" fill="#E2E2E2"/>
<circle cx="105.535" cy="131.566" r="1.5" fill="#E2E2E2"/>
<circle cx="118.535" cy="131.566" r="1.5" fill="#E2E2E2"/>
<circle cx="131.535" cy="131.566" r="1.5" fill="#E2E2E2"/>
<circle cx="144.535" cy="131.566" r="1.5" fill="#E2E2E2"/>
<circle cx="157.535" cy="131.566" r="1.5" fill="#E2E2E2"/>
<circle cx="170.535" cy="131.566" r="1.5" fill="#E2E2E2"/>
<circle cx="183.535" cy="131.566" r="1.5" fill="#E2E2E2"/>
<circle cx="196.535" cy="131.566" r="1.5" fill="#E2E2E2"/>
<circle cx="1.53491" cy="79.5662" r="1.5" fill="#E2E2E2"/>
<circle cx="14.5349" cy="79.5662" r="1.5" fill="#E2E2E2"/>
<circle cx="27.5349" cy="79.5662" r="1.5" fill="#E2E2E2"/>
<circle cx="40.5349" cy="79.5662" r="1.5" fill="#E2E2E2"/>
<circle cx="53.5349" cy="79.5662" r="1.5" fill="#E2E2E2"/>
<circle cx="66.5349" cy="79.5662" r="1.5" fill="#E2E2E2"/>
<circle cx="79.5349" cy="79.5662" r="1.5" fill="#E2E2E2"/>
<circle cx="92.5349" cy="79.5662" r="1.5" fill="#E2E2E2"/>
<circle cx="105.535" cy="79.5662" r="1.5" fill="#E2E2E2"/>
<circle cx="118.535" cy="79.5662" r="1.5" fill="#E2E2E2"/>
<circle cx="131.535" cy="79.5662" r="1.5" fill="#E2E2E2"/>
<circle cx="144.535" cy="79.5662" r="1.5" fill="#E2E2E2"/>
<circle cx="157.535" cy="79.5662" r="1.5" fill="#E2E2E2"/>
<circle cx="170.535" cy="79.5662" r="1.5" fill="#E2E2E2"/>
<circle cx="183.535" cy="79.5662" r="1.5" fill="#E2E2E2"/>
<circle cx="196.535" cy="79.5662" r="1.5" fill="#E2E2E2"/>
<circle cx="1.53491" cy="183.566" r="1.5" fill="#E2E2E2"/>
<circle cx="14.5349" cy="183.566" r="1.5" fill="#E2E2E2"/>
<circle cx="27.5349" cy="183.566" r="1.5" fill="#E2E2E2"/>
<circle cx="40.5349" cy="183.566" r="1.5" fill="#E2E2E2"/>
<circle cx="53.5349" cy="183.566" r="1.5" fill="#E2E2E2"/>
<circle cx="66.5349" cy="183.566" r="1.5" fill="#E2E2E2"/>
<circle cx="79.5349" cy="183.566" r="1.5" fill="#E2E2E2"/>
<circle cx="92.5349" cy="183.566" r="1.5" fill="#E2E2E2"/>
<circle cx="105.535" cy="183.566" r="1.5" fill="#E2E2E2"/>
<circle cx="118.535" cy="183.566" r="1.5" fill="#E2E2E2"/>
<circle cx="131.535" cy="183.566" r="1.5" fill="#E2E2E2"/>
<circle cx="144.535" cy="183.566" r="1.5" fill="#E2E2E2"/>
<circle cx="157.535" cy="183.566" r="1.5" fill="#E2E2E2"/>
<circle cx="170.535" cy="183.566" r="1.5" fill="#E2E2E2"/>
<circle cx="183.535" cy="183.566" r="1.5" fill="#E2E2E2"/>
<circle cx="196.535" cy="183.566" r="1.5" fill="#E2E2E2"/>
<circle cx="1.53491" cy="14.5662" r="1.5" fill="#E2E2E2"/>
<circle cx="14.5349" cy="14.5662" r="1.5" fill="#E2E2E2"/>
<circle cx="27.5349" cy="14.5662" r="1.5" fill="#E2E2E2"/>
<circle cx="40.5349" cy="14.5662" r="1.5" fill="#E2E2E2"/>
<circle cx="53.5349" cy="14.5662" r="1.5" fill="#E2E2E2"/>
<circle cx="66.5349" cy="14.5662" r="1.5" fill="#E2E2E2"/>
<circle cx="79.5349" cy="14.5662" r="1.5" fill="#E2E2E2"/>
<circle cx="92.5349" cy="14.5662" r="1.5" fill="#E2E2E2"/>
<circle cx="105.535" cy="14.5662" r="1.5" fill="#E2E2E2"/>
<circle cx="118.535" cy="14.5662" r="1.5" fill="#E2E2E2"/>
<circle cx="131.535" cy="14.5662" r="1.5" fill="#E2E2E2"/>
<circle cx="144.535" cy="14.5662" r="1.5" fill="#E2E2E2"/>
<circle cx="157.535" cy="14.5662" r="1.5" fill="#E2E2E2"/>
<circle cx="170.535" cy="14.5662" r="1.5" fill="#E2E2E2"/>
<circle cx="183.535" cy="14.5662" r="1.5" fill="#E2E2E2"/>
<circle cx="196.535" cy="14.5662" r="1.5" fill="#E2E2E2"/>
<circle cx="1.53491" cy="118.566" r="1.5" fill="#E2E2E2"/>
<circle cx="14.5349" cy="118.566" r="1.5" fill="#E2E2E2"/>
<circle cx="27.5349" cy="118.566" r="1.5" fill="#E2E2E2"/>
<circle cx="40.5349" cy="118.566" r="1.5" fill="#E2E2E2"/>
<circle cx="53.5349" cy="118.566" r="1.5" fill="#E2E2E2"/>
<circle cx="66.5349" cy="118.566" r="1.5" fill="#E2E2E2"/>
<circle cx="79.5349" cy="118.566" r="1.5" fill="#E2E2E2"/>
<circle cx="92.5349" cy="118.566" r="1.5" fill="#E2E2E2"/>
<circle cx="105.535" cy="118.566" r="1.5" fill="#E2E2E2"/>
<circle cx="118.535" cy="118.566" r="1.5" fill="#E2E2E2"/>
<circle cx="131.535" cy="118.566" r="1.5" fill="#E2E2E2"/>
<circle cx="144.535" cy="118.566" r="1.5" fill="#E2E2E2"/>
<circle cx="157.535" cy="118.566" r="1.5" fill="#E2E2E2"/>
<circle cx="170.535" cy="118.566" r="1.5" fill="#E2E2E2"/>
<circle cx="183.535" cy="118.566" r="1.5" fill="#E2E2E2"/>
<circle cx="196.535" cy="118.566" r="1.5" fill="#E2E2E2"/>
<circle cx="1.53491" cy="66.5662" r="1.5" fill="#E2E2E2"/>
<circle cx="14.5349" cy="66.5662" r="1.5" fill="#E2E2E2"/>
<circle cx="27.5349" cy="66.5662" r="1.5" fill="#E2E2E2"/>
<circle cx="40.5349" cy="66.5662" r="1.5" fill="#E2E2E2"/>
<circle cx="53.5349" cy="66.5662" r="1.5" fill="#E2E2E2"/>
<circle cx="66.5349" cy="66.5662" r="1.5" fill="#E2E2E2"/>
<circle cx="79.5349" cy="66.5662" r="1.5" fill="#E2E2E2"/>
<circle cx="92.5349" cy="66.5662" r="1.5" fill="#E2E2E2"/>
<circle cx="105.535" cy="66.5662" r="1.5" fill="#E2E2E2"/>
<circle cx="118.535" cy="66.5662" r="1.5" fill="#E2E2E2"/>
<circle cx="131.535" cy="66.5662" r="1.5" fill="#E2E2E2"/>
<circle cx="144.535" cy="66.5662" r="1.5" fill="#E2E2E2"/>
<circle cx="157.535" cy="66.5662" r="1.5" fill="#E2E2E2"/>
<circle cx="170.535" cy="66.5662" r="1.5" fill="#E2E2E2"/>
<circle cx="183.535" cy="66.5662" r="1.5" fill="#E2E2E2"/>
<circle cx="196.535" cy="66.5662" r="1.5" fill="#E2E2E2"/>
<circle cx="1.53491" cy="170.566" r="1.5" fill="#E2E2E2"/>
<circle cx="14.5349" cy="170.566" r="1.5" fill="#E2E2E2"/>
<circle cx="27.5349" cy="170.566" r="1.5" fill="#E2E2E2"/>
<circle cx="40.5349" cy="170.566" r="1.5" fill="#E2E2E2"/>
<circle cx="53.5349" cy="170.566" r="1.5" fill="#E2E2E2"/>
<circle cx="66.5349" cy="170.566" r="1.5" fill="#E2E2E2"/>
<circle cx="79.5349" cy="170.566" r="1.5" fill="#E2E2E2"/>
<circle cx="92.5349" cy="170.566" r="1.5" fill="#E2E2E2"/>
<circle cx="105.535" cy="170.566" r="1.5" fill="#E2E2E2"/>
<circle cx="118.535" cy="170.566" r="1.5" fill="#E2E2E2"/>
<circle cx="131.535" cy="170.566" r="1.5" fill="#E2E2E2"/>
<circle cx="144.535" cy="170.566" r="1.5" fill="#E2E2E2"/>
<circle cx="157.535" cy="170.566" r="1.5" fill="#E2E2E2"/>
<circle cx="170.535" cy="170.566" r="1.5" fill="#E2E2E2"/>
<circle cx="183.535" cy="170.566" r="1.5" fill="#E2E2E2"/>
<circle cx="196.535" cy="170.566" r="1.5" fill="#E2E2E2"/>
<circle cx="1.53491" cy="40.5662" r="1.5" fill="#E2E2E2"/>
<circle cx="14.5349" cy="40.5662" r="1.5" fill="#E2E2E2"/>
<circle cx="27.5349" cy="40.5662" r="1.5" fill="#E2E2E2"/>
<circle cx="40.5349" cy="40.5662" r="1.5" fill="#E2E2E2"/>
<circle cx="53.5349" cy="40.5662" r="1.5" fill="#E2E2E2"/>
<circle cx="66.5349" cy="40.5662" r="1.5" fill="#E2E2E2"/>
<circle cx="79.5349" cy="40.5662" r="1.5" fill="#E2E2E2"/>
<circle cx="92.5349" cy="40.5662" r="1.5" fill="#E2E2E2"/>
<circle cx="105.535" cy="40.5662" r="1.5" fill="#E2E2E2"/>
<circle cx="118.535" cy="40.5662" r="1.5" fill="#E2E2E2"/>
<circle cx="131.535" cy="40.5662" r="1.5" fill="#E2E2E2"/>
<circle cx="144.535" cy="40.5662" r="1.5" fill="#E2E2E2"/>
<circle cx="157.535" cy="40.5662" r="1.5" fill="#E2E2E2"/>
<circle cx="170.535" cy="40.5662" r="1.5" fill="#E2E2E2"/>
<circle cx="183.535" cy="40.5662" r="1.5" fill="#E2E2E2"/>
<circle cx="196.535" cy="40.5662" r="1.5" fill="#E2E2E2"/>
<circle cx="1.53491" cy="144.566" r="1.5" fill="#E2E2E2"/>
<circle cx="14.5349" cy="144.566" r="1.5" fill="#E2E2E2"/>
<circle cx="27.5349" cy="144.566" r="1.5" fill="#E2E2E2"/>
<circle cx="40.5349" cy="144.566" r="1.5" fill="#E2E2E2"/>
<circle cx="53.5349" cy="144.566" r="1.5" fill="#E2E2E2"/>
<circle cx="66.5349" cy="144.566" r="1.5" fill="#E2E2E2"/>
<circle cx="79.5349" cy="144.566" r="1.5" fill="#E2E2E2"/>
<circle cx="92.5349" cy="144.566" r="1.5" fill="#E2E2E2"/>
<circle cx="105.535" cy="144.566" r="1.5" fill="#E2E2E2"/>
<circle cx="118.535" cy="144.566" r="1.5" fill="#E2E2E2"/>
<circle cx="131.535" cy="144.566" r="1.5" fill="#E2E2E2"/>
<circle cx="144.535" cy="144.566" r="1.5" fill="#E2E2E2"/>
<circle cx="157.535" cy="144.566" r="1.5" fill="#E2E2E2"/>
<circle cx="170.535" cy="144.566" r="1.5" fill="#E2E2E2"/>
<circle cx="183.535" cy="144.566" r="1.5" fill="#E2E2E2"/>
<circle cx="196.535" cy="144.566" r="1.5" fill="#E2E2E2"/>
<circle cx="1.53491" cy="92.5662" r="1.5" fill="#E2E2E2"/>
<circle cx="14.5349" cy="92.5662" r="1.5" fill="#E2E2E2"/>
<circle cx="27.5349" cy="92.5662" r="1.5" fill="#E2E2E2"/>
<circle cx="40.5349" cy="92.5662" r="1.5" fill="#E2E2E2"/>
<circle cx="53.5349" cy="92.5662" r="1.5" fill="#E2E2E2"/>
<circle cx="66.5349" cy="92.5662" r="1.5" fill="#E2E2E2"/>
<circle cx="79.5349" cy="92.5662" r="1.5" fill="#E2E2E2"/>
<circle cx="92.5349" cy="92.5662" r="1.5" fill="#E2E2E2"/>
<circle cx="105.535" cy="92.5662" r="1.5" fill="#E2E2E2"/>
<circle cx="118.535" cy="92.5662" r="1.5" fill="#E2E2E2"/>
<circle cx="131.535" cy="92.5662" r="1.5" fill="#E2E2E2"/>
<circle cx="144.535" cy="92.5662" r="1.5" fill="#E2E2E2"/>
<circle cx="157.535" cy="92.5662" r="1.5" fill="#E2E2E2"/>
<circle cx="170.535" cy="92.5662" r="1.5" fill="#E2E2E2"/>
<circle cx="183.535" cy="92.5662" r="1.5" fill="#E2E2E2"/>
<circle cx="196.535" cy="92.5662" r="1.5" fill="#E2E2E2"/>
<circle cx="1.53491" cy="196.566" r="1.5" fill="#E2E2E2"/>
<circle cx="14.5349" cy="196.566" r="1.5" fill="#E2E2E2"/>
<circle cx="27.5349" cy="196.566" r="1.5" fill="#E2E2E2"/>
<circle cx="40.5349" cy="196.566" r="1.5" fill="#E2E2E2"/>
<circle cx="53.5349" cy="196.566" r="1.5" fill="#E2E2E2"/>
<circle cx="66.5349" cy="196.566" r="1.5" fill="#E2E2E2"/>
<circle cx="79.5349" cy="196.566" r="1.5" fill="#E2E2E2"/>
<circle cx="92.5349" cy="196.566" r="1.5" fill="#E2E2E2"/>
<circle cx="105.535" cy="196.566" r="1.5" fill="#E2E2E2"/>
<circle cx="118.535" cy="196.566" r="1.5" fill="#E2E2E2"/>
<circle cx="131.535" cy="196.566" r="1.5" fill="#E2E2E2"/>
<circle cx="144.535" cy="196.566" r="1.5" fill="#E2E2E2"/>
<circle cx="157.535" cy="196.566" r="1.5" fill="#E2E2E2"/>
<circle cx="170.535" cy="196.566" r="1.5" fill="#E2E2E2"/>
<circle cx="183.535" cy="196.566" r="1.5" fill="#E2E2E2"/>
<circle cx="196.535" cy="196.566" r="1.5" fill="#E2E2E2"/>
</svg>
