<svg width="144" height="199" viewBox="0 0 144 199" fill="none" xmlns="http://www.w3.org/2000/svg">
<circle cx="-0.820396" cy="1.97681" r="1.5" fill="#E2E2E2"/>
<circle cx="12.1796" cy="1.97681" r="1.5" fill="#E2E2E2"/>
<circle cx="25.1796" cy="1.97681" r="1.5" fill="#E2E2E2"/>
<circle cx="38.1796" cy="1.97681" r="1.5" fill="#E2E2E2"/>
<circle cx="51.1796" cy="1.97681" r="1.5" fill="#E2E2E2"/>
<circle cx="64.1796" cy="1.97681" r="1.5" fill="#E2E2E2"/>
<circle cx="77.1796" cy="1.97681" r="1.5" fill="#E2E2E2"/>
<circle cx="90.1796" cy="1.97681" r="1.5" fill="#E2E2E2"/>
<circle cx="103.18" cy="1.97681" r="1.5" fill="#E2E2E2"/>
<circle cx="116.18" cy="1.97681" r="1.5" fill="#E2E2E2"/>
<circle cx="129.18" cy="1.97681" r="1.5" fill="#E2E2E2"/>
<circle cx="142.18" cy="1.97681" r="1.5" fill="#E2E2E2"/>
<circle cx="-0.820396" cy="105.977" r="1.5" fill="#E2E2E2"/>
<circle cx="12.1796" cy="105.977" r="1.5" fill="#E2E2E2"/>
<circle cx="25.1796" cy="105.977" r="1.5" fill="#E2E2E2"/>
<circle cx="38.1796" cy="105.977" r="1.5" fill="#E2E2E2"/>
<circle cx="51.1796" cy="105.977" r="1.5" fill="#E2E2E2"/>
<circle cx="64.1796" cy="105.977" r="1.5" fill="#E2E2E2"/>
<circle cx="77.1796" cy="105.977" r="1.5" fill="#E2E2E2"/>
<circle cx="90.1796" cy="105.977" r="1.5" fill="#E2E2E2"/>
<circle cx="103.18" cy="105.977" r="1.5" fill="#E2E2E2"/>
<circle cx="116.18" cy="105.977" r="1.5" fill="#E2E2E2"/>
<circle cx="129.18" cy="105.977" r="1.5" fill="#E2E2E2"/>
<circle cx="142.18" cy="105.977" r="1.5" fill="#E2E2E2"/>
<circle cx="-0.820396" cy="53.9768" r="1.5" fill="#E2E2E2"/>
<circle cx="12.1796" cy="53.9768" r="1.5" fill="#E2E2E2"/>
<circle cx="25.1796" cy="53.9768" r="1.5" fill="#E2E2E2"/>
<circle cx="38.1796" cy="53.9768" r="1.5" fill="#E2E2E2"/>
<circle cx="51.1796" cy="53.9768" r="1.5" fill="#E2E2E2"/>
<circle cx="64.1796" cy="53.9768" r="1.5" fill="#E2E2E2"/>
<circle cx="77.1796" cy="53.9768" r="1.5" fill="#E2E2E2"/>
<circle cx="90.1796" cy="53.9768" r="1.5" fill="#E2E2E2"/>
<circle cx="103.18" cy="53.9768" r="1.5" fill="#E2E2E2"/>
<circle cx="116.18" cy="53.9768" r="1.5" fill="#E2E2E2"/>
<circle cx="129.18" cy="53.9768" r="1.5" fill="#E2E2E2"/>
<circle cx="142.18" cy="53.9768" r="1.5" fill="#E2E2E2"/>
<circle cx="-0.820396" cy="157.977" r="1.5" fill="#E2E2E2"/>
<circle cx="12.1796" cy="157.977" r="1.5" fill="#E2E2E2"/>
<circle cx="25.1796" cy="157.977" r="1.5" fill="#E2E2E2"/>
<circle cx="38.1796" cy="157.977" r="1.5" fill="#E2E2E2"/>
<circle cx="51.1796" cy="157.977" r="1.5" fill="#E2E2E2"/>
<circle cx="64.1796" cy="157.977" r="1.5" fill="#E2E2E2"/>
<circle cx="77.1796" cy="157.977" r="1.5" fill="#E2E2E2"/>
<circle cx="90.1796" cy="157.977" r="1.5" fill="#E2E2E2"/>
<circle cx="103.18" cy="157.977" r="1.5" fill="#E2E2E2"/>
<circle cx="116.18" cy="157.977" r="1.5" fill="#E2E2E2"/>
<circle cx="129.18" cy="157.977" r="1.5" fill="#E2E2E2"/>
<circle cx="142.18" cy="157.977" r="1.5" fill="#E2E2E2"/>
<circle cx="-0.820396" cy="27.9768" r="1.5" fill="#E2E2E2"/>
<circle cx="12.1796" cy="27.9768" r="1.5" fill="#E2E2E2"/>
<circle cx="25.1796" cy="27.9768" r="1.5" fill="#E2E2E2"/>
<circle cx="38.1796" cy="27.9768" r="1.5" fill="#E2E2E2"/>
<circle cx="51.1796" cy="27.9768" r="1.5" fill="#E2E2E2"/>
<circle cx="64.1796" cy="27.9768" r="1.5" fill="#E2E2E2"/>
<circle cx="77.1796" cy="27.9768" r="1.5" fill="#E2E2E2"/>
<circle cx="90.1796" cy="27.9768" r="1.5" fill="#E2E2E2"/>
<circle cx="103.18" cy="27.9768" r="1.5" fill="#E2E2E2"/>
<circle cx="116.18" cy="27.9768" r="1.5" fill="#E2E2E2"/>
<circle cx="129.18" cy="27.9768" r="1.5" fill="#E2E2E2"/>
<circle cx="142.18" cy="27.9768" r="1.5" fill="#E2E2E2"/>
<circle cx="-0.820396" cy="131.977" r="1.5" fill="#E2E2E2"/>
<circle cx="12.1796" cy="131.977" r="1.5" fill="#E2E2E2"/>
<circle cx="25.1796" cy="131.977" r="1.5" fill="#E2E2E2"/>
<circle cx="38.1796" cy="131.977" r="1.5" fill="#E2E2E2"/>
<circle cx="51.1796" cy="131.977" r="1.5" fill="#E2E2E2"/>
<circle cx="64.1796" cy="131.977" r="1.5" fill="#E2E2E2"/>
<circle cx="77.1796" cy="131.977" r="1.5" fill="#E2E2E2"/>
<circle cx="90.1796" cy="131.977" r="1.5" fill="#E2E2E2"/>
<circle cx="103.18" cy="131.977" r="1.5" fill="#E2E2E2"/>
<circle cx="116.18" cy="131.977" r="1.5" fill="#E2E2E2"/>
<circle cx="129.18" cy="131.977" r="1.5" fill="#E2E2E2"/>
<circle cx="142.18" cy="131.977" r="1.5" fill="#E2E2E2"/>
<circle cx="-0.820396" cy="79.9768" r="1.5" fill="#E2E2E2"/>
<circle cx="12.1796" cy="79.9768" r="1.5" fill="#E2E2E2"/>
<circle cx="25.1796" cy="79.9768" r="1.5" fill="#E2E2E2"/>
<circle cx="38.1796" cy="79.9768" r="1.5" fill="#E2E2E2"/>
<circle cx="51.1796" cy="79.9768" r="1.5" fill="#E2E2E2"/>
<circle cx="64.1796" cy="79.9768" r="1.5" fill="#E2E2E2"/>
<circle cx="77.1796" cy="79.9768" r="1.5" fill="#E2E2E2"/>
<circle cx="90.1796" cy="79.9768" r="1.5" fill="#E2E2E2"/>
<circle cx="103.18" cy="79.9768" r="1.5" fill="#E2E2E2"/>
<circle cx="116.18" cy="79.9768" r="1.5" fill="#E2E2E2"/>
<circle cx="129.18" cy="79.9768" r="1.5" fill="#E2E2E2"/>
<circle cx="142.18" cy="79.9768" r="1.5" fill="#E2E2E2"/>
<circle cx="-0.820396" cy="183.977" r="1.5" fill="#E2E2E2"/>
<circle cx="12.1796" cy="183.977" r="1.5" fill="#E2E2E2"/>
<circle cx="25.1796" cy="183.977" r="1.5" fill="#E2E2E2"/>
<circle cx="38.1796" cy="183.977" r="1.5" fill="#E2E2E2"/>
<circle cx="51.1796" cy="183.977" r="1.5" fill="#E2E2E2"/>
<circle cx="64.1796" cy="183.977" r="1.5" fill="#E2E2E2"/>
<circle cx="77.1796" cy="183.977" r="1.5" fill="#E2E2E2"/>
<circle cx="90.1796" cy="183.977" r="1.5" fill="#E2E2E2"/>
<circle cx="103.18" cy="183.977" r="1.5" fill="#E2E2E2"/>
<circle cx="116.18" cy="183.977" r="1.5" fill="#E2E2E2"/>
<circle cx="129.18" cy="183.977" r="1.5" fill="#E2E2E2"/>
<circle cx="142.18" cy="183.977" r="1.5" fill="#E2E2E2"/>
<circle cx="-0.820396" cy="14.9768" r="1.5" fill="#E2E2E2"/>
<circle cx="12.1796" cy="14.9768" r="1.5" fill="#E2E2E2"/>
<circle cx="25.1796" cy="14.9768" r="1.5" fill="#E2E2E2"/>
<circle cx="38.1796" cy="14.9768" r="1.5" fill="#E2E2E2"/>
<circle cx="51.1796" cy="14.9768" r="1.5" fill="#E2E2E2"/>
<circle cx="64.1796" cy="14.9768" r="1.5" fill="#E2E2E2"/>
<circle cx="77.1796" cy="14.9768" r="1.5" fill="#E2E2E2"/>
<circle cx="90.1796" cy="14.9768" r="1.5" fill="#E2E2E2"/>
<circle cx="103.18" cy="14.9768" r="1.5" fill="#E2E2E2"/>
<circle cx="116.18" cy="14.9768" r="1.5" fill="#E2E2E2"/>
<circle cx="129.18" cy="14.9768" r="1.5" fill="#E2E2E2"/>
<circle cx="142.18" cy="14.9768" r="1.5" fill="#E2E2E2"/>
<circle cx="-0.820396" cy="118.977" r="1.5" fill="#E2E2E2"/>
<circle cx="12.1796" cy="118.977" r="1.5" fill="#E2E2E2"/>
<circle cx="25.1796" cy="118.977" r="1.5" fill="#E2E2E2"/>
<circle cx="38.1796" cy="118.977" r="1.5" fill="#E2E2E2"/>
<circle cx="51.1796" cy="118.977" r="1.5" fill="#E2E2E2"/>
<circle cx="64.1796" cy="118.977" r="1.5" fill="#E2E2E2"/>
<circle cx="77.1796" cy="118.977" r="1.5" fill="#E2E2E2"/>
<circle cx="90.1796" cy="118.977" r="1.5" fill="#E2E2E2"/>
<circle cx="103.18" cy="118.977" r="1.5" fill="#E2E2E2"/>
<circle cx="116.18" cy="118.977" r="1.5" fill="#E2E2E2"/>
<circle cx="129.18" cy="118.977" r="1.5" fill="#E2E2E2"/>
<circle cx="142.18" cy="118.977" r="1.5" fill="#E2E2E2"/>
<circle cx="-0.820396" cy="66.9768" r="1.5" fill="#E2E2E2"/>
<circle cx="12.1796" cy="66.9768" r="1.5" fill="#E2E2E2"/>
<circle cx="25.1796" cy="66.9768" r="1.5" fill="#E2E2E2"/>
<circle cx="38.1796" cy="66.9768" r="1.5" fill="#E2E2E2"/>
<circle cx="51.1796" cy="66.9768" r="1.5" fill="#E2E2E2"/>
<circle cx="64.1796" cy="66.9768" r="1.5" fill="#E2E2E2"/>
<circle cx="77.1796" cy="66.9768" r="1.5" fill="#E2E2E2"/>
<circle cx="90.1796" cy="66.9768" r="1.5" fill="#E2E2E2"/>
<circle cx="103.18" cy="66.9768" r="1.5" fill="#E2E2E2"/>
<circle cx="116.18" cy="66.9768" r="1.5" fill="#E2E2E2"/>
<circle cx="129.18" cy="66.9768" r="1.5" fill="#E2E2E2"/>
<circle cx="142.18" cy="66.9768" r="1.5" fill="#E2E2E2"/>
<circle cx="-0.820396" cy="170.977" r="1.5" fill="#E2E2E2"/>
<circle cx="12.1796" cy="170.977" r="1.5" fill="#E2E2E2"/>
<circle cx="25.1796" cy="170.977" r="1.5" fill="#E2E2E2"/>
<circle cx="38.1796" cy="170.977" r="1.5" fill="#E2E2E2"/>
<circle cx="51.1796" cy="170.977" r="1.5" fill="#E2E2E2"/>
<circle cx="64.1796" cy="170.977" r="1.5" fill="#E2E2E2"/>
<circle cx="77.1796" cy="170.977" r="1.5" fill="#E2E2E2"/>
<circle cx="90.1796" cy="170.977" r="1.5" fill="#E2E2E2"/>
<circle cx="103.18" cy="170.977" r="1.5" fill="#E2E2E2"/>
<circle cx="116.18" cy="170.977" r="1.5" fill="#E2E2E2"/>
<circle cx="129.18" cy="170.977" r="1.5" fill="#E2E2E2"/>
<circle cx="142.18" cy="170.977" r="1.5" fill="#E2E2E2"/>
<circle cx="-0.820396" cy="40.9768" r="1.5" fill="#E2E2E2"/>
<circle cx="12.1796" cy="40.9768" r="1.5" fill="#E2E2E2"/>
<circle cx="25.1796" cy="40.9768" r="1.5" fill="#E2E2E2"/>
<circle cx="38.1796" cy="40.9768" r="1.5" fill="#E2E2E2"/>
<circle cx="51.1796" cy="40.9768" r="1.5" fill="#E2E2E2"/>
<circle cx="64.1796" cy="40.9768" r="1.5" fill="#E2E2E2"/>
<circle cx="77.1796" cy="40.9768" r="1.5" fill="#E2E2E2"/>
<circle cx="90.1796" cy="40.9768" r="1.5" fill="#E2E2E2"/>
<circle cx="103.18" cy="40.9768" r="1.5" fill="#E2E2E2"/>
<circle cx="116.18" cy="40.9768" r="1.5" fill="#E2E2E2"/>
<circle cx="129.18" cy="40.9768" r="1.5" fill="#E2E2E2"/>
<circle cx="142.18" cy="40.9768" r="1.5" fill="#E2E2E2"/>
<circle cx="-0.820396" cy="144.977" r="1.5" fill="#E2E2E2"/>
<circle cx="12.1796" cy="144.977" r="1.5" fill="#E2E2E2"/>
<circle cx="25.1796" cy="144.977" r="1.5" fill="#E2E2E2"/>
<circle cx="38.1796" cy="144.977" r="1.5" fill="#E2E2E2"/>
<circle cx="51.1796" cy="144.977" r="1.5" fill="#E2E2E2"/>
<circle cx="64.1796" cy="144.977" r="1.5" fill="#E2E2E2"/>
<circle cx="77.1796" cy="144.977" r="1.5" fill="#E2E2E2"/>
<circle cx="90.1796" cy="144.977" r="1.5" fill="#E2E2E2"/>
<circle cx="103.18" cy="144.977" r="1.5" fill="#E2E2E2"/>
<circle cx="116.18" cy="144.977" r="1.5" fill="#E2E2E2"/>
<circle cx="129.18" cy="144.977" r="1.5" fill="#E2E2E2"/>
<circle cx="142.18" cy="144.977" r="1.5" fill="#E2E2E2"/>
<circle cx="-0.820396" cy="92.9768" r="1.5" fill="#E2E2E2"/>
<circle cx="12.1796" cy="92.9768" r="1.5" fill="#E2E2E2"/>
<circle cx="25.1796" cy="92.9768" r="1.5" fill="#E2E2E2"/>
<circle cx="38.1796" cy="92.9768" r="1.5" fill="#E2E2E2"/>
<circle cx="51.1796" cy="92.9768" r="1.5" fill="#E2E2E2"/>
<circle cx="64.1796" cy="92.9768" r="1.5" fill="#E2E2E2"/>
<circle cx="77.1796" cy="92.9768" r="1.5" fill="#E2E2E2"/>
<circle cx="90.1796" cy="92.9768" r="1.5" fill="#E2E2E2"/>
<circle cx="103.18" cy="92.9768" r="1.5" fill="#E2E2E2"/>
<circle cx="116.18" cy="92.9768" r="1.5" fill="#E2E2E2"/>
<circle cx="129.18" cy="92.9768" r="1.5" fill="#E2E2E2"/>
<circle cx="142.18" cy="92.9768" r="1.5" fill="#E2E2E2"/>
<circle cx="-0.820396" cy="196.977" r="1.5" fill="#E2E2E2"/>
<circle cx="12.1796" cy="196.977" r="1.5" fill="#E2E2E2"/>
<circle cx="25.1796" cy="196.977" r="1.5" fill="#E2E2E2"/>
<circle cx="38.1796" cy="196.977" r="1.5" fill="#E2E2E2"/>
<circle cx="51.1796" cy="196.977" r="1.5" fill="#E2E2E2"/>
<circle cx="64.1796" cy="196.977" r="1.5" fill="#E2E2E2"/>
<circle cx="77.1796" cy="196.977" r="1.5" fill="#E2E2E2"/>
<circle cx="90.1796" cy="196.977" r="1.5" fill="#E2E2E2"/>
<circle cx="103.18" cy="196.977" r="1.5" fill="#E2E2E2"/>
<circle cx="116.18" cy="196.977" r="1.5" fill="#E2E2E2"/>
<circle cx="129.18" cy="196.977" r="1.5" fill="#E2E2E2"/>
<circle cx="142.18" cy="196.977" r="1.5" fill="#E2E2E2"/>
</svg>
