<svg width="91" height="45" viewBox="0 0 91 45" fill="none" xmlns="http://www.w3.org/2000/svg">
<path d="M76.1771 26.7312L80.769 31.333L85.3527 26.7393L80.7608 22.1375L76.1771 26.7312Z" fill="#2B7CC0"/>
<path d="M71.5891 31.3291L76.1809 35.9309L80.7646 31.3373L76.1728 26.7355L71.5891 31.3291Z" fill="#1A4F91"/>
<path d="M66.9976 35.9267L71.5894 40.5285L76.1731 35.9349L71.5813 31.3331L66.9976 35.9267Z" fill="#000B4B"/>
<path d="M62.413 40.5235L62.4174 40.5279H71.5862L66.9981 35.9299L62.413 40.5235Z" fill="#000B4B"/>
<path d="M71.5917 12.9445L71.5873 12.9401H62.42L67.008 17.5381L71.5917 12.9445Z" fill="#3DADF2"/>
<path d="M71.5891 22.1332L76.181 26.735L80.7646 22.1414L76.1728 17.5396L71.5891 22.1332Z" fill="#3290D4"/>
<path d="M67.0012 17.5353L71.593 22.1371L76.1767 17.5435L71.5849 12.9417L67.0012 17.5353Z" fill="#3DADF2"/>
<path d="M4.611 22.135L0.0191574 26.7368L4.60284 31.3305L9.19468 26.7287L4.611 22.135Z" fill="#000B4B"/>
<path d="M9.19795 26.734L4.60611 31.3358L9.18979 35.9294L13.7816 31.3276L9.19795 26.734Z" fill="#000B4B"/>
<path d="M13.7899 31.3312L9.19807 35.933L13.7817 40.5266L18.3736 35.9248L13.7899 31.3312Z" fill="#000B4B"/>
<path d="M22.9576 40.5235L22.9533 40.5279H13.7859L18.3739 35.9299L22.9576 40.5235Z" fill="#000B4B"/>
<path d="M13.7831 12.9445L13.7874 12.9401H22.9548L18.3668 17.5381L13.7831 12.9445Z" fill="#000B4B"/>
<path d="M9.19795 17.5382L4.60611 22.14L9.18979 26.7336L13.7816 22.1318L9.19795 17.5382Z" fill="#000B4B"/>
<path d="M13.7859 12.9402L9.19408 17.542L13.7778 22.1357L18.3696 17.5339L13.7859 12.9402Z" fill="#000B4B"/>
<path d="M84.5783 9.82999L80.2096 5.45181C79.9643 5.20601 79.9643 4.80838 80.2096 4.56258L84.5783 0.184398C84.8236 -0.0614049 85.2204 -0.0614049 85.4656 0.184398L89.8343 4.56258C90.0796 4.80838 90.0796 5.20601 89.8343 5.45181L85.4656 9.82999C85.2204 10.0758 84.8236 10.0758 84.5783 9.82999Z" fill="#000B4B"/>
<path d="M78.0426 11.7097L76.3344 9.99771C76.2391 9.90228 76.2391 9.74613 76.3344 9.6507L78.0426 7.93875C78.1378 7.84332 78.2936 7.84332 78.3889 7.93875L80.0971 9.6507C80.1923 9.74613 80.1923 9.90228 80.0971 9.99771L78.3889 11.7097C78.2936 11.8051 78.1378 11.8051 78.0426 11.7097Z" fill="#000B4B"/>
<path d="M84.3908 18.2668L82.1891 16.0604C82.0665 15.9375 82.0665 15.7365 82.1891 15.6121L84.3908 13.4057C84.5134 13.2828 84.714 13.2828 84.8381 13.4057L87.0397 15.6121C87.1624 15.735 87.1624 15.936 87.0397 16.0604L84.8381 18.2668C84.714 18.3897 84.5149 18.3897 84.3908 18.2668Z" fill="#3DADF2"/>
<path d="M43.9629 6.13716L29.3087 45H23.7382L38.2207 6.13716H43.9629Z" fill="#000B4B"/>
<path d="M59.0933 20.1364C57.7645 19.6636 56.1789 19.3209 54.6798 19.3209C49.8379 19.3209 48.2523 21.3394 48.2523 26.8352C48.2523 32.4178 50.5232 34.6084 54.5514 34.6084C56.2654 34.6084 57.8943 34.2643 59.2649 33.6208L59.7367 38.8174C58.1944 39.7616 55.8802 40.3197 53.0957 40.3197C45.4259 40.3197 41.3544 35.94 41.3544 26.8352C41.3544 18.2032 44.9108 13.3508 53.2241 13.3508C55.4099 13.3508 57.851 13.8236 59.4799 14.467L59.0933 20.1364Z" fill="#000B4B"/>
</svg>
