<svg width="628" height="415" viewBox="0 0 628 415" fill="none" xmlns="http://www.w3.org/2000/svg">
<g opacity="0.39">
<circle cx="2.2984" cy="10.9219" r="1.5" fill="#56CCF2"/>
<circle cx="15.2984" cy="10.9219" r="1.5" fill="#56CCF2"/>
<circle cx="28.2984" cy="10.9219" r="1.5" fill="#56CCF2"/>
<circle cx="41.2984" cy="10.9219" r="1.5" fill="#56CCF2"/>
<circle cx="54.2984" cy="10.9219" r="1.5" fill="#56CCF2"/>
<circle cx="67.2984" cy="10.9219" r="1.5" fill="#56CCF2"/>
<circle cx="80.2984" cy="10.9219" r="1.5" fill="#56CCF2"/>
<circle cx="93.2984" cy="10.9219" r="1.5" fill="#56CCF2"/>
<circle cx="106.298" cy="10.9219" r="1.5" fill="#56CCF2"/>
<circle cx="119.298" cy="10.9219" r="1.5" fill="#56CCF2"/>
<circle cx="132.298" cy="10.9219" r="1.5" fill="#56CCF2"/>
<circle cx="145.298" cy="10.9219" r="1.5" fill="#56CCF2"/>
<circle cx="158.298" cy="10.9219" r="1.5" fill="#56CCF2"/>
<circle cx="171.298" cy="10.9219" r="1.5" fill="#56CCF2"/>
<circle cx="184.298" cy="10.9219" r="1.5" fill="#56CCF2"/>
<circle cx="197.298" cy="10.9219" r="1.5" fill="#56CCF2"/>
<circle cx="2.2984" cy="114.922" r="1.5" fill="#56CCF2"/>
<circle cx="15.2984" cy="114.922" r="1.5" fill="#56CCF2"/>
<circle cx="28.2984" cy="114.922" r="1.5" fill="#56CCF2"/>
<circle cx="41.2984" cy="114.922" r="1.5" fill="#56CCF2"/>
<circle cx="54.2984" cy="114.922" r="1.5" fill="#56CCF2"/>
<circle cx="67.2984" cy="114.922" r="1.5" fill="#56CCF2"/>
<circle cx="80.2984" cy="114.922" r="1.5" fill="#56CCF2"/>
<circle cx="93.2984" cy="114.922" r="1.5" fill="#56CCF2"/>
<circle cx="106.298" cy="114.922" r="1.5" fill="#56CCF2"/>
<circle cx="119.298" cy="114.922" r="1.5" fill="#56CCF2"/>
<circle cx="132.298" cy="114.922" r="1.5" fill="#56CCF2"/>
<circle cx="145.298" cy="114.922" r="1.5" fill="#56CCF2"/>
<circle cx="158.298" cy="114.922" r="1.5" fill="#56CCF2"/>
<circle cx="171.298" cy="114.922" r="1.5" fill="#56CCF2"/>
<circle cx="184.298" cy="114.922" r="1.5" fill="#56CCF2"/>
<circle cx="197.298" cy="114.922" r="1.5" fill="#56CCF2"/>
<circle cx="2.2984" cy="62.9219" r="1.5" fill="#56CCF2"/>
<circle cx="15.2984" cy="62.9219" r="1.5" fill="#56CCF2"/>
<circle cx="28.2984" cy="62.9219" r="1.5" fill="#56CCF2"/>
<circle cx="41.2984" cy="62.9219" r="1.5" fill="#56CCF2"/>
<circle cx="54.2984" cy="62.9219" r="1.5" fill="#56CCF2"/>
<circle cx="67.2984" cy="62.9219" r="1.5" fill="#56CCF2"/>
<circle cx="80.2984" cy="62.9219" r="1.5" fill="#56CCF2"/>
<circle cx="93.2984" cy="62.9219" r="1.5" fill="#56CCF2"/>
<circle cx="106.298" cy="62.9219" r="1.5" fill="#56CCF2"/>
<circle cx="119.298" cy="62.9219" r="1.5" fill="#56CCF2"/>
<circle cx="132.298" cy="62.9219" r="1.5" fill="#56CCF2"/>
<circle cx="145.298" cy="62.9219" r="1.5" fill="#56CCF2"/>
<circle cx="158.298" cy="62.9219" r="1.5" fill="#56CCF2"/>
<circle cx="171.298" cy="62.9219" r="1.5" fill="#56CCF2"/>
<circle cx="184.298" cy="62.9219" r="1.5" fill="#56CCF2"/>
<circle cx="197.298" cy="62.9219" r="1.5" fill="#56CCF2"/>
<circle cx="2.2984" cy="166.922" r="1.5" fill="#56CCF2"/>
<circle cx="15.2984" cy="166.922" r="1.5" fill="#56CCF2"/>
<circle cx="28.2984" cy="166.922" r="1.5" fill="#56CCF2"/>
<circle cx="41.2984" cy="166.922" r="1.5" fill="#56CCF2"/>
<circle cx="54.2984" cy="166.922" r="1.5" fill="#56CCF2"/>
<circle cx="67.2984" cy="166.922" r="1.5" fill="#56CCF2"/>
<circle cx="80.2984" cy="166.922" r="1.5" fill="#56CCF2"/>
<circle cx="93.2984" cy="166.922" r="1.5" fill="#56CCF2"/>
<circle cx="106.298" cy="166.922" r="1.5" fill="#56CCF2"/>
<circle cx="119.298" cy="166.922" r="1.5" fill="#56CCF2"/>
<circle cx="132.298" cy="166.922" r="1.5" fill="#56CCF2"/>
<circle cx="145.298" cy="166.922" r="1.5" fill="#56CCF2"/>
<circle cx="158.298" cy="166.922" r="1.5" fill="#56CCF2"/>
<circle cx="171.298" cy="166.922" r="1.5" fill="#56CCF2"/>
<circle cx="184.298" cy="166.922" r="1.5" fill="#56CCF2"/>
<circle cx="197.298" cy="166.922" r="1.5" fill="#56CCF2"/>
<circle cx="2.2984" cy="36.9219" r="1.5" fill="#56CCF2"/>
<circle cx="15.2984" cy="36.9219" r="1.5" fill="#56CCF2"/>
<circle cx="28.2984" cy="36.9219" r="1.5" fill="#56CCF2"/>
<circle cx="41.2984" cy="36.9219" r="1.5" fill="#56CCF2"/>
<circle cx="54.2984" cy="36.9219" r="1.5" fill="#56CCF2"/>
<circle cx="67.2984" cy="36.9219" r="1.5" fill="#56CCF2"/>
<circle cx="80.2984" cy="36.9219" r="1.5" fill="#56CCF2"/>
<circle cx="93.2984" cy="36.9219" r="1.5" fill="#56CCF2"/>
<circle cx="106.298" cy="36.9219" r="1.5" fill="#56CCF2"/>
<circle cx="119.298" cy="36.9219" r="1.5" fill="#56CCF2"/>
<circle cx="132.298" cy="36.9219" r="1.5" fill="#56CCF2"/>
<circle cx="145.298" cy="36.9219" r="1.5" fill="#56CCF2"/>
<circle cx="158.298" cy="36.9219" r="1.5" fill="#56CCF2"/>
<circle cx="171.298" cy="36.9219" r="1.5" fill="#56CCF2"/>
<circle cx="184.298" cy="36.9219" r="1.5" fill="#56CCF2"/>
<circle cx="197.298" cy="36.9219" r="1.5" fill="#56CCF2"/>
<circle cx="2.2984" cy="140.922" r="1.5" fill="#56CCF2"/>
<circle cx="15.2984" cy="140.922" r="1.5" fill="#56CCF2"/>
<circle cx="28.2984" cy="140.922" r="1.5" fill="#56CCF2"/>
<circle cx="41.2984" cy="140.922" r="1.5" fill="#56CCF2"/>
<circle cx="54.2984" cy="140.922" r="1.5" fill="#56CCF2"/>
<circle cx="67.2984" cy="140.922" r="1.5" fill="#56CCF2"/>
<circle cx="80.2984" cy="140.922" r="1.5" fill="#56CCF2"/>
<circle cx="93.2984" cy="140.922" r="1.5" fill="#56CCF2"/>
<circle cx="106.298" cy="140.922" r="1.5" fill="#56CCF2"/>
<circle cx="119.298" cy="140.922" r="1.5" fill="#56CCF2"/>
<circle cx="132.298" cy="140.922" r="1.5" fill="#56CCF2"/>
<circle cx="145.298" cy="140.922" r="1.5" fill="#56CCF2"/>
<circle cx="158.298" cy="140.922" r="1.5" fill="#56CCF2"/>
<circle cx="171.298" cy="140.922" r="1.5" fill="#56CCF2"/>
<circle cx="184.298" cy="140.922" r="1.5" fill="#56CCF2"/>
<circle cx="197.298" cy="140.922" r="1.5" fill="#56CCF2"/>
<circle cx="2.2984" cy="88.9219" r="1.5" fill="#56CCF2"/>
<circle cx="15.2984" cy="88.9219" r="1.5" fill="#56CCF2"/>
<circle cx="28.2984" cy="88.9219" r="1.5" fill="#56CCF2"/>
<circle cx="41.2984" cy="88.9219" r="1.5" fill="#56CCF2"/>
<circle cx="54.2984" cy="88.9219" r="1.5" fill="#56CCF2"/>
<circle cx="67.2984" cy="88.9219" r="1.5" fill="#56CCF2"/>
<circle cx="80.2984" cy="88.9219" r="1.5" fill="#56CCF2"/>
<circle cx="93.2984" cy="88.9219" r="1.5" fill="#56CCF2"/>
<circle cx="106.298" cy="88.9219" r="1.5" fill="#56CCF2"/>
<circle cx="119.298" cy="88.9219" r="1.5" fill="#56CCF2"/>
<circle cx="132.298" cy="88.9219" r="1.5" fill="#56CCF2"/>
<circle cx="145.298" cy="88.9219" r="1.5" fill="#56CCF2"/>
<circle cx="158.298" cy="88.9219" r="1.5" fill="#56CCF2"/>
<circle cx="171.298" cy="88.9219" r="1.5" fill="#56CCF2"/>
<circle cx="184.298" cy="88.9219" r="1.5" fill="#56CCF2"/>
<circle cx="197.298" cy="88.9219" r="1.5" fill="#56CCF2"/>
<circle cx="2.2984" cy="192.922" r="1.5" fill="#56CCF2"/>
<circle cx="15.2984" cy="192.922" r="1.5" fill="#56CCF2"/>
<circle cx="28.2984" cy="192.922" r="1.5" fill="#56CCF2"/>
<circle cx="41.2984" cy="192.922" r="1.5" fill="#56CCF2"/>
<circle cx="54.2984" cy="192.922" r="1.5" fill="#56CCF2"/>
<circle cx="67.2984" cy="192.922" r="1.5" fill="#56CCF2"/>
<circle cx="80.2984" cy="192.922" r="1.5" fill="#56CCF2"/>
<circle cx="93.2984" cy="192.922" r="1.5" fill="#56CCF2"/>
<circle cx="106.298" cy="192.922" r="1.5" fill="#56CCF2"/>
<circle cx="119.298" cy="192.922" r="1.5" fill="#56CCF2"/>
<circle cx="132.298" cy="192.922" r="1.5" fill="#56CCF2"/>
<circle cx="145.298" cy="192.922" r="1.5" fill="#56CCF2"/>
<circle cx="158.298" cy="192.922" r="1.5" fill="#56CCF2"/>
<circle cx="171.298" cy="192.922" r="1.5" fill="#56CCF2"/>
<circle cx="184.298" cy="192.922" r="1.5" fill="#56CCF2"/>
<circle cx="197.298" cy="192.922" r="1.5" fill="#56CCF2"/>
<circle cx="2.2984" cy="23.9219" r="1.5" fill="#56CCF2"/>
<circle cx="15.2984" cy="23.9219" r="1.5" fill="#56CCF2"/>
<circle cx="28.2984" cy="23.9219" r="1.5" fill="#56CCF2"/>
<circle cx="41.2984" cy="23.9219" r="1.5" fill="#56CCF2"/>
<circle cx="54.2984" cy="23.9219" r="1.5" fill="#56CCF2"/>
<circle cx="67.2984" cy="23.9219" r="1.5" fill="#56CCF2"/>
<circle cx="80.2984" cy="23.9219" r="1.5" fill="#56CCF2"/>
<circle cx="93.2984" cy="23.9219" r="1.5" fill="#56CCF2"/>
<circle cx="106.298" cy="23.9219" r="1.5" fill="#56CCF2"/>
<circle cx="119.298" cy="23.9219" r="1.5" fill="#56CCF2"/>
<circle cx="132.298" cy="23.9219" r="1.5" fill="#56CCF2"/>
<circle cx="145.298" cy="23.9219" r="1.5" fill="#56CCF2"/>
<circle cx="158.298" cy="23.9219" r="1.5" fill="#56CCF2"/>
<circle cx="171.298" cy="23.9219" r="1.5" fill="#56CCF2"/>
<circle cx="184.298" cy="23.9219" r="1.5" fill="#56CCF2"/>
<circle cx="197.298" cy="23.9219" r="1.5" fill="#56CCF2"/>
<circle cx="2.2984" cy="127.922" r="1.5" fill="#56CCF2"/>
<circle cx="15.2984" cy="127.922" r="1.5" fill="#56CCF2"/>
<circle cx="28.2984" cy="127.922" r="1.5" fill="#56CCF2"/>
<circle cx="41.2984" cy="127.922" r="1.5" fill="#56CCF2"/>
<circle cx="54.2984" cy="127.922" r="1.5" fill="#56CCF2"/>
<circle cx="67.2984" cy="127.922" r="1.5" fill="#56CCF2"/>
<circle cx="80.2984" cy="127.922" r="1.5" fill="#56CCF2"/>
<circle cx="93.2984" cy="127.922" r="1.5" fill="#56CCF2"/>
<circle cx="106.298" cy="127.922" r="1.5" fill="#56CCF2"/>
<circle cx="119.298" cy="127.922" r="1.5" fill="#56CCF2"/>
<circle cx="132.298" cy="127.922" r="1.5" fill="#56CCF2"/>
<circle cx="145.298" cy="127.922" r="1.5" fill="#56CCF2"/>
<circle cx="158.298" cy="127.922" r="1.5" fill="#56CCF2"/>
<circle cx="171.298" cy="127.922" r="1.5" fill="#56CCF2"/>
<circle cx="184.298" cy="127.922" r="1.5" fill="#56CCF2"/>
<circle cx="197.298" cy="127.922" r="1.5" fill="#56CCF2"/>
<circle cx="2.2984" cy="75.9219" r="1.5" fill="#56CCF2"/>
<circle cx="15.2984" cy="75.9219" r="1.5" fill="#56CCF2"/>
<circle cx="28.2984" cy="75.9219" r="1.5" fill="#56CCF2"/>
<circle cx="41.2984" cy="75.9219" r="1.5" fill="#56CCF2"/>
<circle cx="54.2984" cy="75.9219" r="1.5" fill="#56CCF2"/>
<circle cx="67.2984" cy="75.9219" r="1.5" fill="#56CCF2"/>
<circle cx="80.2984" cy="75.9219" r="1.5" fill="#56CCF2"/>
<circle cx="93.2984" cy="75.9219" r="1.5" fill="#56CCF2"/>
<circle cx="106.298" cy="75.9219" r="1.5" fill="#56CCF2"/>
<circle cx="119.298" cy="75.9219" r="1.5" fill="#56CCF2"/>
<circle cx="132.298" cy="75.9219" r="1.5" fill="#56CCF2"/>
<circle cx="145.298" cy="75.9219" r="1.5" fill="#56CCF2"/>
<circle cx="158.298" cy="75.9219" r="1.5" fill="#56CCF2"/>
<circle cx="171.298" cy="75.9219" r="1.5" fill="#56CCF2"/>
<circle cx="184.298" cy="75.9219" r="1.5" fill="#56CCF2"/>
<circle cx="197.298" cy="75.9219" r="1.5" fill="#56CCF2"/>
<circle cx="2.2984" cy="179.922" r="1.5" fill="#56CCF2"/>
<circle cx="15.2984" cy="179.922" r="1.5" fill="#56CCF2"/>
<circle cx="28.2984" cy="179.922" r="1.5" fill="#56CCF2"/>
<circle cx="41.2984" cy="179.922" r="1.5" fill="#56CCF2"/>
<circle cx="54.2984" cy="179.922" r="1.5" fill="#56CCF2"/>
<circle cx="67.2984" cy="179.922" r="1.5" fill="#56CCF2"/>
<circle cx="80.2984" cy="179.922" r="1.5" fill="#56CCF2"/>
<circle cx="93.2984" cy="179.922" r="1.5" fill="#56CCF2"/>
<circle cx="106.298" cy="179.922" r="1.5" fill="#56CCF2"/>
<circle cx="119.298" cy="179.922" r="1.5" fill="#56CCF2"/>
<circle cx="132.298" cy="179.922" r="1.5" fill="#56CCF2"/>
<circle cx="145.298" cy="179.922" r="1.5" fill="#56CCF2"/>
<circle cx="158.298" cy="179.922" r="1.5" fill="#56CCF2"/>
<circle cx="171.298" cy="179.922" r="1.5" fill="#56CCF2"/>
<circle cx="184.298" cy="179.922" r="1.5" fill="#56CCF2"/>
<circle cx="197.298" cy="179.922" r="1.5" fill="#56CCF2"/>
<circle cx="2.2984" cy="49.9219" r="1.5" fill="#56CCF2"/>
<circle cx="15.2984" cy="49.9219" r="1.5" fill="#56CCF2"/>
<circle cx="28.2984" cy="49.9219" r="1.5" fill="#56CCF2"/>
<circle cx="41.2984" cy="49.9219" r="1.5" fill="#56CCF2"/>
<circle cx="54.2984" cy="49.9219" r="1.5" fill="#56CCF2"/>
<circle cx="67.2984" cy="49.9219" r="1.5" fill="#56CCF2"/>
<circle cx="80.2984" cy="49.9219" r="1.5" fill="#56CCF2"/>
<circle cx="93.2984" cy="49.9219" r="1.5" fill="#56CCF2"/>
<circle cx="106.298" cy="49.9219" r="1.5" fill="#56CCF2"/>
<circle cx="119.298" cy="49.9219" r="1.5" fill="#56CCF2"/>
<circle cx="132.298" cy="49.9219" r="1.5" fill="#56CCF2"/>
<circle cx="145.298" cy="49.9219" r="1.5" fill="#56CCF2"/>
<circle cx="158.298" cy="49.9219" r="1.5" fill="#56CCF2"/>
<circle cx="171.298" cy="49.9219" r="1.5" fill="#56CCF2"/>
<circle cx="184.298" cy="49.9219" r="1.5" fill="#56CCF2"/>
<circle cx="197.298" cy="49.9219" r="1.5" fill="#56CCF2"/>
<circle cx="2.2984" cy="153.922" r="1.5" fill="#56CCF2"/>
<circle cx="15.2984" cy="153.922" r="1.5" fill="#56CCF2"/>
<circle cx="28.2984" cy="153.922" r="1.5" fill="#56CCF2"/>
<circle cx="41.2984" cy="153.922" r="1.5" fill="#56CCF2"/>
<circle cx="54.2984" cy="153.922" r="1.5" fill="#56CCF2"/>
<circle cx="67.2984" cy="153.922" r="1.5" fill="#56CCF2"/>
<circle cx="80.2984" cy="153.922" r="1.5" fill="#56CCF2"/>
<circle cx="93.2984" cy="153.922" r="1.5" fill="#56CCF2"/>
<circle cx="106.298" cy="153.922" r="1.5" fill="#56CCF2"/>
<circle cx="119.298" cy="153.922" r="1.5" fill="#56CCF2"/>
<circle cx="132.298" cy="153.922" r="1.5" fill="#56CCF2"/>
<circle cx="145.298" cy="153.922" r="1.5" fill="#56CCF2"/>
<circle cx="158.298" cy="153.922" r="1.5" fill="#56CCF2"/>
<circle cx="171.298" cy="153.922" r="1.5" fill="#56CCF2"/>
<circle cx="184.298" cy="153.922" r="1.5" fill="#56CCF2"/>
<circle cx="197.298" cy="153.922" r="1.5" fill="#56CCF2"/>
<circle cx="2.2984" cy="101.922" r="1.5" fill="#56CCF2"/>
<circle cx="15.2984" cy="101.922" r="1.5" fill="#56CCF2"/>
<circle cx="28.2984" cy="101.922" r="1.5" fill="#56CCF2"/>
<circle cx="41.2984" cy="101.922" r="1.5" fill="#56CCF2"/>
<circle cx="54.2984" cy="101.922" r="1.5" fill="#56CCF2"/>
<circle cx="67.2984" cy="101.922" r="1.5" fill="#56CCF2"/>
<circle cx="80.2984" cy="101.922" r="1.5" fill="#56CCF2"/>
<circle cx="93.2984" cy="101.922" r="1.5" fill="#56CCF2"/>
<circle cx="106.298" cy="101.922" r="1.5" fill="#56CCF2"/>
<circle cx="119.298" cy="101.922" r="1.5" fill="#56CCF2"/>
<circle cx="132.298" cy="101.922" r="1.5" fill="#56CCF2"/>
<circle cx="145.298" cy="101.922" r="1.5" fill="#56CCF2"/>
<circle cx="158.298" cy="101.922" r="1.5" fill="#56CCF2"/>
<circle cx="171.298" cy="101.922" r="1.5" fill="#56CCF2"/>
<circle cx="184.298" cy="101.922" r="1.5" fill="#56CCF2"/>
<circle cx="197.298" cy="101.922" r="1.5" fill="#56CCF2"/>
<circle cx="2.2984" cy="205.922" r="1.5" fill="#56CCF2"/>
<circle cx="15.2984" cy="205.922" r="1.5" fill="#56CCF2"/>
<circle cx="28.2984" cy="205.922" r="1.5" fill="#56CCF2"/>
<circle cx="41.2984" cy="205.922" r="1.5" fill="#56CCF2"/>
<circle cx="54.2984" cy="205.922" r="1.5" fill="#56CCF2"/>
<circle cx="67.2984" cy="205.922" r="1.5" fill="#56CCF2"/>
<circle cx="80.2984" cy="205.922" r="1.5" fill="#56CCF2"/>
<circle cx="93.2984" cy="205.922" r="1.5" fill="#56CCF2"/>
<circle cx="106.298" cy="205.922" r="1.5" fill="#56CCF2"/>
<circle cx="119.298" cy="205.922" r="1.5" fill="#56CCF2"/>
<circle cx="132.298" cy="205.922" r="1.5" fill="#56CCF2"/>
<circle cx="145.298" cy="205.922" r="1.5" fill="#56CCF2"/>
<circle cx="158.298" cy="205.922" r="1.5" fill="#56CCF2"/>
<circle cx="171.298" cy="205.922" r="1.5" fill="#56CCF2"/>
<circle cx="184.298" cy="205.922" r="1.5" fill="#56CCF2"/>
<circle cx="197.298" cy="205.922" r="1.5" fill="#56CCF2"/>
</g>
<circle opacity="0.06" cx="328.443" cy="194.944" r="194.513" fill="#3DADF2"/>
<path d="M627.472 351.505C627.472 351.505 617.354 349.036 616.826 330.085C616.267 309.636 619.306 285.769 607.33 283.838C595.354 281.907 588.706 296.5 588.854 313.541C588.991 328.46 595.005 360.853 627.43 367.205L627.472 351.505Z" fill="#3DADF2"/>
<path opacity="0.2" d="M627.472 351.505C627.472 351.505 617.354 349.036 616.826 330.085C616.267 309.636 619.306 285.769 607.33 283.838C595.354 281.907 588.706 296.5 588.854 313.541C588.991 328.46 595.005 360.853 627.43 367.205L627.472 351.505Z" fill="black"/>
<path d="M627.472 365.264H627.377C620.086 363.934 614.146 359.914 609.725 353.33C596.62 333.778 600.745 297.27 602.107 290.897C602.137 290.761 602.219 290.643 602.335 290.566C602.451 290.489 602.592 290.46 602.729 290.486C602.866 290.518 602.984 290.602 603.061 290.72C603.138 290.838 603.166 290.98 603.141 291.119C601.801 297.45 597.696 333.493 610.6 352.739C612.479 355.724 614.957 358.286 617.878 360.262C620.799 362.238 624.098 363.586 627.567 364.219C627.636 364.232 627.702 364.258 627.76 364.296C627.819 364.335 627.869 364.384 627.909 364.442C627.948 364.5 627.975 364.565 627.989 364.634C628.003 364.702 628.003 364.773 627.989 364.842C627.967 364.962 627.903 365.07 627.808 365.147C627.713 365.225 627.594 365.266 627.472 365.264Z" fill="white"/>
<path d="M627.472 413.896C617.016 415.309 600.039 415.288 590.236 407.565C580.434 399.841 582.481 393.194 586.248 390.419C590.015 387.644 593.286 384.478 586.807 378.316C580.328 372.154 569.925 362.257 566.548 347.411C563.172 332.565 564.839 323.28 571.465 320.188C577.891 317.191 579.59 321.961 583.526 331.795C587.461 341.629 596.314 333.198 603.89 336.268C611.466 339.339 611.16 345.417 611.635 350.639C612.109 355.862 614.61 357.308 618.905 357.308C623.199 357.308 627.472 359.777 627.472 364.694V413.896Z" fill="#3DADF2"/>
<path d="M627.472 396.654C627.427 396.664 627.38 396.664 627.335 396.654C626.881 396.528 616.066 393.384 600.313 378.917C583.536 363.512 575.622 340.405 575.538 340.172C575.497 340.039 575.51 339.896 575.573 339.772C575.636 339.648 575.744 339.553 575.876 339.508C576.007 339.464 576.151 339.474 576.275 339.535C576.399 339.596 576.495 339.704 576.54 339.835C576.614 340.067 584.454 362.921 601.03 378.137C616.562 392.413 627.504 395.61 627.62 395.642C627.687 395.661 627.749 395.693 627.803 395.737C627.857 395.78 627.902 395.834 627.935 395.894C627.968 395.955 627.989 396.022 627.997 396.091C628.004 396.16 627.998 396.229 627.979 396.296C627.945 396.402 627.877 396.495 627.785 396.56C627.694 396.624 627.584 396.658 627.472 396.654Z" fill="white"/>
<path d="M604.713 382.589C604.607 382.591 604.503 382.559 604.416 382.499C604.329 382.438 604.263 382.352 604.227 382.252C600.84 373.557 600.07 354.955 600.007 354.164C600.004 354.025 600.055 353.89 600.149 353.787C600.244 353.685 600.374 353.623 600.513 353.615C600.651 353.617 600.783 353.67 600.885 353.763C600.986 353.857 601.049 353.984 601.062 354.122C601.062 354.311 601.853 373.336 605.177 381.872C605.202 381.937 605.215 382.006 605.213 382.076C605.211 382.146 605.196 382.215 605.167 382.279C605.139 382.343 605.098 382.4 605.047 382.448C604.996 382.496 604.936 382.533 604.871 382.558C604.82 382.576 604.767 382.587 604.713 382.589Z" fill="white"/>
<path d="M604.628 395.093C603.656 395.1 602.683 395.051 601.716 394.945C601.647 394.937 601.58 394.915 601.519 394.881C601.458 394.847 601.405 394.801 601.362 394.746C601.319 394.691 601.287 394.628 601.268 394.561C601.249 394.494 601.244 394.423 601.252 394.354C601.26 394.285 601.282 394.218 601.316 394.157C601.351 394.096 601.396 394.043 601.451 394C601.506 393.957 601.569 393.925 601.636 393.906C601.703 393.887 601.774 393.882 601.843 393.89C601.938 393.89 611.761 395.008 616.267 390.419C616.314 390.363 616.371 390.318 616.437 390.286C616.502 390.254 616.573 390.235 616.646 390.232C616.718 390.229 616.791 390.24 616.859 390.266C616.927 390.292 616.988 390.332 617.04 390.383C617.092 390.434 617.133 390.495 617.16 390.563C617.187 390.63 617.199 390.703 617.197 390.776C617.195 390.848 617.177 390.92 617.146 390.985C617.115 391.051 617.071 391.109 617.016 391.157C613.755 394.523 608.068 395.093 604.628 395.093Z" fill="white"/>
</svg>
