<svg width="628" height="406" viewBox="0 0 628 406" fill="none" xmlns="http://www.w3.org/2000/svg">
<g opacity="0.39">
<circle cx="2.2984" cy="1.92189" r="1.5" fill="#56CCF2"/>
<circle cx="15.2984" cy="1.92189" r="1.5" fill="#56CCF2"/>
<circle cx="28.2984" cy="1.92189" r="1.5" fill="#56CCF2"/>
<circle cx="41.2984" cy="1.92189" r="1.5" fill="#56CCF2"/>
<circle cx="54.2984" cy="1.92189" r="1.5" fill="#56CCF2"/>
<circle cx="67.2984" cy="1.92189" r="1.5" fill="#56CCF2"/>
<circle cx="80.2984" cy="1.92189" r="1.5" fill="#56CCF2"/>
<circle cx="93.2984" cy="1.92189" r="1.5" fill="#56CCF2"/>
<circle cx="106.298" cy="1.92189" r="1.5" fill="#56CCF2"/>
<circle cx="119.298" cy="1.92189" r="1.5" fill="#56CCF2"/>
<circle cx="132.298" cy="1.92189" r="1.5" fill="#56CCF2"/>
<circle cx="145.298" cy="1.92189" r="1.5" fill="#56CCF2"/>
<circle cx="158.298" cy="1.92189" r="1.5" fill="#56CCF2"/>
<circle cx="171.298" cy="1.92189" r="1.5" fill="#56CCF2"/>
<circle cx="184.298" cy="1.92189" r="1.5" fill="#56CCF2"/>
<circle cx="197.298" cy="1.92189" r="1.5" fill="#56CCF2"/>
<circle cx="2.2984" cy="105.922" r="1.5" fill="#56CCF2"/>
<circle cx="15.2984" cy="105.922" r="1.5" fill="#56CCF2"/>
<circle cx="28.2984" cy="105.922" r="1.5" fill="#56CCF2"/>
<circle cx="41.2984" cy="105.922" r="1.5" fill="#56CCF2"/>
<circle cx="54.2984" cy="105.922" r="1.5" fill="#56CCF2"/>
<circle cx="67.2984" cy="105.922" r="1.5" fill="#56CCF2"/>
<circle cx="80.2984" cy="105.922" r="1.5" fill="#56CCF2"/>
<circle cx="93.2984" cy="105.922" r="1.5" fill="#56CCF2"/>
<circle cx="106.298" cy="105.922" r="1.5" fill="#56CCF2"/>
<circle cx="119.298" cy="105.922" r="1.5" fill="#56CCF2"/>
<circle cx="132.298" cy="105.922" r="1.5" fill="#56CCF2"/>
<circle cx="145.298" cy="105.922" r="1.5" fill="#56CCF2"/>
<circle cx="158.298" cy="105.922" r="1.5" fill="#56CCF2"/>
<circle cx="171.298" cy="105.922" r="1.5" fill="#56CCF2"/>
<circle cx="184.298" cy="105.922" r="1.5" fill="#56CCF2"/>
<circle cx="197.298" cy="105.922" r="1.5" fill="#56CCF2"/>
<circle cx="2.2984" cy="53.9219" r="1.5" fill="#56CCF2"/>
<circle cx="15.2984" cy="53.9219" r="1.5" fill="#56CCF2"/>
<circle cx="28.2984" cy="53.9219" r="1.5" fill="#56CCF2"/>
<circle cx="41.2984" cy="53.9219" r="1.5" fill="#56CCF2"/>
<circle cx="54.2984" cy="53.9219" r="1.5" fill="#56CCF2"/>
<circle cx="67.2984" cy="53.9219" r="1.5" fill="#56CCF2"/>
<circle cx="80.2984" cy="53.9219" r="1.5" fill="#56CCF2"/>
<circle cx="93.2984" cy="53.9219" r="1.5" fill="#56CCF2"/>
<circle cx="106.298" cy="53.9219" r="1.5" fill="#56CCF2"/>
<circle cx="119.298" cy="53.9219" r="1.5" fill="#56CCF2"/>
<circle cx="132.298" cy="53.9219" r="1.5" fill="#56CCF2"/>
<circle cx="145.298" cy="53.9219" r="1.5" fill="#56CCF2"/>
<circle cx="158.298" cy="53.9219" r="1.5" fill="#56CCF2"/>
<circle cx="171.298" cy="53.9219" r="1.5" fill="#56CCF2"/>
<circle cx="184.298" cy="53.9219" r="1.5" fill="#56CCF2"/>
<circle cx="197.298" cy="53.9219" r="1.5" fill="#56CCF2"/>
<circle cx="2.2984" cy="157.922" r="1.5" fill="#56CCF2"/>
<circle cx="15.2984" cy="157.922" r="1.5" fill="#56CCF2"/>
<circle cx="28.2984" cy="157.922" r="1.5" fill="#56CCF2"/>
<circle cx="41.2984" cy="157.922" r="1.5" fill="#56CCF2"/>
<circle cx="54.2984" cy="157.922" r="1.5" fill="#56CCF2"/>
<circle cx="67.2984" cy="157.922" r="1.5" fill="#56CCF2"/>
<circle cx="80.2984" cy="157.922" r="1.5" fill="#56CCF2"/>
<circle cx="93.2984" cy="157.922" r="1.5" fill="#56CCF2"/>
<circle cx="106.298" cy="157.922" r="1.5" fill="#56CCF2"/>
<circle cx="119.298" cy="157.922" r="1.5" fill="#56CCF2"/>
<circle cx="132.298" cy="157.922" r="1.5" fill="#56CCF2"/>
<circle cx="145.298" cy="157.922" r="1.5" fill="#56CCF2"/>
<circle cx="158.298" cy="157.922" r="1.5" fill="#56CCF2"/>
<circle cx="171.298" cy="157.922" r="1.5" fill="#56CCF2"/>
<circle cx="184.298" cy="157.922" r="1.5" fill="#56CCF2"/>
<circle cx="197.298" cy="157.922" r="1.5" fill="#56CCF2"/>
<circle cx="2.2984" cy="27.9219" r="1.5" fill="#56CCF2"/>
<circle cx="15.2984" cy="27.9219" r="1.5" fill="#56CCF2"/>
<circle cx="28.2984" cy="27.9219" r="1.5" fill="#56CCF2"/>
<circle cx="41.2984" cy="27.9219" r="1.5" fill="#56CCF2"/>
<circle cx="54.2984" cy="27.9219" r="1.5" fill="#56CCF2"/>
<circle cx="67.2984" cy="27.9219" r="1.5" fill="#56CCF2"/>
<circle cx="80.2984" cy="27.9219" r="1.5" fill="#56CCF2"/>
<circle cx="93.2984" cy="27.9219" r="1.5" fill="#56CCF2"/>
<circle cx="106.298" cy="27.9219" r="1.5" fill="#56CCF2"/>
<circle cx="119.298" cy="27.9219" r="1.5" fill="#56CCF2"/>
<circle cx="132.298" cy="27.9219" r="1.5" fill="#56CCF2"/>
<circle cx="145.298" cy="27.9219" r="1.5" fill="#56CCF2"/>
<circle cx="158.298" cy="27.9219" r="1.5" fill="#56CCF2"/>
<circle cx="171.298" cy="27.9219" r="1.5" fill="#56CCF2"/>
<circle cx="184.298" cy="27.9219" r="1.5" fill="#56CCF2"/>
<circle cx="197.298" cy="27.9219" r="1.5" fill="#56CCF2"/>
<circle cx="2.2984" cy="131.922" r="1.5" fill="#56CCF2"/>
<circle cx="15.2984" cy="131.922" r="1.5" fill="#56CCF2"/>
<circle cx="28.2984" cy="131.922" r="1.5" fill="#56CCF2"/>
<circle cx="41.2984" cy="131.922" r="1.5" fill="#56CCF2"/>
<circle cx="54.2984" cy="131.922" r="1.5" fill="#56CCF2"/>
<circle cx="67.2984" cy="131.922" r="1.5" fill="#56CCF2"/>
<circle cx="80.2984" cy="131.922" r="1.5" fill="#56CCF2"/>
<circle cx="93.2984" cy="131.922" r="1.5" fill="#56CCF2"/>
<circle cx="106.298" cy="131.922" r="1.5" fill="#56CCF2"/>
<circle cx="119.298" cy="131.922" r="1.5" fill="#56CCF2"/>
<circle cx="132.298" cy="131.922" r="1.5" fill="#56CCF2"/>
<circle cx="145.298" cy="131.922" r="1.5" fill="#56CCF2"/>
<circle cx="158.298" cy="131.922" r="1.5" fill="#56CCF2"/>
<circle cx="171.298" cy="131.922" r="1.5" fill="#56CCF2"/>
<circle cx="184.298" cy="131.922" r="1.5" fill="#56CCF2"/>
<circle cx="197.298" cy="131.922" r="1.5" fill="#56CCF2"/>
<circle cx="2.2984" cy="79.9219" r="1.5" fill="#56CCF2"/>
<circle cx="15.2984" cy="79.9219" r="1.5" fill="#56CCF2"/>
<circle cx="28.2984" cy="79.9219" r="1.5" fill="#56CCF2"/>
<circle cx="41.2984" cy="79.9219" r="1.5" fill="#56CCF2"/>
<circle cx="54.2984" cy="79.9219" r="1.5" fill="#56CCF2"/>
<circle cx="67.2984" cy="79.9219" r="1.5" fill="#56CCF2"/>
<circle cx="80.2984" cy="79.9219" r="1.5" fill="#56CCF2"/>
<circle cx="93.2984" cy="79.9219" r="1.5" fill="#56CCF2"/>
<circle cx="106.298" cy="79.9219" r="1.5" fill="#56CCF2"/>
<circle cx="119.298" cy="79.9219" r="1.5" fill="#56CCF2"/>
<circle cx="132.298" cy="79.9219" r="1.5" fill="#56CCF2"/>
<circle cx="145.298" cy="79.9219" r="1.5" fill="#56CCF2"/>
<circle cx="158.298" cy="79.9219" r="1.5" fill="#56CCF2"/>
<circle cx="171.298" cy="79.9219" r="1.5" fill="#56CCF2"/>
<circle cx="184.298" cy="79.9219" r="1.5" fill="#56CCF2"/>
<circle cx="197.298" cy="79.9219" r="1.5" fill="#56CCF2"/>
<circle cx="2.2984" cy="183.922" r="1.5" fill="#56CCF2"/>
<circle cx="15.2984" cy="183.922" r="1.5" fill="#56CCF2"/>
<circle cx="28.2984" cy="183.922" r="1.5" fill="#56CCF2"/>
<circle cx="41.2984" cy="183.922" r="1.5" fill="#56CCF2"/>
<circle cx="54.2984" cy="183.922" r="1.5" fill="#56CCF2"/>
<circle cx="67.2984" cy="183.922" r="1.5" fill="#56CCF2"/>
<circle cx="80.2984" cy="183.922" r="1.5" fill="#56CCF2"/>
<circle cx="93.2984" cy="183.922" r="1.5" fill="#56CCF2"/>
<circle cx="106.298" cy="183.922" r="1.5" fill="#56CCF2"/>
<circle cx="119.298" cy="183.922" r="1.5" fill="#56CCF2"/>
<circle cx="132.298" cy="183.922" r="1.5" fill="#56CCF2"/>
<circle cx="145.298" cy="183.922" r="1.5" fill="#56CCF2"/>
<circle cx="158.298" cy="183.922" r="1.5" fill="#56CCF2"/>
<circle cx="171.298" cy="183.922" r="1.5" fill="#56CCF2"/>
<circle cx="184.298" cy="183.922" r="1.5" fill="#56CCF2"/>
<circle cx="197.298" cy="183.922" r="1.5" fill="#56CCF2"/>
<circle cx="2.2984" cy="14.9219" r="1.5" fill="#56CCF2"/>
<circle cx="15.2984" cy="14.9219" r="1.5" fill="#56CCF2"/>
<circle cx="28.2984" cy="14.9219" r="1.5" fill="#56CCF2"/>
<circle cx="41.2984" cy="14.9219" r="1.5" fill="#56CCF2"/>
<circle cx="54.2984" cy="14.9219" r="1.5" fill="#56CCF2"/>
<circle cx="67.2984" cy="14.9219" r="1.5" fill="#56CCF2"/>
<circle cx="80.2984" cy="14.9219" r="1.5" fill="#56CCF2"/>
<circle cx="93.2984" cy="14.9219" r="1.5" fill="#56CCF2"/>
<circle cx="106.298" cy="14.9219" r="1.5" fill="#56CCF2"/>
<circle cx="119.298" cy="14.9219" r="1.5" fill="#56CCF2"/>
<circle cx="132.298" cy="14.9219" r="1.5" fill="#56CCF2"/>
<circle cx="145.298" cy="14.9219" r="1.5" fill="#56CCF2"/>
<circle cx="158.298" cy="14.9219" r="1.5" fill="#56CCF2"/>
<circle cx="171.298" cy="14.9219" r="1.5" fill="#56CCF2"/>
<circle cx="184.298" cy="14.9219" r="1.5" fill="#56CCF2"/>
<circle cx="197.298" cy="14.9219" r="1.5" fill="#56CCF2"/>
<circle cx="2.2984" cy="118.922" r="1.5" fill="#56CCF2"/>
<circle cx="15.2984" cy="118.922" r="1.5" fill="#56CCF2"/>
<circle cx="28.2984" cy="118.922" r="1.5" fill="#56CCF2"/>
<circle cx="41.2984" cy="118.922" r="1.5" fill="#56CCF2"/>
<circle cx="54.2984" cy="118.922" r="1.5" fill="#56CCF2"/>
<circle cx="67.2984" cy="118.922" r="1.5" fill="#56CCF2"/>
<circle cx="80.2984" cy="118.922" r="1.5" fill="#56CCF2"/>
<circle cx="93.2984" cy="118.922" r="1.5" fill="#56CCF2"/>
<circle cx="106.298" cy="118.922" r="1.5" fill="#56CCF2"/>
<circle cx="119.298" cy="118.922" r="1.5" fill="#56CCF2"/>
<circle cx="132.298" cy="118.922" r="1.5" fill="#56CCF2"/>
<circle cx="145.298" cy="118.922" r="1.5" fill="#56CCF2"/>
<circle cx="158.298" cy="118.922" r="1.5" fill="#56CCF2"/>
<circle cx="171.298" cy="118.922" r="1.5" fill="#56CCF2"/>
<circle cx="184.298" cy="118.922" r="1.5" fill="#56CCF2"/>
<circle cx="197.298" cy="118.922" r="1.5" fill="#56CCF2"/>
<circle cx="2.2984" cy="66.9219" r="1.5" fill="#56CCF2"/>
<circle cx="15.2984" cy="66.9219" r="1.5" fill="#56CCF2"/>
<circle cx="28.2984" cy="66.9219" r="1.5" fill="#56CCF2"/>
<circle cx="41.2984" cy="66.9219" r="1.5" fill="#56CCF2"/>
<circle cx="54.2984" cy="66.9219" r="1.5" fill="#56CCF2"/>
<circle cx="67.2984" cy="66.9219" r="1.5" fill="#56CCF2"/>
<circle cx="80.2984" cy="66.9219" r="1.5" fill="#56CCF2"/>
<circle cx="93.2984" cy="66.9219" r="1.5" fill="#56CCF2"/>
<circle cx="106.298" cy="66.9219" r="1.5" fill="#56CCF2"/>
<circle cx="119.298" cy="66.9219" r="1.5" fill="#56CCF2"/>
<circle cx="132.298" cy="66.9219" r="1.5" fill="#56CCF2"/>
<circle cx="145.298" cy="66.9219" r="1.5" fill="#56CCF2"/>
<circle cx="158.298" cy="66.9219" r="1.5" fill="#56CCF2"/>
<circle cx="171.298" cy="66.9219" r="1.5" fill="#56CCF2"/>
<circle cx="184.298" cy="66.9219" r="1.5" fill="#56CCF2"/>
<circle cx="197.298" cy="66.9219" r="1.5" fill="#56CCF2"/>
<circle cx="2.2984" cy="170.922" r="1.5" fill="#56CCF2"/>
<circle cx="15.2984" cy="170.922" r="1.5" fill="#56CCF2"/>
<circle cx="28.2984" cy="170.922" r="1.5" fill="#56CCF2"/>
<circle cx="41.2984" cy="170.922" r="1.5" fill="#56CCF2"/>
<circle cx="54.2984" cy="170.922" r="1.5" fill="#56CCF2"/>
<circle cx="67.2984" cy="170.922" r="1.5" fill="#56CCF2"/>
<circle cx="80.2984" cy="170.922" r="1.5" fill="#56CCF2"/>
<circle cx="93.2984" cy="170.922" r="1.5" fill="#56CCF2"/>
<circle cx="106.298" cy="170.922" r="1.5" fill="#56CCF2"/>
<circle cx="119.298" cy="170.922" r="1.5" fill="#56CCF2"/>
<circle cx="132.298" cy="170.922" r="1.5" fill="#56CCF2"/>
<circle cx="145.298" cy="170.922" r="1.5" fill="#56CCF2"/>
<circle cx="158.298" cy="170.922" r="1.5" fill="#56CCF2"/>
<circle cx="171.298" cy="170.922" r="1.5" fill="#56CCF2"/>
<circle cx="184.298" cy="170.922" r="1.5" fill="#56CCF2"/>
<circle cx="197.298" cy="170.922" r="1.5" fill="#56CCF2"/>
<circle cx="2.2984" cy="40.9219" r="1.5" fill="#56CCF2"/>
<circle cx="15.2984" cy="40.9219" r="1.5" fill="#56CCF2"/>
<circle cx="28.2984" cy="40.9219" r="1.5" fill="#56CCF2"/>
<circle cx="41.2984" cy="40.9219" r="1.5" fill="#56CCF2"/>
<circle cx="54.2984" cy="40.9219" r="1.5" fill="#56CCF2"/>
<circle cx="67.2984" cy="40.9219" r="1.5" fill="#56CCF2"/>
<circle cx="80.2984" cy="40.9219" r="1.5" fill="#56CCF2"/>
<circle cx="93.2984" cy="40.9219" r="1.5" fill="#56CCF2"/>
<circle cx="106.298" cy="40.9219" r="1.5" fill="#56CCF2"/>
<circle cx="119.298" cy="40.9219" r="1.5" fill="#56CCF2"/>
<circle cx="132.298" cy="40.9219" r="1.5" fill="#56CCF2"/>
<circle cx="145.298" cy="40.9219" r="1.5" fill="#56CCF2"/>
<circle cx="158.298" cy="40.9219" r="1.5" fill="#56CCF2"/>
<circle cx="171.298" cy="40.9219" r="1.5" fill="#56CCF2"/>
<circle cx="184.298" cy="40.9219" r="1.5" fill="#56CCF2"/>
<circle cx="197.298" cy="40.9219" r="1.5" fill="#56CCF2"/>
<circle cx="2.2984" cy="144.922" r="1.5" fill="#56CCF2"/>
<circle cx="15.2984" cy="144.922" r="1.5" fill="#56CCF2"/>
<circle cx="28.2984" cy="144.922" r="1.5" fill="#56CCF2"/>
<circle cx="41.2984" cy="144.922" r="1.5" fill="#56CCF2"/>
<circle cx="54.2984" cy="144.922" r="1.5" fill="#56CCF2"/>
<circle cx="67.2984" cy="144.922" r="1.5" fill="#56CCF2"/>
<circle cx="80.2984" cy="144.922" r="1.5" fill="#56CCF2"/>
<circle cx="93.2984" cy="144.922" r="1.5" fill="#56CCF2"/>
<circle cx="106.298" cy="144.922" r="1.5" fill="#56CCF2"/>
<circle cx="119.298" cy="144.922" r="1.5" fill="#56CCF2"/>
<circle cx="132.298" cy="144.922" r="1.5" fill="#56CCF2"/>
<circle cx="145.298" cy="144.922" r="1.5" fill="#56CCF2"/>
<circle cx="158.298" cy="144.922" r="1.5" fill="#56CCF2"/>
<circle cx="171.298" cy="144.922" r="1.5" fill="#56CCF2"/>
<circle cx="184.298" cy="144.922" r="1.5" fill="#56CCF2"/>
<circle cx="197.298" cy="144.922" r="1.5" fill="#56CCF2"/>
<circle cx="2.2984" cy="92.9219" r="1.5" fill="#56CCF2"/>
<circle cx="15.2984" cy="92.9219" r="1.5" fill="#56CCF2"/>
<circle cx="28.2984" cy="92.9219" r="1.5" fill="#56CCF2"/>
<circle cx="41.2984" cy="92.9219" r="1.5" fill="#56CCF2"/>
<circle cx="54.2984" cy="92.9219" r="1.5" fill="#56CCF2"/>
<circle cx="67.2984" cy="92.9219" r="1.5" fill="#56CCF2"/>
<circle cx="80.2984" cy="92.9219" r="1.5" fill="#56CCF2"/>
<circle cx="93.2984" cy="92.9219" r="1.5" fill="#56CCF2"/>
<circle cx="106.298" cy="92.9219" r="1.5" fill="#56CCF2"/>
<circle cx="119.298" cy="92.9219" r="1.5" fill="#56CCF2"/>
<circle cx="132.298" cy="92.9219" r="1.5" fill="#56CCF2"/>
<circle cx="145.298" cy="92.9219" r="1.5" fill="#56CCF2"/>
<circle cx="158.298" cy="92.9219" r="1.5" fill="#56CCF2"/>
<circle cx="171.298" cy="92.9219" r="1.5" fill="#56CCF2"/>
<circle cx="184.298" cy="92.9219" r="1.5" fill="#56CCF2"/>
<circle cx="197.298" cy="92.9219" r="1.5" fill="#56CCF2"/>
<circle cx="2.2984" cy="196.922" r="1.5" fill="#56CCF2"/>
<circle cx="15.2984" cy="196.922" r="1.5" fill="#56CCF2"/>
<circle cx="28.2984" cy="196.922" r="1.5" fill="#56CCF2"/>
<circle cx="41.2984" cy="196.922" r="1.5" fill="#56CCF2"/>
<circle cx="54.2984" cy="196.922" r="1.5" fill="#56CCF2"/>
<circle cx="67.2984" cy="196.922" r="1.5" fill="#56CCF2"/>
<circle cx="80.2984" cy="196.922" r="1.5" fill="#56CCF2"/>
<circle cx="93.2984" cy="196.922" r="1.5" fill="#56CCF2"/>
<circle cx="106.298" cy="196.922" r="1.5" fill="#56CCF2"/>
<circle cx="119.298" cy="196.922" r="1.5" fill="#56CCF2"/>
<circle cx="132.298" cy="196.922" r="1.5" fill="#56CCF2"/>
<circle cx="145.298" cy="196.922" r="1.5" fill="#56CCF2"/>
<circle cx="158.298" cy="196.922" r="1.5" fill="#56CCF2"/>
<circle cx="171.298" cy="196.922" r="1.5" fill="#56CCF2"/>
<circle cx="184.298" cy="196.922" r="1.5" fill="#56CCF2"/>
<circle cx="197.298" cy="196.922" r="1.5" fill="#56CCF2"/>
</g>
<path d="M627.472 342.505C627.472 342.505 617.354 340.036 616.826 321.085C616.267 300.636 619.306 276.769 607.33 274.838C595.354 272.907 588.706 287.5 588.854 304.54C588.991 319.46 595.005 351.853 627.43 358.205L627.472 342.505Z" fill="#3DADF2"/>
<path opacity="0.2" d="M627.472 342.505C627.472 342.505 617.354 340.036 616.826 321.085C616.267 300.636 619.306 276.769 607.33 274.838C595.354 272.907 588.706 287.5 588.854 304.54C588.991 319.46 595.005 351.853 627.43 358.205L627.472 342.505Z" fill="black"/>
<path d="M627.472 356.264H627.377C620.086 354.934 614.146 350.914 609.725 344.33C596.62 324.778 600.745 288.27 602.107 281.897C602.137 281.761 602.219 281.643 602.335 281.566C602.451 281.489 602.592 281.46 602.729 281.486C602.866 281.518 602.984 281.602 603.061 281.72C603.138 281.838 603.166 281.98 603.141 282.119C601.801 288.449 597.696 324.493 610.6 343.739C612.479 346.724 614.957 349.285 617.878 351.262C620.799 353.238 624.098 354.586 627.567 355.219C627.636 355.232 627.702 355.258 627.76 355.296C627.819 355.335 627.869 355.384 627.909 355.442C627.948 355.5 627.975 355.565 627.989 355.634C628.003 355.702 628.003 355.773 627.989 355.842C627.967 355.962 627.903 356.07 627.808 356.147C627.713 356.225 627.594 356.266 627.472 356.264Z" fill="white"/>
<path d="M627.472 404.896C617.016 406.309 600.039 406.288 590.236 398.565C580.434 390.841 582.481 384.194 586.248 381.419C590.015 378.643 593.286 375.478 586.807 369.316C580.328 363.154 569.925 353.257 566.548 338.411C563.172 323.565 564.839 314.279 571.465 311.188C577.891 308.191 579.59 312.961 583.526 322.795C587.461 332.628 596.314 324.198 603.89 327.268C611.466 330.339 611.16 336.416 611.635 341.639C612.109 346.862 614.61 348.308 618.905 348.308C623.199 348.308 627.472 350.777 627.472 355.694V404.896Z" fill="#3DADF2"/>
<path d="M627.472 387.654C627.427 387.664 627.38 387.664 627.335 387.654C626.881 387.528 616.066 384.383 600.313 369.917C583.536 354.512 575.622 331.405 575.538 331.172C575.497 331.039 575.51 330.896 575.573 330.772C575.636 330.648 575.744 330.553 575.876 330.508C576.007 330.464 576.151 330.474 576.275 330.535C576.399 330.596 576.495 330.704 576.54 330.835C576.614 331.067 584.454 353.921 601.03 369.137C616.562 383.413 627.504 386.61 627.62 386.642C627.687 386.661 627.749 386.693 627.803 386.737C627.857 386.78 627.902 386.834 627.935 386.894C627.968 386.955 627.989 387.022 627.997 387.091C628.004 387.16 627.998 387.229 627.979 387.296C627.945 387.402 627.877 387.495 627.785 387.56C627.694 387.624 627.584 387.658 627.472 387.654Z" fill="white"/>
<path d="M604.713 373.589C604.607 373.591 604.503 373.559 604.416 373.499C604.329 373.438 604.263 373.352 604.227 373.252C600.84 364.557 600.07 345.955 600.007 345.164C600.004 345.024 600.055 344.889 600.149 344.787C600.244 344.685 600.374 344.623 600.513 344.615C600.651 344.617 600.783 344.67 600.885 344.763C600.986 344.857 601.049 344.984 601.062 345.121C601.062 345.311 601.853 364.336 605.177 372.872C605.202 372.937 605.215 373.006 605.213 373.076C605.211 373.146 605.196 373.215 605.167 373.279C605.139 373.343 605.098 373.4 605.047 373.448C604.996 373.496 604.936 373.533 604.871 373.558C604.82 373.576 604.767 373.587 604.713 373.589Z" fill="white"/>
<path d="M604.628 386.093C603.656 386.1 602.683 386.051 601.716 385.945C601.647 385.937 601.58 385.915 601.519 385.881C601.458 385.846 601.405 385.801 601.362 385.746C601.319 385.691 601.287 385.628 601.268 385.561C601.249 385.494 601.244 385.423 601.252 385.354C601.26 385.285 601.282 385.218 601.316 385.157C601.351 385.096 601.396 385.043 601.451 385C601.506 384.957 601.569 384.925 601.636 384.906C601.703 384.887 601.774 384.882 601.843 384.89C601.938 384.89 611.761 386.008 616.267 381.418C616.314 381.363 616.371 381.318 616.437 381.286C616.502 381.253 616.573 381.235 616.646 381.232C616.718 381.229 616.791 381.24 616.859 381.266C616.927 381.292 616.988 381.332 617.04 381.383C617.092 381.434 617.133 381.495 617.16 381.563C617.187 381.63 617.199 381.703 617.197 381.775C617.195 381.848 617.177 381.919 617.146 381.985C617.115 382.051 617.071 382.109 617.016 382.157C613.755 385.523 608.068 386.093 604.628 386.093Z" fill="white"/>
</svg>
