<svg width="39" height="38" viewBox="0 0 39 38" fill="none" xmlns="http://www.w3.org/2000/svg">
<path d="M37.9143 22.3097V15.6685L32.9334 15.2357C32.6402 14.1969 32.2283 13.1953 31.7059 12.2507L34.9205 8.42674L30.2399 3.72845L26.4247 6.94307C25.4819 6.41693 24.4799 6.00484 23.4397 5.71551L23.007 0.734619H16.3569L15.933 5.71551C14.8923 6.00324 13.8901 6.4154 12.948 6.94307L9.12405 3.72845L4.42576 8.42674L7.64039 12.2507C7.11142 13.1932 6.69638 14.1952 6.404 15.2357L1.4231 15.6685V22.3097L6.404 22.7424C6.69638 23.7829 7.11142 24.7849 7.64039 25.7274L4.39926 29.5161L9.09756 34.2143L12.9216 30.9997C13.8636 31.5274 14.8658 31.9396 15.9065 32.2273L16.3305 37.2082H22.9805L23.4132 32.2273C24.4534 31.938 25.4554 31.5259 26.3982 30.9997L30.2134 34.2143L34.9205 29.5161L31.7059 25.6921C32.2283 24.7475 32.6402 23.7459 32.9334 22.7071L37.9143 22.3097ZM19.6599 26.7253C18.1311 26.7271 16.6363 26.2754 15.3643 25.4273C14.0924 24.5793 13.1006 23.373 12.5144 21.9612C11.9281 20.5493 11.7738 18.9953 12.071 17.4958C12.3682 15.9962 13.1034 14.6185 14.1838 13.5369C15.2641 12.4553 16.641 11.7185 18.1403 11.4196C19.6395 11.1207 21.1937 11.2732 22.6062 11.8578C24.0187 12.4424 25.2261 13.4329 26.0756 14.7038C26.9251 15.9748 27.3785 17.4692 27.3785 18.9979C27.3773 20.0127 27.1763 21.0173 26.7869 21.9544C26.3975 22.8915 25.8273 23.7427 25.1089 24.4594C24.3906 25.1762 23.538 25.7444 22.6001 26.1317C21.6621 26.519 20.657 26.7177 19.6422 26.7165L19.6599 26.7253Z" stroke="#000B4B" stroke-linecap="round" stroke-linejoin="round"/>
</svg>
