<svg width="78" height="78" viewBox="0 0 78 78" fill="none" xmlns="http://www.w3.org/2000/svg">
<path d="M76.9378 45.7923V31.9271L66.5521 31.044C65.945 28.8755 65.0854 26.7858 63.991 24.8178L70.694 16.8696L60.8912 7.06679L52.943 13.7698C50.9914 12.6712 48.9162 11.8085 46.761 11.1999L45.8779 0.814178H31.8978L31.0147 11.1999C28.8595 11.8085 26.7843 12.6712 24.8327 13.7698L16.8845 7.06679L7.08166 16.8696L13.7847 24.8178C12.6903 26.7858 11.8307 28.8755 11.2236 31.044L0.837891 31.9271V45.7923L11.2236 46.6755C11.8339 48.8287 12.6935 50.9034 13.7847 52.8574L7.08166 60.8057L16.8845 70.6085L24.8327 63.9055C26.7843 65.004 28.8595 65.8667 31.0147 66.4754L31.8978 76.8611H45.7631L46.6462 66.4754C48.8158 65.8676 50.9057 65.0049 52.8723 63.9055L60.8205 70.6085L70.6234 60.8057L63.9204 52.8574C65.0116 50.9034 65.8711 48.8287 66.4815 46.6755L76.9378 45.7923ZM38.8746 54.9681C35.6886 54.9681 32.5743 54.0234 29.9252 52.2534C27.2762 50.4834 25.2116 47.9676 23.9924 45.0241C22.7731 42.0807 22.4542 38.8418 23.0757 35.7171C23.6972 32.5924 25.2314 29.7221 27.4842 27.4693C29.737 25.2165 32.6073 23.6824 35.732 23.0608C38.8567 22.4393 42.0956 22.7583 45.039 23.9775C47.9824 25.1967 50.4982 27.2613 52.2683 29.9104C54.0383 32.5594 54.983 35.6738 54.983 38.8597C54.9819 40.9778 54.5632 43.0748 53.7511 45.0309C52.939 46.9871 51.7492 48.764 50.2499 50.26C48.7506 51.756 46.9711 52.9419 45.0132 53.7497C43.0553 54.5576 40.9573 54.9716 38.8393 54.9681H38.8746Z" stroke="#000B4B" stroke-linecap="round" stroke-linejoin="round"/>
</svg>
