<svg width="83" height="46" viewBox="0 0 83 46" fill="none" xmlns="http://www.w3.org/2000/svg">
<path d="M79.3328 31.196C80.0359 28.1432 79.9365 24.9605 79.0442 21.9576C78.1518 18.9547 76.4971 16.2341 74.241 14.0608C71.9849 11.8874 69.2044 10.3353 66.1703 9.5557C63.1363 8.77609 59.952 8.79552 56.9277 9.61209C55.0871 6.34275 52.2385 3.75641 48.8071 2.23915C45.3758 0.7219 41.5457 0.355126 37.8888 1.19361C34.2318 2.03209 30.9442 4.03085 28.5166 6.89147C26.089 9.75209 24.6518 13.3211 24.4194 17.0658C23.5461 16.8986 22.6591 16.8129 21.77 16.8096C18.2763 16.807 14.9041 18.0916 12.2975 20.4179C9.69096 22.7443 8.0328 25.9493 7.63979 29.4209C5.67132 29.627 3.85055 30.5601 2.53371 32.0377C1.21687 33.5153 0.498689 35.431 0.519673 37.4101C0.540657 39.3893 1.29929 41.2894 2.64717 42.7387C3.99504 44.188 5.83517 45.0823 7.80757 45.2467H74.3519C75.9777 45.2294 77.559 44.7139 78.8826 43.7699C80.2062 42.8258 81.2085 41.4985 81.7543 39.9671C82.3001 38.4356 82.3631 36.7737 81.9348 35.2053C81.5066 33.6369 80.6077 32.2375 79.3593 31.196H79.3328Z" stroke="#000B4B" stroke-linecap="round" stroke-linejoin="round"/>
</svg>
