<svg width="383" height="346" viewBox="0 0 383 346" fill="none" xmlns="http://www.w3.org/2000/svg">
<path d="M361.019 322.08L369.597 317.131C374.387 313.223 378.032 308.094 380.149 302.285C382.797 294.984 382.428 289.434 380.528 286.648C378.197 283.219 372.151 283.82 371.908 291.038C371.401 305.261 367.255 315.127 361.019 322.08Z" fill="#000B4B"/>
<path opacity="0.2" d="M361.019 322.08L369.597 317.131C374.387 313.223 378.032 308.094 380.149 302.285C382.797 294.984 382.428 289.434 380.528 286.648C378.197 283.219 372.151 283.82 371.908 291.038C371.401 305.261 367.255 315.127 361.019 322.08Z" fill="black"/>
<path d="M361.019 322.608C360.907 322.606 360.799 322.569 360.709 322.503C360.62 322.436 360.554 322.342 360.521 322.235C360.488 322.128 360.49 322.014 360.526 321.908C360.563 321.803 360.632 321.711 360.723 321.647C380.56 307.931 376.719 288.801 376.677 288.611C376.663 288.541 376.662 288.47 376.675 288.4C376.688 288.331 376.715 288.265 376.753 288.205C376.792 288.146 376.842 288.095 376.9 288.055C376.959 288.015 377.025 287.987 377.094 287.972C377.163 287.958 377.235 287.957 377.304 287.97C377.374 287.983 377.44 288.01 377.499 288.049C377.559 288.087 377.61 288.137 377.65 288.196C377.69 288.254 377.718 288.32 377.732 288.389C377.732 288.59 381.784 308.374 361.356 322.513C361.257 322.58 361.139 322.614 361.019 322.608Z" fill="white"/>
<path d="M343.831 332.009C343.831 332.009 340.844 329.582 341.562 326.29C342.279 322.998 344.21 320.634 340.908 316.393C337.605 312.151 336.687 306.495 340.633 303.436C343.641 301.061 348.336 304.417 350.024 298.16C351.269 293.58 350.847 283.441 356.682 280.064C362.517 276.688 366.179 281.773 365.261 288.653C364.459 294.804 363.319 300.724 364.205 302.37C365.915 305.535 368.838 305.103 368.7 310.885C368.584 316.266 363.488 320.719 363.488 320.719L343.831 332.009Z" fill="#000B4B"/>
<path d="M353.633 326.849C353.504 326.848 353.38 326.8 353.283 326.715C353.186 326.63 353.123 326.513 353.105 326.385C351.596 313.882 355.215 292.293 358.17 285.878C358.195 285.807 358.235 285.742 358.287 285.687C358.339 285.633 358.402 285.59 358.472 285.562C358.542 285.534 358.617 285.522 358.692 285.525C358.768 285.529 358.841 285.548 358.908 285.582C358.971 285.611 359.028 285.652 359.075 285.702C359.122 285.753 359.158 285.812 359.182 285.877C359.206 285.942 359.216 286.011 359.213 286.08C359.209 286.149 359.192 286.217 359.162 286.279C356.239 292.61 352.746 314.261 354.192 326.216C354.207 326.355 354.166 326.493 354.079 326.602C353.992 326.711 353.866 326.781 353.728 326.797L353.633 326.849Z" fill="white"/>
<path d="M353.348 317.11C353.267 317.114 353.187 317.096 353.116 317.058C349.454 315.274 347.133 308.912 347.038 308.616C347.012 308.551 347 308.481 347.002 308.41C347.003 308.34 347.019 308.27 347.048 308.206C347.077 308.142 347.119 308.084 347.171 308.036C347.222 307.988 347.283 307.951 347.349 307.927C347.416 307.903 347.486 307.892 347.557 307.896C347.627 307.9 347.696 307.918 347.76 307.948C347.823 307.979 347.88 308.023 347.926 308.076C347.972 308.129 348.008 308.191 348.03 308.258C348.03 308.321 350.298 314.483 353.58 316.076C353.688 316.128 353.774 316.216 353.826 316.323C353.878 316.431 353.891 316.554 353.864 316.67C353.837 316.787 353.771 316.891 353.677 316.965C353.584 317.039 353.467 317.079 353.348 317.079V317.11Z" fill="white"/>
<path d="M353.285 321.331C353.179 321.331 353.076 321.299 352.989 321.238C352.902 321.178 352.836 321.092 352.799 320.993C352.747 320.864 352.747 320.72 352.8 320.592C352.854 320.463 352.956 320.361 353.084 320.307C359.246 317.838 363.087 310.505 363.129 310.421C363.193 310.296 363.305 310.202 363.438 310.16C363.572 310.117 363.717 310.129 363.841 310.194C363.966 310.258 364.06 310.369 364.102 310.503C364.145 310.636 364.133 310.781 364.068 310.906C363.899 311.223 360.006 318.672 353.517 321.289C353.444 321.323 353.364 321.338 353.285 321.331Z" fill="white"/>
<path d="M6.11061 331.578C6.11061 331.578 1.49963 324.108 1.04591 315.994C0.5922 307.88 2.37538 304.503 4.82333 303.532C7.27127 302.562 7.4612 305.548 8.71682 307.31C9.97245 309.072 12.5365 308.069 13.4861 302.572C14.4357 297.075 17.8966 287.8 25.0927 285.996C33.0063 284.033 28.7646 293.318 26.7704 296.938C24.7762 300.557 23.2356 305.495 24.544 306.835C25.8524 308.175 27.8888 305.695 29.8198 307.996C32.1727 310.771 24.8606 320.763 20.6611 323.179L6.11061 331.578Z" fill="#3DADF2"/>
<path d="M12.4309 328.444C12.3616 328.442 12.2936 328.425 12.2306 328.396C12.1676 328.367 12.111 328.326 12.0639 328.275C12.0169 328.224 11.9804 328.164 11.9564 328.099C11.9325 328.034 11.9216 327.965 11.9244 327.896C12.639 314.843 16.7094 302.196 23.7421 291.177C23.782 291.119 23.833 291.07 23.8922 291.033C23.9514 290.996 24.0176 290.971 24.0866 290.961C24.1556 290.95 24.2261 290.953 24.2939 290.97C24.3616 290.987 24.4252 291.018 24.4807 291.06C24.5913 291.143 24.6653 291.265 24.687 291.401C24.7087 291.537 24.6763 291.676 24.5968 291.788C17.6898 302.646 13.6928 315.099 12.9902 327.948C12.9861 328.018 12.9684 328.086 12.9381 328.148C12.9078 328.211 12.8655 328.266 12.8135 328.312C12.7616 328.359 12.701 328.394 12.6354 328.417C12.5697 328.439 12.5002 328.449 12.4309 328.444Z" fill="white"/>
<path d="M13.0323 322.208C12.9441 322.208 12.8574 322.186 12.7791 322.145C9.82471 320.51 8.18922 315.656 8.12591 315.455C8.10264 315.39 8.09264 315.32 8.09652 315.25C8.10039 315.181 8.11806 315.112 8.14849 315.05C8.17891 314.987 8.22147 314.931 8.27375 314.884C8.32602 314.838 8.38695 314.803 8.45301 314.78C8.58593 314.737 8.73062 314.748 8.85526 314.811C8.97989 314.875 9.0743 314.985 9.11776 315.118C9.11776 315.118 10.7005 319.792 13.3383 321.217C13.4579 321.287 13.5454 321.401 13.5828 321.535C13.6202 321.669 13.6044 321.812 13.5388 321.934C13.4911 322.025 13.4175 322.099 13.3273 322.148C13.2371 322.197 13.1345 322.218 13.0323 322.208Z" fill="white"/>
<path d="M13.5494 319.011C13.4325 319.01 13.3193 318.97 13.2276 318.897C13.136 318.825 13.071 318.724 13.0429 318.61C13.0256 318.544 13.0217 318.475 13.0315 318.406C13.0413 318.338 13.0646 318.273 13.0999 318.214C13.1353 318.155 13.1821 318.104 13.2375 318.063C13.293 318.022 13.356 317.993 13.4228 317.977C21.041 316.046 23.6788 312.058 23.6999 312.016C23.7373 311.957 23.786 311.906 23.8431 311.866C23.9002 311.826 23.9646 311.797 24.0327 311.782C24.1008 311.767 24.1712 311.765 24.24 311.777C24.3087 311.789 24.3744 311.815 24.4333 311.852C24.4922 311.89 24.5431 311.938 24.5832 311.995C24.6233 312.052 24.6517 312.117 24.6669 312.185C24.6821 312.253 24.6837 312.323 24.6717 312.392C24.6597 312.461 24.6342 312.527 24.5968 312.585C24.4807 312.765 21.7374 316.954 13.6866 319.001L13.5494 319.011Z" fill="white"/>
<path d="M8.62555 330.868H378.059" stroke="#000B4B" stroke-linecap="round" stroke-linejoin="round"/>
<path d="M18.7728 46.7102H240.838C241.831 46.7102 242.783 47.1047 243.485 47.8069C244.188 48.5092 244.582 49.4616 244.582 50.4547V60.9287H15.0283V50.4547C15.0283 49.4616 15.4228 48.5092 16.125 47.8069C16.8272 47.1047 17.7797 46.7102 18.7728 46.7102Z" fill="#3DADF2" stroke="#7589FF" stroke-linecap="round" stroke-linejoin="round"/>
<path d="M257.087 63.5516H25.0784V226.817H257.087V63.5516Z" fill="white" stroke="#7589FF" stroke-linecap="round" stroke-linejoin="round"/>
<path d="M260.637 53.8106C260.637 54.5093 260.43 55.1922 260.042 55.7732C259.654 56.3541 259.102 56.8069 258.457 57.0742C257.811 57.3416 257.101 57.4116 256.416 57.2753C255.731 57.139 255.101 56.8025 254.607 56.3085C254.113 55.8144 253.777 55.185 253.64 54.4998C253.504 53.8145 253.574 53.1042 253.841 52.4587C254.109 51.8133 254.561 51.2615 255.142 50.8734C255.723 50.4852 256.406 50.278 257.105 50.278C258.042 50.278 258.94 50.6502 259.603 51.3127C260.265 51.9752 260.637 52.8737 260.637 53.8106Z" fill="white" stroke="#7589FF" stroke-linecap="round" stroke-linejoin="round"/>
<path d="M248.132 53.8106C248.132 54.5093 247.925 55.1922 247.537 55.7732C247.149 56.3541 246.597 56.8069 245.952 57.0742C245.306 57.3416 244.596 57.4116 243.911 57.2753C243.225 57.139 242.596 56.8025 242.102 56.3085C241.608 55.8144 241.271 55.185 241.135 54.4998C240.999 53.8145 241.069 53.1042 241.336 52.4587C241.603 51.8133 242.056 51.2615 242.637 50.8734C243.218 50.4852 243.901 50.278 244.6 50.278C245.537 50.278 246.435 50.6502 247.098 51.3127C247.76 51.9752 248.132 52.8737 248.132 53.8106Z" fill="white" stroke="#7589FF" stroke-linecap="round" stroke-linejoin="round"/>
<path d="M235.601 53.8106C235.601 54.5093 235.393 55.1922 235.005 55.7732C234.617 56.3541 234.065 56.8069 233.42 57.0742C232.774 57.3416 232.064 57.4116 231.379 57.2753C230.694 57.139 230.064 56.8025 229.57 56.3085C229.076 55.8144 228.74 55.185 228.603 54.4998C228.467 53.8145 228.537 53.1042 228.804 52.4587C229.072 51.8133 229.525 51.2615 230.105 50.8734C230.686 50.4852 231.369 50.278 232.068 50.278C233.005 50.278 233.903 50.6502 234.566 51.3127C235.228 51.9752 235.601 52.8737 235.601 53.8106Z" fill="white" stroke="#7589FF" stroke-linecap="round" stroke-linejoin="round"/>
<path d="M250.057 70.5549H240.873" stroke="#7589FF" stroke-width="2" stroke-linecap="round" stroke-linejoin="round"/>
<path d="M250.057 74.2817H240.873" stroke="#7589FF" stroke-width="2" stroke-linecap="round" stroke-linejoin="round"/>
<path d="M250.057 78.0085H240.873" stroke="#7589FF" stroke-width="2" stroke-linecap="round" stroke-linejoin="round"/>
<path d="M41.1426 166.887H110.672" stroke="#7589FF" stroke-width="2" stroke-linecap="round" stroke-linejoin="round"/>
<path d="M41.1426 172.372H110.672" stroke="#7589FF" stroke-width="2" stroke-linecap="round" stroke-linejoin="round"/>
<path d="M41.1426 177.953H95.9678" stroke="#7589FF" stroke-width="2" stroke-linecap="round" stroke-linejoin="round"/>
<path d="M188.582 65.3885V65.8302" stroke="#7589FF" stroke-linecap="round" stroke-linejoin="round"/>
<path d="M188.582 68.4795V222.348" stroke="#7589FF" stroke-linecap="round" stroke-linejoin="round" stroke-dasharray="1 3"/>
<path d="M188.582 223.673V224.115" stroke="#7589FF" stroke-linecap="round" stroke-linejoin="round"/>
<path d="M27.8691 190.202H28.3108" stroke="#7589FF" stroke-linecap="round" stroke-linejoin="round"/>
<path d="M30.9512 190.202H251.771" stroke="#7589FF" stroke-linecap="round" stroke-linejoin="round" stroke-dasharray="1 2.99"/>
<path d="M253.096 190.202H253.537" stroke="#7589FF" stroke-linecap="round" stroke-linejoin="round"/>
<path d="M190.111 188.674H187.063V191.722H190.111V188.674Z" fill="white" stroke="#7589FF" stroke-linecap="round" stroke-linejoin="round"/>
<path d="M176.422 160.935H135.744" stroke="#7589FF" stroke-linecap="round" stroke-linejoin="round"/>
<path d="M177.208 179.746C177.208 179.746 177.208 160.838 156.083 160.838C134.958 160.838 134.923 179.746 134.923 179.746" stroke="#7589FF" stroke-linecap="round" stroke-linejoin="round"/>
<path d="M177.208 181.53C178.193 181.53 178.992 180.732 178.992 179.746C178.992 178.761 178.193 177.962 177.208 177.962C176.222 177.962 175.424 178.761 175.424 179.746C175.424 180.732 176.222 181.53 177.208 181.53Z" fill="#3DADF2" stroke="#7589FF" stroke-linecap="round" stroke-linejoin="round"/>
<path d="M133.157 179.746C133.157 179.397 133.26 179.055 133.454 178.765C133.649 178.474 133.924 178.248 134.247 178.114C134.57 177.98 134.925 177.945 135.268 178.014C135.611 178.082 135.925 178.25 136.172 178.497C136.419 178.744 136.588 179.059 136.656 179.402C136.724 179.744 136.689 180.099 136.555 180.422C136.422 180.745 136.195 181.021 135.905 181.215C135.614 181.409 135.273 181.513 134.923 181.513C134.455 181.513 134.005 181.327 133.674 180.995C133.343 180.664 133.157 180.215 133.157 179.746Z" fill="#3DADF2" stroke="#7589FF" stroke-linecap="round" stroke-linejoin="round"/>
<path d="M175.644 162.401H178.771V159.274H175.644V162.401Z" fill="#3DADF2" stroke="#7589FF" stroke-linecap="round" stroke-linejoin="round"/>
<path d="M154.519 162.401H157.646V159.274H154.519V162.401Z" fill="#3DADF2" stroke="#7589FF" stroke-linecap="round" stroke-linejoin="round"/>
<path d="M133.395 162.401H136.521V159.274H133.395V162.401Z" fill="#3DADF2" stroke="#7589FF" stroke-linecap="round" stroke-linejoin="round"/>
<path d="M66.418 104.088V97.835L61.7462 97.4376C61.4688 96.4604 61.0807 95.5182 60.5893 94.6292L63.6096 91.0437L59.1939 86.628L55.5996 89.6483C54.7137 89.1505 53.7707 88.762 52.7912 88.4914L52.3849 83.8108H46.15L45.7437 88.4914C44.7667 88.7608 43.8264 89.1494 42.9442 89.6483L39.3498 86.628L34.9342 91.0437L37.9545 94.6292C37.4594 95.5164 37.0711 96.4591 36.7976 97.4376L32.1169 97.835V104.088L36.7976 104.485C37.0726 105.463 37.4609 106.405 37.9545 107.293L34.9342 110.879L39.3498 115.295L42.9442 112.274C43.8209 112.772 44.7551 113.16 45.7261 113.431L46.1323 118.112H52.3761L52.7824 113.431C53.7588 113.16 54.6988 112.771 55.5819 112.274L59.1763 115.295L63.592 110.879L60.5716 107.293C61.0615 106.404 61.4496 105.462 61.7285 104.485L66.418 104.088ZM49.2586 108.221C47.8229 108.221 46.4193 107.795 45.2255 106.997C44.0317 106.2 43.1013 105.066 42.5518 103.739C42.0024 102.413 41.8586 100.953 42.1387 99.545C42.4188 98.1369 43.1102 96.8434 44.1255 95.8281C45.1407 94.8129 46.4342 94.1215 47.8424 93.8414C49.2506 93.5613 50.7102 93.705 52.0367 94.2545C53.3632 94.8039 54.4969 95.7344 55.2946 96.9282C56.0923 98.122 56.518 99.5255 56.518 100.961C56.518 102.887 55.7532 104.733 54.3918 106.094C53.0304 107.456 51.1839 108.221 49.2586 108.221Z" fill="#3DADF2" stroke="#7589FF" stroke-linecap="round" stroke-linejoin="round"/>
<path d="M87.6486 118.094V113.82L84.4428 113.537C84.2584 112.869 83.9945 112.226 83.6568 111.621L85.7234 109.166L82.6942 106.145L80.2391 108.212C79.6326 107.875 78.9896 107.608 78.3227 107.417L78.0489 104.202H73.7746L73.4919 107.408C72.825 107.599 72.1821 107.866 71.5755 108.203L69.1204 106.136L66.0913 109.157L68.1666 111.612C67.8224 112.215 67.5554 112.859 67.3718 113.528L64.166 113.811V118.085L67.3718 118.359C67.5538 119.029 67.8209 119.673 68.1666 120.275L66.0913 122.748L69.1204 125.769L71.5755 123.702C72.1821 124.039 72.825 124.306 73.4919 124.497L73.7746 127.694H78.0489L78.3227 124.497C78.9896 124.306 79.6326 124.039 80.2391 123.702L82.6942 125.769L85.7234 122.748L83.701 120.284C84.0403 119.68 84.3042 119.036 84.487 118.368L87.6486 118.094ZM75.9117 120.92C74.9276 120.922 73.9651 120.632 73.1461 120.086C72.3271 119.54 71.6884 118.764 71.311 117.855C70.9336 116.946 70.8344 115.946 71.026 114.98C71.2175 114.015 71.6912 113.128 72.3871 112.432C73.083 111.736 73.9698 111.263 74.9351 111.071C75.9004 110.88 76.9008 110.979 77.8097 111.356C78.7186 111.734 79.495 112.372 80.0407 113.191C80.5864 114.01 80.8767 114.973 80.875 115.957C80.8726 117.273 80.349 118.534 79.4187 119.464C78.4884 120.394 77.2274 120.918 75.9117 120.92Z" fill="#3DADF2" stroke="#7589FF" stroke-linecap="round" stroke-linejoin="round"/>
<path d="M197.308 200.588H231.512" stroke="#7589FF" stroke-width="2" stroke-linecap="round" stroke-linejoin="round"/>
<path d="M197.308 206.072H231.512" stroke="#7589FF" stroke-width="2" stroke-linecap="round" stroke-linejoin="round"/>
<path d="M197.308 211.654H216.807" stroke="#7589FF" stroke-width="2" stroke-linecap="round" stroke-linejoin="round"/>
<path d="M152.241 213.932H134.234C133.063 213.932 131.94 213.467 131.112 212.639C130.284 211.811 129.818 210.688 129.818 209.517C129.818 208.345 130.284 207.222 131.112 206.394C131.94 205.566 133.063 205.101 134.234 205.101H152.241C153.412 205.101 154.536 205.566 155.364 206.394C156.192 207.222 156.657 208.345 156.657 209.517C156.657 210.688 156.192 211.811 155.364 212.639C154.536 213.467 153.412 213.932 152.241 213.932Z" fill="#3DADF2" stroke="#7589FF" stroke-linecap="round" stroke-linejoin="round"/>
<path d="M185.801 213.932H167.793C166.622 213.932 165.499 213.467 164.671 212.639C163.843 211.811 163.378 210.688 163.378 209.517C163.378 208.345 163.843 207.222 164.671 206.394C165.499 205.566 166.622 205.101 167.793 205.101H185.801C186.972 205.101 188.095 205.566 188.923 206.394C189.751 207.222 190.216 208.345 190.216 209.517C190.216 210.688 189.751 211.811 188.923 212.639C188.095 213.467 186.972 213.932 185.801 213.932Z" fill="#3DADF2" stroke="#7589FF" stroke-linecap="round" stroke-linejoin="round"/>
<path d="M237.994 119.189H199.807V157.376H237.994V119.189Z" fill="white" stroke="#7589FF" stroke-linecap="round" stroke-linejoin="round"/>
<path d="M199.807 119.189L237.994 157.376" stroke="#7589FF" stroke-linecap="round" stroke-linejoin="round"/>
<path d="M237.994 119.189L199.807 157.376" stroke="#7589FF" stroke-linecap="round" stroke-linejoin="round"/>
<path d="M214.785 75.836V84.7469L210.855 88.6768H201.944V75.836H214.785Z" fill="white" stroke="#7589FF" stroke-linecap="round" stroke-linejoin="round"/>
<path d="M214.786 84.7469L210.855 88.6775V84.7469H214.786Z" fill="white" stroke="#7589FF" stroke-linecap="round" stroke-linejoin="round"/>
<path d="M78.2255 144.747V153.658L74.2956 157.597H65.3847V144.747H78.2255Z" fill="white" stroke="#7589FF" stroke-linecap="round" stroke-linejoin="round"/>
<path d="M78.2262 153.658L74.2957 157.597V153.658H78.2262Z" fill="white" stroke="#7589FF" stroke-linecap="round" stroke-linejoin="round"/>
<path d="M29.706 199.652V208.563L25.776 212.493H16.8563V199.652H29.706Z" fill="white" stroke="#7589FF" stroke-linecap="round" stroke-linejoin="round"/>
<path d="M29.7066 208.563L25.7761 212.493V208.563H29.7066Z" fill="white" stroke="#7589FF" stroke-linecap="round" stroke-linejoin="round"/>
<path d="M279.466 96.5014H232.077V126.201H279.466V96.5014Z" fill="#000B4B" stroke="#000B4B" stroke-linecap="round" stroke-linejoin="round"/>
<path d="M279.466 96.5014H232.077V101.014H279.466V96.5014Z" fill="#3DADF2" stroke="#000B4B" stroke-linecap="round" stroke-linejoin="round"/>
<path d="M236.908 104.821H249.024" stroke="white" stroke-linecap="round" stroke-linejoin="round"/>
<path d="M242.966 108.203H263.932" stroke="white" stroke-linecap="round" stroke-linejoin="round"/>
<path d="M240.29 111.356H246.464" stroke="white" stroke-linecap="round" stroke-linejoin="round"/>
<path d="M242.966 115.074H257.087" stroke="white" stroke-linecap="round" stroke-linejoin="round"/>
<path d="M236.908 118.447H249.024" stroke="white" stroke-linecap="round" stroke-linejoin="round"/>
<path d="M101.24 215.999H53.851V245.699H101.24V215.999Z" fill="#000B4B" stroke="#000B4B" stroke-linecap="round" stroke-linejoin="round"/>
<path d="M101.24 215.999H53.851V220.512H101.24V215.999Z" fill="#3DADF2" stroke="#000B4B" stroke-linecap="round" stroke-linejoin="round"/>
<path d="M58.6906 224.327H70.7984" stroke="white" stroke-linecap="round" stroke-linejoin="round"/>
<path d="M64.7401 227.7H85.7057" stroke="white" stroke-linecap="round" stroke-linejoin="round"/>
<path d="M62.0641 230.853H68.2381" stroke="white" stroke-linecap="round" stroke-linejoin="round"/>
<path d="M64.7401 234.571H78.8614" stroke="white" stroke-linecap="round" stroke-linejoin="round"/>
<path d="M58.6906 237.953H70.7984" stroke="white" stroke-linecap="round" stroke-linejoin="round"/>
<path d="M119.027 0.875412H75.4879C74.978 0.877735 74.4896 1.08132 74.1291 1.44187C73.7685 1.80242 73.5649 2.29076 73.5626 2.80065V23.1128C73.565 23.6219 73.7688 24.1093 74.1296 24.4684C74.4904 24.8276 74.9788 25.0292 75.4879 25.0292H95.0052L97.2307 32.9774L99.465 25.0292H119.027C119.536 25.0292 120.024 24.8276 120.385 24.4684C120.746 24.1093 120.949 23.6219 120.952 23.1128V2.80065C120.949 2.29076 120.746 1.80242 120.385 1.44187C120.025 1.08132 119.536 0.877735 119.027 0.875412Z" fill="#3DADF2" stroke="#F2F2F2" stroke-linecap="round" stroke-linejoin="round"/>
<path d="M80.7867 6.68645H113.684" stroke="#F2F2F2" stroke-width="2" stroke-linecap="round" stroke-linejoin="round"/>
<path d="M80.7867 10.8549H113.684" stroke="#F2F2F2" stroke-width="2" stroke-linecap="round" stroke-linejoin="round"/>
<path d="M80.7867 15.0233H113.684" stroke="#F2F2F2" stroke-width="2" stroke-linecap="round" stroke-linejoin="round"/>
<path d="M80.7867 19.1917H105.576" stroke="#F2F2F2" stroke-width="2" stroke-linecap="round" stroke-linejoin="round"/>
<path d="M190.446 145.339C185.774 145.736 179.848 140.155 179.848 140.155C179.735 140.272 179.595 140.362 179.441 140.416C179.287 140.47 179.123 140.487 178.961 140.467C178.799 140.446 178.644 140.388 178.508 140.297C178.372 140.206 178.26 140.085 178.179 139.943C177.42 138.848 174.125 136.313 173.94 134.123C173.755 131.933 177.64 128.383 177.64 128.383C174.646 129.195 174.329 127.438 174.329 127.438C174.329 127.438 179.371 123.278 181.138 123.163C181.826 123.119 184.829 124.85 187.735 127.182C190.773 129.628 196.478 138.239 196.478 138.239C196.478 138.239 215.774 152.254 220.649 155.839C227.087 160.573 234.717 168.972 234.717 168.972C234.717 168.972 260.328 180.523 267.394 186.873L257.838 209.499C257.838 209.499 234.55 193.894 232.227 189.937C229.904 185.981 227.573 188.357 225.241 185.769C222.91 183.181 220.676 180.223 220.676 180.223C216.529 178.221 212.766 175.507 209.557 172.204C204.117 166.614 199.321 158.074 196.31 152.934C194.751 150.12 192.773 147.559 190.446 145.339Z" fill="white" stroke="#000B4B" stroke-linecap="round" stroke-linejoin="round"/>
<path d="M191.868 142.036C191.868 142.036 184.917 140.349 184.317 135.766C184.051 134.604 183.543 133.511 182.824 132.56C182.824 132.56 176.342 132.242 176.748 129.601L185.403 128.833C188.553 130.043 191.206 132.276 192.936 135.174" fill="white"/>
<path d="M191.868 142.036C191.868 142.036 184.917 140.349 184.317 135.766C184.051 134.604 183.543 133.511 182.824 132.56C182.824 132.56 176.342 132.242 176.748 129.601L185.403 128.833C188.553 130.043 191.206 132.276 192.936 135.174" stroke="#000B4B" stroke-linecap="round" stroke-linejoin="round"/>
<path d="M179.839 140.155C180.148 139.583 180.25 138.922 180.131 138.283C180.131 138.283 182.038 137.929 181.826 136.243C181.826 136.243 184.652 135.898 182.824 132.56" stroke="#000B4B" stroke-linecap="round" stroke-linejoin="round"/>
<path d="M181.827 136.243C181.827 136.243 178.02 133.426 177.596 132.136" stroke="#000B4B" stroke-linecap="round" stroke-linejoin="round"/>
<path d="M180.131 138.283C180.131 138.283 176.077 135.81 176.006 134.37" stroke="#000B4B" stroke-linecap="round" stroke-linejoin="round"/>
<path d="M181.059 125.583C181.059 125.583 179.769 127.897 177.631 128.383" stroke="#000B4B" stroke-linecap="round" stroke-linejoin="round"/>
<path d="M180.413 126.484C181.091 126.838 181.731 127.261 182.321 127.747" stroke="#000B4B" stroke-linecap="round" stroke-linejoin="round"/>
<path d="M328.436 204.703C318.443 200.474 308.135 197.031 297.606 194.406C282.098 190.776 256.981 187.535 256.981 187.535C256.981 187.535 263.887 258.01 262.068 262.249C260.249 266.488 249.333 280.724 249.333 280.724C249.333 280.724 308.406 303.756 318.704 305.717C329.001 307.677 323.632 271.937 323.632 271.937C323.632 271.937 334.512 226.508 328.436 204.703Z" fill="#000B4B"/>
<path d="M307.232 197.135C307.232 197.135 308.636 199.784 304.944 201.171C295.38 204.703 285.189 201.586 286.275 197.841C286.69 196.411 289.057 197.841 288.924 192.543C288.859 191.726 288.64 190.929 288.28 190.193C287.605 188.76 286.792 187.397 285.851 186.122C284.83 184.704 283.737 183.339 282.575 182.033C282.575 182.033 297.756 172.319 309.016 182.033C308.998 181.989 304.812 184.109 307.232 197.135Z" fill="white" stroke="#000B4B" stroke-linecap="round" stroke-linejoin="round"/>
<path d="M326.043 322.655C320.064 332.37 289.728 336.971 273.169 336.538C256.61 336.105 208.965 313.577 205.733 308.772C202.739 304.357 195.383 289.723 206.722 280.883C207.684 280.14 208.706 279.478 209.778 278.905C217.54 274.701 269.169 287.957 269.169 287.957C269.169 287.957 272.366 285.934 273.54 286.085C277.143 286.544 279.722 289.458 286.999 291.533C292.095 292.991 306.004 287.392 314.889 292.205C315.875 292.732 316.784 293.392 317.591 294.165C325.893 302.096 332.013 312.914 326.043 322.655Z" fill="#3DADF2"/>
<path opacity="0.3" d="M314.889 292.205C305.783 291.595 297.667 293.503 291.998 296.85C285.277 300.824 253.537 316.111 253.537 316.111C253.608 314.469 255.374 311.157 255.374 311.157C252.389 308.507 244.582 306.432 244.582 306.432C238.533 301.266 214.555 285.855 206.722 280.883C207.684 280.14 208.706 279.478 209.778 278.905C217.54 274.701 269.169 287.957 269.169 287.957C269.169 287.957 272.366 285.934 273.54 286.085C277.143 286.544 279.722 289.458 286.999 291.533C292.121 292.991 306.004 287.392 314.889 292.205Z" fill="black" fill-opacity="0.7"/>
<path d="M326.043 322.655C320.064 332.37 289.728 336.971 273.169 336.538C256.61 336.105 208.965 313.577 205.733 308.772C202.739 304.357 195.383 289.723 206.722 280.883C207.684 280.14 208.706 279.478 209.778 278.905C217.54 274.701 269.169 287.957 269.169 287.957C269.169 287.957 272.366 285.934 273.54 286.085C277.143 286.544 279.722 289.458 286.999 291.533C292.095 292.991 306.004 287.392 314.889 292.205C315.875 292.732 316.784 293.392 317.591 294.165C325.893 302.096 332.013 312.914 326.043 322.655Z" stroke="#000B4B" stroke-linecap="round" stroke-linejoin="round"/>
<path d="M316.734 331.451L317.494 334.781C317.494 334.781 315.463 340.539 306.534 341.484C297.606 342.429 292.316 344.398 287.988 344.654C285.726 344.833 283.452 344.797 281.197 344.548L280.314 343.241L316.734 331.451Z" fill="white" stroke="#000B4B" stroke-linecap="round" stroke-linejoin="round"/>
<path d="M264.885 331.098L280.358 343.241C287.815 342.604 295.225 341.495 302.542 339.92C309.872 338.225 316.275 335.796 316.62 332.458C317.158 327.389 311.736 326.002 305.298 326.196C304.097 326.196 302.86 326.32 301.615 326.444C291.309 327.548 278.203 321.86 278.203 321.86L264.885 331.098Z" fill="#000B4B"/>
<path opacity="0.3" d="M316.628 332.334C313.625 333.452 310.743 334.872 308.027 336.573C308.027 336.573 293.658 343.965 271.571 336.353L264.885 331.098L278.203 321.852C278.203 321.852 291.3 327.548 301.615 326.435C302.86 326.303 304.097 326.214 305.298 326.188C311.692 325.993 317.07 327.354 316.628 332.334Z" fill="black" fill-opacity="0.7"/>
<path d="M264.885 331.098L280.358 343.241C287.815 342.604 295.225 341.495 302.542 339.92V339.92C309.872 338.225 316.275 335.796 316.62 332.458C317.158 327.389 311.736 326.002 305.298 326.196C304.097 326.196 302.86 326.32 301.615 326.444C291.309 327.548 278.203 321.86 278.203 321.86L264.885 331.098Z" stroke="#000B4B" stroke-linecap="round" stroke-linejoin="round"/>
<path d="M279.307 335.885C276.516 336.335 279.581 342.067 283.361 340.301C287.142 338.534 282.098 335.425 279.307 335.885Z" fill="white"/>
<path opacity="0.2" d="M284.545 339.391C282.523 339.145 280.515 338.794 278.53 338.34C278 337.218 278.124 336.07 279.307 335.885C281.648 335.496 285.587 337.66 284.545 339.391Z" fill="black" fill-opacity="0.7"/>
<path d="M279.307 335.885C276.516 336.335 279.581 342.067 283.361 340.301C287.142 338.534 282.098 335.425 279.307 335.885Z" stroke="#000B4B" stroke-linecap="round" stroke-linejoin="round"/>
<path d="M302.542 339.912C309.872 338.216 316.275 335.787 316.619 332.449C317.158 327.38 311.736 325.993 305.298 326.188C305.015 326.462 298.771 332.493 302.542 339.912Z" fill="white"/>
<path opacity="0.3" d="M316.628 332.334C313.625 333.452 310.743 334.872 308.027 336.573C306.091 337.468 304.062 338.147 301.977 338.596C299.504 331.796 305.033 326.444 305.298 326.188C311.692 325.993 317.07 327.354 316.628 332.334Z" fill="black" fill-opacity="0.7"/>
<path d="M302.542 339.912C309.872 338.216 316.275 335.787 316.619 332.449C317.158 327.38 311.736 325.993 305.298 326.188C305.015 326.462 298.771 332.493 302.542 339.912Z" stroke="#000B4B" stroke-linecap="round" stroke-linejoin="round"/>
<path d="M297.314 333.615H297.358C297.459 333.62 297.559 333.604 297.654 333.57C297.748 333.536 297.835 333.483 297.909 333.415C297.983 333.346 298.043 333.264 298.084 333.173C298.126 333.081 298.15 332.982 298.153 332.882C298.403 330.712 299.33 328.676 300.802 327.062C300.874 326.991 300.93 326.907 300.968 326.815C301.007 326.723 301.027 326.623 301.027 326.523C301.027 326.423 301.007 326.324 300.968 326.232C300.93 326.139 300.874 326.055 300.802 325.985C300.659 325.843 300.465 325.764 300.264 325.764C300.062 325.764 299.869 325.843 299.725 325.985C297.993 327.863 296.918 330.252 296.661 332.794C296.643 332.988 296.701 333.182 296.823 333.335C296.944 333.488 297.12 333.588 297.314 333.615Z" fill="white" stroke="#000B4B" stroke-linecap="round" stroke-linejoin="round"/>
<path d="M294.25 333.818H294.312C294.412 333.82 294.512 333.803 294.606 333.766C294.699 333.73 294.785 333.675 294.857 333.605C294.929 333.535 294.987 333.452 295.027 333.359C295.066 333.267 295.088 333.168 295.089 333.067C295.264 330.862 296.081 328.756 297.438 327.009C297.512 326.933 297.57 326.842 297.607 326.742C297.645 326.643 297.661 326.536 297.655 326.43C297.649 326.324 297.621 326.22 297.573 326.125C297.525 326.03 297.457 325.946 297.375 325.879C297.293 325.811 297.198 325.762 297.095 325.733C296.993 325.704 296.885 325.697 296.78 325.712C296.675 325.727 296.573 325.764 296.483 325.82C296.393 325.876 296.315 325.95 296.254 326.038C294.678 328.048 293.74 330.484 293.561 333.032C293.553 333.226 293.62 333.416 293.749 333.562C293.877 333.709 294.056 333.8 294.25 333.818Z" fill="white" stroke="#000B4B" stroke-linecap="round" stroke-linejoin="round"/>
<path d="M290.585 333.412C290.684 333.421 290.785 333.411 290.881 333.382C290.977 333.352 291.066 333.304 291.143 333.24C291.22 333.176 291.284 333.098 291.331 333.009C291.377 332.92 291.406 332.823 291.415 332.723C291.653 330.074 293.932 326.603 293.958 326.541C294.07 326.371 294.11 326.163 294.071 325.963C294.031 325.763 293.915 325.587 293.746 325.472C293.577 325.361 293.371 325.321 293.173 325.361C292.974 325.4 292.8 325.517 292.686 325.684C292.58 325.834 290.161 329.473 289.887 332.546C289.873 332.649 289.881 332.754 289.909 332.854C289.937 332.954 289.985 333.047 290.051 333.128C290.116 333.209 290.197 333.276 290.288 333.325C290.38 333.373 290.481 333.403 290.585 333.412Z" fill="white" stroke="#000B4B" stroke-linecap="round" stroke-linejoin="round"/>
<path d="M287.123 333.05C287.19 333.058 287.259 333.058 287.326 333.05C287.426 333.034 287.521 332.998 287.606 332.945C287.692 332.891 287.766 332.822 287.825 332.74C287.883 332.657 287.924 332.564 287.946 332.466C287.968 332.368 287.971 332.266 287.953 332.167C287.414 328.917 290.435 326.135 290.461 326.108C290.561 325.967 290.61 325.796 290.601 325.623C290.592 325.451 290.525 325.286 290.41 325.156C290.296 325.026 290.141 324.939 289.971 324.908C289.8 324.878 289.625 324.905 289.472 324.987C289.322 325.119 285.798 328.351 286.478 332.44C286.511 332.596 286.59 332.737 286.705 332.846C286.82 332.955 286.966 333.026 287.123 333.05Z" fill="white" stroke="#000B4B" stroke-linecap="round" stroke-linejoin="round"/>
<path d="M283.361 332.14C283.442 332.153 283.526 332.153 283.608 332.14C283.798 332.094 283.963 331.976 284.07 331.812C284.177 331.648 284.217 331.45 284.182 331.257C283.52 328.36 286.372 325.075 286.407 325.075C286.54 324.922 286.606 324.723 286.593 324.522C286.58 324.32 286.488 324.132 286.337 323.997C286.262 323.93 286.175 323.879 286.08 323.845C285.986 323.812 285.885 323.798 285.785 323.804C285.685 323.809 285.587 323.835 285.497 323.879C285.406 323.923 285.326 323.984 285.259 324.059C285.118 324.218 281.85 327.954 282.689 331.628C282.738 331.77 282.828 331.895 282.947 331.986C283.067 332.077 283.211 332.131 283.361 332.14Z" fill="white" stroke="#000B4B" stroke-linecap="round" stroke-linejoin="round"/>
<path d="M203.808 326.47L202.704 329.703C202.704 329.703 204.117 335.646 212.895 337.518C221.674 339.391 226.725 341.934 230.964 342.623C233.195 343.034 235.46 343.235 237.729 343.223L238.745 342.013L203.808 326.47Z" fill="white" stroke="#000B4B" stroke-linecap="round" stroke-linejoin="round"/>
<path d="M255.374 331.566L238.718 342.014C231.368 340.598 224.115 338.719 217.002 336.388C209.892 333.933 203.755 330.842 203.755 327.486C203.755 322.381 209.292 321.578 215.677 322.443C216.869 322.602 218.088 322.823 219.316 323.079C229.445 325.26 243.072 320.977 243.072 320.977L255.374 331.566Z" fill="#000B4B"/>
<path opacity="0.3" d="M255.374 331.566L245.58 337.748C237.638 335.281 230.674 330.378 225.674 323.733C231.578 323.603 237.438 322.685 243.098 321.004L255.374 331.566Z" fill="black" fill-opacity="0.7"/>
<path d="M255.374 331.566L238.718 342.014C231.368 340.598 224.115 338.719 217.002 336.388V336.388C209.892 333.933 203.755 330.842 203.755 327.486C203.755 322.381 209.292 321.578 215.677 322.443C216.869 322.602 218.088 322.823 219.316 323.079C229.445 325.26 243.072 320.977 243.072 320.977L255.374 331.566Z" stroke="#000B4B" stroke-linecap="round" stroke-linejoin="round"/>
<path d="M217.002 336.379C209.892 333.924 203.755 330.833 203.755 327.477C203.755 322.373 209.292 321.569 215.677 322.434C215.96 322.735 221.532 329.402 217.002 336.379Z" fill="white" stroke="#000B4B" stroke-linecap="round" stroke-linejoin="round"/>
<path d="M222.866 330.665H222.822C222.618 330.652 222.429 330.559 222.293 330.407C222.158 330.255 222.088 330.056 222.097 329.853C222.083 327.673 221.382 325.553 220.093 323.794C220.018 323.717 219.96 323.625 219.922 323.524C219.885 323.423 219.87 323.315 219.877 323.208C219.884 323.1 219.914 322.996 219.964 322.9C220.014 322.805 220.084 322.722 220.168 322.655C220.253 322.588 220.351 322.54 220.455 322.514C220.56 322.488 220.668 322.483 220.774 322.502C220.88 322.52 220.982 322.56 221.071 322.62C221.16 322.68 221.236 322.758 221.294 322.849C222.818 324.889 223.636 327.369 223.625 329.915C223.623 330.114 223.542 330.305 223.4 330.446C223.257 330.586 223.066 330.665 222.866 330.665Z" fill="white" stroke="#000B4B" stroke-linecap="round" stroke-linejoin="round"/>
<path d="M225.886 331.169H225.815C225.613 331.151 225.426 331.053 225.295 330.898C225.164 330.742 225.101 330.541 225.118 330.339C225.181 328.131 224.594 325.954 223.431 324.077C223.373 323.994 223.332 323.899 223.31 323.8C223.289 323.701 223.287 323.598 223.305 323.498C223.323 323.398 223.361 323.303 223.416 323.217C223.47 323.132 223.542 323.058 223.625 323C223.709 322.942 223.803 322.901 223.902 322.879C224.002 322.857 224.104 322.856 224.204 322.874C224.304 322.892 224.4 322.929 224.485 322.984C224.571 323.039 224.645 323.11 224.703 323.194C226.067 325.356 226.744 327.881 226.646 330.436C226.637 330.632 226.553 330.817 226.412 330.953C226.27 331.09 226.082 331.167 225.886 331.169Z" fill="white" stroke="#000B4B" stroke-linecap="round" stroke-linejoin="round"/>
<path d="M229.578 331.169C229.375 331.164 229.181 331.08 229.039 330.935C228.898 330.79 228.818 330.595 228.818 330.391C228.871 327.698 226.964 324.051 226.937 324.015C226.843 323.833 226.825 323.622 226.886 323.427C226.948 323.232 227.083 323.069 227.264 322.973C227.444 322.88 227.654 322.862 227.848 322.923C228.041 322.985 228.203 323.12 228.297 323.3C228.385 323.459 230.408 327.327 230.355 330.418C230.35 330.62 230.266 330.812 230.12 330.953C229.975 331.093 229.78 331.171 229.578 331.169Z" fill="white" stroke="#000B4B" stroke-linecap="round" stroke-linejoin="round"/>
<path d="M233.057 331.169H232.854C232.659 331.113 232.493 330.982 232.394 330.805C232.295 330.628 232.27 330.419 232.324 330.224C233.207 327.053 230.496 323.962 230.47 323.936C230.393 323.863 230.332 323.775 230.291 323.677C230.25 323.579 230.23 323.474 230.231 323.368C230.233 323.263 230.256 323.158 230.3 323.062C230.344 322.965 230.407 322.879 230.486 322.808C230.565 322.737 230.657 322.684 230.758 322.65C230.858 322.617 230.964 322.605 231.07 322.614C231.175 322.624 231.278 322.656 231.37 322.707C231.463 322.758 231.544 322.827 231.609 322.911C231.741 323.061 234.912 326.647 233.799 330.639C233.747 330.794 233.647 330.929 233.514 331.024C233.381 331.119 233.221 331.17 233.057 331.169Z" fill="white" stroke="#000B4B" stroke-linecap="round" stroke-linejoin="round"/>
<path d="M236.899 330.665C236.814 330.669 236.73 330.654 236.651 330.621C236.555 330.59 236.466 330.54 236.39 330.474C236.313 330.408 236.251 330.328 236.206 330.237C236.162 330.146 236.136 330.047 236.13 329.946C236.125 329.846 236.14 329.745 236.175 329.65C237.137 326.841 234.638 323.282 234.62 323.247C234.548 323.166 234.493 323.071 234.46 322.968C234.427 322.865 234.416 322.756 234.428 322.648C234.44 322.541 234.475 322.437 234.53 322.344C234.585 322.25 234.659 322.17 234.748 322.107C234.836 322.044 234.936 322.001 235.043 321.98C235.149 321.959 235.258 321.961 235.364 321.985C235.47 322.009 235.569 322.055 235.655 322.121C235.742 322.186 235.813 322.269 235.865 322.364C235.989 322.532 238.842 326.594 237.632 330.162C237.576 330.311 237.475 330.439 237.344 330.529C237.213 330.619 237.058 330.666 236.899 330.665Z" fill="white" stroke="#000B4B" stroke-linecap="round" stroke-linejoin="round"/>
<path d="M240.529 334.807C243.259 335.558 239.646 340.902 236.033 338.782C232.421 336.662 237.809 334.065 240.529 334.807Z" fill="white" stroke="#000B4B" stroke-linecap="round" stroke-linejoin="round"/>
<path d="M209.036 306.441C213.125 312.172 225.25 318.504 237.296 323.724C239.451 327.292 241.992 330.612 244.874 333.624C252.31 341.272 255.339 336.988 255.339 336.988C255.339 336.988 260.037 336.459 266.97 335.514C267.258 336.186 267.761 336.744 268.4 337.1C269.039 337.457 269.778 337.591 270.502 337.483C271.385 337.342 273.152 336.052 275.103 334.348C292.616 331.699 316.381 327.283 322.793 322.143" fill="#3DADF2"/>
<path d="M209.036 306.441C213.125 312.172 225.25 318.504 237.296 323.724C239.451 327.292 241.992 330.612 244.874 333.624C252.31 341.272 255.339 336.988 255.339 336.988C255.339 336.988 260.037 336.459 266.97 335.514C267.258 336.186 267.761 336.744 268.4 337.1C269.039 337.457 269.778 337.591 270.502 337.483C271.385 337.342 273.152 336.052 275.103 334.348C292.616 331.699 316.381 327.283 322.793 322.143" stroke="#000B4B" stroke-linecap="round" stroke-linejoin="round"/>
<path d="M315.966 295.525C312.937 292.196 309.908 292.046 303.549 292.496C303.549 292.496 286.955 297.795 275.377 304.763C263.799 311.731 246.913 319.123 246.913 319.123C246.913 319.123 241.765 317.63 238.179 319.123C238.179 319.123 235.662 319.317 237.349 323.715" stroke="#000B4B" stroke-linecap="round" stroke-linejoin="round"/>
<path d="M323.667 315.422C323.667 315.422 323.755 320.553 316.478 324.104" stroke="#000B4B" stroke-linecap="round" stroke-linejoin="round"/>
<path d="M243.408 294.015C243.408 294.015 254.888 302.317 257.193 307.792C259.45 308.743 261.629 309.868 263.711 311.157" stroke="#000B4B" stroke-linecap="round" stroke-linejoin="round"/>
<path d="M258.023 300.912C258.865 303.298 259.006 305.876 258.43 308.34" stroke="#000B4B" stroke-linecap="round" stroke-linejoin="round"/>
<path d="M255.374 295.525C256 296.435 256.549 297.395 257.017 298.396" stroke="#000B4B" stroke-linecap="round" stroke-linejoin="round"/>
<path d="M271.73 294.766C271.73 294.766 275.571 299.906 276.525 304.074" stroke="#000B4B" stroke-linecap="round" stroke-linejoin="round"/>
<path d="M293.128 325.817C294.557 325.733 295.979 325.556 297.385 325.287" stroke="#000B4B" stroke-linecap="round" stroke-linejoin="round"/>
<path d="M257.087 322.134C267.973 324.29 279.016 325.557 290.108 325.923" stroke="#000B4B" stroke-linecap="round" stroke-linejoin="round"/>
<path d="M334.795 244.259C334.795 244.259 332.719 280.468 330.273 282.543C327.827 284.618 323.967 285.263 316.664 285.872C309.36 286.482 277.055 288.46 277.055 288.46L273.575 278.083C273.575 278.083 290.752 276.317 298.374 273.535C304.12 271.571 309.999 270.018 315.966 268.89C315.966 268.89 314.518 259.785 314.518 255.864V237.424" fill="white"/>
<path d="M334.795 244.259C334.795 244.259 332.719 280.468 330.273 282.543C327.827 284.618 323.967 285.263 316.664 285.872C309.36 286.482 277.055 288.46 277.055 288.46L273.575 278.083C273.575 278.083 290.752 276.317 298.374 273.535C304.12 271.571 309.999 270.018 315.966 268.89C315.966 268.89 314.518 259.785 314.518 255.864V237.424" stroke="#000B4B" stroke-linecap="round" stroke-linejoin="round"/>
<path d="M328.436 204.703C336.305 209.552 338.627 220.759 335.907 244.683C335.907 244.683 338.23 247.509 334.795 248.922C334.795 248.922 321.927 244.109 315.948 247.43C309.97 250.75 311.533 242.846 311.533 242.846C311.533 242.846 309.069 220.838 314.518 216.855" fill="#000B4B"/>
<path d="M313.794 213.491C313.794 213.491 306.225 221.359 312.91 241.248C312.489 242.871 312.193 244.524 312.027 246.193C312.027 247.527 313.855 248.216 313.855 248.216" stroke="white" stroke-linecap="round" stroke-linejoin="round"/>
<path d="M304.944 226.817C304.944 226.817 305.492 236.532 311.515 240.744" stroke="white" stroke-linecap="round" stroke-linejoin="round"/>
<path d="M306.887 204.262C306.887 204.262 295.151 208.757 285.816 203.776C280.279 200.826 282.557 196.084 282.557 196.084" stroke="white" stroke-linecap="round" stroke-linejoin="round"/>
<path d="M222.486 295.543H286.372C287.815 295.544 289.252 295.356 290.646 294.987L303.249 291.684C303.423 291.639 303.577 291.537 303.688 291.395C303.798 291.253 303.858 291.078 303.858 290.898C303.858 290.68 303.772 290.471 303.618 290.317C303.464 290.163 303.255 290.076 303.037 290.076H219.845C219.629 290.079 219.422 290.166 219.27 290.32C219.118 290.474 219.033 290.681 219.033 290.898V292.09C219.033 293.006 219.397 293.884 220.044 294.532C220.692 295.179 221.57 295.543 222.486 295.543Z" fill="#757575" stroke="#000B4B" stroke-linecap="round" stroke-linejoin="round"/>
<path d="M216.172 292.364H280.234C280.485 292.375 280.735 292.324 280.961 292.215C281.188 292.107 281.384 291.944 281.532 291.741C281.68 291.538 281.775 291.301 281.809 291.052C281.843 290.803 281.815 290.55 281.727 290.315L269.849 244.1C269.689 243.533 269.357 243.03 268.898 242.661C268.439 242.292 267.876 242.076 267.288 242.042H203.207C202.956 242.033 202.706 242.085 202.48 242.195C202.254 242.305 202.058 242.468 201.91 242.672C201.763 242.876 201.668 243.112 201.634 243.362C201.599 243.611 201.627 243.864 201.715 244.1L213.602 290.315C213.761 290.883 214.094 291.387 214.556 291.754C215.017 292.122 215.582 292.335 216.172 292.364Z" fill="#999999" stroke="#000B4B" stroke-linecap="round" stroke-linejoin="round"/>
<path d="M205.468 243.685H204.258" stroke="#000B4B" stroke-linecap="round" stroke-linejoin="round"/>
<path d="M214.857 243.685H208.603" stroke="#000B4B" stroke-linecap="round" stroke-linejoin="round"/>
<path d="M278.68 286.526L268.188 245.743C268.031 245.176 267.7 244.673 267.242 244.304C266.785 243.935 266.223 243.719 265.636 243.685H216.269" stroke="#000B4B" stroke-linecap="round" stroke-linejoin="round"/>
<path d="M279.59 290.076L279.325 289.061" stroke="#000B4B" stroke-linecap="round" stroke-linejoin="round"/>
<path d="M235.433 268.369C235.476 268.743 235.553 269.112 235.662 269.473C236.475 272.255 239.08 273.95 241.473 273.244C243.867 272.537 245.147 269.711 244.335 266.929C243.522 264.147 240.899 262.452 238.506 263.158C238.227 263.244 237.957 263.359 237.702 263.503C237.834 264.446 237.69 265.408 237.287 266.271C236.884 267.135 236.24 267.863 235.433 268.369Z" fill="white" stroke="#000B4B" stroke-linecap="round" stroke-linejoin="round"/>
<path d="M263.711 181.759C258.165 181.159 255.144 175.887 251.806 175.065C249.944 174.62 248.119 174.029 246.348 173.299C246.348 173.299 245.2 169.29 243.478 170.65C241.756 172.01 239.495 202.001 241.712 201.056C243.929 200.111 243.937 203.652 243.937 203.652L264.523 221.792L281.78 191.236C281.78 191.236 269.257 182.369 263.711 181.759Z" fill="#000B4B"/>
<path d="M95.9592 74.962V74.5204H96.4008" stroke="#000B4B" stroke-linecap="round" stroke-linejoin="round"/>
<path d="M98.9977 74.5204H173.711" stroke="#000B4B" stroke-linecap="round" stroke-linejoin="round" stroke-dasharray="0.98 2.93"/>
<path d="M175 74.5202H175.441V74.9618" stroke="#000B4B" stroke-linecap="round" stroke-linejoin="round"/>
<path d="M175.45 77.6112V125.742" stroke="#000B4B" stroke-linecap="round" stroke-linejoin="round" stroke-dasharray="1 3"/>
<path d="M175.441 127.067V127.508H175" stroke="#000B4B" stroke-linecap="round" stroke-linejoin="round"/>
<path d="M172.412 127.508H97.6987" stroke="#000B4B" stroke-linecap="round" stroke-linejoin="round" stroke-dasharray="0.98 2.93"/>
<path d="M96.4006 127.508H95.9589V127.067" stroke="#000B4B" stroke-linecap="round" stroke-linejoin="round"/>
<path d="M95.9681 124.418V76.287" stroke="#000B4B" stroke-linecap="round" stroke-linejoin="round" stroke-dasharray="1 3"/>
<path d="M135.709 75.8276C136.431 75.8276 137.016 75.2424 137.016 74.5204C137.016 73.7984 136.431 73.2132 135.709 73.2132C134.987 73.2132 134.402 73.7984 134.402 74.5204C134.402 75.2424 134.987 75.8276 135.709 75.8276Z" fill="#3DADF2" stroke="#000B4B" stroke-linecap="round" stroke-linejoin="round"/>
<path d="M95.9679 102.322C96.6899 102.322 97.2752 101.736 97.2752 101.015C97.2752 100.293 96.6899 99.7073 95.9679 99.7073C95.246 99.7073 94.6607 100.293 94.6607 101.015C94.6607 101.736 95.246 102.322 95.9679 102.322Z" fill="#3DADF2" stroke="#000B4B" stroke-linecap="round" stroke-linejoin="round"/>
<path d="M135.709 128.816C136.431 128.816 137.016 128.231 137.016 127.509C137.016 126.787 136.431 126.201 135.709 126.201C134.987 126.201 134.402 126.787 134.402 127.509C134.402 128.231 134.987 128.816 135.709 128.816Z" fill="#3DADF2" stroke="#000B4B" stroke-linecap="round" stroke-linejoin="round"/>
<path d="M175.45 102.322C176.172 102.322 176.757 101.736 176.757 101.015C176.757 100.293 176.172 99.7073 175.45 99.7073C174.728 99.7073 174.143 100.293 174.143 101.015C174.143 101.736 174.728 102.322 175.45 102.322Z" fill="#3DADF2" stroke="#000B4B" stroke-linecap="round" stroke-linejoin="round"/>
<path d="M176.97 125.989H173.922V129.037H176.97V125.989Z" fill="#3DADF2" stroke="#000B4B" stroke-linecap="round" stroke-linejoin="round"/>
<path d="M176.97 73.0012H173.922V76.0485H176.97V73.0012Z" fill="#3DADF2" stroke="#000B4B" stroke-linecap="round" stroke-linejoin="round"/>
<path d="M97.4872 125.989H94.4399V129.037H97.4872V125.989Z" fill="#3DADF2" stroke="#000B4B" stroke-linecap="round" stroke-linejoin="round"/>
<path d="M97.4872 73.0012H94.4399V76.0485H97.4872V73.0012Z" fill="#3DADF2" stroke="#000B4B" stroke-linecap="round" stroke-linejoin="round"/>
<path d="M170.416 79.2097H101.24V123.163H170.416V79.2097Z" fill="white" stroke="#000B4B" stroke-linecap="round" stroke-linejoin="round"/>
<path d="M170.416 110.181L162.724 117.873L141.917 97.0667L133.166 105.819L119.212 91.865L101.24 109.828V123.163H170.416V110.181Z" fill="#3DADF2" stroke="#000B4B" stroke-linecap="round" stroke-linejoin="round"/>
<path d="M156.083 96.5721C158.78 96.5721 160.967 94.3856 160.967 91.6884C160.967 88.9912 158.78 86.8047 156.083 86.8047C153.386 86.8047 151.199 88.9912 151.199 91.6884C151.199 94.3856 153.386 96.5721 156.083 96.5721Z" fill="#3DADF2" stroke="#000B4B" stroke-linecap="round" stroke-linejoin="round"/>
<path d="M267.393 189.867C267.393 189.867 262.095 199.731 261.468 214.824" stroke="white" stroke-linecap="round" stroke-linejoin="round"/>
<path d="M251.815 196.693C251.815 196.693 253.396 205.083 257.997 211.159" stroke="white" stroke-linecap="round" stroke-linejoin="round"/>
<path d="M273.575 231.312C273.575 231.312 281.524 257.418 298.789 265.101" stroke="white" stroke-linecap="round" stroke-linejoin="round"/>
<path d="M294.488 184.056C294.488 184.056 293.738 189.752 288.262 190.149C287.587 188.716 286.774 187.353 285.833 186.078C288.677 185.237 291.567 184.561 294.488 184.056Z" fill="#000B4B"/>
<path d="M306.154 184.453C306.154 184.453 315.312 185.575 319.145 173.281C322.978 160.988 319.967 151.724 304.812 147.264C296.404 144.791 288.032 146.778 284.968 153.146C282.371 158.595 283.599 163.125 283.007 164.953C282.336 167.002 276.136 168.742 276.136 170.146C276.136 171.303 279.572 173.281 279.572 173.281L278.565 176.337L279.51 176.84C279.51 176.84 277.744 183.72 278.565 186.149C279.148 187.915 294.665 188.657 295.875 184.259" fill="white"/>
<path d="M306.154 184.453C306.154 184.453 315.312 185.575 319.145 173.281C322.978 160.988 319.967 151.724 304.812 147.264C296.404 144.791 288.032 146.778 284.968 153.146C282.371 158.595 283.599 163.125 283.007 164.953C282.336 167.002 276.136 168.742 276.136 170.146C276.136 171.303 279.572 173.281 279.572 173.281L278.565 176.337L279.51 176.84C279.51 176.84 277.744 183.72 278.565 186.149C279.148 187.915 294.665 188.657 295.875 184.259" stroke="#000B4B" stroke-linecap="round" stroke-linejoin="round"/>
<path d="M285.056 157.606C285.056 157.606 288.086 158.365 288.916 159.955" stroke="#000B4B" stroke-linecap="round" stroke-linejoin="round"/>
<path d="M285.586 164.592C285.454 165.475 285.657 166.243 286.046 166.296C286.434 166.349 286.84 165.678 286.973 164.786C287.105 163.894 286.893 163.134 286.514 163.081C286.134 163.028 285.719 163.699 285.586 164.592Z" fill="#000B4B"/>
<path d="M279.51 176.84C279.51 176.84 284.439 178.731 286.276 177.591" stroke="#000B4B" stroke-linecap="round" stroke-linejoin="round"/>
<path d="M281.241 163.885C280.879 165.863 281.32 167.594 282.23 167.762C283.14 167.93 284.182 166.472 284.544 164.503C284.906 162.534 284.473 160.785 283.555 160.617C282.636 160.449 281.612 161.915 281.241 163.885Z" stroke="#000B4B" stroke-linecap="round" stroke-linejoin="round"/>
<path d="M319.552 153.826C318.814 150.247 316.759 147.076 313.794 144.942C310.488 142.62 306.703 141.072 302.719 140.411C302.719 140.411 305.642 141.692 306.755 143.378C306.755 143.378 299.187 137.691 290.196 141.427C281.206 145.162 282.327 154.868 282.327 154.868L283.634 152.325C283.634 152.325 283.484 155.354 285.074 156.466C285.55 154.983 286.199 153.56 287.008 152.227C287.008 152.227 289.393 159.39 295.954 161.818C295.508 160.689 295.471 159.44 295.848 158.286C295.848 158.286 299.487 166.154 298.427 169.996L299.584 172.01C299.584 172.01 303.761 167.779 307.161 171.303C309.113 173.334 303.426 181.018 302.613 181.018L306.048 186.06C306.048 186.06 314.633 187.288 319.578 177.989C324.524 168.689 323.314 164.741 323.314 164.741C323.314 164.741 324.93 167.002 325.08 168.274C325.098 168.256 326.564 158.268 319.552 153.826Z" fill="#000B4B"/>
<path d="M299.354 172.902C299.354 172.902 302.004 164 307.638 167.135C313.272 170.27 309.254 175.021 307.232 176.849C305.209 178.677 303.699 181.998 302.383 181.998C301.068 181.998 300.776 180.382 300.776 180.382" fill="white"/>
<path d="M299.354 172.902C299.354 172.902 302.004 164 307.638 167.135C313.272 170.27 309.254 175.021 307.232 176.849C305.209 178.677 303.699 181.998 302.383 181.998C301.068 181.998 300.776 180.382 300.776 180.382" stroke="#000B4B" stroke-linecap="round" stroke-linejoin="round"/>
<path d="M284.544 164.503L300.264 167.762" stroke="#000B4B" stroke-linecap="round" stroke-linejoin="round"/>
</svg>
