<svg width="41" height="41" viewBox="0 0 41 41" fill="none" xmlns="http://www.w3.org/2000/svg">
<rect opacity="0.05" x="0.987305" y="0.710693" width="40" height="40" rx="10" fill="#2B4961"/>
<path opacity="0.9" d="M28.9873 26.7107C30.0873 26.7107 30.9873 25.8107 30.9873 24.7107V14.7107C30.9873 13.6107 30.0873 12.7107 28.9873 12.7107H12.9873C11.8873 12.7107 10.9873 13.6107 10.9873 14.7107V24.7107C10.9873 25.2411 11.198 25.7498 11.5731 26.1249C11.9482 26.5 12.4569 26.7107 12.9873 26.7107H9.9873C9.4373 26.7107 8.9873 27.1607 8.9873 27.7107C8.9873 28.2607 9.4373 28.7107 9.9873 28.7107H31.9873C32.5373 28.7107 32.9873 28.2607 32.9873 27.7107C32.9873 27.1607 32.5373 26.7107 31.9873 26.7107H28.9873ZM21.9873 23.1807V20.9907C19.2073 20.9907 17.3773 21.8407 15.9873 23.7107C16.5473 21.0407 18.0973 18.3807 21.9873 17.8407V15.7107L25.5973 19.0707C25.8073 19.2707 25.8073 19.6007 25.5973 19.8007L21.9873 23.1807Z" fill="#000B4B"/>
</svg>
