<svg width="13" height="17" viewBox="0 0 13 17" fill="none" xmlns="http://www.w3.org/2000/svg">
<path opacity="0.8" d="M12.773 7.67498C12.773 7.59641 12.7087 7.53212 12.6302 7.53212H11.5587C11.4802 7.53212 11.4159 7.59641 11.4159 7.67498C11.4159 10.1803 9.38552 12.2107 6.88016 12.2107C4.3748 12.2107 2.34445 10.1803 2.34445 7.67498C2.34445 7.59641 2.28016 7.53212 2.20159 7.53212H1.13016C1.05159 7.53212 0.987305 7.59641 0.987305 7.67498C0.987305 10.6875 3.24802 13.1732 6.16588 13.525V15.3536H3.57123C3.32659 15.3536 3.13016 15.6089 3.13016 15.925V16.5678C3.13016 16.6464 3.18016 16.7107 3.24088 16.7107H10.5194C10.5802 16.7107 10.6302 16.6464 10.6302 16.5678V15.925C10.6302 15.6089 10.4337 15.3536 10.1891 15.3536H7.52302V13.5339C10.4748 13.2125 12.773 10.7125 12.773 7.67498ZM6.88016 10.7107C8.55695 10.7107 9.91588 9.36784 9.91588 7.71069V3.71069C9.91588 2.05355 8.55695 0.710693 6.88016 0.710693C5.20338 0.710693 3.84445 2.05355 3.84445 3.71069V7.71069C3.84445 9.36784 5.20338 10.7107 6.88016 10.7107ZM5.20159 3.71069C5.20159 2.80712 5.9498 2.06784 6.88016 2.06784C7.81052 2.06784 8.55873 2.80712 8.55873 3.71069V7.71069C8.55873 8.61426 7.81052 9.35355 6.88016 9.35355C5.9498 9.35355 5.20159 8.61426 5.20159 7.71069V3.71069Z" fill="#2B4961"/>
</svg>
