<svg width="18" height="18" viewBox="0 0 18 18" fill="none" xmlns="http://www.w3.org/2000/svg">
<path opacity="0.6" d="M14.8923 8.21066H14.4873V6.92566C14.1428 6.88107 13.8062 6.7885 13.4873 6.65066V9.21066H14.8923C15.277 9.19948 15.6524 9.33047 15.9466 9.57859C16.2409 9.82671 16.4334 10.1746 16.4873 10.5557C16.5068 10.7647 16.4821 10.9756 16.4149 11.1746C16.3477 11.3735 16.2395 11.5562 16.0973 11.7107C15.9575 11.867 15.7865 11.9922 15.5953 12.0783C15.4041 12.1645 15.197 12.2095 14.9873 12.2107H13.4873V16.1257H1.9873V12.7107H2.4873C2.83821 12.7125 3.18558 12.6404 3.5068 12.4992C3.82802 12.3579 4.1159 12.1506 4.35172 11.8907C4.58753 11.6308 4.766 11.3242 4.8755 10.9908C4.98501 10.6574 5.0231 10.3047 4.9873 9.95566C4.90627 9.32793 4.59689 8.75204 4.11823 8.33794C3.63956 7.92384 3.02515 7.70053 2.3923 7.71066H1.9873V4.62566H6.4873V3.71066C6.48843 3.50097 6.53351 3.29384 6.61963 3.10265C6.70575 2.91146 6.83101 2.74045 6.9873 2.60066C7.1418 2.45842 7.32444 2.35021 7.5234 2.28303C7.72236 2.21585 7.93321 2.19119 8.1423 2.21066C8.5234 2.2646 8.87125 2.45709 9.11937 2.75133C9.36749 3.04557 9.49848 3.42093 9.4873 3.80566V4.62566H11.5173C11.3863 4.30579 11.3004 3.96922 11.2623 3.62566H10.4873C10.4557 3.02375 10.2135 2.45211 9.80315 2.01067C9.39278 1.56922 8.8403 1.28605 8.2423 1.21066C7.90027 1.17544 7.55464 1.21116 7.22704 1.31559C6.89943 1.42001 6.59689 1.59089 6.33832 1.81755C6.07975 2.04421 5.87072 2.32176 5.72429 2.63287C5.57786 2.94398 5.49719 3.28195 5.4873 3.62566H1.9873C1.72209 3.62566 1.46773 3.73101 1.2802 3.91855C1.09266 4.10608 0.987305 4.36044 0.987305 4.62566V8.71066H2.3923C2.77703 8.69948 3.15239 8.83047 3.44663 9.07859C3.74087 9.32671 3.93336 9.67456 3.9873 10.0557C4.00677 10.2647 3.98211 10.4756 3.91493 10.6746C3.84775 10.8735 3.73954 11.0562 3.5973 11.2107C3.45751 11.367 3.2865 11.4922 3.09531 11.5783C2.90412 11.6645 2.69699 11.7095 2.4873 11.7107H0.987305V16.1257C0.987305 16.3909 1.09266 16.6452 1.2802 16.8328C1.46773 17.0203 1.72209 17.1257 1.9873 17.1257H13.4873C13.7525 17.1257 14.0069 17.0203 14.1944 16.8328C14.3819 16.6452 14.4873 16.3909 14.4873 16.1257V13.2107H14.9873C15.3382 13.2125 15.6856 13.1404 16.0068 12.9992C16.328 12.8579 16.6159 12.6506 16.8517 12.3907C17.0875 12.1308 17.266 11.8242 17.3755 11.4908C17.485 11.1574 17.5231 10.8047 17.4873 10.4557C17.4063 9.82793 17.0969 9.25204 16.6182 8.83794C16.1396 8.42384 15.5252 8.20053 14.8923 8.21066Z" fill="#2B4961"/>
<path opacity="0.6" d="M14.9873 5.71069C16.368 5.71069 17.4873 4.59141 17.4873 3.21069C17.4873 1.82998 16.368 0.710693 14.9873 0.710693C13.6066 0.710693 12.4873 1.82998 12.4873 3.21069C12.4873 4.59141 13.6066 5.71069 14.9873 5.71069Z" fill="#2B4961"/>
</svg>
