<svg width="21" height="21" viewBox="0 0 21 21" fill="none" xmlns="http://www.w3.org/2000/svg">
<path opacity="0.6" d="M10.9873 0.710693C5.4673 0.710693 0.987305 5.19069 0.987305 10.7107C0.987305 16.2307 5.4673 20.7107 10.9873 20.7107C16.5073 20.7107 20.9873 16.2307 20.9873 10.7107C20.9873 5.19069 16.5073 0.710693 10.9873 0.710693ZM10.9873 18.7107C6.5773 18.7107 2.9873 15.1207 2.9873 10.7107C2.9873 6.30069 6.5773 2.71069 10.9873 2.71069C15.3973 2.71069 18.9873 6.30069 18.9873 10.7107C18.9873 15.1207 15.3973 18.7107 10.9873 18.7107Z" fill="#2B4961"/>
<path opacity="0.6" d="M6.9873 14.7107C8.09187 14.7107 8.9873 13.8153 8.9873 12.7107C8.9873 11.6061 8.09187 10.7107 6.9873 10.7107C5.88274 10.7107 4.9873 11.6061 4.9873 12.7107C4.9873 13.8153 5.88274 14.7107 6.9873 14.7107Z" fill="#2B4961"/>
<path opacity="0.6" d="M10.9873 8.71069C12.0919 8.71069 12.9873 7.81526 12.9873 6.71069C12.9873 5.60612 12.0919 4.71069 10.9873 4.71069C9.88274 4.71069 8.9873 5.60612 8.9873 6.71069C8.9873 7.81526 9.88274 8.71069 10.9873 8.71069Z" fill="#2B4961"/>
<path opacity="0.6" d="M14.9873 14.7107C16.0919 14.7107 16.9873 13.8153 16.9873 12.7107C16.9873 11.6061 16.0919 10.7107 14.9873 10.7107C13.8827 10.7107 12.9873 11.6061 12.9873 12.7107C12.9873 13.8153 13.8827 14.7107 14.9873 14.7107Z" fill="#2B4961"/>
</svg>
