<svg width="471" height="351" viewBox="0 0 471 351" fill="none" xmlns="http://www.w3.org/2000/svg">
<path d="M470.013 308.075H0.610474V308.31H470.013V308.075Z" fill="#EBEBEB"/>
<path d="M422.979 323.181H373.156V323.415H422.979V323.181Z" fill="#EBEBEB"/>
<path d="M311.561 320.242H256.491V320.477H311.561V320.242Z" fill="#EBEBEB"/>
<path d="M375.56 318.89H357.544V319.125H375.56V318.89Z" fill="#EBEBEB"/>
<path d="M135.479 316.046H94.9321V316.28H135.479V316.046Z" fill="#EBEBEB"/>
<path d="M89.703 316.046H75.2079V316.28H89.703V316.046Z" fill="#EBEBEB"/>
<path d="M174.918 320.008H124.035V320.242H174.918V320.008Z" fill="#EBEBEB"/>
<path d="M223.107 266.205H41.8334C40.4133 266.202 39.0522 265.636 38.0489 264.631C37.0457 263.626 36.4822 262.264 36.4822 260.844V6.02433C36.4945 4.61239 37.0635 3.26234 38.0654 2.26744C39.0674 1.27253 40.4214 0.713112 41.8334 0.710693H223.107C224.529 0.710693 225.892 1.27547 226.898 2.28077C227.903 3.28607 228.468 4.64955 228.468 6.07127V260.844C228.468 262.266 227.903 263.629 226.898 264.635C225.892 265.64 224.529 266.205 223.107 266.205ZM41.8334 0.898455C40.4755 0.900942 39.1742 1.44208 38.2149 2.4031C37.2556 3.36412 36.7169 4.66649 36.7169 6.02433V260.844C36.7169 262.202 37.2556 263.504 38.2149 264.465C39.1742 265.426 40.4755 265.967 41.8334 265.97H223.107C224.466 265.967 225.768 265.427 226.729 264.466C227.69 263.505 228.231 262.203 228.233 260.844V6.02433C228.231 4.66562 227.69 3.36328 226.729 2.40253C225.768 1.44178 224.466 0.900937 223.107 0.898455H41.8334Z" fill="#EBEBEB"/>
<path d="M426.18 266.205H244.897C243.476 266.202 242.114 265.637 241.109 264.632C240.104 263.627 239.539 262.265 239.536 260.844V6.02433C239.551 4.61153 240.122 3.2615 241.125 2.26685C242.129 1.2722 243.484 0.713086 244.897 0.710693H426.18C427.59 0.715579 428.942 1.27609 429.942 2.27073C430.942 3.26537 431.509 4.61401 431.522 6.02433V260.844C431.522 262.262 430.959 263.623 429.958 264.628C428.957 265.633 427.598 266.2 426.18 266.205ZM244.897 0.898455C243.538 0.900937 242.236 1.44178 241.275 2.40253C240.314 3.36328 239.773 4.66562 239.771 6.02433V260.844C239.773 262.203 240.314 263.505 241.275 264.466C242.236 265.427 243.538 265.967 244.897 265.97H426.18C427.539 265.967 428.841 265.427 429.802 264.466C430.762 263.505 431.303 262.203 431.306 260.844V6.02433C431.303 4.66562 430.762 3.36328 429.802 2.40253C428.841 1.44178 427.539 0.900937 426.18 0.898455H244.897Z" fill="#EBEBEB"/>
<path d="M250.999 300.133H260.866V182.754H250.999V300.133Z" fill="#F0F0F0"/>
<path d="M61.3886 307.953H257.073V300.133H61.3886V307.953Z" fill="#F0F0F0"/>
<path d="M250.999 182.754H57.6053V300.133H250.999V182.754Z" fill="#F5F5F5"/>
<path d="M253.327 182.754H263.523V175.356H253.327V182.754Z" fill="#E0E0E0"/>
<path d="M253.327 175.356H54.9579V182.754H253.327V175.356Z" fill="#EBEBEB"/>
<path d="M235.931 191.861H72.6637C68.6299 191.861 65.3598 195.131 65.3598 199.165V225.047C65.3598 229.081 68.6299 232.351 72.6637 232.351H235.931C239.965 232.351 243.235 229.081 243.235 225.047V199.165C243.235 195.131 239.965 191.861 235.931 191.861Z" fill="white"/>
<path d="M235.931 244.443H72.6637C68.6299 244.443 65.3598 247.713 65.3598 251.747V277.63C65.3598 281.664 68.6299 284.934 72.6637 284.934H235.931C239.965 284.934 243.235 281.664 243.235 277.63V251.747C243.235 247.713 239.965 244.443 235.931 244.443Z" fill="white"/>
<path d="M112.263 196.188H196.342C197.26 196.188 198.004 195.444 198.004 194.527V192.302C198.004 191.384 197.26 190.64 196.342 190.64H112.263C111.345 190.64 110.601 191.384 110.601 192.302V194.527C110.601 195.444 111.345 196.188 112.263 196.188Z" fill="#F5F5F5"/>
<path d="M112.263 248.771H196.342C197.26 248.771 198.004 248.027 198.004 247.109V244.884C198.004 243.967 197.26 243.223 196.342 243.223H112.263C111.345 243.223 110.601 243.967 110.601 244.884V247.109C110.601 248.027 111.345 248.771 112.263 248.771Z" fill="#F5F5F5"/>
<path d="M420.434 221.264H390.674V226.953H420.434V221.264Z" fill="#E6E6E6"/>
<path d="M367.871 308.075H373.363V113.367H367.871V308.075Z" fill="#E6E6E6"/>
<path d="M348.851 226.944H390.684V221.255H348.851V226.944Z" fill="#F5F5F5"/>
<path d="M420.434 273.649H390.674V279.339H420.434V273.649Z" fill="#E6E6E6"/>
<path d="M348.851 279.338H390.684V273.649H348.851V279.338Z" fill="#F5F5F5"/>
<path d="M420.434 116.484H390.674V122.173H420.434V116.484Z" fill="#E6E6E6"/>
<path d="M348.851 122.173H390.684V116.484H348.851V122.173Z" fill="#F5F5F5"/>
<path d="M420.434 168.869H390.674V174.559H420.434V168.869Z" fill="#E6E6E6"/>
<path d="M348.851 174.568H390.684V168.879H348.851V174.568Z" fill="#F5F5F5"/>
<path d="M409.704 308.075H415.196V113.367H409.704V308.075Z" fill="#E6E6E6"/>
<path d="M385.182 308.075H390.674V113.367H385.182V308.075Z" fill="#F5F5F5"/>
<path d="M348.851 308.075H354.343V113.367H348.851V308.075Z" fill="#F5F5F5"/>
<path d="M83.1219 159.031L331.154 159.031V27.3447L83.1219 27.3447L83.1219 159.031Z" fill="#E0E0E0"/>
<path d="M76.8602 159.031L327.615 159.031V27.3447L76.8602 27.3447L76.8602 159.031Z" fill="#F5F5F5"/>
<path d="M318.621 148.647V37.7183L85.8352 37.7183V148.647H318.621Z" fill="white"/>
<path d="M235.312 350.472C335.841 350.472 417.336 345.714 417.336 339.844C417.336 333.975 335.841 329.217 235.312 329.217C134.782 329.217 53.2868 333.975 53.2868 339.844C53.2868 345.714 134.782 350.472 235.312 350.472Z" fill="#F5F5F5"/>
<path d="M364.698 197.127H104.386C103.558 197.125 102.764 196.795 102.178 196.209C101.592 195.623 101.262 194.83 101.26 194.001C101.262 193.173 101.592 192.379 102.178 191.793C102.764 191.208 103.558 190.877 104.386 190.875H364.698C365.526 190.877 366.32 191.208 366.905 191.793C367.491 192.379 367.821 193.173 367.824 194.001C367.821 194.83 367.491 195.623 366.905 196.209C366.32 196.795 365.526 197.125 364.698 197.127Z" fill="#3DADF2"/>
<path opacity="0.3" d="M364.698 197.127H303.76C302.931 197.125 302.138 196.795 301.552 196.209C300.966 195.623 300.636 194.83 300.634 194.001C300.636 193.173 300.966 192.379 301.552 191.793C302.138 191.208 302.931 190.877 303.76 190.875H364.698C365.526 190.877 366.32 191.208 366.905 191.793C367.491 192.379 367.821 193.173 367.824 194.001C367.821 194.83 367.491 195.623 366.905 196.209C366.32 196.795 365.526 197.125 364.698 197.127Z" fill="#000B4B"/>
<path d="M358.088 204.966H157.888V226.756H358.088V204.966Z" fill="#000B4B"/>
<path opacity="0.1" d="M358.088 204.966H157.888V226.756H358.088V204.966Z" fill="white"/>
<path d="M355.178 335.507H361.168L360.924 197.127H352.625L355.178 335.507Z" fill="#000B4B"/>
<path opacity="0.1" d="M355.178 335.507H361.168L360.924 197.127H352.625L355.178 335.507Z" fill="white"/>
<path d="M299.977 335.507H293.978L307.534 197.127H315.833L299.977 335.507Z" fill="#000B4B"/>
<path opacity="0.2" d="M299.977 335.507H293.978L307.534 197.127H315.833L299.977 335.507Z" fill="white"/>
<path d="M155.804 335.507H161.794L161.55 197.127H153.251L155.804 335.507Z" fill="#000B4B"/>
<path opacity="0.1" d="M155.804 335.507H161.794L161.55 197.127H153.251L155.804 335.507Z" fill="white"/>
<path d="M100.603 335.507H94.6036L108.16 197.127H116.459L100.603 335.507Z" fill="#000B4B"/>
<path opacity="0.2" d="M100.603 335.507H94.6036L108.16 197.127H116.459L100.603 335.507Z" fill="white"/>
<path d="M269.212 190.875H255.393L249.863 163.856H263.682L269.212 190.875Z" fill="#000B4B"/>
<path d="M287.547 185.308H227.595C227.128 185.313 226.666 185.221 226.237 185.039C225.808 184.856 225.422 184.586 225.102 184.246C224.783 183.907 224.537 183.504 224.381 183.065C224.225 182.626 224.162 182.158 224.196 181.693L226.487 143.738C226.557 142.765 226.99 141.854 227.699 141.185C228.408 140.516 229.342 140.137 230.317 140.123H290.279C290.744 140.119 291.206 140.212 291.634 140.395C292.063 140.578 292.449 140.848 292.768 141.188C293.087 141.527 293.332 141.929 293.489 142.368C293.645 142.806 293.709 143.273 293.677 143.738L291.386 181.693C291.314 182.667 290.879 183.578 290.169 184.247C289.458 184.915 288.523 185.294 287.547 185.308Z" fill="#000B4B"/>
<path d="M286.608 185.308H226.656C226.189 185.313 225.727 185.221 225.298 185.039C224.869 184.856 224.483 184.586 224.163 184.246C223.844 183.907 223.598 183.504 223.443 183.065C223.287 182.626 223.223 182.158 223.257 181.693L225.548 143.738C225.618 142.765 226.051 141.854 226.76 141.185C227.469 140.516 228.403 140.137 229.378 140.123H289.34C289.806 140.119 290.267 140.212 290.696 140.395C291.124 140.578 291.51 140.848 291.829 141.188C292.148 141.527 292.394 141.929 292.55 142.368C292.706 142.806 292.771 143.273 292.738 143.738L290.448 181.693C290.375 182.667 289.94 183.578 289.23 184.247C288.519 184.915 287.584 185.294 286.608 185.308Z" fill="#3DADF2"/>
<path d="M226.646 183.43C226.438 183.432 226.232 183.391 226.04 183.31C225.848 183.229 225.674 183.111 225.529 182.961C225.388 182.805 225.28 182.623 225.21 182.424C225.141 182.226 225.112 182.016 225.126 181.806L227.416 143.85C227.451 143.349 227.671 142.879 228.034 142.532C228.397 142.185 228.876 141.985 229.378 141.973H289.34C289.549 141.969 289.757 142.01 289.95 142.092C290.143 142.174 290.317 142.295 290.46 142.448C290.603 142.601 290.713 142.782 290.782 142.98C290.851 143.178 290.878 143.388 290.861 143.597L288.57 181.553C288.537 182.054 288.317 182.526 287.954 182.873C287.591 183.221 287.111 183.42 286.608 183.43H226.646Z" fill="white"/>
<path opacity="0.2" d="M252.98 140.123L256.876 153.463L268.442 140.123H252.98Z" fill="black"/>
<path d="M159.785 107.734C159.879 108.457 160.329 109.002 160.808 108.964C161.287 108.927 161.587 108.307 161.493 107.584C161.4 106.861 160.949 106.317 160.48 106.354C160.01 106.392 159.7 107.03 159.785 107.734Z" fill="#000B4B"/>
<path d="M160.573 108.814C161.419 110.688 162.511 112.44 163.822 114.024C162.789 115.066 160.902 114.644 160.902 114.644L160.573 108.814Z" fill="#A02724"/>
<path d="M157.391 104.984C157.319 104.997 157.246 104.997 157.175 104.984C157.071 104.938 156.988 104.854 156.944 104.749C156.901 104.644 156.899 104.526 156.94 104.42C157.184 103.795 157.577 103.238 158.084 102.798C158.591 102.359 159.197 102.048 159.85 101.895C159.905 101.886 159.962 101.887 160.016 101.9C160.07 101.912 160.121 101.935 160.167 101.967C160.212 101.999 160.251 102.04 160.28 102.088C160.31 102.135 160.33 102.187 160.339 102.242C160.358 102.354 160.332 102.469 160.267 102.562C160.202 102.656 160.103 102.719 159.991 102.74C159.479 102.864 159.006 103.112 158.613 103.462C158.22 103.813 157.92 104.255 157.738 104.749C157.704 104.813 157.654 104.868 157.593 104.909C157.533 104.95 157.463 104.976 157.391 104.984Z" fill="#000B4B"/>
<path d="M138.511 119.066L144.144 123.384L151.833 129.27C151.412 130.155 151.157 131.11 151.082 132.087C150.81 134.246 150.538 135.842 155.335 137.166C155.844 137.287 156.308 137.553 156.671 137.931C157.034 138.309 157.281 138.783 157.381 139.297C157.569 140.574 156.79 142.113 152.359 142.874C148.067 143.515 143.682 142.768 139.845 140.743C137.967 139.804 137.967 138.677 138.756 136.772C141.121 131.355 139.976 124.445 138.511 119.066Z" fill="#B55B52"/>
<path d="M132.043 138.48C133.125 136.399 134.017 134.225 134.709 131.984C134.709 131.984 148.979 131.204 153.692 132.613C158.405 134.021 161.334 140.123 161.334 140.123L132.043 138.48Z" fill="#3DADF2"/>
<path d="M138.014 149.098C137.667 150.15 137.282 151.436 136.916 152.619L135.855 156.28C135.197 158.721 134.559 161.171 134.062 163.612C133.532 165.999 133.128 168.412 132.85 170.841C132.561 173.072 132.492 175.327 132.644 177.572C132.699 178.522 132.844 179.465 133.076 180.388C133.132 180.576 133.179 180.783 133.245 180.961L133.433 181.468C133.388 181.377 133.338 181.29 133.282 181.205C133.186 181.068 133.083 180.936 132.973 180.811C132.852 180.666 132.713 180.536 132.559 180.426C132.372 180.295 132.344 180.313 132.381 180.36C132.656 180.558 132.952 180.725 133.264 180.858C133.686 181.046 134.202 181.233 134.719 181.412C135.78 181.769 136.953 182.097 138.164 182.416C143.008 183.637 148.294 184.585 153.448 185.683L153.279 192.189C150.526 192.557 147.756 192.785 144.98 192.875C142.163 192.977 139.343 192.93 136.531 192.734C135.042 192.634 133.559 192.452 132.09 192.189C131.32 192.048 130.522 191.889 129.677 191.654C128.706 191.403 127.762 191.054 126.861 190.612C126.194 190.291 125.564 189.897 124.983 189.439C124.572 189.111 124.192 188.747 123.847 188.35C123.632 188.095 123.432 187.829 123.247 187.552C123.153 187.392 123.049 187.232 122.965 187.073L122.843 186.847L122.195 185.524C121.998 185.082 121.838 184.651 121.669 184.209C121.077 182.566 120.649 180.868 120.393 179.14C119.454 172.615 120.195 166.795 121.172 161.134C121.697 158.317 122.317 155.501 123.049 152.825C123.425 151.464 123.819 150.103 124.242 148.76C124.664 147.418 125.115 146.122 125.659 144.648L138.014 149.098Z" fill="#B55B52"/>
<path d="M129.33 137.316C138.202 134.969 143.468 142.235 140.464 154.215C137.46 166.194 136.455 166.644 136.455 166.644L118.158 163.593C120.411 151.858 120.233 139.71 129.33 137.316Z" fill="#3DADF2"/>
<path d="M157.992 183.083L156.612 182.961C152.687 182.961 152.012 184.031 149.599 186.275L148.66 191.213C154.997 194.452 158.395 190.894 158.405 190.894H164.272L162.207 186.2C161.847 185.351 161.266 184.614 160.524 184.066C159.783 183.518 158.909 183.179 157.992 183.083Z" fill="#B55B52"/>
<path d="M136.089 109.724C137.685 118.277 138.183 123.365 143.083 127.186C150.444 132.922 160.583 127.468 161.578 118.568C162.47 110.56 159.7 97.9143 150.857 95.6706C148.884 95.1835 146.821 95.2012 144.858 95.722C142.894 96.2428 141.093 97.25 139.622 98.6505C138.15 100.051 137.055 101.8 136.438 103.735C135.82 105.671 135.7 107.731 136.089 109.724Z" fill="#B55B52"/>
<path d="M153.035 112.71C159.137 112.222 157.353 105.791 155.466 104.448C158.33 103.359 160.301 98.8157 157.55 95.6988C159.165 91.4836 154.546 86.4047 146.444 87.1651C140.53 87.7096 139.873 90.8358 139.873 90.8358C139.873 90.8358 132.785 90.0942 129.837 95.9429C127.321 100.956 130.372 103.632 130.372 103.632C130.372 103.632 125.077 105.171 126.542 112.081C128.1 119.535 133.827 117.808 133.827 117.808C133.827 117.808 132.541 124.642 140.286 124.736C146.98 124.821 147.064 119.807 147.064 119.807C147.064 119.807 155.739 119 153.035 112.71Z" fill="#000B4B"/>
<path d="M148.491 113.208C149.175 115.042 150.512 116.56 152.246 117.47C154.481 118.615 156.189 116.24 155.795 113.799C155.438 111.612 153.532 108.805 151.176 108.673C148.82 108.542 147.655 110.936 148.491 113.208Z" fill="#B55B52"/>
<path d="M239.508 324.758L247.854 321.369L241.958 301.325L233.612 304.705L239.508 324.758Z" fill="#B55B52"/>
<path opacity="0.2" d="M236.476 314.431L244.906 311.333L241.958 301.325L233.612 304.705L236.476 314.431Z" fill="black"/>
<path d="M247.131 318.026L237.584 321.34C237.503 321.365 237.429 321.405 237.364 321.459C237.3 321.512 237.246 321.578 237.207 321.652C237.168 321.726 237.144 321.807 237.136 321.891C237.128 321.974 237.136 322.058 237.161 322.138L239.32 329.855C239.459 330.253 239.748 330.58 240.126 330.766C240.503 330.952 240.939 330.982 241.339 330.85C244.634 329.63 245.967 328.973 250.041 327.208C254.052 325.53 257.975 323.65 261.795 321.575C264.978 319.697 263.063 316.496 261.514 317.022C257.843 318.261 251.825 319.068 248.774 318.017C248.241 317.837 247.662 317.84 247.131 318.026Z" fill="#000B4B"/>
<path d="M172.477 209.125C172.477 209.125 235.556 214.758 237.189 232.905C240.475 269.828 245.516 305.428 245.516 305.428L232.683 310.122C232.683 310.122 216.977 269.565 217.183 240.65C198.989 235.515 151.148 243.054 143.328 229.018C136.418 216.626 142.483 207.726 142.483 207.726L172.477 209.125Z" fill="#000B4B"/>
<path d="M231.725 313.041L247.704 307.643L247.009 300.367L228.993 306.169L231.725 313.041Z" fill="#3DADF2"/>
<path d="M250.652 318.411C249.883 318.658 249.09 318.819 248.286 318.89C248.245 318.895 248.204 318.888 248.167 318.87C248.13 318.852 248.1 318.823 248.079 318.787C248.059 318.753 248.048 318.714 248.048 318.674C248.048 318.634 248.059 318.595 248.079 318.562C248.286 318.28 250.126 315.801 251.299 315.839C251.434 315.847 251.564 315.888 251.679 315.958C251.793 316.029 251.889 316.127 251.957 316.243C252.079 316.408 252.155 316.603 252.176 316.808C252.197 317.013 252.164 317.22 252.079 317.407C251.743 317.906 251.235 318.264 250.652 318.411ZM248.774 318.411C250.398 318.186 251.506 317.754 251.759 317.219C251.812 317.096 251.831 316.962 251.813 316.829C251.794 316.697 251.74 316.572 251.656 316.468C251.627 316.408 251.582 316.356 251.525 316.32C251.469 316.284 251.404 316.263 251.337 316.261C250.661 316.233 249.497 317.444 248.727 318.411H248.774Z" fill="#3DADF2"/>
<path d="M248.333 318.881C248.299 318.89 248.263 318.89 248.23 318.881C248.195 318.875 248.163 318.861 248.135 318.839C248.107 318.818 248.085 318.791 248.07 318.759C248.07 318.656 246.99 316.28 247.554 315.154C247.626 315.01 247.731 314.884 247.859 314.786C247.988 314.689 248.137 314.622 248.295 314.59C248.468 314.533 248.655 314.535 248.826 314.599C248.997 314.662 249.141 314.782 249.234 314.938C249.75 315.802 249.103 318.008 248.436 318.806C248.41 318.841 248.374 318.867 248.333 318.881ZM248.333 315.032C248.253 315.059 248.179 315.102 248.116 315.159C248.053 315.215 248.003 315.284 247.967 315.36C247.629 316.027 248.042 317.454 248.352 318.252C248.868 317.369 249.243 315.726 248.906 315.163C248.84 315.06 248.727 314.938 248.427 315.004L248.333 315.032Z" fill="#3DADF2"/>
<path d="M194.849 330.719L203.768 330.297L205.223 309.239L196.304 309.662L194.849 330.719Z" fill="#B55B52"/>
<path d="M203.974 328.776L193.873 328.457C193.789 328.45 193.705 328.461 193.625 328.487C193.545 328.513 193.471 328.555 193.407 328.61C193.344 328.665 193.291 328.732 193.254 328.807C193.216 328.882 193.193 328.964 193.187 329.048L192.446 337.019C192.438 337.23 192.473 337.441 192.547 337.639C192.622 337.838 192.734 338.019 192.879 338.174C193.024 338.328 193.198 338.452 193.391 338.539C193.584 338.626 193.793 338.674 194.004 338.68C197.525 338.727 199.205 338.577 203.646 338.68C206.378 338.765 211.757 339.168 215.503 338.68C219.249 338.192 218.676 334.521 217.043 334.381C213.184 334.071 208.011 331.405 205.542 329.33C205.099 328.971 204.545 328.775 203.974 328.776Z" fill="#000B4B"/>
<path d="M207.147 330.437C206.341 330.391 205.541 330.259 204.763 330.043C204.723 330.034 204.687 330.014 204.659 329.984C204.631 329.955 204.612 329.917 204.605 329.877C204.598 329.837 204.603 329.796 204.619 329.759C204.636 329.721 204.663 329.69 204.697 329.668C204.988 329.471 207.589 327.79 208.678 328.278C208.801 328.332 208.909 328.416 208.991 328.523C209.073 328.63 209.127 328.755 209.147 328.888C209.201 329.086 209.202 329.294 209.149 329.492C209.097 329.69 208.992 329.871 208.847 330.015C208.355 330.368 207.747 330.519 207.147 330.437ZM205.345 329.752C206.941 330.128 208.161 330.118 208.565 329.752C208.657 329.653 208.722 329.532 208.752 329.4C208.781 329.268 208.775 329.13 208.734 329.001C208.725 328.936 208.7 328.874 208.66 328.822C208.621 328.769 208.569 328.727 208.509 328.701C207.889 328.419 206.368 329.123 205.27 329.752H205.345Z" fill="#3DADF2"/>
<path d="M204.772 330.053C204.738 330.061 204.703 330.061 204.669 330.053C204.639 330.033 204.614 330.007 204.596 329.976C204.578 329.945 204.567 329.91 204.566 329.874C204.566 329.771 204.444 327.18 205.373 326.335C205.495 326.216 205.645 326.129 205.809 326.083C205.973 326.037 206.146 326.033 206.312 326.072C206.491 326.082 206.662 326.152 206.797 326.272C206.932 326.391 207.022 326.552 207.054 326.729C207.223 327.715 205.824 329.546 204.913 330.053C204.868 330.071 204.817 330.071 204.772 330.053ZM206.115 326.476C206.03 326.47 205.946 326.482 205.867 326.511C205.787 326.54 205.715 326.586 205.655 326.645C205.101 327.142 204.979 328.626 204.979 329.461C205.777 328.823 206.716 327.424 206.603 326.776C206.603 326.654 206.509 326.513 206.209 326.466L206.115 326.476Z" fill="#3DADF2"/>
<path opacity="0.2" d="M196.304 309.662L205.232 309.239L204.387 321.284L195.497 321.275L196.304 309.662Z" fill="black"/>
<path d="M151.523 208.121C151.523 208.121 219.493 218.513 218.413 234.163C216.47 262.327 207.025 317.369 207.025 317.369L193.638 317.557C193.638 317.557 190.474 261.097 195.516 240.519C178.796 240.519 131.63 239.937 125.199 231.347C118.083 221.855 125.396 206.938 125.396 206.938L151.523 208.121Z" fill="#000B4B"/>
<path d="M192.061 318.609L208.265 318.355L209.063 309.793L191.282 310.488L192.061 318.609Z" fill="#3DADF2"/>
<path d="M163.493 136.368C158.02 135.298 133.339 135.607 133.339 135.607C130.872 135.54 128.469 136.4 126.605 138.019C124.742 139.637 123.553 141.895 123.275 144.348C122.411 151.961 127.246 168.972 127.415 177.647C127.621 188.302 125.584 192.621 125.378 206.966L172.477 209.125C172.477 180.276 171.219 156.392 170.083 144.939C169.68 140.912 168.966 137.429 163.493 136.368Z" fill="#3DADF2"/>
<path opacity="0.3" d="M163.493 136.368C158.02 135.298 133.339 135.607 133.339 135.607C130.872 135.54 128.469 136.4 126.605 138.019C124.742 139.637 123.553 141.895 123.275 144.348C122.411 151.961 127.246 168.972 127.415 177.647C127.621 188.302 125.584 192.621 125.378 206.966L172.477 209.125C172.477 180.276 171.219 156.392 170.083 144.939C169.68 140.912 168.966 137.429 163.493 136.368Z" fill="white"/>
<path d="M169.943 145.455C171.417 150.525 172.9 155.735 174.43 160.824C175.96 165.912 177.528 171.028 179.293 175.844C179.725 177.074 180.232 178.22 180.645 179.402L181.368 181.064L181.462 181.271V181.374V181.43V181.365C181.299 181.075 181.097 180.809 180.861 180.576C180.542 180.266 180.42 180.238 180.392 180.238C180.601 180.427 180.843 180.576 181.105 180.679C181.565 180.901 182.038 181.092 182.523 181.252C183.583 181.618 184.776 181.947 185.987 182.275C190.897 183.524 196.257 184.481 201.477 185.599L201.308 192.105C198.506 192.482 195.685 192.711 192.859 192.79C189.998 192.9 187.133 192.847 184.278 192.63C182.76 192.522 181.249 192.327 179.753 192.048C178.965 191.898 178.148 191.71 177.265 191.457C176.219 191.163 175.21 190.747 174.261 190.218C173.505 189.784 172.81 189.25 172.196 188.631C171.727 188.147 171.323 187.604 170.994 187.016L170.675 186.425L169.614 184.416C168.994 183.101 168.319 181.778 167.736 180.473C166.582 177.835 165.568 175.225 164.554 172.606C163.54 169.986 162.676 167.367 161.803 164.738C160.066 159.453 158.499 154.224 157.109 148.779L169.943 145.455Z" fill="#B55B52"/>
<path d="M156.565 140.226C163.005 133.655 171.238 137.241 174.778 149.108C178.317 160.974 177.678 161.838 177.678 161.838L160.376 168.55C156.292 157.247 149.974 146.92 156.565 140.226Z" fill="#3DADF2"/>
<path d="M206.077 183.083L204.697 182.961C200.773 182.961 200.106 184.031 197.694 186.275L196.755 191.213C203.092 194.452 206.49 190.894 206.49 190.894H212.367L210.292 186.2C209.934 185.35 209.353 184.612 208.612 184.064C207.87 183.516 206.995 183.177 206.077 183.083Z" fill="#B55B52"/>
<path d="M127.443 243.955H187.602C188.924 243.955 189.995 242.883 189.995 241.561V237.693C189.995 236.371 188.924 235.299 187.602 235.299H127.443C126.121 235.299 125.049 236.371 125.049 237.693V241.561C125.049 242.883 126.121 243.955 127.443 243.955Z" fill="#3DADF2"/>
<path d="M127.715 340.323H125.049L128.119 243.946H131.808L127.715 340.323Z" fill="#3DADF2"/>
<path opacity="0.4" d="M127.715 340.323H125.049L128.119 243.946H131.808L127.715 340.323Z" fill="white"/>
<path d="M152.237 340.323H154.903L151.843 243.946H148.153L152.237 340.323Z" fill="#3DADF2"/>
<path opacity="0.4" d="M152.237 340.323H154.903L151.843 243.946H148.153L152.237 340.323Z" fill="white"/>
<path d="M162.808 340.323H160.142L163.211 243.946H166.901L162.808 340.323Z" fill="#3DADF2"/>
<path opacity="0.4" d="M162.808 340.323H160.142L163.211 243.946H166.901L162.808 340.323Z" fill="white"/>
<path d="M187.329 340.323H189.995L186.935 243.946H183.245L187.329 340.323Z" fill="#3DADF2"/>
<path opacity="0.4" d="M187.329 340.323H189.995L186.935 243.946H183.245L187.329 340.323Z" fill="white"/>
<g opacity="0.3">
<path opacity="0.3" d="M128.119 243.946H131.808L131.63 248.039H127.987L128.119 243.946Z" fill="#3DADF2"/>
<path opacity="0.3" d="M151.965 248.039H148.322L148.153 243.946H151.833L151.965 248.039Z" fill="#3DADF2"/>
<path opacity="0.3" d="M166.892 243.946L166.723 248.039H163.08L163.211 243.946H166.892Z" fill="#3DADF2"/>
<path opacity="0.3" d="M187.066 248.039H183.414L183.245 243.946H186.935L187.066 248.039Z" fill="#3DADF2"/>
</g>
<path d="M365.805 126.144H215.437C214.269 126.157 213.111 125.926 212.036 125.468C210.961 125.01 209.993 124.334 209.193 123.482C208.392 122.631 207.777 121.623 207.387 120.522C206.996 119.42 206.838 118.25 206.922 117.085L212.658 21.9183C212.839 19.4801 213.926 17.1977 215.705 15.5209C217.484 13.8441 219.827 12.8944 222.272 12.8589H372.602C373.771 12.8467 374.929 13.077 376.004 13.5352C377.079 13.9935 378.047 14.6696 378.847 15.521C379.647 16.3724 380.262 17.3805 380.653 18.4816C381.044 19.5827 381.202 20.753 381.117 21.9183L375.372 117.122C375.185 119.547 374.102 121.815 372.333 123.483C370.564 125.151 368.237 126.1 365.805 126.144Z" fill="#3DADF2"/>
<path d="M235.556 106.026L249.422 153.464L290.56 106.026H235.556Z" fill="#3DADF2"/>
<path opacity="0.1" d="M358.473 87.8507H274.206C273.551 87.8575 272.901 87.7285 272.299 87.4717C271.696 87.2149 271.153 86.8359 270.704 86.3587C270.255 85.8814 269.909 85.3163 269.69 84.6989C269.47 84.0815 269.381 83.4254 269.428 82.7718L272.648 29.4289C272.749 28.0619 273.358 26.7823 274.355 25.8422C275.353 24.9021 276.666 24.3697 278.037 24.35H362.304C362.961 24.3359 363.614 24.46 364.22 24.7144C364.826 24.9687 365.372 25.3476 365.823 25.8264C366.273 26.3052 366.618 26.8733 366.835 27.4939C367.052 28.1145 367.136 28.7737 367.082 29.4289L363.862 82.7718C363.761 84.1387 363.152 85.4183 362.155 86.3584C361.157 87.2985 359.844 87.8309 358.473 87.8507Z" fill="white"/>
<path opacity="0.1" d="M313.392 110.861H229.115C228.461 110.866 227.812 110.736 227.211 110.479C226.609 110.222 226.067 109.842 225.619 109.365C225.171 108.888 224.827 108.323 224.608 107.707C224.389 107.09 224.3 106.435 224.346 105.782L227.566 52.4389C227.667 51.0736 228.275 49.7953 229.27 48.8554C230.266 47.9155 231.577 47.3821 232.946 47.36H317.222C317.879 47.3473 318.531 47.4724 319.136 47.7274C319.741 47.9823 320.286 48.3613 320.735 48.84C321.185 49.3186 321.529 49.8863 321.745 50.5062C321.961 51.1261 322.045 51.7846 321.991 52.4389L318.771 105.782C318.671 107.147 318.063 108.425 317.067 109.365C316.072 110.305 314.761 110.839 313.392 110.861Z" fill="white"/>
<g opacity="0.5">
<path opacity="0.5" d="M227.998 21.1392C227.981 21.86 227.695 22.5485 227.197 23.0696C226.699 23.5906 226.023 23.9066 225.304 23.9556C224.962 23.9387 224.627 23.85 224.322 23.6953C224.017 23.5406 223.747 23.3234 223.531 23.0578C223.315 22.7922 223.157 22.4841 223.068 22.1536C222.979 21.823 222.96 21.4774 223.013 21.1392C223.035 20.4196 223.322 19.7335 223.819 19.2133C224.317 18.6931 224.99 18.3758 225.708 18.3228C226.05 18.3397 226.384 18.4284 226.69 18.583C226.995 18.7377 227.265 18.9549 227.481 19.2205C227.697 19.4861 227.854 19.7942 227.944 20.1248C228.033 20.4553 228.051 20.8009 227.998 21.1392Z" fill="white"/>
<path opacity="0.5" d="M237.189 21.1392C237.17 21.8594 236.884 22.5467 236.385 23.0673C235.887 23.5879 235.213 23.9045 234.495 23.9556C234.152 23.9399 233.816 23.8522 233.51 23.6981C233.203 23.544 232.933 23.3269 232.716 23.0612C232.499 22.7954 232.34 22.4869 232.25 22.1557C232.161 21.8245 232.142 21.4782 232.195 21.1392C232.216 20.4196 232.503 19.7335 233.001 19.2133C233.498 18.6931 234.171 18.3758 234.889 18.3228C235.231 18.3398 235.566 18.4285 235.872 18.5831C236.178 18.7377 236.448 18.9547 236.665 19.2201C236.881 19.4855 237.04 19.7934 237.13 20.124C237.221 20.4546 237.241 20.8004 237.189 21.1392Z" fill="white"/>
<path opacity="0.5" d="M246.446 21.1392C246.429 21.86 246.143 22.5485 245.645 23.0696C245.146 23.5906 244.471 23.9066 243.751 23.9556C243.41 23.9387 243.075 23.85 242.77 23.6953C242.464 23.5406 242.195 23.3234 241.979 23.0578C241.762 22.7922 241.605 22.4841 241.516 22.1536C241.426 21.823 241.408 21.4774 241.461 21.1392C241.482 20.4196 241.769 19.7335 242.267 19.2133C242.765 18.6931 243.437 18.3758 244.155 18.3228C244.497 18.3397 244.832 18.4284 245.137 18.583C245.443 18.7377 245.712 18.9549 245.928 19.2205C246.144 19.4861 246.302 19.7942 246.391 20.1248C246.48 20.4553 246.499 20.8009 246.446 21.1392Z" fill="white"/>
</g>
<path opacity="0.3" d="M364.641 125.262H214.311C213.111 125.271 211.922 125.032 210.818 124.56C209.715 124.088 208.721 123.393 207.9 122.518C207.078 121.644 206.446 120.609 206.043 119.478C205.641 118.348 205.477 117.146 205.561 115.949L211.306 20.7824C211.487 18.2843 212.598 15.9448 214.419 14.2258C216.241 12.5068 218.641 11.5334 221.145 11.4976H371.438C372.638 11.4882 373.827 11.727 374.93 12.1991C376.034 12.6713 377.027 13.3665 377.849 14.2411C378.671 15.1157 379.303 16.1508 379.705 17.2813C380.108 18.4119 380.272 19.6134 380.188 20.8105L374.452 115.977C374.269 118.47 373.162 120.804 371.347 122.522C369.532 124.24 367.14 125.217 364.641 125.262ZM221.145 11.9764C218.757 12.0055 216.466 12.9306 214.727 14.5685C212.989 16.2063 211.929 18.4374 211.757 20.8199L206.011 115.987C205.928 117.12 206.081 118.259 206.461 119.331C206.84 120.402 207.438 121.383 208.217 122.212C208.995 123.04 209.937 123.698 210.982 124.144C212.028 124.59 213.155 124.814 214.292 124.802H364.641C367.029 124.771 369.318 123.845 371.057 122.207C372.795 120.57 373.856 118.34 374.029 115.958L379.765 20.7917C379.846 19.6546 379.69 18.5132 379.306 17.4396C378.923 16.3661 378.321 15.3838 377.538 14.5551C376.755 13.7264 375.809 13.0693 374.759 12.6254C373.709 12.1815 372.578 11.9605 371.438 11.9764H221.145Z" fill="#000B4B"/>
<path d="M283.238 69.6284C282.599 70.9803 282.017 72.135 281.36 73.3836C280.703 74.6322 280.046 75.7588 279.37 76.9323C277.99 79.2699 276.553 81.6263 275.014 83.8231C274.238 84.9497 273.443 86.0669 272.629 87.1747C271.775 88.2637 270.967 89.3715 270.057 90.4323C268.28 92.631 266.364 94.7132 264.321 96.666C263.804 97.1729 263.241 97.6048 262.697 98.1399C262.156 98.6467 261.586 99.1201 260.988 99.5575L259.185 100.919L258.632 101.304C258.386 101.459 258.132 101.6 257.871 101.726C257.356 101.974 256.814 102.163 256.256 102.289C255.154 102.547 254.009 102.556 252.903 102.315C251.797 102.075 250.759 101.592 249.863 100.9C249.419 100.55 249.013 100.153 248.652 99.7171L248.399 99.3791L248.276 99.2101L248.23 99.135L248.061 98.8346L247.385 97.6142C247.178 97.2199 247.037 96.8444 246.868 96.4594C246.277 95.0429 245.794 93.5835 245.423 92.094C244.769 89.3796 244.311 86.6218 244.052 83.8419C243.777 81.1347 243.658 78.4139 243.695 75.6931C243.715 74.9211 244.01 74.1817 244.527 73.6081C245.044 73.0345 245.749 72.6645 246.515 72.5648C247.281 72.4651 248.057 72.6423 248.703 73.0644C249.35 73.4865 249.825 74.1258 250.041 74.8669V74.9796C251.286 79.7643 252.825 84.4674 254.651 89.0617C255.069 90.0337 255.555 90.9748 256.106 91.8781C256.228 92.0658 256.35 92.2911 256.472 92.4507L256.829 92.8826L256.914 92.9953L256.867 92.9201L256.763 92.7793C256.616 92.5869 256.446 92.4135 256.256 92.263C255.882 91.9607 255.446 91.743 254.98 91.6246C254.512 91.5258 254.029 91.5258 253.562 91.6246C253.319 91.6758 253.083 91.7546 252.858 91.8593C252.736 91.8593 252.633 91.9813 252.52 92.0377C252.407 92.094 252.238 92.2348 252.36 92.1316L253.534 90.9862C253.928 90.6295 254.313 90.1976 254.698 89.7845C255.083 89.3715 255.477 88.9678 255.853 88.5265C258.948 84.8144 261.766 80.8796 264.283 76.7539C265.569 74.6604 266.837 72.5293 268.038 70.3701L269.85 67.1218L271.568 63.9486L271.662 63.7797C272.477 62.3212 273.824 61.2339 275.421 60.7449C277.019 60.2559 278.743 60.403 280.235 61.1554C281.726 61.9079 282.87 63.2075 283.426 64.7829C283.982 66.3583 283.908 68.0876 283.219 69.6096L283.238 69.6284Z" fill="#000B4B"/>
<path d="M244.578 75.28L240.006 72.6608L244.925 67.6382C246.367 68.7065 247.703 69.9105 248.915 71.2338C249.2 71.5366 249.411 71.902 249.53 72.3008C249.649 72.6996 249.673 73.1207 249.6 73.5303C249.527 73.94 249.359 74.3269 249.109 74.6601C248.86 74.9933 248.536 75.2635 248.164 75.449C247.597 75.7121 246.974 75.8341 246.35 75.8046C245.726 75.7752 245.117 75.5952 244.578 75.28Z" fill="#FFC3BD"/>
<path d="M238.964 67.2814L241.451 65.5071C241.775 65.272 242.178 65.1736 242.573 65.2334C242.968 65.2931 243.324 65.5061 243.564 65.8263L244.925 67.6382L240.006 72.6608L238.457 69.1309C238.316 68.8113 238.29 68.453 238.382 68.1162C238.474 67.7794 238.68 67.4847 238.964 67.2814Z" fill="#FFC3BD"/>
<path d="M273.39 65.4225C273.762 64.1957 274.466 63.0954 275.423 62.2425C276.381 61.3896 277.554 60.817 278.816 60.5876C280.638 60.1849 282.486 59.9027 284.345 59.7427C289.945 59.5242 295.552 59.6245 301.141 60.0431C304.07 60.2403 307.064 60.6534 309.449 61.0476H309.533C310.796 61.2571 311.925 61.9589 312.671 62.999C313.417 64.039 313.72 65.3326 313.514 66.596C312.34 73.3742 308.895 85.1655 308.52 96.2904C308.022 110.898 308.247 119.31 307.994 122.83L270.395 122.107C267.775 86.4048 271.033 73.5056 273.39 65.4225Z" fill="white"/>
<path d="M310.538 60.4938H310.416C307.9 60.0808 304.783 59.6395 301.657 59.433L299.986 59.3391C298.343 66.1361 288.551 77.5707 285.584 94.901C284.439 80.4153 283.557 65.2724 285.237 59.3673C282.58 59.448 279.929 59.6705 277.295 60.0338C275.902 60.3489 274.617 61.0275 273.572 62.0005C272.526 62.9734 271.757 64.206 271.343 65.5728C269.033 72.3697 264.621 87.5971 267.334 125.037H309.12C309.393 121.281 308.416 113.395 309.928 101.257C311.383 89.5029 313.476 73.5057 314.706 66.3614C314.927 65.0312 314.612 63.6678 313.831 62.5686C313.05 61.4694 311.867 60.7236 310.538 60.4938Z" fill="#000B4B"/>
<path opacity="0.2" d="M284.693 123.084C284.63 123.087 284.568 123.065 284.52 123.022C284.473 122.98 284.444 122.922 284.439 122.859C283.557 112.297 285.209 97.1354 285.228 96.9758C285.231 96.9436 285.241 96.9125 285.257 96.8842C285.272 96.8559 285.294 96.831 285.319 96.8109C285.344 96.7908 285.373 96.776 285.404 96.7672C285.435 96.7584 285.468 96.7559 285.5 96.7599C285.566 96.767 285.626 96.7994 285.668 96.8502C285.71 96.9011 285.731 96.9663 285.725 97.0321C285.725 97.1823 284.054 112.306 284.937 122.812C284.941 122.844 284.938 122.878 284.929 122.909C284.919 122.941 284.904 122.971 284.883 122.996C284.861 123.022 284.835 123.042 284.806 123.058C284.777 123.073 284.744 123.082 284.712 123.084H284.693Z" fill="white"/>
<path opacity="0.3" d="M309.064 75.355C307.515 82.3773 308.341 92.1033 310.003 100.975C311.233 91.0143 312.913 78.087 314.143 70.0883C312.425 68.943 310.294 69.7504 309.064 75.355Z" fill="black"/>
<path d="M285.143 59.6958C290.016 58.6255 290.861 55.6213 290.513 52.298C290.428 51.4677 290.293 50.6432 290.11 49.8289L296.193 44.8533L300.671 41.2107C299.451 46.5994 298.108 56.4287 301.788 60.0994C301.788 60.0994 298.784 65.0282 290.429 64.4273C283.369 63.9204 285.143 59.6958 285.143 59.6958Z" fill="#FFC3BD"/>
<path d="M292.55 63.1882L291.199 64.465L295.517 66.0891L294.954 64.4462L292.55 63.1882Z" fill="#E0E0E0"/>
<path d="M295.855 68.3798C295.855 68.3798 294.156 64.0895 292.551 63.1788C295.708 62.4259 298.6 60.8257 300.915 58.5505L303.478 59.5738C303.478 59.5738 304.286 64.5495 295.855 68.3798Z" fill="#F5F5F5"/>
<path d="M290.185 62.8501L291.199 64.4648L286.655 64.8591L287.565 63.4228L290.185 62.8501Z" fill="#E0E0E0"/>
<path d="M284.374 67.1687C286.038 65.3952 288.006 63.9328 290.185 62.8502C287.716 62.118 287.565 58.7195 287.565 58.7195L285.171 59.1795C285.171 59.1795 280.778 63.4511 284.374 67.1687Z" fill="#F5F5F5"/>
<path opacity="0.2" d="M290.11 49.8195C290.292 50.6372 290.427 51.4647 290.513 52.298C292.785 51.8849 295.827 49.4816 296.146 47.1815C296.254 46.4102 296.276 45.6294 296.212 44.8533L290.11 49.8195Z" fill="black"/>
<path d="M282.721 25.2512C280.543 27.9268 280.75 37.6059 285.359 37.7185C289.969 37.8312 286.683 20.3694 282.721 25.2512Z" fill="#000B4B"/>
<path d="M302.577 32.2922C302.117 39.6243 302.211 43.9334 298.512 47.7261C292.954 53.4247 283.942 50.1482 282.205 42.8537C280.656 36.2821 281.67 25.4014 288.833 22.4254C290.397 21.756 292.107 21.5017 293.799 21.687C295.49 21.8723 297.105 22.491 298.487 23.4833C299.869 24.4755 300.972 25.8077 301.688 27.3509C302.405 28.8941 302.711 30.5961 302.577 32.2922Z" fill="#FFC3BD"/>
<path d="M298.972 26.1899C294.362 30.7619 300.352 34.1134 298.033 36.5731C302.38 38.845 300.784 40.5161 300.784 40.5161C300.334 41.7661 300.334 43.1339 300.784 44.3839C305.684 43.1259 314.781 26.8471 304.849 24.3499C298.906 26.9973 298.972 26.1899 298.972 26.1899Z" fill="#000B4B"/>
<path d="M300.859 29.4758C296.494 30.1518 291.001 28.0676 287.594 26.3027C284.186 24.5377 283.688 27.8705 284.946 28.8844C282.759 28.9595 279.989 27.2321 280.675 23.3736C281.304 19.8531 285.913 16.5203 292.475 19.4963C297.123 21.5993 302.849 18.8298 305.084 21.2613C307.318 23.6928 303.769 29.0158 300.859 29.4758Z" fill="#000B4B"/>
<path d="M303.844 24.6971C306.773 24.3122 306.895 22.4628 306.079 19.2239C309.242 23.7208 307.956 25.1008 306.079 26.1898C303.985 25.4857 303.844 24.6971 303.844 24.6971Z" fill="#000B4B"/>
<path d="M304.548 37.9156C303.899 39.3498 302.766 40.5097 301.347 41.192C299.535 42.0088 298.615 40.3377 299.103 38.3756C299.545 36.6013 300.981 34.0477 302.859 34.0665C304.736 34.0853 305.365 36.1037 304.548 37.9156Z" fill="#FFC3BD"/>
<path d="M291.133 34.5076C291.133 35.0991 290.814 35.5872 290.429 35.5966C290.044 35.606 289.762 35.1178 289.762 34.5076C289.762 33.8974 290.081 33.428 290.466 33.428C290.851 33.428 291.133 33.9068 291.133 34.5076Z" fill="#000B4B"/>
<path d="M284.411 34.5639C284.411 35.1647 284.092 35.6435 283.698 35.6529C283.303 35.6623 282.994 35.1741 283.003 34.5733C283.012 33.9724 283.313 33.4937 283.707 33.4937C284.101 33.4937 284.411 33.9724 284.411 34.5639Z" fill="#000B4B"/>
<path d="M286.946 34.7705C286.244 36.599 285.296 38.3234 284.129 39.8964C284.534 40.1805 284.995 40.3737 285.481 40.4628C285.967 40.552 286.467 40.5349 286.946 40.4127V34.7705Z" fill="#ED847E"/>
<path d="M289.312 42.0182C289.993 41.9418 290.651 41.7247 291.244 41.3804C291.838 41.0362 292.353 40.5724 292.757 40.0185C292.782 39.9799 292.79 39.933 292.781 39.8881C292.771 39.8432 292.744 39.804 292.705 39.7791C292.667 39.7542 292.62 39.7457 292.575 39.7554C292.53 39.765 292.491 39.7922 292.466 39.8308C292.014 40.421 291.431 40.898 290.763 41.2239C290.095 41.5498 289.36 41.7157 288.617 41.7084C288.594 41.7083 288.571 41.713 288.55 41.7221C288.529 41.7311 288.51 41.7444 288.494 41.7611C288.478 41.7778 288.466 41.7976 288.458 41.8192C288.45 41.8408 288.447 41.8638 288.448 41.8867C288.448 41.9097 288.453 41.9325 288.462 41.9536C288.471 41.9748 288.484 41.9939 288.501 42.0097C288.517 42.0255 288.537 42.0377 288.559 42.0457C288.58 42.0536 288.603 42.057 288.626 42.0557C288.87 42.0182 289.096 42.0182 289.312 42.0182Z" fill="#000B4B"/>
<path d="M294.391 32.1325C294.45 32.1292 294.506 32.1061 294.55 32.0668C294.588 32.04 294.619 32.0058 294.643 31.9662C294.667 31.9267 294.682 31.8827 294.689 31.8369C294.695 31.7912 294.691 31.7447 294.679 31.7003C294.666 31.6558 294.645 31.6145 294.616 31.5786C294.294 31.1341 293.87 30.7728 293.38 30.5246C292.89 30.2764 292.349 30.1486 291.799 30.1517C291.754 30.1552 291.71 30.1678 291.67 30.1887C291.629 30.2096 291.594 30.2385 291.565 30.2736C291.536 30.3086 291.514 30.3491 291.501 30.3927C291.488 30.4363 291.484 30.482 291.49 30.5272C291.499 30.621 291.544 30.7075 291.616 30.7687C291.688 30.8299 291.78 30.8611 291.875 30.8558C292.311 30.8517 292.741 30.9538 293.129 31.1534C293.516 31.3529 293.85 31.6439 294.1 32.0011C294.134 32.0447 294.178 32.0794 294.229 32.1023C294.28 32.1251 294.335 32.1355 294.391 32.1325Z" fill="#000B4B"/>
<path d="M281.689 32.4236C281.744 32.4159 281.797 32.3948 281.843 32.3621C281.889 32.3294 281.926 32.2861 281.951 32.2358C282.131 31.8295 282.404 31.4715 282.748 31.1908C283.092 30.9102 283.498 30.715 283.932 30.6211C283.978 30.6168 284.023 30.6028 284.063 30.58C284.104 30.5573 284.139 30.5263 284.166 30.4891C284.193 30.4518 284.213 30.4092 284.223 30.364C284.233 30.3188 284.233 30.2721 284.223 30.2268C284.207 30.1364 284.158 30.0553 284.085 29.9997C284.012 29.9441 283.92 29.9179 283.829 29.9264C283.282 30.0344 282.768 30.2712 282.33 30.6174C281.893 30.9635 281.544 31.4089 281.313 31.9166C281.274 32.0003 281.268 32.096 281.298 32.1836C281.328 32.2712 281.39 32.3437 281.473 32.386C281.54 32.4173 281.614 32.4303 281.689 32.4236Z" fill="#000B4B"/>
<path d="M315.823 64.7371C316.969 67.1498 317.926 69.4311 318.865 71.7781C319.804 74.1251 320.64 76.5191 321.475 78.913C323.114 83.7922 324.438 88.7719 325.437 93.8212C325.653 95.1262 325.897 96.403 326.056 97.7455L326.178 98.7406L326.244 99.2382V99.4916V99.839C326.338 100.81 326.338 101.788 326.244 102.759C326.027 104.883 325.296 106.923 324.113 108.701C323.005 110.33 321.549 111.693 319.851 112.691C318.436 113.522 316.913 114.154 315.326 114.569C313.913 114.956 312.467 115.213 311.007 115.339C308.254 115.599 305.479 115.489 302.755 115.01C302.017 114.886 301.344 114.509 300.852 113.944C300.361 113.379 300.081 112.66 300.061 111.911C300.041 111.162 300.282 110.43 300.743 109.839C301.204 109.249 301.855 108.836 302.586 108.673L302.924 108.598C303.863 108.382 305.093 108.119 306.144 107.838C307.196 107.556 308.266 107.227 309.261 106.899C310.999 106.342 312.61 105.449 314.002 104.27C314.37 103.929 314.65 103.504 314.819 103.031C314.885 102.699 314.885 102.358 314.819 102.026C314.787 101.773 314.74 101.523 314.678 101.275L314.34 99.7451C314.124 98.6749 313.814 97.5671 313.533 96.4781C312.951 94.2719 312.294 92.0657 311.543 89.8501C310.791 87.6345 310.022 85.4283 309.205 83.2222C308.388 81.016 307.524 78.8098 306.651 76.6505C305.778 74.4913 304.858 72.2194 303.985 70.1634V70.0695C303.283 68.5034 303.232 66.7225 303.843 65.1186C304.454 63.5147 305.677 62.2191 307.243 61.517C308.809 60.8148 310.59 60.7636 312.194 61.3745C313.798 61.9855 315.093 63.2085 315.795 64.7746L315.823 64.7371Z" fill="#000B4B"/>
<path d="M299.789 111.377L295.649 113.367L302.802 115.911C302.802 115.911 307.571 114.391 305.262 111.743L303.976 111.339C301.91 110.664 300.896 110.739 299.789 111.377Z" fill="#FFC3BD"/>
<path d="M296.202 118.418L299.347 119.019C299.797 119.101 300.261 119.042 300.675 118.848C301.089 118.655 301.432 118.337 301.657 117.939L302.802 115.883L295.648 113.367L294.71 115.329C294.564 115.626 294.488 115.952 294.487 116.283C294.486 116.613 294.56 116.94 294.704 117.237C294.847 117.535 295.057 117.796 295.317 118C295.577 118.205 295.879 118.348 296.202 118.418Z" fill="#FFC3BD"/>
</svg>
