<svg width="150" height="150" viewBox="0 0 150 150" fill="none" xmlns="http://www.w3.org/2000/svg">
<g filter="url(#filter0_d)">
<rect x="43.5022" y="55.4507" width="49.2428" height="49.2428" rx="24.6214" transform="rotate(-18.7556 43.5022 55.4507)" fill="white"/>
</g>
<g filter="url(#filter1_d)">
<path d="M74.6317 56.8508C67.5156 56.8508 67.9599 59.9489 67.9599 59.9489L67.9678 63.1586H74.7586V64.1223H65.2706C65.2706 64.1223 60.7169 63.6038 60.7169 70.8121C60.7169 78.0207 64.6915 77.765 64.6915 77.765H67.0635V74.42C67.0635 74.42 66.9356 70.4299 70.9745 70.4299H77.7098C77.7098 70.4299 81.4939 70.4913 81.4939 66.7583V60.5862C81.4939 60.5862 82.0686 56.8508 74.6317 56.8508ZM70.8873 59.0093C71.0477 59.0092 71.2067 59.0408 71.355 59.1024C71.5032 59.1639 71.638 59.2543 71.7514 59.3682C71.8649 59.4821 71.9549 59.6174 72.0162 59.7662C72.0776 59.9151 72.1091 60.0747 72.1089 60.2358C72.1091 60.3969 72.0776 60.5564 72.0162 60.7053C71.9549 60.8541 71.8649 60.9894 71.7514 61.1033C71.638 61.2172 71.5032 61.3076 71.355 61.3691C71.2067 61.4307 71.0477 61.4624 70.8873 61.4622C70.7268 61.4624 70.5679 61.4307 70.4196 61.3691C70.2713 61.3076 70.1366 61.2172 70.0231 61.1033C69.9096 60.9894 69.8197 60.8541 69.7583 60.7053C69.697 60.5564 69.6655 60.3969 69.6656 60.2358C69.6655 60.0747 69.697 59.9151 69.7583 59.7662C69.8197 59.6174 69.9096 59.4821 70.0231 59.3682C70.1366 59.2543 70.2713 59.1639 70.4196 59.1024C70.5679 59.0408 70.7268 59.0092 70.8873 59.0093Z" fill="url(#paint0_linear)"/>
<path d="M74.8339 84.846C81.95 84.846 81.5057 81.7479 81.5057 81.7479L81.4978 78.5383H74.7069V77.5746H84.1949C84.1949 77.5746 88.7485 78.0931 88.7485 70.8846C88.7485 63.6761 84.774 63.9318 84.774 63.9318H82.402V67.2767C82.402 67.2767 82.5299 71.2668 78.4909 71.2668H71.7557C71.7557 71.2668 67.9716 71.2054 67.9716 74.9385V81.1107C67.9716 81.1107 67.397 84.846 74.8337 84.846H74.8339ZM78.5783 82.6877C78.4178 82.6879 78.2589 82.6562 78.1106 82.5947C77.9623 82.5331 77.8276 82.4427 77.7141 82.3288C77.6007 82.2149 77.5107 82.0797 77.4493 81.9308C77.388 81.7819 77.3565 81.6224 77.3566 81.4613C77.3565 81.3002 77.388 81.1406 77.4493 80.9917C77.5107 80.8428 77.6006 80.7076 77.7141 80.5936C77.8276 80.4797 77.9623 80.3894 78.1106 80.3278C78.2589 80.2662 78.4178 80.2346 78.5783 80.2347C78.7388 80.2346 78.8977 80.2662 79.046 80.3278C79.1943 80.3894 79.329 80.4797 79.4425 80.5936C79.5559 80.7075 79.6459 80.8428 79.7073 80.9916C79.7686 81.1405 79.8001 81.3001 79.8 81.4612C79.8001 81.6223 79.7686 81.7818 79.7073 81.9307C79.6459 82.0795 79.5559 82.2148 79.4425 82.3287C79.329 82.4426 79.1943 82.533 79.046 82.5946C78.8977 82.6561 78.7388 82.6878 78.5783 82.6876V82.6877Z" fill="url(#paint1_linear)"/>
</g>
<defs>
<filter id="filter0_d" x="0.10463" y="0.219971" width="149.256" height="149.256" filterUnits="userSpaceOnUse" color-interpolation-filters="sRGB">
<feFlood flood-opacity="0" result="BackgroundImageFix"/>
<feColorMatrix in="SourceAlpha" type="matrix" values="0 0 0 0 0 0 0 0 0 0 0 0 0 0 0 0 0 0 127 0"/>
<feOffset dy="4"/>
<feGaussianBlur stdDeviation="25"/>
<feColorMatrix type="matrix" values="0 0 0 0 0.6875 0 0 0 0 0.6875 0 0 0 0 0.6875 0 0 0 0.33 0"/>
<feBlend mode="normal" in2="BackgroundImageFix" result="effect1_dropShadow"/>
<feBlend mode="normal" in="SourceGraphic" in2="effect1_dropShadow" result="shape"/>
</filter>
<filter id="filter1_d" x="50.7169" y="50.8508" width="48.0316" height="47.9951" filterUnits="userSpaceOnUse" color-interpolation-filters="sRGB">
<feFlood flood-opacity="0" result="BackgroundImageFix"/>
<feColorMatrix in="SourceAlpha" type="matrix" values="0 0 0 0 0 0 0 0 0 0 0 0 0 0 0 0 0 0 127 0"/>
<feOffset dy="4"/>
<feGaussianBlur stdDeviation="5"/>
<feColorMatrix type="matrix" values="0 0 0 0 0.8 0 0 0 0 0.8 0 0 0 0 0.8 0 0 0 0.25 0"/>
<feBlend mode="normal" in2="BackgroundImageFix" result="effect1_dropShadow"/>
<feBlend mode="normal" in="SourceGraphic" in2="effect1_dropShadow" result="shape"/>
</filter>
<linearGradient id="paint0_linear" x1="63.4108" y1="59.3688" x2="77.3562" y2="73.1212" gradientUnits="userSpaceOnUse">
<stop stop-color="#387EB8"/>
<stop offset="1" stop-color="#366994"/>
</linearGradient>
<linearGradient id="paint1_linear" x1="71.9375" y1="68.2348" x2="86.9105" y2="82.334" gradientUnits="userSpaceOnUse">
<stop stop-color="#FFE052"/>
<stop offset="1" stop-color="#FFC331"/>
</linearGradient>
</defs>
</svg>
