<svg width="140" height="140" viewBox="0 0 140 140" fill="none" xmlns="http://www.w3.org/2000/svg">
<g filter="url(#filter0_d)">
<rect x="45.7241" y="54.116" width="38.6496" height="38.6496" rx="19.3248" transform="rotate(-18.7556 45.7241 54.116)" fill="white"/>
</g>
<g filter="url(#filter1_d)">
<path d="M70.157 55.2151C64.5717 55.2151 64.9204 57.6467 64.9204 57.6467L64.9266 60.166H70.2566V60.9223H62.8096C62.8096 60.9223 59.2356 60.5154 59.2356 66.173C59.2356 71.8308 62.3551 71.6302 62.3551 71.6302H64.2168V69.0047C64.2168 69.0047 64.1165 65.873 67.2866 65.873H72.5729C72.5729 65.873 75.543 65.9212 75.543 62.9913V58.1469C75.543 58.1469 75.9941 55.2151 70.157 55.2151ZM67.2181 56.9092C67.344 56.9091 67.4688 56.9339 67.5851 56.9823C67.7015 57.0306 67.8073 57.1015 67.8963 57.1909C67.9854 57.2803 68.056 57.3865 68.1042 57.5033C68.1523 57.6202 68.177 57.7454 68.1769 57.8718C68.177 57.9983 68.1523 58.1235 68.1042 58.2404C68.056 58.3572 67.9854 58.4634 67.8963 58.5528C67.8073 58.6422 67.7015 58.7131 67.5851 58.7614C67.4688 58.8098 67.344 58.8346 67.2181 58.8345C67.0921 58.8346 66.9674 58.8098 66.851 58.7614C66.7346 58.7131 66.6289 58.6422 66.5398 58.5528C66.4507 58.4634 66.3801 58.3572 66.332 58.2404C66.2838 58.1235 66.2591 57.9983 66.2592 57.8718C66.2591 57.7454 66.2838 57.6202 66.332 57.5033C66.3801 57.3865 66.4507 57.2803 66.5398 57.1909C66.6289 57.1015 66.7346 57.0306 66.851 56.9823C66.9674 56.9339 67.0921 56.9091 67.2181 56.9092Z" fill="url(#paint0_linear)"/>
<path d="M70.3156 77.188C75.901 77.188 75.5522 74.7563 75.5522 74.7563L75.546 72.2372H70.216V71.4808H77.6629C77.6629 71.4808 81.237 71.8878 81.237 66.2299C81.237 60.5722 78.1175 60.7729 78.1175 60.7729H76.2557V63.3982C76.2557 63.3982 76.3561 66.53 73.186 66.53H67.8996C67.8996 66.53 64.9296 66.4818 64.9296 69.4118V74.2563C64.9296 74.2563 64.4786 77.188 70.3156 77.188H70.3156ZM73.2546 75.494C73.1286 75.4941 73.0039 75.4693 72.8875 75.4209C72.7711 75.3726 72.6654 75.3017 72.5763 75.2123C72.4873 75.1229 72.4166 75.0167 72.3685 74.8999C72.3203 74.783 72.2956 74.6578 72.2957 74.5314C72.2956 74.4049 72.3203 74.2797 72.3685 74.1628C72.4166 74.046 72.4872 73.9398 72.5763 73.8504C72.6654 73.761 72.7711 73.6901 72.8875 73.6417C73.0039 73.5934 73.1286 73.5686 73.2546 73.5687C73.3805 73.5686 73.5053 73.5934 73.6217 73.6417C73.7381 73.69 73.8438 73.7609 73.9329 73.8504C74.0219 73.9398 74.0925 74.0459 74.1407 74.1628C74.1888 74.2796 74.2136 74.4048 74.2135 74.5313C74.2136 74.6577 74.1888 74.783 74.1407 74.8998C74.0925 75.0166 74.0219 75.1228 73.9329 75.2122C73.8438 75.3016 73.7381 75.3725 73.6217 75.4209C73.5053 75.4692 73.3805 75.494 73.2546 75.4939V75.494Z" fill="url(#paint1_linear)"/>
</g>
<defs>
<filter id="filter0_d" x="0.90625" y="0.871094" width="138.66" height="138.66" filterUnits="userSpaceOnUse" color-interpolation-filters="sRGB">
<feFlood flood-opacity="0" result="BackgroundImageFix"/>
<feColorMatrix in="SourceAlpha" type="matrix" values="0 0 0 0 0 0 0 0 0 0 0 0 0 0 0 0 0 0 127 0"/>
<feOffset dy="4"/>
<feGaussianBlur stdDeviation="25"/>
<feColorMatrix type="matrix" values="0 0 0 0 0.6875 0 0 0 0 0.6875 0 0 0 0 0.6875 0 0 0 0.33 0"/>
<feBlend mode="normal" in2="BackgroundImageFix" result="effect1_dropShadow"/>
<feBlend mode="normal" in="SourceGraphic" in2="effect1_dropShadow" result="shape"/>
</filter>
<filter id="filter1_d" x="49.2356" y="49.2151" width="42.0014" height="41.9729" filterUnits="userSpaceOnUse" color-interpolation-filters="sRGB">
<feFlood flood-opacity="0" result="BackgroundImageFix"/>
<feColorMatrix in="SourceAlpha" type="matrix" values="0 0 0 0 0 0 0 0 0 0 0 0 0 0 0 0 0 0 127 0"/>
<feOffset dy="4"/>
<feGaussianBlur stdDeviation="5"/>
<feColorMatrix type="matrix" values="0 0 0 0 0.8 0 0 0 0 0.8 0 0 0 0 0.8 0 0 0 0.25 0"/>
<feBlend mode="normal" in2="BackgroundImageFix" result="effect1_dropShadow"/>
<feBlend mode="normal" in="SourceGraphic" in2="effect1_dropShadow" result="shape"/>
</filter>
<linearGradient id="paint0_linear" x1="61.3499" y1="57.1914" x2="72.2954" y2="67.9853" gradientUnits="userSpaceOnUse">
<stop stop-color="#387EB8"/>
<stop offset="1" stop-color="#366994"/>
</linearGradient>
<linearGradient id="paint1_linear" x1="68.0423" y1="64.1502" x2="79.7944" y2="75.2164" gradientUnits="userSpaceOnUse">
<stop stop-color="#FFE052"/>
<stop offset="1" stop-color="#FFC331"/>
</linearGradient>
</defs>
</svg>
