<svg width="181" height="199" viewBox="0 0 181 199" fill="none" xmlns="http://www.w3.org/2000/svg">
<g opacity="0.4">
<circle cx="1.53491" cy="1.96826" r="1.5" fill="#E2E2E2"/>
<circle cx="14.5349" cy="1.96826" r="1.5" fill="#E2E2E2"/>
<circle cx="27.5349" cy="1.96826" r="1.5" fill="#E2E2E2"/>
<circle cx="40.5349" cy="1.96826" r="1.5" fill="#E2E2E2"/>
<circle cx="53.5349" cy="1.96826" r="1.5" fill="#E2E2E2"/>
<circle cx="66.5349" cy="1.96826" r="1.5" fill="#E2E2E2"/>
<circle cx="79.5349" cy="1.96826" r="1.5" fill="#E2E2E2"/>
<circle cx="92.5349" cy="1.96826" r="1.5" fill="#E2E2E2"/>
<circle cx="105.535" cy="1.96826" r="1.5" fill="#E2E2E2"/>
<circle cx="118.535" cy="1.96826" r="1.5" fill="#E2E2E2"/>
<circle cx="131.535" cy="1.96826" r="1.5" fill="#E2E2E2"/>
<circle cx="144.535" cy="1.96826" r="1.5" fill="#E2E2E2"/>
<circle cx="157.535" cy="1.96826" r="1.5" fill="#E2E2E2"/>
<circle cx="170.535" cy="1.96826" r="1.5" fill="#E2E2E2"/>
<circle cx="1.53491" cy="105.968" r="1.5" fill="#E2E2E2"/>
<circle cx="14.5349" cy="105.968" r="1.5" fill="#E2E2E2"/>
<circle cx="27.5349" cy="105.968" r="1.5" fill="#E2E2E2"/>
<circle cx="40.5349" cy="105.968" r="1.5" fill="#E2E2E2"/>
<circle cx="53.5349" cy="105.968" r="1.5" fill="#E2E2E2"/>
<circle cx="66.5349" cy="105.968" r="1.5" fill="#E2E2E2"/>
<circle cx="79.5349" cy="105.968" r="1.5" fill="#E2E2E2"/>
<circle cx="92.5349" cy="105.968" r="1.5" fill="#E2E2E2"/>
<circle cx="105.535" cy="105.968" r="1.5" fill="#E2E2E2"/>
<circle cx="118.535" cy="105.968" r="1.5" fill="#E2E2E2"/>
<circle cx="131.535" cy="105.968" r="1.5" fill="#E2E2E2"/>
<circle cx="144.535" cy="105.968" r="1.5" fill="#E2E2E2"/>
<circle cx="157.535" cy="105.968" r="1.5" fill="#E2E2E2"/>
<circle cx="170.535" cy="105.968" r="1.5" fill="#E2E2E2"/>
<circle cx="1.53491" cy="53.9683" r="1.5" fill="#E2E2E2"/>
<circle cx="14.5349" cy="53.9683" r="1.5" fill="#E2E2E2"/>
<circle cx="27.5349" cy="53.9683" r="1.5" fill="#E2E2E2"/>
<circle cx="40.5349" cy="53.9683" r="1.5" fill="#E2E2E2"/>
<circle cx="53.5349" cy="53.9683" r="1.5" fill="#E2E2E2"/>
<circle cx="66.5349" cy="53.9683" r="1.5" fill="#E2E2E2"/>
<circle cx="79.5349" cy="53.9683" r="1.5" fill="#E2E2E2"/>
<circle cx="92.5349" cy="53.9683" r="1.5" fill="#E2E2E2"/>
<circle cx="105.535" cy="53.9683" r="1.5" fill="#E2E2E2"/>
<circle cx="118.535" cy="53.9683" r="1.5" fill="#E2E2E2"/>
<circle cx="131.535" cy="53.9683" r="1.5" fill="#E2E2E2"/>
<circle cx="144.535" cy="53.9683" r="1.5" fill="#E2E2E2"/>
<circle cx="157.535" cy="53.9683" r="1.5" fill="#E2E2E2"/>
<circle cx="170.535" cy="53.9683" r="1.5" fill="#E2E2E2"/>
<circle cx="1.53491" cy="157.968" r="1.5" fill="#E2E2E2"/>
<circle cx="14.5349" cy="157.968" r="1.5" fill="#E2E2E2"/>
<circle cx="27.5349" cy="157.968" r="1.5" fill="#E2E2E2"/>
<circle cx="40.5349" cy="157.968" r="1.5" fill="#E2E2E2"/>
<circle cx="53.5349" cy="157.968" r="1.5" fill="#E2E2E2"/>
<circle cx="66.5349" cy="157.968" r="1.5" fill="#E2E2E2"/>
<circle cx="79.5349" cy="157.968" r="1.5" fill="#E2E2E2"/>
<circle cx="92.5349" cy="157.968" r="1.5" fill="#E2E2E2"/>
<circle cx="105.535" cy="157.968" r="1.5" fill="#E2E2E2"/>
<circle cx="118.535" cy="157.968" r="1.5" fill="#E2E2E2"/>
<circle cx="131.535" cy="157.968" r="1.5" fill="#E2E2E2"/>
<circle cx="144.535" cy="157.968" r="1.5" fill="#E2E2E2"/>
<circle cx="157.535" cy="157.968" r="1.5" fill="#E2E2E2"/>
<circle cx="170.535" cy="157.968" r="1.5" fill="#E2E2E2"/>
<circle cx="1.53491" cy="27.9683" r="1.5" fill="#E2E2E2"/>
<circle cx="14.5349" cy="27.9683" r="1.5" fill="#E2E2E2"/>
<circle cx="27.5349" cy="27.9683" r="1.5" fill="#E2E2E2"/>
<circle cx="40.5349" cy="27.9683" r="1.5" fill="#E2E2E2"/>
<circle cx="53.5349" cy="27.9683" r="1.5" fill="#E2E2E2"/>
<circle cx="66.5349" cy="27.9683" r="1.5" fill="#E2E2E2"/>
<circle cx="79.5349" cy="27.9683" r="1.5" fill="#E2E2E2"/>
<circle cx="92.5349" cy="27.9683" r="1.5" fill="#E2E2E2"/>
<circle cx="105.535" cy="27.9683" r="1.5" fill="#E2E2E2"/>
<circle cx="118.535" cy="27.9683" r="1.5" fill="#E2E2E2"/>
<circle cx="131.535" cy="27.9683" r="1.5" fill="#E2E2E2"/>
<circle cx="144.535" cy="27.9683" r="1.5" fill="#E2E2E2"/>
<circle cx="157.535" cy="27.9683" r="1.5" fill="#E2E2E2"/>
<circle cx="170.535" cy="27.9683" r="1.5" fill="#E2E2E2"/>
<circle cx="1.53491" cy="131.968" r="1.5" fill="#E2E2E2"/>
<circle cx="14.5349" cy="131.968" r="1.5" fill="#E2E2E2"/>
<circle cx="27.5349" cy="131.968" r="1.5" fill="#E2E2E2"/>
<circle cx="40.5349" cy="131.968" r="1.5" fill="#E2E2E2"/>
<circle cx="53.5349" cy="131.968" r="1.5" fill="#E2E2E2"/>
<circle cx="66.5349" cy="131.968" r="1.5" fill="#E2E2E2"/>
<circle cx="79.5349" cy="131.968" r="1.5" fill="#E2E2E2"/>
<circle cx="92.5349" cy="131.968" r="1.5" fill="#E2E2E2"/>
<circle cx="105.535" cy="131.968" r="1.5" fill="#E2E2E2"/>
<circle cx="118.535" cy="131.968" r="1.5" fill="#E2E2E2"/>
<circle cx="131.535" cy="131.968" r="1.5" fill="#E2E2E2"/>
<circle cx="144.535" cy="131.968" r="1.5" fill="#E2E2E2"/>
<circle cx="157.535" cy="131.968" r="1.5" fill="#E2E2E2"/>
<circle cx="170.535" cy="131.968" r="1.5" fill="#E2E2E2"/>
<circle cx="1.53491" cy="79.9683" r="1.5" fill="#E2E2E2"/>
<circle cx="14.5349" cy="79.9683" r="1.5" fill="#E2E2E2"/>
<circle cx="27.5349" cy="79.9683" r="1.5" fill="#E2E2E2"/>
<circle cx="40.5349" cy="79.9683" r="1.5" fill="#E2E2E2"/>
<circle cx="53.5349" cy="79.9683" r="1.5" fill="#E2E2E2"/>
<circle cx="66.5349" cy="79.9683" r="1.5" fill="#E2E2E2"/>
<circle cx="79.5349" cy="79.9683" r="1.5" fill="#E2E2E2"/>
<circle cx="92.5349" cy="79.9683" r="1.5" fill="#E2E2E2"/>
<circle cx="105.535" cy="79.9683" r="1.5" fill="#E2E2E2"/>
<circle cx="118.535" cy="79.9683" r="1.5" fill="#E2E2E2"/>
<circle cx="131.535" cy="79.9683" r="1.5" fill="#E2E2E2"/>
<circle cx="144.535" cy="79.9683" r="1.5" fill="#E2E2E2"/>
<circle cx="157.535" cy="79.9683" r="1.5" fill="#E2E2E2"/>
<circle cx="170.535" cy="79.9683" r="1.5" fill="#E2E2E2"/>
<circle cx="1.53491" cy="183.968" r="1.5" fill="#E2E2E2"/>
<circle cx="14.5349" cy="183.968" r="1.5" fill="#E2E2E2"/>
<circle cx="27.5349" cy="183.968" r="1.5" fill="#E2E2E2"/>
<circle cx="40.5349" cy="183.968" r="1.5" fill="#E2E2E2"/>
<circle cx="53.5349" cy="183.968" r="1.5" fill="#E2E2E2"/>
<circle cx="66.5349" cy="183.968" r="1.5" fill="#E2E2E2"/>
<circle cx="79.5349" cy="183.968" r="1.5" fill="#E2E2E2"/>
<circle cx="92.5349" cy="183.968" r="1.5" fill="#E2E2E2"/>
<circle cx="105.535" cy="183.968" r="1.5" fill="#E2E2E2"/>
<circle cx="118.535" cy="183.968" r="1.5" fill="#E2E2E2"/>
<circle cx="131.535" cy="183.968" r="1.5" fill="#E2E2E2"/>
<circle cx="144.535" cy="183.968" r="1.5" fill="#E2E2E2"/>
<circle cx="157.535" cy="183.968" r="1.5" fill="#E2E2E2"/>
<circle cx="170.535" cy="183.968" r="1.5" fill="#E2E2E2"/>
<circle cx="1.53491" cy="14.9683" r="1.5" fill="#E2E2E2"/>
<circle cx="14.5349" cy="14.9683" r="1.5" fill="#E2E2E2"/>
<circle cx="27.5349" cy="14.9683" r="1.5" fill="#E2E2E2"/>
<circle cx="40.5349" cy="14.9683" r="1.5" fill="#E2E2E2"/>
<circle cx="53.5349" cy="14.9683" r="1.5" fill="#E2E2E2"/>
<circle cx="66.5349" cy="14.9683" r="1.5" fill="#E2E2E2"/>
<circle cx="79.5349" cy="14.9683" r="1.5" fill="#E2E2E2"/>
<circle cx="92.5349" cy="14.9683" r="1.5" fill="#E2E2E2"/>
<circle cx="105.535" cy="14.9683" r="1.5" fill="#E2E2E2"/>
<circle cx="118.535" cy="14.9683" r="1.5" fill="#E2E2E2"/>
<circle cx="131.535" cy="14.9683" r="1.5" fill="#E2E2E2"/>
<circle cx="144.535" cy="14.9683" r="1.5" fill="#E2E2E2"/>
<circle cx="157.535" cy="14.9683" r="1.5" fill="#E2E2E2"/>
<circle cx="170.535" cy="14.9683" r="1.5" fill="#E2E2E2"/>
<circle cx="1.53491" cy="118.968" r="1.5" fill="#E2E2E2"/>
<circle cx="14.5349" cy="118.968" r="1.5" fill="#E2E2E2"/>
<circle cx="27.5349" cy="118.968" r="1.5" fill="#E2E2E2"/>
<circle cx="40.5349" cy="118.968" r="1.5" fill="#E2E2E2"/>
<circle cx="53.5349" cy="118.968" r="1.5" fill="#E2E2E2"/>
<circle cx="66.5349" cy="118.968" r="1.5" fill="#E2E2E2"/>
<circle cx="79.5349" cy="118.968" r="1.5" fill="#E2E2E2"/>
<circle cx="92.5349" cy="118.968" r="1.5" fill="#E2E2E2"/>
<circle cx="105.535" cy="118.968" r="1.5" fill="#E2E2E2"/>
<circle cx="118.535" cy="118.968" r="1.5" fill="#E2E2E2"/>
<circle cx="131.535" cy="118.968" r="1.5" fill="#E2E2E2"/>
<circle cx="144.535" cy="118.968" r="1.5" fill="#E2E2E2"/>
<circle cx="157.535" cy="118.968" r="1.5" fill="#E2E2E2"/>
<circle cx="170.535" cy="118.968" r="1.5" fill="#E2E2E2"/>
<circle cx="1.53491" cy="66.9683" r="1.5" fill="#E2E2E2"/>
<circle cx="14.5349" cy="66.9683" r="1.5" fill="#E2E2E2"/>
<circle cx="27.5349" cy="66.9683" r="1.5" fill="#E2E2E2"/>
<circle cx="40.5349" cy="66.9683" r="1.5" fill="#E2E2E2"/>
<circle cx="53.5349" cy="66.9683" r="1.5" fill="#E2E2E2"/>
<circle cx="66.5349" cy="66.9683" r="1.5" fill="#E2E2E2"/>
<circle cx="79.5349" cy="66.9683" r="1.5" fill="#E2E2E2"/>
<circle cx="92.5349" cy="66.9683" r="1.5" fill="#E2E2E2"/>
<circle cx="105.535" cy="66.9683" r="1.5" fill="#E2E2E2"/>
<circle cx="118.535" cy="66.9683" r="1.5" fill="#E2E2E2"/>
<circle cx="131.535" cy="66.9683" r="1.5" fill="#E2E2E2"/>
<circle cx="144.535" cy="66.9683" r="1.5" fill="#E2E2E2"/>
<circle cx="157.535" cy="66.9683" r="1.5" fill="#E2E2E2"/>
<circle cx="170.535" cy="66.9683" r="1.5" fill="#E2E2E2"/>
<circle cx="1.53491" cy="170.968" r="1.5" fill="#E2E2E2"/>
<circle cx="14.5349" cy="170.968" r="1.5" fill="#E2E2E2"/>
<circle cx="27.5349" cy="170.968" r="1.5" fill="#E2E2E2"/>
<circle cx="40.5349" cy="170.968" r="1.5" fill="#E2E2E2"/>
<circle cx="53.5349" cy="170.968" r="1.5" fill="#E2E2E2"/>
<circle cx="66.5349" cy="170.968" r="1.5" fill="#E2E2E2"/>
<circle cx="79.5349" cy="170.968" r="1.5" fill="#E2E2E2"/>
<circle cx="92.5349" cy="170.968" r="1.5" fill="#E2E2E2"/>
<circle cx="105.535" cy="170.968" r="1.5" fill="#E2E2E2"/>
<circle cx="118.535" cy="170.968" r="1.5" fill="#E2E2E2"/>
<circle cx="131.535" cy="170.968" r="1.5" fill="#E2E2E2"/>
<circle cx="144.535" cy="170.968" r="1.5" fill="#E2E2E2"/>
<circle cx="157.535" cy="170.968" r="1.5" fill="#E2E2E2"/>
<circle cx="170.535" cy="170.968" r="1.5" fill="#E2E2E2"/>
<circle cx="1.53491" cy="40.9683" r="1.5" fill="#E2E2E2"/>
<circle cx="14.5349" cy="40.9683" r="1.5" fill="#E2E2E2"/>
<circle cx="27.5349" cy="40.9683" r="1.5" fill="#E2E2E2"/>
<circle cx="40.5349" cy="40.9683" r="1.5" fill="#E2E2E2"/>
<circle cx="53.5349" cy="40.9683" r="1.5" fill="#E2E2E2"/>
<circle cx="66.5349" cy="40.9683" r="1.5" fill="#E2E2E2"/>
<circle cx="79.5349" cy="40.9683" r="1.5" fill="#E2E2E2"/>
<circle cx="92.5349" cy="40.9683" r="1.5" fill="#E2E2E2"/>
<circle cx="105.535" cy="40.9683" r="1.5" fill="#E2E2E2"/>
<circle cx="118.535" cy="40.9683" r="1.5" fill="#E2E2E2"/>
<circle cx="131.535" cy="40.9683" r="1.5" fill="#E2E2E2"/>
<circle cx="144.535" cy="40.9683" r="1.5" fill="#E2E2E2"/>
<circle cx="157.535" cy="40.9683" r="1.5" fill="#E2E2E2"/>
<circle cx="170.535" cy="40.9683" r="1.5" fill="#E2E2E2"/>
<circle cx="1.53491" cy="144.968" r="1.5" fill="#E2E2E2"/>
<circle cx="14.5349" cy="144.968" r="1.5" fill="#E2E2E2"/>
<circle cx="27.5349" cy="144.968" r="1.5" fill="#E2E2E2"/>
<circle cx="40.5349" cy="144.968" r="1.5" fill="#E2E2E2"/>
<circle cx="53.5349" cy="144.968" r="1.5" fill="#E2E2E2"/>
<circle cx="66.5349" cy="144.968" r="1.5" fill="#E2E2E2"/>
<circle cx="79.5349" cy="144.968" r="1.5" fill="#E2E2E2"/>
<circle cx="92.5349" cy="144.968" r="1.5" fill="#E2E2E2"/>
<circle cx="105.535" cy="144.968" r="1.5" fill="#E2E2E2"/>
<circle cx="118.535" cy="144.968" r="1.5" fill="#E2E2E2"/>
<circle cx="131.535" cy="144.968" r="1.5" fill="#E2E2E2"/>
<circle cx="144.535" cy="144.968" r="1.5" fill="#E2E2E2"/>
<circle cx="157.535" cy="144.968" r="1.5" fill="#E2E2E2"/>
<circle cx="170.535" cy="144.968" r="1.5" fill="#E2E2E2"/>
<circle cx="1.53491" cy="92.9683" r="1.5" fill="#E2E2E2"/>
<circle cx="14.5349" cy="92.9683" r="1.5" fill="#E2E2E2"/>
<circle cx="27.5349" cy="92.9683" r="1.5" fill="#E2E2E2"/>
<circle cx="40.5349" cy="92.9683" r="1.5" fill="#E2E2E2"/>
<circle cx="53.5349" cy="92.9683" r="1.5" fill="#E2E2E2"/>
<circle cx="66.5349" cy="92.9683" r="1.5" fill="#E2E2E2"/>
<circle cx="79.5349" cy="92.9683" r="1.5" fill="#E2E2E2"/>
<circle cx="92.5349" cy="92.9683" r="1.5" fill="#E2E2E2"/>
<circle cx="105.535" cy="92.9683" r="1.5" fill="#E2E2E2"/>
<circle cx="118.535" cy="92.9683" r="1.5" fill="#E2E2E2"/>
<circle cx="131.535" cy="92.9683" r="1.5" fill="#E2E2E2"/>
<circle cx="144.535" cy="92.9683" r="1.5" fill="#E2E2E2"/>
<circle cx="157.535" cy="92.9683" r="1.5" fill="#E2E2E2"/>
<circle cx="170.535" cy="92.9683" r="1.5" fill="#E2E2E2"/>
<circle cx="1.53491" cy="196.968" r="1.5" fill="#E2E2E2"/>
<circle cx="14.5349" cy="196.968" r="1.5" fill="#E2E2E2"/>
<circle cx="27.5349" cy="196.968" r="1.5" fill="#E2E2E2"/>
<circle cx="40.5349" cy="196.968" r="1.5" fill="#E2E2E2"/>
<circle cx="53.5349" cy="196.968" r="1.5" fill="#E2E2E2"/>
<circle cx="66.5349" cy="196.968" r="1.5" fill="#E2E2E2"/>
<circle cx="79.5349" cy="196.968" r="1.5" fill="#E2E2E2"/>
<circle cx="92.5349" cy="196.968" r="1.5" fill="#E2E2E2"/>
<circle cx="105.535" cy="196.968" r="1.5" fill="#E2E2E2"/>
<circle cx="118.535" cy="196.968" r="1.5" fill="#E2E2E2"/>
<circle cx="131.535" cy="196.968" r="1.5" fill="#E2E2E2"/>
<circle cx="144.535" cy="196.968" r="1.5" fill="#E2E2E2"/>
<circle cx="157.535" cy="196.968" r="1.5" fill="#E2E2E2"/>
<circle cx="170.535" cy="196.968" r="1.5" fill="#E2E2E2"/>
</g>
</svg>
