<svg id="Layer_1" data-name="Layer 1" xmlns="http://www.w3.org/2000/svg" viewBox="0 0 414.7 265.32"><defs><style>.cls-1{fill:#2b7cc0;}.cls-2{fill:#1a4f91;}.cls-3,.cls-6{fill:#000b4b;}.cls-4,.cls-7{fill:#3dadf2;}.cls-5{fill:#3290d4;}.cls-6{font-size:56px;font-family:FFClanPro-Bold, FF Clan Pro;font-weight:700;}.cls-7{letter-spacing:0em;}</style></defs><title>ccc</title><rect class="cls-1" x="646.05" y="482.18" width="31.85" height="31.79" transform="translate(485.22 951.1) rotate(-135)"/><rect class="cls-2" x="623.55" y="504.68" width="31.85" height="31.79" transform="translate(430.9 973.6) rotate(-135)"/><rect class="cls-3" x="601.03" y="527.18" width="31.85" height="31.79" transform="translate(376.55 996.09) rotate(-135)"/><polygon class="cls-3" points="279.33 198.3 279.35 198.32 324.31 198.32 301.81 175.82 279.33 198.3"/><polygon class="cls-4" points="324.33 63.34 324.31 63.32 279.35 63.32 301.85 85.82 324.33 63.34"/><rect class="cls-5" x="623.55" y="459.68" width="31.85" height="31.79" transform="translate(462.72 896.78) rotate(-135)"/><rect class="cls-4" x="601.05" y="437.18" width="31.85" height="31.79" transform="translate(440.22 842.46) rotate(-135)"/><rect class="cls-3" x="299.22" y="482.18" width="31.85" height="31.79" transform="translate(-552.54 1.47) rotate(-45)"/><rect class="cls-3" x="321.72" y="504.68" width="31.85" height="31.79" transform="translate(-561.86 23.97) rotate(-45)"/><rect class="cls-3" x="344.24" y="527.18" width="31.85" height="31.79" transform="translate(-571.17 46.48) rotate(-45)"/><polygon class="cls-3" points="112.5 198.3 112.48 198.32 67.52 198.32 90.02 175.82 112.5 198.3"/><polygon class="cls-3" points="67.5 63.34 67.52 63.32 112.48 63.32 89.98 85.82 67.5 63.34"/><rect class="cls-3" x="321.72" y="459.68" width="31.85" height="31.79" transform="translate(-530.04 10.79) rotate(-45)"/><rect class="cls-3" x="344.22" y="437.18" width="31.85" height="31.79" transform="translate(-507.54 20.11) rotate(-45)"/><path class="cls-3" d="M510.12,375.76,438.39,565.58H411.12L482,375.76Z" transform="translate(-292.65 -367.26)"/><path class="cls-3" d="M563.69,461.87a69.51,69.51,0,0,0-25.13-4.45c-23.26,0-31,9.78-31,41.43,0,33.42,8,43.38,31.47,43.38a61.07,61.07,0,0,0,25-5.15l2.9,24.35c-8.38,4.27-20.69,7.29-32,7.29-38.82,0-57.63-22.4-57.63-70.05,0-44.45,18.47-68.09,59.51-68.09,10.26,0,22.4,2.49,29.75,5.51Z" transform="translate(-292.65 -367.26)"/><text class="cls-6" transform="translate(64.25 253.84)">codes<tspan class="cls-7" x="158.65" y="0">hub</tspan></text><rect class="cls-3" x="664.63" y="373.53" width="36.45" height="36.45" rx="3.07" transform="translate(184.37 -735.36) rotate(45)"/><rect class="cls-3" x="642.35" y="408.2" width="14.25" height="14.25" rx="1.2" transform="translate(191.26 -704.86) rotate(45)"/><rect class="cls-4" x="671.67" y="435.57" width="18.36" height="18.36" rx="1.55" transform="translate(221.26 -718.43) rotate(45)"/></svg>