<svg width="31" height="31" viewBox="0 0 31 31" fill="none" xmlns="http://www.w3.org/2000/svg">
<path d="M15.9873 0.0849609C7.70281 0.0849609 0.987305 6.80046 0.987305 15.085C0.987305 23.3695 7.70281 30.085 15.9873 30.085C24.2718 30.085 30.9873 23.3695 30.9873 15.085C30.9873 6.80046 24.2718 0.0849609 15.9873 0.0849609ZM15.9873 2.25846C19.2551 2.25846 22.2378 3.48096 24.5028 5.49246C22.8386 7.68771 20.3103 9.14946 17.7768 10.1387C16.3426 7.52672 14.7353 5.01361 12.9656 2.61621C13.9553 2.37764 14.9699 2.25754 15.9881 2.25846H15.9873ZM10.5303 3.47346C12.2028 5.97546 13.8228 8.29521 15.3026 10.921C11.5601 11.8907 7.3308 12.4727 3.42405 12.4825C4.24755 8.48646 6.9318 5.16846 10.5303 3.47421V3.47346ZM25.9256 6.97596C27.779 9.24093 28.7986 12.0736 28.8138 15.0002C25.8468 14.4152 22.8963 14.2622 19.8918 14.5652C19.5543 13.723 19.1448 12.9227 18.7526 12.0602C21.3423 11.0155 24.1113 9.22746 25.9256 6.97521V6.97596ZM16.3443 12.9055C16.6653 13.588 17.0373 14.3125 17.3868 15.0527C13.2093 16.8947 8.76555 19.3562 6.4593 23.6717C4.24531 21.2217 3.06541 18.0099 3.1668 14.7092C7.64055 14.6882 12.0318 14.1287 16.3443 12.9055ZM23.1228 16.4027C24.9894 16.4031 26.8483 16.6426 28.6541 17.1152C28.3756 18.8524 27.7428 20.5137 26.7948 21.9958C25.8468 23.478 24.6041 24.7492 23.1438 25.7305C22.4553 22.5992 21.7991 19.603 20.6388 16.582C21.4611 16.4621 22.291 16.402 23.1221 16.402L23.1228 16.4027ZM28.7208 16.6352C28.7118 16.7087 28.7036 16.7807 28.6931 16.8527C28.7036 16.78 28.7126 16.708 28.7208 16.6352ZM18.2658 17.1677C19.4478 20.2225 20.3756 23.605 20.9981 26.8967C19.4135 27.5691 17.7094 27.9145 15.9881 27.9122C13.1364 27.9163 10.3655 26.9658 8.1168 25.2122C10.4396 21.4442 14.0373 18.5927 18.2651 17.1685L18.2658 17.1677Z" fill="white"/>
</svg>
