<svg width="156" height="156" viewBox="0 0 156 156" fill="none" xmlns="http://www.w3.org/2000/svg">
<g filter="url(#filter0_d)">
<rect x="44.21" y="72.7373" width="47.5846" height="47.5846" rx="15" transform="rotate(-43.2864 44.21 72.7373)" fill="white"/>
</g>
<g filter="url(#filter1_d)">
<path d="M69.9901 70.9205H68.5014L67.6903 75.0892H69.0126C69.885 75.0892 70.5367 74.9239 70.9676 74.5922C71.3915 74.2663 71.6807 73.7126 71.8283 72.9441C71.9747 72.2062 71.9074 71.6832 71.6382 71.3762C71.3608 71.0752 70.813 70.9217 69.9901 70.9217V70.9205ZM77.8423 63.8074C67.4069 63.8074 58.9526 68.2594 58.9526 73.7433C58.9526 79.2272 67.4069 83.6793 77.8423 83.6793C88.2777 83.6793 96.732 79.2272 96.732 73.7433C96.732 68.2594 88.2777 63.8074 77.8423 63.8074ZM72.7079 75.539C72.2992 75.9318 71.8073 76.2276 71.2687 76.4044C70.7398 76.5709 70.0645 76.663 69.2463 76.663H67.3822L66.8721 79.3075H64.701L66.6384 69.3527H70.8071C72.0621 69.3527 72.9782 69.6785 73.5555 70.3361C74.1281 70.9937 74.3064 71.9169 74.0715 73.0975C73.9835 73.5651 73.8222 74.0157 73.5933 74.4328C73.3578 74.8459 73.0586 75.2192 72.7067 75.539H72.7079ZM79.0477 76.663L79.9025 72.2558C80.0005 71.7564 79.9639 71.414 79.7903 71.2275C79.625 71.0492 79.2614 70.9571 78.7089 70.9571H76.9935L75.8872 76.663H73.7291L75.6653 66.7022H77.8175L77.3016 69.3527H79.2201C80.4326 69.3527 81.2613 69.5616 81.717 69.9796C82.1787 70.4046 82.3133 71.0858 82.1362 72.0279L81.2306 76.6642L79.0477 76.663ZM91.0001 73.0975C90.9149 73.5658 90.7534 74.0169 90.522 74.4328C90.2887 74.8455 89.9919 75.2188 89.6424 75.539C89.23 75.93 88.7367 76.2254 88.1974 76.4044C87.6685 76.5709 86.992 76.663 86.175 76.663H84.3179L83.802 79.3075H81.6309L83.5682 69.3527H87.737C88.9919 69.3527 89.9081 69.6785 90.4854 70.3432C91.058 70.9949 91.2363 71.9169 91.0013 73.0975H91.0001ZM86.9188 70.9205H85.436L84.6249 75.0892H85.9413C86.8196 75.0892 87.4713 74.9239 87.8963 74.5922C88.3261 74.2663 88.6153 73.7126 88.7641 72.9441C88.9105 72.2062 88.8432 71.6832 88.5657 71.3762C88.2966 71.0752 87.7429 70.9217 86.9188 70.9217V70.9205Z" fill="#000B4B"/>
</g>
<defs>
<filter id="filter0_d" x="0.413696" y="0.314941" width="154.857" height="154.857" filterUnits="userSpaceOnUse" color-interpolation-filters="sRGB">
<feFlood flood-opacity="0" result="BackgroundImageFix"/>
<feColorMatrix in="SourceAlpha" type="matrix" values="0 0 0 0 0 0 0 0 0 0 0 0 0 0 0 0 0 0 127 0"/>
<feOffset dy="4"/>
<feGaussianBlur stdDeviation="25"/>
<feColorMatrix type="matrix" values="0 0 0 0 0.6875 0 0 0 0 0.6875 0 0 0 0 0.6875 0 0 0 0.33 0"/>
<feBlend mode="normal" in2="BackgroundImageFix" result="effect1_dropShadow"/>
<feBlend mode="normal" in="SourceGraphic" in2="effect1_dropShadow" result="shape"/>
</filter>
<filter id="filter1_d" x="48.9526" y="57.8074" width="57.7793" height="39.8719" filterUnits="userSpaceOnUse" color-interpolation-filters="sRGB">
<feFlood flood-opacity="0" result="BackgroundImageFix"/>
<feColorMatrix in="SourceAlpha" type="matrix" values="0 0 0 0 0 0 0 0 0 0 0 0 0 0 0 0 0 0 127 0"/>
<feOffset dy="4"/>
<feGaussianBlur stdDeviation="5"/>
<feColorMatrix type="matrix" values="0 0 0 0 0.8 0 0 0 0 0.8 0 0 0 0 0.8 0 0 0 0.25 0"/>
<feBlend mode="normal" in2="BackgroundImageFix" result="effect1_dropShadow"/>
<feBlend mode="normal" in="SourceGraphic" in2="effect1_dropShadow" result="shape"/>
</filter>
</defs>
</svg>
