<svg width="150" height="150" viewBox="0 0 150 150" fill="none" xmlns="http://www.w3.org/2000/svg">
<g filter="url(#filter0_d)">
<rect x="46.8356" y="70.2983" width="40.2319" height="40.2319" rx="10" transform="rotate(-43.2864 46.8356 70.2983)" fill="white"/>
</g>
<g filter="url(#filter1_d)">
<path d="M68.6322 68.7621H67.3735L66.6878 72.2866H67.8057C68.5434 72.2866 69.0944 72.1469 69.4587 71.8664C69.817 71.5909 70.0616 71.1228 70.1864 70.473C70.3101 69.8491 70.2533 69.4069 70.0257 69.1474C69.7911 68.8928 69.3279 68.7631 68.6322 68.7631V68.7621ZM75.2711 62.748C66.4482 62.748 59.3002 66.5122 59.3002 71.1487C59.3002 75.7853 66.4482 79.5494 75.2711 79.5494C84.094 79.5494 91.242 75.7853 91.242 71.1487C91.242 66.5122 84.094 62.748 75.2711 62.748ZM70.93 72.667C70.5845 72.9991 70.1686 73.2491 69.7132 73.3986C69.2661 73.5394 68.6951 73.6172 68.0034 73.6172H66.4272L65.996 75.8531H64.1604L65.7984 67.4365H69.3229C70.384 67.4365 71.1586 67.712 71.6467 68.268C72.1308 68.824 72.2816 69.6045 72.0829 70.6027C72.0086 70.998 71.8721 71.379 71.6787 71.7317C71.4795 72.0809 71.2266 72.3966 70.929 72.667H70.93ZM76.2902 73.6172L77.0129 69.891C77.0958 69.4688 77.0648 69.1793 76.9181 69.0216C76.7783 68.8709 76.4709 68.793 76.0038 68.793H74.5534L73.6181 73.6172H71.7934L73.4305 65.1956H75.2501L74.8139 67.4365H76.436C77.4611 67.4365 78.1618 67.6132 78.5471 67.9665C78.9374 68.3259 79.0512 68.9018 78.9015 69.6984L78.1359 73.6182L76.2902 73.6172ZM86.3958 70.6027C86.3237 70.9986 86.1872 71.38 85.9915 71.7317C85.7943 72.0805 85.5434 72.3962 85.2479 72.667C84.8992 72.9975 84.4821 73.2473 84.0261 73.3986C83.5789 73.5394 83.007 73.6172 82.3162 73.6172H80.7461L80.3099 75.8531H78.4743L80.1123 67.4365H83.6368C84.6979 67.4365 85.4725 67.712 85.9606 68.274C86.4447 68.825 86.5954 69.6045 86.3968 70.6027H86.3958ZM82.9451 68.7621H81.6914L81.0056 72.2866H82.1186C82.8613 72.2866 83.4122 72.1469 83.7716 71.8664C84.1349 71.5909 84.3795 71.1228 84.5053 70.473C84.629 69.8491 84.5721 69.4069 84.3376 69.1474C84.11 68.8928 83.6418 68.7631 82.9451 68.7631V68.7621Z" fill="#000B4B"/>
</g>
<defs>
<filter id="filter0_d" x="0.971436" y="0.849365" width="148.599" height="148.599" filterUnits="userSpaceOnUse" color-interpolation-filters="sRGB">
<feFlood flood-opacity="0" result="BackgroundImageFix"/>
<feColorMatrix in="SourceAlpha" type="matrix" values="0 0 0 0 0 0 0 0 0 0 0 0 0 0 0 0 0 0 127 0"/>
<feOffset dy="4"/>
<feGaussianBlur stdDeviation="25"/>
<feColorMatrix type="matrix" values="0 0 0 0 0.6875 0 0 0 0 0.6875 0 0 0 0 0.6875 0 0 0 0.33 0"/>
<feBlend mode="normal" in2="BackgroundImageFix" result="effect1_dropShadow"/>
<feBlend mode="normal" in="SourceGraphic" in2="effect1_dropShadow" result="shape"/>
</filter>
<filter id="filter1_d" x="49.3002" y="56.748" width="51.9417" height="36.8013" filterUnits="userSpaceOnUse" color-interpolation-filters="sRGB">
<feFlood flood-opacity="0" result="BackgroundImageFix"/>
<feColorMatrix in="SourceAlpha" type="matrix" values="0 0 0 0 0 0 0 0 0 0 0 0 0 0 0 0 0 0 127 0"/>
<feOffset dy="4"/>
<feGaussianBlur stdDeviation="5"/>
<feColorMatrix type="matrix" values="0 0 0 0 0.8 0 0 0 0 0.8 0 0 0 0 0.8 0 0 0 0.25 0"/>
<feBlend mode="normal" in2="BackgroundImageFix" result="effect1_dropShadow"/>
<feBlend mode="normal" in="SourceGraphic" in2="effect1_dropShadow" result="shape"/>
</filter>
</defs>
</svg>
