<svg width="199" height="199" viewBox="0 0 199 199" fill="none" xmlns="http://www.w3.org/2000/svg">
<circle cx="2.45557" cy="2.14197" r="1.5" fill="#E2E2E2"/>
<circle cx="15.4556" cy="2.14197" r="1.5" fill="#E2E2E2"/>
<circle cx="28.4556" cy="2.14197" r="1.5" fill="#E2E2E2"/>
<circle cx="41.4556" cy="2.14197" r="1.5" fill="#E2E2E2"/>
<circle cx="54.4556" cy="2.14197" r="1.5" fill="#E2E2E2"/>
<circle cx="67.4556" cy="2.14197" r="1.5" fill="#E2E2E2"/>
<circle cx="80.4556" cy="2.14197" r="1.5" fill="#E2E2E2"/>
<circle cx="93.4556" cy="2.14197" r="1.5" fill="#E2E2E2"/>
<circle cx="106.456" cy="2.14197" r="1.5" fill="#E2E2E2"/>
<circle cx="119.456" cy="2.14197" r="1.5" fill="#E2E2E2"/>
<circle cx="132.456" cy="2.14197" r="1.5" fill="#E2E2E2"/>
<circle cx="145.456" cy="2.14197" r="1.5" fill="#E2E2E2"/>
<circle cx="158.456" cy="2.14197" r="1.5" fill="#E2E2E2"/>
<circle cx="171.456" cy="2.14197" r="1.5" fill="#E2E2E2"/>
<circle cx="184.456" cy="2.14197" r="1.5" fill="#E2E2E2"/>
<circle cx="197.456" cy="2.14197" r="1.5" fill="#E2E2E2"/>
<circle cx="2.45557" cy="106.142" r="1.5" fill="#E2E2E2"/>
<circle cx="15.4556" cy="106.142" r="1.5" fill="#E2E2E2"/>
<circle cx="28.4556" cy="106.142" r="1.5" fill="#E2E2E2"/>
<circle cx="41.4556" cy="106.142" r="1.5" fill="#E2E2E2"/>
<circle cx="54.4556" cy="106.142" r="1.5" fill="#E2E2E2"/>
<circle cx="67.4556" cy="106.142" r="1.5" fill="#E2E2E2"/>
<circle cx="80.4556" cy="106.142" r="1.5" fill="#E2E2E2"/>
<circle cx="93.4556" cy="106.142" r="1.5" fill="#E2E2E2"/>
<circle cx="106.456" cy="106.142" r="1.5" fill="#E2E2E2"/>
<circle cx="119.456" cy="106.142" r="1.5" fill="#E2E2E2"/>
<circle cx="132.456" cy="106.142" r="1.5" fill="#E2E2E2"/>
<circle cx="145.456" cy="106.142" r="1.5" fill="#E2E2E2"/>
<circle cx="158.456" cy="106.142" r="1.5" fill="#E2E2E2"/>
<circle cx="171.456" cy="106.142" r="1.5" fill="#E2E2E2"/>
<circle cx="184.456" cy="106.142" r="1.5" fill="#E2E2E2"/>
<circle cx="197.456" cy="106.142" r="1.5" fill="#E2E2E2"/>
<circle cx="2.45557" cy="54.142" r="1.5" fill="#E2E2E2"/>
<circle cx="15.4556" cy="54.142" r="1.5" fill="#E2E2E2"/>
<circle cx="28.4556" cy="54.142" r="1.5" fill="#E2E2E2"/>
<circle cx="41.4556" cy="54.142" r="1.5" fill="#E2E2E2"/>
<circle cx="54.4556" cy="54.142" r="1.5" fill="#E2E2E2"/>
<circle cx="67.4556" cy="54.142" r="1.5" fill="#E2E2E2"/>
<circle cx="80.4556" cy="54.142" r="1.5" fill="#E2E2E2"/>
<circle cx="93.4556" cy="54.142" r="1.5" fill="#E2E2E2"/>
<circle cx="106.456" cy="54.142" r="1.5" fill="#E2E2E2"/>
<circle cx="119.456" cy="54.142" r="1.5" fill="#E2E2E2"/>
<circle cx="132.456" cy="54.142" r="1.5" fill="#E2E2E2"/>
<circle cx="145.456" cy="54.142" r="1.5" fill="#E2E2E2"/>
<circle cx="158.456" cy="54.142" r="1.5" fill="#E2E2E2"/>
<circle cx="171.456" cy="54.142" r="1.5" fill="#E2E2E2"/>
<circle cx="184.456" cy="54.142" r="1.5" fill="#E2E2E2"/>
<circle cx="197.456" cy="54.142" r="1.5" fill="#E2E2E2"/>
<circle cx="2.45557" cy="158.142" r="1.5" fill="#E2E2E2"/>
<circle cx="15.4556" cy="158.142" r="1.5" fill="#E2E2E2"/>
<circle cx="28.4556" cy="158.142" r="1.5" fill="#E2E2E2"/>
<circle cx="41.4556" cy="158.142" r="1.5" fill="#E2E2E2"/>
<circle cx="54.4556" cy="158.142" r="1.5" fill="#E2E2E2"/>
<circle cx="67.4556" cy="158.142" r="1.5" fill="#E2E2E2"/>
<circle cx="80.4556" cy="158.142" r="1.5" fill="#E2E2E2"/>
<circle cx="93.4556" cy="158.142" r="1.5" fill="#E2E2E2"/>
<circle cx="106.456" cy="158.142" r="1.5" fill="#E2E2E2"/>
<circle cx="119.456" cy="158.142" r="1.5" fill="#E2E2E2"/>
<circle cx="132.456" cy="158.142" r="1.5" fill="#E2E2E2"/>
<circle cx="145.456" cy="158.142" r="1.5" fill="#E2E2E2"/>
<circle cx="158.456" cy="158.142" r="1.5" fill="#E2E2E2"/>
<circle cx="171.456" cy="158.142" r="1.5" fill="#E2E2E2"/>
<circle cx="184.456" cy="158.142" r="1.5" fill="#E2E2E2"/>
<circle cx="197.456" cy="158.142" r="1.5" fill="#E2E2E2"/>
<circle cx="2.45557" cy="28.142" r="1.5" fill="#E2E2E2"/>
<circle cx="15.4556" cy="28.142" r="1.5" fill="#E2E2E2"/>
<circle cx="28.4556" cy="28.142" r="1.5" fill="#E2E2E2"/>
<circle cx="41.4556" cy="28.142" r="1.5" fill="#E2E2E2"/>
<circle cx="54.4556" cy="28.142" r="1.5" fill="#E2E2E2"/>
<circle cx="67.4556" cy="28.142" r="1.5" fill="#E2E2E2"/>
<circle cx="80.4556" cy="28.142" r="1.5" fill="#E2E2E2"/>
<circle cx="93.4556" cy="28.142" r="1.5" fill="#E2E2E2"/>
<circle cx="106.456" cy="28.142" r="1.5" fill="#E2E2E2"/>
<circle cx="119.456" cy="28.142" r="1.5" fill="#E2E2E2"/>
<circle cx="132.456" cy="28.142" r="1.5" fill="#E2E2E2"/>
<circle cx="145.456" cy="28.142" r="1.5" fill="#E2E2E2"/>
<circle cx="158.456" cy="28.142" r="1.5" fill="#E2E2E2"/>
<circle cx="171.456" cy="28.142" r="1.5" fill="#E2E2E2"/>
<circle cx="184.456" cy="28.142" r="1.5" fill="#E2E2E2"/>
<circle cx="197.456" cy="28.142" r="1.5" fill="#E2E2E2"/>
<circle cx="2.45557" cy="132.142" r="1.5" fill="#E2E2E2"/>
<circle cx="15.4556" cy="132.142" r="1.5" fill="#E2E2E2"/>
<circle cx="28.4556" cy="132.142" r="1.5" fill="#E2E2E2"/>
<circle cx="41.4556" cy="132.142" r="1.5" fill="#E2E2E2"/>
<circle cx="54.4556" cy="132.142" r="1.5" fill="#E2E2E2"/>
<circle cx="67.4556" cy="132.142" r="1.5" fill="#E2E2E2"/>
<circle cx="80.4556" cy="132.142" r="1.5" fill="#E2E2E2"/>
<circle cx="93.4556" cy="132.142" r="1.5" fill="#E2E2E2"/>
<circle cx="106.456" cy="132.142" r="1.5" fill="#E2E2E2"/>
<circle cx="119.456" cy="132.142" r="1.5" fill="#E2E2E2"/>
<circle cx="132.456" cy="132.142" r="1.5" fill="#E2E2E2"/>
<circle cx="145.456" cy="132.142" r="1.5" fill="#E2E2E2"/>
<circle cx="158.456" cy="132.142" r="1.5" fill="#E2E2E2"/>
<circle cx="171.456" cy="132.142" r="1.5" fill="#E2E2E2"/>
<circle cx="184.456" cy="132.142" r="1.5" fill="#E2E2E2"/>
<circle cx="197.456" cy="132.142" r="1.5" fill="#E2E2E2"/>
<circle cx="2.45557" cy="80.142" r="1.5" fill="#E2E2E2"/>
<circle cx="15.4556" cy="80.142" r="1.5" fill="#E2E2E2"/>
<circle cx="28.4556" cy="80.142" r="1.5" fill="#E2E2E2"/>
<circle cx="41.4556" cy="80.142" r="1.5" fill="#E2E2E2"/>
<circle cx="54.4556" cy="80.142" r="1.5" fill="#E2E2E2"/>
<circle cx="67.4556" cy="80.142" r="1.5" fill="#E2E2E2"/>
<circle cx="80.4556" cy="80.142" r="1.5" fill="#E2E2E2"/>
<circle cx="93.4556" cy="80.142" r="1.5" fill="#E2E2E2"/>
<circle cx="106.456" cy="80.142" r="1.5" fill="#E2E2E2"/>
<circle cx="119.456" cy="80.142" r="1.5" fill="#E2E2E2"/>
<circle cx="132.456" cy="80.142" r="1.5" fill="#E2E2E2"/>
<circle cx="145.456" cy="80.142" r="1.5" fill="#E2E2E2"/>
<circle cx="158.456" cy="80.142" r="1.5" fill="#E2E2E2"/>
<circle cx="171.456" cy="80.142" r="1.5" fill="#E2E2E2"/>
<circle cx="184.456" cy="80.142" r="1.5" fill="#E2E2E2"/>
<circle cx="197.456" cy="80.142" r="1.5" fill="#E2E2E2"/>
<circle cx="2.45557" cy="184.142" r="1.5" fill="#E2E2E2"/>
<circle cx="15.4556" cy="184.142" r="1.5" fill="#E2E2E2"/>
<circle cx="28.4556" cy="184.142" r="1.5" fill="#E2E2E2"/>
<circle cx="41.4556" cy="184.142" r="1.5" fill="#E2E2E2"/>
<circle cx="54.4556" cy="184.142" r="1.5" fill="#E2E2E2"/>
<circle cx="67.4556" cy="184.142" r="1.5" fill="#E2E2E2"/>
<circle cx="80.4556" cy="184.142" r="1.5" fill="#E2E2E2"/>
<circle cx="93.4556" cy="184.142" r="1.5" fill="#E2E2E2"/>
<circle cx="106.456" cy="184.142" r="1.5" fill="#E2E2E2"/>
<circle cx="119.456" cy="184.142" r="1.5" fill="#E2E2E2"/>
<circle cx="132.456" cy="184.142" r="1.5" fill="#E2E2E2"/>
<circle cx="145.456" cy="184.142" r="1.5" fill="#E2E2E2"/>
<circle cx="158.456" cy="184.142" r="1.5" fill="#E2E2E2"/>
<circle cx="171.456" cy="184.142" r="1.5" fill="#E2E2E2"/>
<circle cx="184.456" cy="184.142" r="1.5" fill="#E2E2E2"/>
<circle cx="197.456" cy="184.142" r="1.5" fill="#E2E2E2"/>
<circle cx="2.45557" cy="15.142" r="1.5" fill="#E2E2E2"/>
<circle cx="15.4556" cy="15.142" r="1.5" fill="#E2E2E2"/>
<circle cx="28.4556" cy="15.142" r="1.5" fill="#E2E2E2"/>
<circle cx="41.4556" cy="15.142" r="1.5" fill="#E2E2E2"/>
<circle cx="54.4556" cy="15.142" r="1.5" fill="#E2E2E2"/>
<circle cx="67.4556" cy="15.142" r="1.5" fill="#E2E2E2"/>
<circle cx="80.4556" cy="15.142" r="1.5" fill="#E2E2E2"/>
<circle cx="93.4556" cy="15.142" r="1.5" fill="#E2E2E2"/>
<circle cx="106.456" cy="15.142" r="1.5" fill="#E2E2E2"/>
<circle cx="119.456" cy="15.142" r="1.5" fill="#E2E2E2"/>
<circle cx="132.456" cy="15.142" r="1.5" fill="#E2E2E2"/>
<circle cx="145.456" cy="15.142" r="1.5" fill="#E2E2E2"/>
<circle cx="158.456" cy="15.142" r="1.5" fill="#E2E2E2"/>
<circle cx="171.456" cy="15.142" r="1.5" fill="#E2E2E2"/>
<circle cx="184.456" cy="15.142" r="1.5" fill="#E2E2E2"/>
<circle cx="197.456" cy="15.142" r="1.5" fill="#E2E2E2"/>
<circle cx="2.45557" cy="119.142" r="1.5" fill="#E2E2E2"/>
<circle cx="15.4556" cy="119.142" r="1.5" fill="#E2E2E2"/>
<circle cx="28.4556" cy="119.142" r="1.5" fill="#E2E2E2"/>
<circle cx="41.4556" cy="119.142" r="1.5" fill="#E2E2E2"/>
<circle cx="54.4556" cy="119.142" r="1.5" fill="#E2E2E2"/>
<circle cx="67.4556" cy="119.142" r="1.5" fill="#E2E2E2"/>
<circle cx="80.4556" cy="119.142" r="1.5" fill="#E2E2E2"/>
<circle cx="93.4556" cy="119.142" r="1.5" fill="#E2E2E2"/>
<circle cx="106.456" cy="119.142" r="1.5" fill="#E2E2E2"/>
<circle cx="119.456" cy="119.142" r="1.5" fill="#E2E2E2"/>
<circle cx="132.456" cy="119.142" r="1.5" fill="#E2E2E2"/>
<circle cx="145.456" cy="119.142" r="1.5" fill="#E2E2E2"/>
<circle cx="158.456" cy="119.142" r="1.5" fill="#E2E2E2"/>
<circle cx="171.456" cy="119.142" r="1.5" fill="#E2E2E2"/>
<circle cx="184.456" cy="119.142" r="1.5" fill="#E2E2E2"/>
<circle cx="197.456" cy="119.142" r="1.5" fill="#E2E2E2"/>
<circle cx="2.45557" cy="67.142" r="1.5" fill="#E2E2E2"/>
<circle cx="15.4556" cy="67.142" r="1.5" fill="#E2E2E2"/>
<circle cx="28.4556" cy="67.142" r="1.5" fill="#E2E2E2"/>
<circle cx="41.4556" cy="67.142" r="1.5" fill="#E2E2E2"/>
<circle cx="54.4556" cy="67.142" r="1.5" fill="#E2E2E2"/>
<circle cx="67.4556" cy="67.142" r="1.5" fill="#E2E2E2"/>
<circle cx="80.4556" cy="67.142" r="1.5" fill="#E2E2E2"/>
<circle cx="93.4556" cy="67.142" r="1.5" fill="#E2E2E2"/>
<circle cx="106.456" cy="67.142" r="1.5" fill="#E2E2E2"/>
<circle cx="119.456" cy="67.142" r="1.5" fill="#E2E2E2"/>
<circle cx="132.456" cy="67.142" r="1.5" fill="#E2E2E2"/>
<circle cx="145.456" cy="67.142" r="1.5" fill="#E2E2E2"/>
<circle cx="158.456" cy="67.142" r="1.5" fill="#E2E2E2"/>
<circle cx="171.456" cy="67.142" r="1.5" fill="#E2E2E2"/>
<circle cx="184.456" cy="67.142" r="1.5" fill="#E2E2E2"/>
<circle cx="197.456" cy="67.142" r="1.5" fill="#E2E2E2"/>
<circle cx="2.45557" cy="171.142" r="1.5" fill="#E2E2E2"/>
<circle cx="15.4556" cy="171.142" r="1.5" fill="#E2E2E2"/>
<circle cx="28.4556" cy="171.142" r="1.5" fill="#E2E2E2"/>
<circle cx="41.4556" cy="171.142" r="1.5" fill="#E2E2E2"/>
<circle cx="54.4556" cy="171.142" r="1.5" fill="#E2E2E2"/>
<circle cx="67.4556" cy="171.142" r="1.5" fill="#E2E2E2"/>
<circle cx="80.4556" cy="171.142" r="1.5" fill="#E2E2E2"/>
<circle cx="93.4556" cy="171.142" r="1.5" fill="#E2E2E2"/>
<circle cx="106.456" cy="171.142" r="1.5" fill="#E2E2E2"/>
<circle cx="119.456" cy="171.142" r="1.5" fill="#E2E2E2"/>
<circle cx="132.456" cy="171.142" r="1.5" fill="#E2E2E2"/>
<circle cx="145.456" cy="171.142" r="1.5" fill="#E2E2E2"/>
<circle cx="158.456" cy="171.142" r="1.5" fill="#E2E2E2"/>
<circle cx="171.456" cy="171.142" r="1.5" fill="#E2E2E2"/>
<circle cx="184.456" cy="171.142" r="1.5" fill="#E2E2E2"/>
<circle cx="197.456" cy="171.142" r="1.5" fill="#E2E2E2"/>
<circle cx="2.45557" cy="41.142" r="1.5" fill="#E2E2E2"/>
<circle cx="15.4556" cy="41.142" r="1.5" fill="#E2E2E2"/>
<circle cx="28.4556" cy="41.142" r="1.5" fill="#E2E2E2"/>
<circle cx="41.4556" cy="41.142" r="1.5" fill="#E2E2E2"/>
<circle cx="54.4556" cy="41.142" r="1.5" fill="#E2E2E2"/>
<circle cx="67.4556" cy="41.142" r="1.5" fill="#E2E2E2"/>
<circle cx="80.4556" cy="41.142" r="1.5" fill="#E2E2E2"/>
<circle cx="93.4556" cy="41.142" r="1.5" fill="#E2E2E2"/>
<circle cx="106.456" cy="41.142" r="1.5" fill="#E2E2E2"/>
<circle cx="119.456" cy="41.142" r="1.5" fill="#E2E2E2"/>
<circle cx="132.456" cy="41.142" r="1.5" fill="#E2E2E2"/>
<circle cx="145.456" cy="41.142" r="1.5" fill="#E2E2E2"/>
<circle cx="158.456" cy="41.142" r="1.5" fill="#E2E2E2"/>
<circle cx="171.456" cy="41.142" r="1.5" fill="#E2E2E2"/>
<circle cx="184.456" cy="41.142" r="1.5" fill="#E2E2E2"/>
<circle cx="197.456" cy="41.142" r="1.5" fill="#E2E2E2"/>
<circle cx="2.45557" cy="145.142" r="1.5" fill="#E2E2E2"/>
<circle cx="15.4556" cy="145.142" r="1.5" fill="#E2E2E2"/>
<circle cx="28.4556" cy="145.142" r="1.5" fill="#E2E2E2"/>
<circle cx="41.4556" cy="145.142" r="1.5" fill="#E2E2E2"/>
<circle cx="54.4556" cy="145.142" r="1.5" fill="#E2E2E2"/>
<circle cx="67.4556" cy="145.142" r="1.5" fill="#E2E2E2"/>
<circle cx="80.4556" cy="145.142" r="1.5" fill="#E2E2E2"/>
<circle cx="93.4556" cy="145.142" r="1.5" fill="#E2E2E2"/>
<circle cx="106.456" cy="145.142" r="1.5" fill="#E2E2E2"/>
<circle cx="119.456" cy="145.142" r="1.5" fill="#E2E2E2"/>
<circle cx="132.456" cy="145.142" r="1.5" fill="#E2E2E2"/>
<circle cx="145.456" cy="145.142" r="1.5" fill="#E2E2E2"/>
<circle cx="158.456" cy="145.142" r="1.5" fill="#E2E2E2"/>
<circle cx="171.456" cy="145.142" r="1.5" fill="#E2E2E2"/>
<circle cx="184.456" cy="145.142" r="1.5" fill="#E2E2E2"/>
<circle cx="197.456" cy="145.142" r="1.5" fill="#E2E2E2"/>
<circle cx="2.45557" cy="93.142" r="1.5" fill="#E2E2E2"/>
<circle cx="15.4556" cy="93.142" r="1.5" fill="#E2E2E2"/>
<circle cx="28.4556" cy="93.142" r="1.5" fill="#E2E2E2"/>
<circle cx="41.4556" cy="93.142" r="1.5" fill="#E2E2E2"/>
<circle cx="54.4556" cy="93.142" r="1.5" fill="#E2E2E2"/>
<circle cx="67.4556" cy="93.142" r="1.5" fill="#E2E2E2"/>
<circle cx="80.4556" cy="93.142" r="1.5" fill="#E2E2E2"/>
<circle cx="93.4556" cy="93.142" r="1.5" fill="#E2E2E2"/>
<circle cx="106.456" cy="93.142" r="1.5" fill="#E2E2E2"/>
<circle cx="119.456" cy="93.142" r="1.5" fill="#E2E2E2"/>
<circle cx="132.456" cy="93.142" r="1.5" fill="#E2E2E2"/>
<circle cx="145.456" cy="93.142" r="1.5" fill="#E2E2E2"/>
<circle cx="158.456" cy="93.142" r="1.5" fill="#E2E2E2"/>
<circle cx="171.456" cy="93.142" r="1.5" fill="#E2E2E2"/>
<circle cx="184.456" cy="93.142" r="1.5" fill="#E2E2E2"/>
<circle cx="197.456" cy="93.142" r="1.5" fill="#E2E2E2"/>
<circle cx="2.45557" cy="197.142" r="1.5" fill="#E2E2E2"/>
<circle cx="15.4556" cy="197.142" r="1.5" fill="#E2E2E2"/>
<circle cx="28.4556" cy="197.142" r="1.5" fill="#E2E2E2"/>
<circle cx="41.4556" cy="197.142" r="1.5" fill="#E2E2E2"/>
<circle cx="54.4556" cy="197.142" r="1.5" fill="#E2E2E2"/>
<circle cx="67.4556" cy="197.142" r="1.5" fill="#E2E2E2"/>
<circle cx="80.4556" cy="197.142" r="1.5" fill="#E2E2E2"/>
<circle cx="93.4556" cy="197.142" r="1.5" fill="#E2E2E2"/>
<circle cx="106.456" cy="197.142" r="1.5" fill="#E2E2E2"/>
<circle cx="119.456" cy="197.142" r="1.5" fill="#E2E2E2"/>
<circle cx="132.456" cy="197.142" r="1.5" fill="#E2E2E2"/>
<circle cx="145.456" cy="197.142" r="1.5" fill="#E2E2E2"/>
<circle cx="158.456" cy="197.142" r="1.5" fill="#E2E2E2"/>
<circle cx="171.456" cy="197.142" r="1.5" fill="#E2E2E2"/>
<circle cx="184.456" cy="197.142" r="1.5" fill="#E2E2E2"/>
<circle cx="197.456" cy="197.142" r="1.5" fill="#E2E2E2"/>
</svg>
