<svg width="199" height="199" viewBox="0 0 199 199" fill="none" xmlns="http://www.w3.org/2000/svg">
<g opacity="0.39">
<circle cx="2.2984" cy="1.98367" r="1.5" fill="#56CCF2"/>
<circle cx="15.2984" cy="1.98367" r="1.5" fill="#56CCF2"/>
<circle cx="28.2984" cy="1.98367" r="1.5" fill="#56CCF2"/>
<circle cx="41.2984" cy="1.98367" r="1.5" fill="#56CCF2"/>
<circle cx="54.2984" cy="1.98367" r="1.5" fill="#56CCF2"/>
<circle cx="67.2984" cy="1.98367" r="1.5" fill="#56CCF2"/>
<circle cx="80.2984" cy="1.98367" r="1.5" fill="#56CCF2"/>
<circle cx="93.2984" cy="1.98367" r="1.5" fill="#56CCF2"/>
<circle cx="106.298" cy="1.98367" r="1.5" fill="#56CCF2"/>
<circle cx="119.298" cy="1.98367" r="1.5" fill="#56CCF2"/>
<circle cx="132.298" cy="1.98367" r="1.5" fill="#56CCF2"/>
<circle cx="145.298" cy="1.98367" r="1.5" fill="#56CCF2"/>
<circle cx="158.298" cy="1.98367" r="1.5" fill="#56CCF2"/>
<circle cx="171.298" cy="1.98367" r="1.5" fill="#56CCF2"/>
<circle cx="184.298" cy="1.98367" r="1.5" fill="#56CCF2"/>
<circle cx="197.298" cy="1.98367" r="1.5" fill="#56CCF2"/>
<circle cx="2.2984" cy="105.984" r="1.5" fill="#56CCF2"/>
<circle cx="15.2984" cy="105.984" r="1.5" fill="#56CCF2"/>
<circle cx="28.2984" cy="105.984" r="1.5" fill="#56CCF2"/>
<circle cx="41.2984" cy="105.984" r="1.5" fill="#56CCF2"/>
<circle cx="54.2984" cy="105.984" r="1.5" fill="#56CCF2"/>
<circle cx="67.2984" cy="105.984" r="1.5" fill="#56CCF2"/>
<circle cx="80.2984" cy="105.984" r="1.5" fill="#56CCF2"/>
<circle cx="93.2984" cy="105.984" r="1.5" fill="#56CCF2"/>
<circle cx="106.298" cy="105.984" r="1.5" fill="#56CCF2"/>
<circle cx="119.298" cy="105.984" r="1.5" fill="#56CCF2"/>
<circle cx="132.298" cy="105.984" r="1.5" fill="#56CCF2"/>
<circle cx="145.298" cy="105.984" r="1.5" fill="#56CCF2"/>
<circle cx="158.298" cy="105.984" r="1.5" fill="#56CCF2"/>
<circle cx="171.298" cy="105.984" r="1.5" fill="#56CCF2"/>
<circle cx="184.298" cy="105.984" r="1.5" fill="#56CCF2"/>
<circle cx="197.298" cy="105.984" r="1.5" fill="#56CCF2"/>
<circle cx="2.2984" cy="53.9837" r="1.5" fill="#56CCF2"/>
<circle cx="15.2984" cy="53.9837" r="1.5" fill="#56CCF2"/>
<circle cx="28.2984" cy="53.9837" r="1.5" fill="#56CCF2"/>
<circle cx="41.2984" cy="53.9837" r="1.5" fill="#56CCF2"/>
<circle cx="54.2984" cy="53.9837" r="1.5" fill="#56CCF2"/>
<circle cx="67.2984" cy="53.9837" r="1.5" fill="#56CCF2"/>
<circle cx="80.2984" cy="53.9837" r="1.5" fill="#56CCF2"/>
<circle cx="93.2984" cy="53.9837" r="1.5" fill="#56CCF2"/>
<circle cx="106.298" cy="53.9837" r="1.5" fill="#56CCF2"/>
<circle cx="119.298" cy="53.9837" r="1.5" fill="#56CCF2"/>
<circle cx="132.298" cy="53.9837" r="1.5" fill="#56CCF2"/>
<circle cx="145.298" cy="53.9837" r="1.5" fill="#56CCF2"/>
<circle cx="158.298" cy="53.9837" r="1.5" fill="#56CCF2"/>
<circle cx="171.298" cy="53.9837" r="1.5" fill="#56CCF2"/>
<circle cx="184.298" cy="53.9837" r="1.5" fill="#56CCF2"/>
<circle cx="197.298" cy="53.9837" r="1.5" fill="#56CCF2"/>
<circle cx="2.2984" cy="157.984" r="1.5" fill="#56CCF2"/>
<circle cx="15.2984" cy="157.984" r="1.5" fill="#56CCF2"/>
<circle cx="28.2984" cy="157.984" r="1.5" fill="#56CCF2"/>
<circle cx="41.2984" cy="157.984" r="1.5" fill="#56CCF2"/>
<circle cx="54.2984" cy="157.984" r="1.5" fill="#56CCF2"/>
<circle cx="67.2984" cy="157.984" r="1.5" fill="#56CCF2"/>
<circle cx="80.2984" cy="157.984" r="1.5" fill="#56CCF2"/>
<circle cx="93.2984" cy="157.984" r="1.5" fill="#56CCF2"/>
<circle cx="106.298" cy="157.984" r="1.5" fill="#56CCF2"/>
<circle cx="119.298" cy="157.984" r="1.5" fill="#56CCF2"/>
<circle cx="132.298" cy="157.984" r="1.5" fill="#56CCF2"/>
<circle cx="145.298" cy="157.984" r="1.5" fill="#56CCF2"/>
<circle cx="158.298" cy="157.984" r="1.5" fill="#56CCF2"/>
<circle cx="171.298" cy="157.984" r="1.5" fill="#56CCF2"/>
<circle cx="184.298" cy="157.984" r="1.5" fill="#56CCF2"/>
<circle cx="197.298" cy="157.984" r="1.5" fill="#56CCF2"/>
<circle cx="2.2984" cy="27.9837" r="1.5" fill="#56CCF2"/>
<circle cx="15.2984" cy="27.9837" r="1.5" fill="#56CCF2"/>
<circle cx="28.2984" cy="27.9837" r="1.5" fill="#56CCF2"/>
<circle cx="41.2984" cy="27.9837" r="1.5" fill="#56CCF2"/>
<circle cx="54.2984" cy="27.9837" r="1.5" fill="#56CCF2"/>
<circle cx="67.2984" cy="27.9837" r="1.5" fill="#56CCF2"/>
<circle cx="80.2984" cy="27.9837" r="1.5" fill="#56CCF2"/>
<circle cx="93.2984" cy="27.9837" r="1.5" fill="#56CCF2"/>
<circle cx="106.298" cy="27.9837" r="1.5" fill="#56CCF2"/>
<circle cx="119.298" cy="27.9837" r="1.5" fill="#56CCF2"/>
<circle cx="132.298" cy="27.9837" r="1.5" fill="#56CCF2"/>
<circle cx="145.298" cy="27.9837" r="1.5" fill="#56CCF2"/>
<circle cx="158.298" cy="27.9837" r="1.5" fill="#56CCF2"/>
<circle cx="171.298" cy="27.9837" r="1.5" fill="#56CCF2"/>
<circle cx="184.298" cy="27.9837" r="1.5" fill="#56CCF2"/>
<circle cx="197.298" cy="27.9837" r="1.5" fill="#56CCF2"/>
<circle cx="2.2984" cy="131.984" r="1.5" fill="#56CCF2"/>
<circle cx="15.2984" cy="131.984" r="1.5" fill="#56CCF2"/>
<circle cx="28.2984" cy="131.984" r="1.5" fill="#56CCF2"/>
<circle cx="41.2984" cy="131.984" r="1.5" fill="#56CCF2"/>
<circle cx="54.2984" cy="131.984" r="1.5" fill="#56CCF2"/>
<circle cx="67.2984" cy="131.984" r="1.5" fill="#56CCF2"/>
<circle cx="80.2984" cy="131.984" r="1.5" fill="#56CCF2"/>
<circle cx="93.2984" cy="131.984" r="1.5" fill="#56CCF2"/>
<circle cx="106.298" cy="131.984" r="1.5" fill="#56CCF2"/>
<circle cx="119.298" cy="131.984" r="1.5" fill="#56CCF2"/>
<circle cx="132.298" cy="131.984" r="1.5" fill="#56CCF2"/>
<circle cx="145.298" cy="131.984" r="1.5" fill="#56CCF2"/>
<circle cx="158.298" cy="131.984" r="1.5" fill="#56CCF2"/>
<circle cx="171.298" cy="131.984" r="1.5" fill="#56CCF2"/>
<circle cx="184.298" cy="131.984" r="1.5" fill="#56CCF2"/>
<circle cx="197.298" cy="131.984" r="1.5" fill="#56CCF2"/>
<circle cx="2.2984" cy="79.9837" r="1.5" fill="#56CCF2"/>
<circle cx="15.2984" cy="79.9837" r="1.5" fill="#56CCF2"/>
<circle cx="28.2984" cy="79.9837" r="1.5" fill="#56CCF2"/>
<circle cx="41.2984" cy="79.9837" r="1.5" fill="#56CCF2"/>
<circle cx="54.2984" cy="79.9837" r="1.5" fill="#56CCF2"/>
<circle cx="67.2984" cy="79.9837" r="1.5" fill="#56CCF2"/>
<circle cx="80.2984" cy="79.9837" r="1.5" fill="#56CCF2"/>
<circle cx="93.2984" cy="79.9837" r="1.5" fill="#56CCF2"/>
<circle cx="106.298" cy="79.9837" r="1.5" fill="#56CCF2"/>
<circle cx="119.298" cy="79.9837" r="1.5" fill="#56CCF2"/>
<circle cx="132.298" cy="79.9837" r="1.5" fill="#56CCF2"/>
<circle cx="145.298" cy="79.9837" r="1.5" fill="#56CCF2"/>
<circle cx="158.298" cy="79.9837" r="1.5" fill="#56CCF2"/>
<circle cx="171.298" cy="79.9837" r="1.5" fill="#56CCF2"/>
<circle cx="184.298" cy="79.9837" r="1.5" fill="#56CCF2"/>
<circle cx="197.298" cy="79.9837" r="1.5" fill="#56CCF2"/>
<circle cx="2.2984" cy="183.984" r="1.5" fill="#56CCF2"/>
<circle cx="15.2984" cy="183.984" r="1.5" fill="#56CCF2"/>
<circle cx="28.2984" cy="183.984" r="1.5" fill="#56CCF2"/>
<circle cx="41.2984" cy="183.984" r="1.5" fill="#56CCF2"/>
<circle cx="54.2984" cy="183.984" r="1.5" fill="#56CCF2"/>
<circle cx="67.2984" cy="183.984" r="1.5" fill="#56CCF2"/>
<circle cx="80.2984" cy="183.984" r="1.5" fill="#56CCF2"/>
<circle cx="93.2984" cy="183.984" r="1.5" fill="#56CCF2"/>
<circle cx="106.298" cy="183.984" r="1.5" fill="#56CCF2"/>
<circle cx="119.298" cy="183.984" r="1.5" fill="#56CCF2"/>
<circle cx="132.298" cy="183.984" r="1.5" fill="#56CCF2"/>
<circle cx="145.298" cy="183.984" r="1.5" fill="#56CCF2"/>
<circle cx="158.298" cy="183.984" r="1.5" fill="#56CCF2"/>
<circle cx="171.298" cy="183.984" r="1.5" fill="#56CCF2"/>
<circle cx="184.298" cy="183.984" r="1.5" fill="#56CCF2"/>
<circle cx="197.298" cy="183.984" r="1.5" fill="#56CCF2"/>
<circle cx="2.2984" cy="14.9837" r="1.5" fill="#56CCF2"/>
<circle cx="15.2984" cy="14.9837" r="1.5" fill="#56CCF2"/>
<circle cx="28.2984" cy="14.9837" r="1.5" fill="#56CCF2"/>
<circle cx="41.2984" cy="14.9837" r="1.5" fill="#56CCF2"/>
<circle cx="54.2984" cy="14.9837" r="1.5" fill="#56CCF2"/>
<circle cx="67.2984" cy="14.9837" r="1.5" fill="#56CCF2"/>
<circle cx="80.2984" cy="14.9837" r="1.5" fill="#56CCF2"/>
<circle cx="93.2984" cy="14.9837" r="1.5" fill="#56CCF2"/>
<circle cx="106.298" cy="14.9837" r="1.5" fill="#56CCF2"/>
<circle cx="119.298" cy="14.9837" r="1.5" fill="#56CCF2"/>
<circle cx="132.298" cy="14.9837" r="1.5" fill="#56CCF2"/>
<circle cx="145.298" cy="14.9837" r="1.5" fill="#56CCF2"/>
<circle cx="158.298" cy="14.9837" r="1.5" fill="#56CCF2"/>
<circle cx="171.298" cy="14.9837" r="1.5" fill="#56CCF2"/>
<circle cx="184.298" cy="14.9837" r="1.5" fill="#56CCF2"/>
<circle cx="197.298" cy="14.9837" r="1.5" fill="#56CCF2"/>
<circle cx="2.2984" cy="118.984" r="1.5" fill="#56CCF2"/>
<circle cx="15.2984" cy="118.984" r="1.5" fill="#56CCF2"/>
<circle cx="28.2984" cy="118.984" r="1.5" fill="#56CCF2"/>
<circle cx="41.2984" cy="118.984" r="1.5" fill="#56CCF2"/>
<circle cx="54.2984" cy="118.984" r="1.5" fill="#56CCF2"/>
<circle cx="67.2984" cy="118.984" r="1.5" fill="#56CCF2"/>
<circle cx="80.2984" cy="118.984" r="1.5" fill="#56CCF2"/>
<circle cx="93.2984" cy="118.984" r="1.5" fill="#56CCF2"/>
<circle cx="106.298" cy="118.984" r="1.5" fill="#56CCF2"/>
<circle cx="119.298" cy="118.984" r="1.5" fill="#56CCF2"/>
<circle cx="132.298" cy="118.984" r="1.5" fill="#56CCF2"/>
<circle cx="145.298" cy="118.984" r="1.5" fill="#56CCF2"/>
<circle cx="158.298" cy="118.984" r="1.5" fill="#56CCF2"/>
<circle cx="171.298" cy="118.984" r="1.5" fill="#56CCF2"/>
<circle cx="184.298" cy="118.984" r="1.5" fill="#56CCF2"/>
<circle cx="197.298" cy="118.984" r="1.5" fill="#56CCF2"/>
<circle cx="2.2984" cy="66.9837" r="1.5" fill="#56CCF2"/>
<circle cx="15.2984" cy="66.9837" r="1.5" fill="#56CCF2"/>
<circle cx="28.2984" cy="66.9837" r="1.5" fill="#56CCF2"/>
<circle cx="41.2984" cy="66.9837" r="1.5" fill="#56CCF2"/>
<circle cx="54.2984" cy="66.9837" r="1.5" fill="#56CCF2"/>
<circle cx="67.2984" cy="66.9837" r="1.5" fill="#56CCF2"/>
<circle cx="80.2984" cy="66.9837" r="1.5" fill="#56CCF2"/>
<circle cx="93.2984" cy="66.9837" r="1.5" fill="#56CCF2"/>
<circle cx="106.298" cy="66.9837" r="1.5" fill="#56CCF2"/>
<circle cx="119.298" cy="66.9837" r="1.5" fill="#56CCF2"/>
<circle cx="132.298" cy="66.9837" r="1.5" fill="#56CCF2"/>
<circle cx="145.298" cy="66.9837" r="1.5" fill="#56CCF2"/>
<circle cx="158.298" cy="66.9837" r="1.5" fill="#56CCF2"/>
<circle cx="171.298" cy="66.9837" r="1.5" fill="#56CCF2"/>
<circle cx="184.298" cy="66.9837" r="1.5" fill="#56CCF2"/>
<circle cx="197.298" cy="66.9837" r="1.5" fill="#56CCF2"/>
<circle cx="2.2984" cy="170.984" r="1.5" fill="#56CCF2"/>
<circle cx="15.2984" cy="170.984" r="1.5" fill="#56CCF2"/>
<circle cx="28.2984" cy="170.984" r="1.5" fill="#56CCF2"/>
<circle cx="41.2984" cy="170.984" r="1.5" fill="#56CCF2"/>
<circle cx="54.2984" cy="170.984" r="1.5" fill="#56CCF2"/>
<circle cx="67.2984" cy="170.984" r="1.5" fill="#56CCF2"/>
<circle cx="80.2984" cy="170.984" r="1.5" fill="#56CCF2"/>
<circle cx="93.2984" cy="170.984" r="1.5" fill="#56CCF2"/>
<circle cx="106.298" cy="170.984" r="1.5" fill="#56CCF2"/>
<circle cx="119.298" cy="170.984" r="1.5" fill="#56CCF2"/>
<circle cx="132.298" cy="170.984" r="1.5" fill="#56CCF2"/>
<circle cx="145.298" cy="170.984" r="1.5" fill="#56CCF2"/>
<circle cx="158.298" cy="170.984" r="1.5" fill="#56CCF2"/>
<circle cx="171.298" cy="170.984" r="1.5" fill="#56CCF2"/>
<circle cx="184.298" cy="170.984" r="1.5" fill="#56CCF2"/>
<circle cx="197.298" cy="170.984" r="1.5" fill="#56CCF2"/>
<circle cx="2.2984" cy="40.9837" r="1.5" fill="#56CCF2"/>
<circle cx="15.2984" cy="40.9837" r="1.5" fill="#56CCF2"/>
<circle cx="28.2984" cy="40.9837" r="1.5" fill="#56CCF2"/>
<circle cx="41.2984" cy="40.9837" r="1.5" fill="#56CCF2"/>
<circle cx="54.2984" cy="40.9837" r="1.5" fill="#56CCF2"/>
<circle cx="67.2984" cy="40.9837" r="1.5" fill="#56CCF2"/>
<circle cx="80.2984" cy="40.9837" r="1.5" fill="#56CCF2"/>
<circle cx="93.2984" cy="40.9837" r="1.5" fill="#56CCF2"/>
<circle cx="106.298" cy="40.9837" r="1.5" fill="#56CCF2"/>
<circle cx="119.298" cy="40.9837" r="1.5" fill="#56CCF2"/>
<circle cx="132.298" cy="40.9837" r="1.5" fill="#56CCF2"/>
<circle cx="145.298" cy="40.9837" r="1.5" fill="#56CCF2"/>
<circle cx="158.298" cy="40.9837" r="1.5" fill="#56CCF2"/>
<circle cx="171.298" cy="40.9837" r="1.5" fill="#56CCF2"/>
<circle cx="184.298" cy="40.9837" r="1.5" fill="#56CCF2"/>
<circle cx="197.298" cy="40.9837" r="1.5" fill="#56CCF2"/>
<circle cx="2.2984" cy="144.984" r="1.5" fill="#56CCF2"/>
<circle cx="15.2984" cy="144.984" r="1.5" fill="#56CCF2"/>
<circle cx="28.2984" cy="144.984" r="1.5" fill="#56CCF2"/>
<circle cx="41.2984" cy="144.984" r="1.5" fill="#56CCF2"/>
<circle cx="54.2984" cy="144.984" r="1.5" fill="#56CCF2"/>
<circle cx="67.2984" cy="144.984" r="1.5" fill="#56CCF2"/>
<circle cx="80.2984" cy="144.984" r="1.5" fill="#56CCF2"/>
<circle cx="93.2984" cy="144.984" r="1.5" fill="#56CCF2"/>
<circle cx="106.298" cy="144.984" r="1.5" fill="#56CCF2"/>
<circle cx="119.298" cy="144.984" r="1.5" fill="#56CCF2"/>
<circle cx="132.298" cy="144.984" r="1.5" fill="#56CCF2"/>
<circle cx="145.298" cy="144.984" r="1.5" fill="#56CCF2"/>
<circle cx="158.298" cy="144.984" r="1.5" fill="#56CCF2"/>
<circle cx="171.298" cy="144.984" r="1.5" fill="#56CCF2"/>
<circle cx="184.298" cy="144.984" r="1.5" fill="#56CCF2"/>
<circle cx="197.298" cy="144.984" r="1.5" fill="#56CCF2"/>
<circle cx="2.2984" cy="92.9837" r="1.5" fill="#56CCF2"/>
<circle cx="15.2984" cy="92.9837" r="1.5" fill="#56CCF2"/>
<circle cx="28.2984" cy="92.9837" r="1.5" fill="#56CCF2"/>
<circle cx="41.2984" cy="92.9837" r="1.5" fill="#56CCF2"/>
<circle cx="54.2984" cy="92.9837" r="1.5" fill="#56CCF2"/>
<circle cx="67.2984" cy="92.9837" r="1.5" fill="#56CCF2"/>
<circle cx="80.2984" cy="92.9837" r="1.5" fill="#56CCF2"/>
<circle cx="93.2984" cy="92.9837" r="1.5" fill="#56CCF2"/>
<circle cx="106.298" cy="92.9837" r="1.5" fill="#56CCF2"/>
<circle cx="119.298" cy="92.9837" r="1.5" fill="#56CCF2"/>
<circle cx="132.298" cy="92.9837" r="1.5" fill="#56CCF2"/>
<circle cx="145.298" cy="92.9837" r="1.5" fill="#56CCF2"/>
<circle cx="158.298" cy="92.9837" r="1.5" fill="#56CCF2"/>
<circle cx="171.298" cy="92.9837" r="1.5" fill="#56CCF2"/>
<circle cx="184.298" cy="92.9837" r="1.5" fill="#56CCF2"/>
<circle cx="197.298" cy="92.9837" r="1.5" fill="#56CCF2"/>
<circle cx="2.2984" cy="196.984" r="1.5" fill="#56CCF2"/>
<circle cx="15.2984" cy="196.984" r="1.5" fill="#56CCF2"/>
<circle cx="28.2984" cy="196.984" r="1.5" fill="#56CCF2"/>
<circle cx="41.2984" cy="196.984" r="1.5" fill="#56CCF2"/>
<circle cx="54.2984" cy="196.984" r="1.5" fill="#56CCF2"/>
<circle cx="67.2984" cy="196.984" r="1.5" fill="#56CCF2"/>
<circle cx="80.2984" cy="196.984" r="1.5" fill="#56CCF2"/>
<circle cx="93.2984" cy="196.984" r="1.5" fill="#56CCF2"/>
<circle cx="106.298" cy="196.984" r="1.5" fill="#56CCF2"/>
<circle cx="119.298" cy="196.984" r="1.5" fill="#56CCF2"/>
<circle cx="132.298" cy="196.984" r="1.5" fill="#56CCF2"/>
<circle cx="145.298" cy="196.984" r="1.5" fill="#56CCF2"/>
<circle cx="158.298" cy="196.984" r="1.5" fill="#56CCF2"/>
<circle cx="171.298" cy="196.984" r="1.5" fill="#56CCF2"/>
<circle cx="184.298" cy="196.984" r="1.5" fill="#56CCF2"/>
<circle cx="197.298" cy="196.984" r="1.5" fill="#56CCF2"/>
</g>
</svg>
