<svg width="84" height="46" viewBox="0 0 84 46" fill="none" xmlns="http://www.w3.org/2000/svg">
<path d="M79.8892 31.2846C80.5943 28.2325 80.4966 25.0497 79.6056 22.0465C78.7146 19.0433 77.0607 16.3222 74.8051 14.1485C72.5495 11.9747 69.7692 10.4224 66.7351 9.64295C63.7011 8.86347 60.5169 8.8834 57.4928 9.70077C55.6505 6.43381 52.8017 3.8497 49.3711 2.33363C45.9406 0.817564 42.1119 0.450716 38.4559 1.28777C34.7998 2.12483 31.5122 4.12097 29.083 6.97864C26.6538 9.83631 25.2131 13.4025 24.9757 17.1456C23.0534 16.778 21.0759 16.8117 19.1672 17.2446C17.2586 17.6775 15.46 18.5002 13.8844 19.6612C12.3088 20.8222 10.9902 22.2963 10.0113 23.9911C9.03245 25.6858 8.41446 27.5646 8.19613 29.5095C6.22767 29.7166 4.4073 30.6507 3.09117 32.1291C1.77504 33.6074 1.05787 35.5236 1.07996 37.5028C1.10205 39.482 1.86182 41.3818 3.21062 42.8304C4.55941 44.279 6.40015 45.1723 8.37274 45.3353H74.8553C76.4833 45.3234 78.0683 44.8118 79.3961 43.8698C80.7238 42.9277 81.7303 41.6007 82.2794 40.068C82.8285 38.5354 82.8937 36.8712 82.4662 35.3003C82.0387 33.7294 81.1392 32.3277 79.8892 31.2846V31.2846Z" stroke="#000B4B" stroke-linecap="round" stroke-linejoin="round"/>
</svg>
