<svg width="64" height="132" viewBox="0 0 64 132" fill="none" xmlns="http://www.w3.org/2000/svg">
<path d="M63.4724 68.5665C63.4724 68.5665 53.3535 66.0975 52.8259 47.147C52.2667 26.6983 55.3055 2.83085 43.3296 0.899934C31.3537 -1.03098 24.7063 13.5617 24.854 30.6023C24.9911 45.5221 31.0055 77.9151 63.4302 84.2671L63.4724 68.5665Z" fill="#3DADF2"/>
<path opacity="0.2" d="M63.4724 68.5665C63.4724 68.5665 53.3535 66.0975 52.8259 47.147C52.2667 26.6983 55.3055 2.83085 43.3296 0.899934C31.3537 -1.03098 24.7063 13.5617 24.854 30.6023C24.9911 45.5221 31.0055 77.9151 63.4302 84.2671L63.4724 68.5665Z" fill="black"/>
<path d="M63.4723 82.3256H63.3773C56.0863 80.9961 50.1458 76.976 45.7247 70.3919C32.6198 50.84 36.7454 14.3319 38.1065 7.95886C38.137 7.82309 38.2188 7.70438 38.3349 7.62766C38.451 7.55093 38.5922 7.52216 38.7291 7.54735C38.8657 7.58014 38.9845 7.66407 39.0611 7.78185C39.1376 7.89963 39.1661 8.04229 39.1406 8.18043C37.8006 14.5113 33.696 50.5551 46.6005 69.801C48.4789 72.7856 50.957 75.3473 53.8778 77.3235C56.7985 79.2998 60.0981 80.6474 63.5672 81.281C63.6361 81.2936 63.7017 81.3199 63.7604 81.3581C63.819 81.3964 63.8694 81.4459 63.9087 81.5039C63.948 81.5618 63.9753 81.627 63.9892 81.6956C64.003 81.7642 64.0031 81.8349 63.9893 81.9035C63.9669 82.0236 63.9027 82.1319 63.808 82.2092C63.7134 82.2865 63.5944 82.3277 63.4723 82.3256Z" fill="white"/>
<path d="M63.4724 130.957C53.0159 132.371 36.0386 132.35 26.2363 124.626C16.434 116.903 18.4809 110.255 22.2478 107.48C26.0147 104.705 29.2856 101.54 22.807 95.3778C16.3284 89.2157 5.92468 79.3185 2.54821 64.4725C-0.828262 49.6266 0.838874 40.3413 7.4652 37.2497C13.891 34.2531 15.5898 39.0224 19.5255 48.8563C23.4612 58.6903 32.3139 50.2597 39.8899 53.3302C47.4658 56.4007 47.1598 62.4783 47.6347 67.7013C48.1095 72.9243 50.6102 74.3698 54.9046 74.3698C59.1991 74.3698 63.4724 76.8389 63.4724 81.7558V130.957Z" fill="#3DADF2"/>
<path d="M63.4723 113.716C63.4271 113.726 63.3803 113.726 63.3351 113.716C62.8814 113.59 52.0661 110.445 36.3128 95.9792C19.536 80.5741 11.6224 57.4664 11.5379 57.2342C11.4975 57.1013 11.5101 56.9578 11.573 56.8339C11.6359 56.71 11.7444 56.6153 11.8756 56.5695C12.0072 56.5258 12.1506 56.5355 12.275 56.5967C12.3994 56.6579 12.4947 56.7657 12.5403 56.8966C12.6142 57.1287 20.4539 79.9832 37.0303 95.1984C52.5621 109.475 63.5039 112.672 63.62 112.703C63.6865 112.723 63.7486 112.755 63.8026 112.798C63.8566 112.842 63.9016 112.895 63.9349 112.956C63.9682 113.017 63.9892 113.084 63.9967 113.152C64.0043 113.221 63.9981 113.291 63.9788 113.358C63.9445 113.464 63.8767 113.557 63.7853 113.621C63.694 113.686 63.5842 113.719 63.4723 113.716Z" fill="white"/>
<path d="M40.7128 99.6511C40.6067 99.6528 40.5028 99.6211 40.4157 99.5605C40.3286 99.4999 40.2628 99.4135 40.2274 99.3135C36.8404 90.6191 36.0701 72.0168 36.0068 71.2255C36.0039 71.0863 36.055 70.9513 36.1494 70.849C36.2439 70.7467 36.3743 70.685 36.5133 70.6768C36.6511 70.6788 36.7833 70.7316 36.8846 70.8251C36.9858 70.9185 37.049 71.0461 37.062 71.1833C37.062 71.3732 37.8533 90.3975 41.1771 98.9337C41.2025 98.9987 41.2147 99.0682 41.2131 99.1381C41.2114 99.2079 41.1959 99.2767 41.1674 99.3405C41.139 99.4043 41.0981 99.4619 41.0472 99.5098C40.9964 99.5576 40.9365 99.5949 40.8711 99.6195C40.8202 99.6378 40.7668 99.6485 40.7128 99.6511Z" fill="white"/>
<path d="M40.6284 112.155C39.6556 112.162 38.6832 112.113 37.7162 112.007C37.6469 111.999 37.58 111.977 37.5192 111.943C37.4583 111.908 37.4048 111.862 37.3617 111.808C37.3186 111.753 37.2867 111.69 37.2679 111.623C37.2491 111.556 37.2436 111.485 37.252 111.416C37.2603 111.347 37.2821 111.28 37.3163 111.219C37.3505 111.158 37.3964 111.105 37.4512 111.062C37.5061 111.018 37.5689 110.987 37.6361 110.968C37.7033 110.949 37.7736 110.943 37.8428 110.952C37.9378 110.952 47.7612 112.07 52.2667 107.48C52.3136 107.425 52.3715 107.38 52.4367 107.347C52.5019 107.315 52.5731 107.297 52.6457 107.294C52.7183 107.29 52.7909 107.302 52.8587 107.328C52.9266 107.354 52.9884 107.394 53.0401 107.445C53.0919 107.496 53.1326 107.557 53.1596 107.625C53.1866 107.692 53.1993 107.765 53.197 107.837C53.1948 107.91 53.1775 107.981 53.1463 108.047C53.1151 108.113 53.0707 108.171 53.0159 108.219C49.7554 111.585 44.0682 112.155 40.6284 112.155Z" fill="white"/>
</svg>
