<svg width="199" height="199" viewBox="0 0 199 199" fill="none" xmlns="http://www.w3.org/2000/svg">
<circle cx="2.48096" cy="1.85156" r="1.5" fill="#E2E2E2"/>
<circle cx="15.481" cy="1.85156" r="1.5" fill="#E2E2E2"/>
<circle cx="28.481" cy="1.85156" r="1.5" fill="#E2E2E2"/>
<circle cx="41.481" cy="1.85156" r="1.5" fill="#E2E2E2"/>
<circle cx="54.481" cy="1.85156" r="1.5" fill="#E2E2E2"/>
<circle cx="67.481" cy="1.85156" r="1.5" fill="#E2E2E2"/>
<circle cx="80.481" cy="1.85156" r="1.5" fill="#E2E2E2"/>
<circle cx="93.481" cy="1.85156" r="1.5" fill="#E2E2E2"/>
<circle cx="106.481" cy="1.85156" r="1.5" fill="#E2E2E2"/>
<circle cx="119.481" cy="1.85156" r="1.5" fill="#E2E2E2"/>
<circle cx="132.481" cy="1.85156" r="1.5" fill="#E2E2E2"/>
<circle cx="145.481" cy="1.85156" r="1.5" fill="#E2E2E2"/>
<circle cx="158.481" cy="1.85156" r="1.5" fill="#E2E2E2"/>
<circle cx="171.481" cy="1.85156" r="1.5" fill="#E2E2E2"/>
<circle cx="184.481" cy="1.85156" r="1.5" fill="#E2E2E2"/>
<circle cx="197.481" cy="1.85156" r="1.5" fill="#E2E2E2"/>
<circle cx="2.48096" cy="105.852" r="1.5" fill="#E2E2E2"/>
<circle cx="15.481" cy="105.852" r="1.5" fill="#E2E2E2"/>
<circle cx="28.481" cy="105.852" r="1.5" fill="#E2E2E2"/>
<circle cx="41.481" cy="105.852" r="1.5" fill="#E2E2E2"/>
<circle cx="54.481" cy="105.852" r="1.5" fill="#E2E2E2"/>
<circle cx="67.481" cy="105.852" r="1.5" fill="#E2E2E2"/>
<circle cx="80.481" cy="105.852" r="1.5" fill="#E2E2E2"/>
<circle cx="93.481" cy="105.852" r="1.5" fill="#E2E2E2"/>
<circle cx="106.481" cy="105.852" r="1.5" fill="#E2E2E2"/>
<circle cx="119.481" cy="105.852" r="1.5" fill="#E2E2E2"/>
<circle cx="132.481" cy="105.852" r="1.5" fill="#E2E2E2"/>
<circle cx="145.481" cy="105.852" r="1.5" fill="#E2E2E2"/>
<circle cx="158.481" cy="105.852" r="1.5" fill="#E2E2E2"/>
<circle cx="171.481" cy="105.852" r="1.5" fill="#E2E2E2"/>
<circle cx="184.481" cy="105.852" r="1.5" fill="#E2E2E2"/>
<circle cx="197.481" cy="105.852" r="1.5" fill="#E2E2E2"/>
<circle cx="2.48096" cy="53.8516" r="1.5" fill="#E2E2E2"/>
<circle cx="15.481" cy="53.8516" r="1.5" fill="#E2E2E2"/>
<circle cx="28.481" cy="53.8516" r="1.5" fill="#E2E2E2"/>
<circle cx="41.481" cy="53.8516" r="1.5" fill="#E2E2E2"/>
<circle cx="54.481" cy="53.8516" r="1.5" fill="#E2E2E2"/>
<circle cx="67.481" cy="53.8516" r="1.5" fill="#E2E2E2"/>
<circle cx="80.481" cy="53.8516" r="1.5" fill="#E2E2E2"/>
<circle cx="93.481" cy="53.8516" r="1.5" fill="#E2E2E2"/>
<circle cx="106.481" cy="53.8516" r="1.5" fill="#E2E2E2"/>
<circle cx="119.481" cy="53.8516" r="1.5" fill="#E2E2E2"/>
<circle cx="132.481" cy="53.8516" r="1.5" fill="#E2E2E2"/>
<circle cx="145.481" cy="53.8516" r="1.5" fill="#E2E2E2"/>
<circle cx="158.481" cy="53.8516" r="1.5" fill="#E2E2E2"/>
<circle cx="171.481" cy="53.8516" r="1.5" fill="#E2E2E2"/>
<circle cx="184.481" cy="53.8516" r="1.5" fill="#E2E2E2"/>
<circle cx="197.481" cy="53.8516" r="1.5" fill="#E2E2E2"/>
<circle cx="2.48096" cy="157.852" r="1.5" fill="#E2E2E2"/>
<circle cx="15.481" cy="157.852" r="1.5" fill="#E2E2E2"/>
<circle cx="28.481" cy="157.852" r="1.5" fill="#E2E2E2"/>
<circle cx="41.481" cy="157.852" r="1.5" fill="#E2E2E2"/>
<circle cx="54.481" cy="157.852" r="1.5" fill="#E2E2E2"/>
<circle cx="67.481" cy="157.852" r="1.5" fill="#E2E2E2"/>
<circle cx="80.481" cy="157.852" r="1.5" fill="#E2E2E2"/>
<circle cx="93.481" cy="157.852" r="1.5" fill="#E2E2E2"/>
<circle cx="106.481" cy="157.852" r="1.5" fill="#E2E2E2"/>
<circle cx="119.481" cy="157.852" r="1.5" fill="#E2E2E2"/>
<circle cx="132.481" cy="157.852" r="1.5" fill="#E2E2E2"/>
<circle cx="145.481" cy="157.852" r="1.5" fill="#E2E2E2"/>
<circle cx="158.481" cy="157.852" r="1.5" fill="#E2E2E2"/>
<circle cx="171.481" cy="157.852" r="1.5" fill="#E2E2E2"/>
<circle cx="184.481" cy="157.852" r="1.5" fill="#E2E2E2"/>
<circle cx="197.481" cy="157.852" r="1.5" fill="#E2E2E2"/>
<circle cx="2.48096" cy="27.8516" r="1.5" fill="#E2E2E2"/>
<circle cx="15.481" cy="27.8516" r="1.5" fill="#E2E2E2"/>
<circle cx="28.481" cy="27.8516" r="1.5" fill="#E2E2E2"/>
<circle cx="41.481" cy="27.8516" r="1.5" fill="#E2E2E2"/>
<circle cx="54.481" cy="27.8516" r="1.5" fill="#E2E2E2"/>
<circle cx="67.481" cy="27.8516" r="1.5" fill="#E2E2E2"/>
<circle cx="80.481" cy="27.8516" r="1.5" fill="#E2E2E2"/>
<circle cx="93.481" cy="27.8516" r="1.5" fill="#E2E2E2"/>
<circle cx="106.481" cy="27.8516" r="1.5" fill="#E2E2E2"/>
<circle cx="119.481" cy="27.8516" r="1.5" fill="#E2E2E2"/>
<circle cx="132.481" cy="27.8516" r="1.5" fill="#E2E2E2"/>
<circle cx="145.481" cy="27.8516" r="1.5" fill="#E2E2E2"/>
<circle cx="158.481" cy="27.8516" r="1.5" fill="#E2E2E2"/>
<circle cx="171.481" cy="27.8516" r="1.5" fill="#E2E2E2"/>
<circle cx="184.481" cy="27.8516" r="1.5" fill="#E2E2E2"/>
<circle cx="197.481" cy="27.8516" r="1.5" fill="#E2E2E2"/>
<circle cx="2.48096" cy="131.852" r="1.5" fill="#E2E2E2"/>
<circle cx="15.481" cy="131.852" r="1.5" fill="#E2E2E2"/>
<circle cx="28.481" cy="131.852" r="1.5" fill="#E2E2E2"/>
<circle cx="41.481" cy="131.852" r="1.5" fill="#E2E2E2"/>
<circle cx="54.481" cy="131.852" r="1.5" fill="#E2E2E2"/>
<circle cx="67.481" cy="131.852" r="1.5" fill="#E2E2E2"/>
<circle cx="80.481" cy="131.852" r="1.5" fill="#E2E2E2"/>
<circle cx="93.481" cy="131.852" r="1.5" fill="#E2E2E2"/>
<circle cx="106.481" cy="131.852" r="1.5" fill="#E2E2E2"/>
<circle cx="119.481" cy="131.852" r="1.5" fill="#E2E2E2"/>
<circle cx="132.481" cy="131.852" r="1.5" fill="#E2E2E2"/>
<circle cx="145.481" cy="131.852" r="1.5" fill="#E2E2E2"/>
<circle cx="158.481" cy="131.852" r="1.5" fill="#E2E2E2"/>
<circle cx="171.481" cy="131.852" r="1.5" fill="#E2E2E2"/>
<circle cx="184.481" cy="131.852" r="1.5" fill="#E2E2E2"/>
<circle cx="197.481" cy="131.852" r="1.5" fill="#E2E2E2"/>
<circle cx="2.48096" cy="79.8516" r="1.5" fill="#E2E2E2"/>
<circle cx="15.481" cy="79.8516" r="1.5" fill="#E2E2E2"/>
<circle cx="28.481" cy="79.8516" r="1.5" fill="#E2E2E2"/>
<circle cx="41.481" cy="79.8516" r="1.5" fill="#E2E2E2"/>
<circle cx="54.481" cy="79.8516" r="1.5" fill="#E2E2E2"/>
<circle cx="67.481" cy="79.8516" r="1.5" fill="#E2E2E2"/>
<circle cx="80.481" cy="79.8516" r="1.5" fill="#E2E2E2"/>
<circle cx="93.481" cy="79.8516" r="1.5" fill="#E2E2E2"/>
<circle cx="106.481" cy="79.8516" r="1.5" fill="#E2E2E2"/>
<circle cx="119.481" cy="79.8516" r="1.5" fill="#E2E2E2"/>
<circle cx="132.481" cy="79.8516" r="1.5" fill="#E2E2E2"/>
<circle cx="145.481" cy="79.8516" r="1.5" fill="#E2E2E2"/>
<circle cx="158.481" cy="79.8516" r="1.5" fill="#E2E2E2"/>
<circle cx="171.481" cy="79.8516" r="1.5" fill="#E2E2E2"/>
<circle cx="184.481" cy="79.8516" r="1.5" fill="#E2E2E2"/>
<circle cx="197.481" cy="79.8516" r="1.5" fill="#E2E2E2"/>
<circle cx="2.48096" cy="183.852" r="1.5" fill="#E2E2E2"/>
<circle cx="15.481" cy="183.852" r="1.5" fill="#E2E2E2"/>
<circle cx="28.481" cy="183.852" r="1.5" fill="#E2E2E2"/>
<circle cx="41.481" cy="183.852" r="1.5" fill="#E2E2E2"/>
<circle cx="54.481" cy="183.852" r="1.5" fill="#E2E2E2"/>
<circle cx="67.481" cy="183.852" r="1.5" fill="#E2E2E2"/>
<circle cx="80.481" cy="183.852" r="1.5" fill="#E2E2E2"/>
<circle cx="93.481" cy="183.852" r="1.5" fill="#E2E2E2"/>
<circle cx="106.481" cy="183.852" r="1.5" fill="#E2E2E2"/>
<circle cx="119.481" cy="183.852" r="1.5" fill="#E2E2E2"/>
<circle cx="132.481" cy="183.852" r="1.5" fill="#E2E2E2"/>
<circle cx="145.481" cy="183.852" r="1.5" fill="#E2E2E2"/>
<circle cx="158.481" cy="183.852" r="1.5" fill="#E2E2E2"/>
<circle cx="171.481" cy="183.852" r="1.5" fill="#E2E2E2"/>
<circle cx="184.481" cy="183.852" r="1.5" fill="#E2E2E2"/>
<circle cx="197.481" cy="183.852" r="1.5" fill="#E2E2E2"/>
<circle cx="2.48096" cy="14.8516" r="1.5" fill="#E2E2E2"/>
<circle cx="15.481" cy="14.8516" r="1.5" fill="#E2E2E2"/>
<circle cx="28.481" cy="14.8516" r="1.5" fill="#E2E2E2"/>
<circle cx="41.481" cy="14.8516" r="1.5" fill="#E2E2E2"/>
<circle cx="54.481" cy="14.8516" r="1.5" fill="#E2E2E2"/>
<circle cx="67.481" cy="14.8516" r="1.5" fill="#E2E2E2"/>
<circle cx="80.481" cy="14.8516" r="1.5" fill="#E2E2E2"/>
<circle cx="93.481" cy="14.8516" r="1.5" fill="#E2E2E2"/>
<circle cx="106.481" cy="14.8516" r="1.5" fill="#E2E2E2"/>
<circle cx="119.481" cy="14.8516" r="1.5" fill="#E2E2E2"/>
<circle cx="132.481" cy="14.8516" r="1.5" fill="#E2E2E2"/>
<circle cx="145.481" cy="14.8516" r="1.5" fill="#E2E2E2"/>
<circle cx="158.481" cy="14.8516" r="1.5" fill="#E2E2E2"/>
<circle cx="171.481" cy="14.8516" r="1.5" fill="#E2E2E2"/>
<circle cx="184.481" cy="14.8516" r="1.5" fill="#E2E2E2"/>
<circle cx="197.481" cy="14.8516" r="1.5" fill="#E2E2E2"/>
<circle cx="2.48096" cy="118.852" r="1.5" fill="#E2E2E2"/>
<circle cx="15.481" cy="118.852" r="1.5" fill="#E2E2E2"/>
<circle cx="28.481" cy="118.852" r="1.5" fill="#E2E2E2"/>
<circle cx="41.481" cy="118.852" r="1.5" fill="#E2E2E2"/>
<circle cx="54.481" cy="118.852" r="1.5" fill="#E2E2E2"/>
<circle cx="67.481" cy="118.852" r="1.5" fill="#E2E2E2"/>
<circle cx="80.481" cy="118.852" r="1.5" fill="#E2E2E2"/>
<circle cx="93.481" cy="118.852" r="1.5" fill="#E2E2E2"/>
<circle cx="106.481" cy="118.852" r="1.5" fill="#E2E2E2"/>
<circle cx="119.481" cy="118.852" r="1.5" fill="#E2E2E2"/>
<circle cx="132.481" cy="118.852" r="1.5" fill="#E2E2E2"/>
<circle cx="145.481" cy="118.852" r="1.5" fill="#E2E2E2"/>
<circle cx="158.481" cy="118.852" r="1.5" fill="#E2E2E2"/>
<circle cx="171.481" cy="118.852" r="1.5" fill="#E2E2E2"/>
<circle cx="184.481" cy="118.852" r="1.5" fill="#E2E2E2"/>
<circle cx="197.481" cy="118.852" r="1.5" fill="#E2E2E2"/>
<circle cx="2.48096" cy="66.8516" r="1.5" fill="#E2E2E2"/>
<circle cx="15.481" cy="66.8516" r="1.5" fill="#E2E2E2"/>
<circle cx="28.481" cy="66.8516" r="1.5" fill="#E2E2E2"/>
<circle cx="41.481" cy="66.8516" r="1.5" fill="#E2E2E2"/>
<circle cx="54.481" cy="66.8516" r="1.5" fill="#E2E2E2"/>
<circle cx="67.481" cy="66.8516" r="1.5" fill="#E2E2E2"/>
<circle cx="80.481" cy="66.8516" r="1.5" fill="#E2E2E2"/>
<circle cx="93.481" cy="66.8516" r="1.5" fill="#E2E2E2"/>
<circle cx="106.481" cy="66.8516" r="1.5" fill="#E2E2E2"/>
<circle cx="119.481" cy="66.8516" r="1.5" fill="#E2E2E2"/>
<circle cx="132.481" cy="66.8516" r="1.5" fill="#E2E2E2"/>
<circle cx="145.481" cy="66.8516" r="1.5" fill="#E2E2E2"/>
<circle cx="158.481" cy="66.8516" r="1.5" fill="#E2E2E2"/>
<circle cx="171.481" cy="66.8516" r="1.5" fill="#E2E2E2"/>
<circle cx="184.481" cy="66.8516" r="1.5" fill="#E2E2E2"/>
<circle cx="197.481" cy="66.8516" r="1.5" fill="#E2E2E2"/>
<circle cx="2.48096" cy="170.852" r="1.5" fill="#E2E2E2"/>
<circle cx="15.481" cy="170.852" r="1.5" fill="#E2E2E2"/>
<circle cx="28.481" cy="170.852" r="1.5" fill="#E2E2E2"/>
<circle cx="41.481" cy="170.852" r="1.5" fill="#E2E2E2"/>
<circle cx="54.481" cy="170.852" r="1.5" fill="#E2E2E2"/>
<circle cx="67.481" cy="170.852" r="1.5" fill="#E2E2E2"/>
<circle cx="80.481" cy="170.852" r="1.5" fill="#E2E2E2"/>
<circle cx="93.481" cy="170.852" r="1.5" fill="#E2E2E2"/>
<circle cx="106.481" cy="170.852" r="1.5" fill="#E2E2E2"/>
<circle cx="119.481" cy="170.852" r="1.5" fill="#E2E2E2"/>
<circle cx="132.481" cy="170.852" r="1.5" fill="#E2E2E2"/>
<circle cx="145.481" cy="170.852" r="1.5" fill="#E2E2E2"/>
<circle cx="158.481" cy="170.852" r="1.5" fill="#E2E2E2"/>
<circle cx="171.481" cy="170.852" r="1.5" fill="#E2E2E2"/>
<circle cx="184.481" cy="170.852" r="1.5" fill="#E2E2E2"/>
<circle cx="197.481" cy="170.852" r="1.5" fill="#E2E2E2"/>
<circle cx="2.48096" cy="40.8516" r="1.5" fill="#E2E2E2"/>
<circle cx="15.481" cy="40.8516" r="1.5" fill="#E2E2E2"/>
<circle cx="28.481" cy="40.8516" r="1.5" fill="#E2E2E2"/>
<circle cx="41.481" cy="40.8516" r="1.5" fill="#E2E2E2"/>
<circle cx="54.481" cy="40.8516" r="1.5" fill="#E2E2E2"/>
<circle cx="67.481" cy="40.8516" r="1.5" fill="#E2E2E2"/>
<circle cx="80.481" cy="40.8516" r="1.5" fill="#E2E2E2"/>
<circle cx="93.481" cy="40.8516" r="1.5" fill="#E2E2E2"/>
<circle cx="106.481" cy="40.8516" r="1.5" fill="#E2E2E2"/>
<circle cx="119.481" cy="40.8516" r="1.5" fill="#E2E2E2"/>
<circle cx="132.481" cy="40.8516" r="1.5" fill="#E2E2E2"/>
<circle cx="145.481" cy="40.8516" r="1.5" fill="#E2E2E2"/>
<circle cx="158.481" cy="40.8516" r="1.5" fill="#E2E2E2"/>
<circle cx="171.481" cy="40.8516" r="1.5" fill="#E2E2E2"/>
<circle cx="184.481" cy="40.8516" r="1.5" fill="#E2E2E2"/>
<circle cx="197.481" cy="40.8516" r="1.5" fill="#E2E2E2"/>
<circle cx="2.48096" cy="144.852" r="1.5" fill="#E2E2E2"/>
<circle cx="15.481" cy="144.852" r="1.5" fill="#E2E2E2"/>
<circle cx="28.481" cy="144.852" r="1.5" fill="#E2E2E2"/>
<circle cx="41.481" cy="144.852" r="1.5" fill="#E2E2E2"/>
<circle cx="54.481" cy="144.852" r="1.5" fill="#E2E2E2"/>
<circle cx="67.481" cy="144.852" r="1.5" fill="#E2E2E2"/>
<circle cx="80.481" cy="144.852" r="1.5" fill="#E2E2E2"/>
<circle cx="93.481" cy="144.852" r="1.5" fill="#E2E2E2"/>
<circle cx="106.481" cy="144.852" r="1.5" fill="#E2E2E2"/>
<circle cx="119.481" cy="144.852" r="1.5" fill="#E2E2E2"/>
<circle cx="132.481" cy="144.852" r="1.5" fill="#E2E2E2"/>
<circle cx="145.481" cy="144.852" r="1.5" fill="#E2E2E2"/>
<circle cx="158.481" cy="144.852" r="1.5" fill="#E2E2E2"/>
<circle cx="171.481" cy="144.852" r="1.5" fill="#E2E2E2"/>
<circle cx="184.481" cy="144.852" r="1.5" fill="#E2E2E2"/>
<circle cx="197.481" cy="144.852" r="1.5" fill="#E2E2E2"/>
<circle cx="2.48096" cy="92.8516" r="1.5" fill="#E2E2E2"/>
<circle cx="15.481" cy="92.8516" r="1.5" fill="#E2E2E2"/>
<circle cx="28.481" cy="92.8516" r="1.5" fill="#E2E2E2"/>
<circle cx="41.481" cy="92.8516" r="1.5" fill="#E2E2E2"/>
<circle cx="54.481" cy="92.8516" r="1.5" fill="#E2E2E2"/>
<circle cx="67.481" cy="92.8516" r="1.5" fill="#E2E2E2"/>
<circle cx="80.481" cy="92.8516" r="1.5" fill="#E2E2E2"/>
<circle cx="93.481" cy="92.8516" r="1.5" fill="#E2E2E2"/>
<circle cx="106.481" cy="92.8516" r="1.5" fill="#E2E2E2"/>
<circle cx="119.481" cy="92.8516" r="1.5" fill="#E2E2E2"/>
<circle cx="132.481" cy="92.8516" r="1.5" fill="#E2E2E2"/>
<circle cx="145.481" cy="92.8516" r="1.5" fill="#E2E2E2"/>
<circle cx="158.481" cy="92.8516" r="1.5" fill="#E2E2E2"/>
<circle cx="171.481" cy="92.8516" r="1.5" fill="#E2E2E2"/>
<circle cx="184.481" cy="92.8516" r="1.5" fill="#E2E2E2"/>
<circle cx="197.481" cy="92.8516" r="1.5" fill="#E2E2E2"/>
<circle cx="2.48096" cy="196.852" r="1.5" fill="#E2E2E2"/>
<circle cx="15.481" cy="196.852" r="1.5" fill="#E2E2E2"/>
<circle cx="28.481" cy="196.852" r="1.5" fill="#E2E2E2"/>
<circle cx="41.481" cy="196.852" r="1.5" fill="#E2E2E2"/>
<circle cx="54.481" cy="196.852" r="1.5" fill="#E2E2E2"/>
<circle cx="67.481" cy="196.852" r="1.5" fill="#E2E2E2"/>
<circle cx="80.481" cy="196.852" r="1.5" fill="#E2E2E2"/>
<circle cx="93.481" cy="196.852" r="1.5" fill="#E2E2E2"/>
<circle cx="106.481" cy="196.852" r="1.5" fill="#E2E2E2"/>
<circle cx="119.481" cy="196.852" r="1.5" fill="#E2E2E2"/>
<circle cx="132.481" cy="196.852" r="1.5" fill="#E2E2E2"/>
<circle cx="145.481" cy="196.852" r="1.5" fill="#E2E2E2"/>
<circle cx="158.481" cy="196.852" r="1.5" fill="#E2E2E2"/>
<circle cx="171.481" cy="196.852" r="1.5" fill="#E2E2E2"/>
<circle cx="184.481" cy="196.852" r="1.5" fill="#E2E2E2"/>
<circle cx="197.481" cy="196.852" r="1.5" fill="#E2E2E2"/>
</svg>
