<svg width="154" height="155" viewBox="0 0 154 155" fill="none" xmlns="http://www.w3.org/2000/svg">
<g filter="url(#filter0_d)">
<circle cx="77" cy="58.2335" r="20" transform="rotate(-180 77 58.2335)" fill="white"/>
</g>
<path d="M79.4763 50.4746C79.7744 50.7668 79.8015 51.224 79.5576 51.5462L79.4763 51.6385L72.7488 58.2335L79.4763 64.8285C79.7744 65.1207 79.8015 65.5779 79.5576 65.9001L79.4763 65.9925C79.1783 66.2847 78.7119 66.3112 78.3832 66.0721L78.289 65.9925L70.9681 58.8155C70.6701 58.5233 70.643 58.0661 70.8868 57.7439L70.9681 57.6515L78.289 50.4746C78.6169 50.1532 79.1485 50.1532 79.4763 50.4746Z" fill="#000B4B"/>
<defs>
<filter id="filter0_d" x="0" y="0.233521" width="154" height="154" filterUnits="userSpaceOnUse" color-interpolation-filters="sRGB">
<feFlood flood-opacity="0" result="BackgroundImageFix"/>
<feColorMatrix in="SourceAlpha" type="matrix" values="0 0 0 0 0 0 0 0 0 0 0 0 0 0 0 0 0 0 127 0"/>
<feOffset dy="19"/>
<feGaussianBlur stdDeviation="28.5"/>
<feColorMatrix type="matrix" values="0 0 0 0 0.729167 0 0 0 0 0.717014 0 0 0 0 0.717014 0 0 0 0.25 0"/>
<feBlend mode="normal" in2="BackgroundImageFix" result="effect1_dropShadow"/>
<feBlend mode="normal" in="SourceGraphic" in2="effect1_dropShadow" result="shape"/>
</filter>
</defs>
</svg>
