<svg width="1218" height="594" viewBox="0 0 1218 594" fill="none" xmlns="http://www.w3.org/2000/svg">
<path fill-rule="evenodd" clip-rule="evenodd" d="M689.02 0.964417L1202.03 0.964417C1210.32 0.964417 1217.03 7.68015 1217.03 15.9644V468.268C1213.2 468.352 1209.36 468.394 1205.5 468.394C936.267 468.394 714.913 263.391 689.02 0.964417Z" fill="#56CCF2"/>
<path fill-rule="evenodd" clip-rule="evenodd" d="M689.839 0.964417L1202.03 0.964417C1210.32 0.964417 1217.03 7.68015 1217.03 15.9644V196.968C1163.37 227.962 1101.09 245.697 1034.67 245.697C875.195 245.697 739.598 143.466 689.839 0.964417Z" fill="white" fill-opacity="0.15"/>
<path fill-rule="evenodd" clip-rule="evenodd" d="M195.207 593.791C195.207 484.33 106.471 395.594 -2.99048 395.594V578.791C-2.99048 587.075 3.72525 593.791 12.0095 593.791L195.207 593.791Z" fill="#56CCF2"/>
<path fill-rule="evenodd" clip-rule="evenodd" d="M154.573 593.791L12.0095 593.791C3.72525 593.791 -2.99048 587.075 -2.99048 578.791V436.227C-2.99047 436.227 -2.99046 436.227 -2.99045 436.227C84.0297 436.227 154.573 506.771 154.573 593.791Z" fill="white" fill-opacity="0.15"/>
</svg>
