<svg width="46" height="46" viewBox="0 0 46 46" fill="none" xmlns="http://www.w3.org/2000/svg">
<g filter="url(#filter0_d)">
<path d="M8.44348 6.81677H31.4435C31.7087 6.81677 31.9631 6.92213 32.1506 7.10967C32.3381 7.2972 32.4435 7.55156 32.4435 7.81677V30.8168C32.4435 31.082 32.3381 31.3363 32.1506 31.5239C31.9631 31.7114 31.7087 31.8168 31.4435 31.8168H8.44348C8.17826 31.8168 7.92391 31.7114 7.73637 31.5239C7.54884 31.3363 7.44348 31.082 7.44348 30.8168V7.81677C7.44348 7.55156 7.54884 7.2972 7.73637 7.10967C7.92391 6.92213 8.17826 6.81677 8.44348 6.81677V6.81677Z" fill="#000B4B"/>
<path d="M9.94348 11.8168H29.9435V29.3168H9.94348V11.8168Z" fill="#676976"/>
<path d="M10.6935 8.56677C10.8924 8.56677 11.0832 8.64579 11.2238 8.78644C11.3645 8.92709 11.4435 9.11786 11.4435 9.31677C11.4435 9.51568 11.3645 9.70645 11.2238 9.8471C11.0832 9.98775 10.8924 10.0668 10.6935 10.0668C10.4946 10.0668 10.3038 9.98775 10.1632 9.8471C10.0225 9.70645 9.94348 9.51568 9.94348 9.31677C9.94348 9.11786 10.0225 8.92709 10.1632 8.78644C10.3038 8.64579 10.4946 8.56677 10.6935 8.56677Z" fill="#E74C3C"/>
<path d="M13.1935 8.56677C13.3924 8.56677 13.5832 8.64579 13.7238 8.78644C13.8645 8.92709 13.9435 9.11786 13.9435 9.31677C13.9435 9.51568 13.8645 9.70645 13.7238 9.8471C13.5832 9.98775 13.3924 10.0668 13.1935 10.0668C12.9946 10.0668 12.8038 9.98775 12.6632 9.8471C12.5225 9.70645 12.4435 9.51568 12.4435 9.31677C12.4435 9.11786 12.5225 8.92709 12.6632 8.78644C12.8038 8.64579 12.9946 8.56677 13.1935 8.56677Z" fill="#F39C12"/>
<path d="M15.6935 8.56677C15.8924 8.56677 16.0832 8.64579 16.2238 8.78644C16.3645 8.92709 16.4435 9.11786 16.4435 9.31677C16.4435 9.51568 16.3645 9.70645 16.2238 9.8471C16.0832 9.98775 15.8924 10.0668 15.6935 10.0668C15.4946 10.0668 15.3038 9.98775 15.1632 9.8471C15.0225 9.70645 14.9435 9.51568 14.9435 9.31677C14.9435 9.11786 15.0225 8.92709 15.1632 8.78644C15.3038 8.64579 15.4946 8.56677 15.6935 8.56677Z" fill="#17A085"/>
<path d="M18.6935 8.56677H29.9435V10.0668H18.6935V8.56677Z" fill="white"/>
<path d="M12.4435 18.0668V19.3168H18.6935V18.0668H12.4435ZM12.4435 21.8168H18.6935V20.5668H12.4435V21.8168ZM12.4435 24.3168H18.6935V23.0668H12.4435V24.3168ZM12.4435 26.8168H18.6935V25.5668H12.4435V26.8168Z" fill="white"/>
<path d="M12.4435 14.3168H27.4435V16.8168H12.4435V14.3168Z" fill="white"/>
<path d="M19.9435 18.0668V21.8168H27.4435V18.0668H19.9435ZM19.9435 26.8168H27.4435V23.0668H19.9435V26.8168Z" fill="white"/>
</g>
<defs>
<filter id="filter0_d" x="0.443481" y="0.816772" width="45" height="45" filterUnits="userSpaceOnUse" color-interpolation-filters="sRGB">
<feFlood flood-opacity="0" result="BackgroundImageFix"/>
<feColorMatrix in="SourceAlpha" type="matrix" values="0 0 0 0 0 0 0 0 0 0 0 0 0 0 0 0 0 0 127 0"/>
<feOffset dx="3" dy="4"/>
<feGaussianBlur stdDeviation="5"/>
<feColorMatrix type="matrix" values="0 0 0 0 0.34902 0 0 0 0 0.376471 0 0 0 0 0.541176 0 0 0 0.37 0"/>
<feBlend mode="normal" in2="BackgroundImageFix" result="effect1_dropShadow"/>
<feBlend mode="normal" in="SourceGraphic" in2="effect1_dropShadow" result="shape"/>
</filter>
</defs>
</svg>
