<svg width="39" height="39" viewBox="0 0 39 39" fill="none" xmlns="http://www.w3.org/2000/svg">
<g filter="url(#filter0_d)">
<path d="M19.9873 0.0849609C11.7029 0.0849609 4.9873 6.80059 4.9873 15.085C4.9873 23.3693 11.7029 30.085 19.9873 30.085C28.2717 30.085 34.9873 23.3693 34.9873 15.085C34.9873 6.80059 28.2717 0.0849609 19.9873 0.0849609ZM16.3154 21.3021H13.2779V11.5271H16.3154V21.3021ZM14.7779 10.3271C13.8186 10.3271 13.1982 9.64746 13.1982 8.80684C13.1982 7.94902 13.8373 7.28965 14.817 7.28965C15.7967 7.28965 16.3967 7.94902 16.4154 8.80684C16.4154 9.64746 15.7967 10.3271 14.7779 10.3271ZM27.4092 21.3021H24.3717V15.885C24.3717 14.624 23.9311 13.7678 22.8326 13.7678C21.9936 13.7678 21.4951 14.3475 21.2748 14.9053C21.1936 15.1037 21.1732 15.385 21.1732 15.6646V21.3006H18.1342V14.6443C18.1342 13.424 18.0951 12.4037 18.0545 11.5256H20.6936L20.8326 12.8834H20.8936C21.2936 12.2459 22.2732 11.3053 23.9123 11.3053C25.9107 11.3053 27.4092 12.6443 27.4092 15.5225V21.3021Z" fill="white"/>
</g>
<defs>
<filter id="filter0_d" x="0.987305" y="0.0849609" width="38" height="38" filterUnits="userSpaceOnUse" color-interpolation-filters="sRGB">
<feFlood flood-opacity="0" result="BackgroundImageFix"/>
<feColorMatrix in="SourceAlpha" type="matrix" values="0 0 0 0 0 0 0 0 0 0 0 0 0 0 0 0 0 0 127 0"/>
<feOffset dy="4"/>
<feGaussianBlur stdDeviation="2"/>
<feColorMatrix type="matrix" values="0 0 0 0 0.658333 0 0 0 0 0.658333 0 0 0 0 0.658333 0 0 0 0.1 0"/>
<feBlend mode="normal" in2="BackgroundImageFix" result="effect1_dropShadow"/>
<feBlend mode="normal" in="SourceGraphic" in2="effect1_dropShadow" result="shape"/>
</filter>
</defs>
</svg>
