<svg width="40" height="39" viewBox="0 0 40 39" fill="none" xmlns="http://www.w3.org/2000/svg">
<g filter="url(#filter0_d)">
<path d="M19.989 0.0849622C11.4751 0.0815195 4.57935 6.97388 4.57935 15.4809C4.57935 22.208 8.89309 27.9264 14.9007 30.0264C15.7097 30.2296 15.5858 29.6546 15.5858 29.2621V26.594C10.914 27.1414 10.7246 24.0498 10.4113 23.5334C9.77788 22.4524 8.28029 22.177 8.72784 21.6606C9.79165 21.1132 10.8761 21.7983 12.1327 23.6539C13.0416 25 14.8146 24.7728 15.7132 24.549C15.9094 23.74 16.3294 23.017 16.9078 22.4559C12.0673 21.5883 10.0499 18.6344 10.0499 15.1228C10.0499 13.4187 10.611 11.8522 11.7127 10.5887C11.0104 8.50589 11.7781 6.72256 11.8814 6.45747C13.8816 6.27844 15.961 7.88964 16.1228 8.01702C17.2589 7.71062 18.5569 7.54881 20.0097 7.54881C21.4694 7.54881 22.7708 7.71751 23.9172 8.02735C24.3062 7.73128 26.2342 6.3473 28.0932 6.51599C28.1931 6.78108 28.9436 8.52311 28.2826 10.5784C29.398 11.8453 29.9661 13.4256 29.9661 15.1332C29.9661 18.6516 27.9349 21.6089 23.0806 22.4627C23.4964 22.8716 23.8265 23.3593 24.0517 23.8972C24.2769 24.4351 24.3927 25.0125 24.3923 25.5956V29.4687C24.4198 29.7786 24.3923 30.085 24.9087 30.085C31.0058 28.0296 35.3953 22.27 35.3953 15.4843C35.3953 6.97388 28.496 0.0849622 19.989 0.0849622Z" fill="white"/>
</g>
<defs>
<filter id="filter0_d" x="0.579346" y="0.0849609" width="38.8159" height="38" filterUnits="userSpaceOnUse" color-interpolation-filters="sRGB">
<feFlood flood-opacity="0" result="BackgroundImageFix"/>
<feColorMatrix in="SourceAlpha" type="matrix" values="0 0 0 0 0 0 0 0 0 0 0 0 0 0 0 0 0 0 127 0"/>
<feOffset dy="4"/>
<feGaussianBlur stdDeviation="2"/>
<feColorMatrix type="matrix" values="0 0 0 0 0.658333 0 0 0 0 0.658333 0 0 0 0 0.658333 0 0 0 0.1 0"/>
<feBlend mode="normal" in2="BackgroundImageFix" result="effect1_dropShadow"/>
<feBlend mode="normal" in="SourceGraphic" in2="effect1_dropShadow" result="shape"/>
</filter>
</defs>
</svg>
