<svg width="15" height="15" viewBox="0 0 15 15" fill="none" xmlns="http://www.w3.org/2000/svg">
<path d="M14.587 2.04316L14.5639 2.02871L11.6403 0.588379L8.48479 4.79573L9.93657 6.73156C9.89313 7.46161 9.58353 8.15039 9.06639 8.66752C8.54925 9.18466 7.86046 9.49424 7.13042 9.53768L5.19462 8.0859L0.987305 11.2414L2.41565 14.1405L2.42767 14.165L2.44215 14.1881C2.51838 14.3109 2.62477 14.4121 2.7512 14.4822C2.87762 14.5523 3.01988 14.5888 3.16443 14.5884H3.91881C5.37235 14.5884 6.81166 14.3021 8.15455 13.7458C9.49744 13.1896 10.7176 12.3743 11.7454 11.3465C12.7732 10.3187 13.5885 9.09849 14.1448 7.75559C14.701 6.4127 14.9873 4.97339 14.9873 3.51986V2.76544C14.9878 2.62089 14.9512 2.47863 14.8812 2.35221C14.8111 2.22578 14.7098 2.11939 14.587 2.04316ZM13.9069 3.51986C13.9069 9.02732 9.42625 13.508 3.91881 13.508H3.30839L2.35272 11.5679L5.19483 9.43632L6.77716 10.623H6.95722C8.03494 10.6218 9.06819 10.1932 9.83026 9.43109C10.5923 8.66902 11.021 7.63578 11.0222 6.55805V6.378L9.83548 4.7957L11.9668 1.95376L13.9069 2.9096V3.51986Z" fill="#000B4B"/>
</svg>
