<svg width="52" height="45" viewBox="0 0 52 45" fill="none" xmlns="http://www.w3.org/2000/svg">
<g opacity="0.65" filter="url(#filter0_d)">
<path d="M19.9248 18.5837C20.2296 18.879 20.7236 18.879 21.0284 18.5837L21.58 18.0493C21.8848 17.754 21.8848 17.2754 21.58 16.9802L19.838 15.293L21.5795 13.6054C21.8843 13.3101 21.8843 12.8315 21.5795 12.5362L21.0279 12.0019C20.7231 11.7066 20.2291 11.7066 19.9243 12.0019L17.079 14.7582C16.7742 15.0535 16.7742 15.5321 17.079 15.8274L19.9248 18.5837ZM24.6072 18.0498L25.1588 18.5842C25.4636 18.8794 25.9576 18.8794 26.2624 18.5842L29.1077 15.8278C29.4125 15.5325 29.4125 15.0539 29.1077 14.7587L26.2624 12.0023C25.9576 11.707 25.4636 11.707 25.1588 12.0023L24.6072 12.5367C24.3024 12.832 24.3024 13.3106 24.6072 13.6059L26.3487 15.293L24.6072 16.9806C24.3024 17.2759 24.3024 17.7545 24.6072 18.0498ZM37.9194 25.8761H26.0947C26.0586 26.812 25.3772 27.388 24.4979 27.388H21.5327C20.6212 27.388 19.9223 26.5626 19.9345 25.8761H8.26729C7.83811 25.8761 7.48697 26.2163 7.48697 26.632V27.388C7.48697 29.051 8.89154 30.4117 10.6082 30.4117H35.5785C37.2952 30.4117 38.6997 29.051 38.6997 27.388V26.632C38.6997 26.2163 38.3486 25.8761 37.9194 25.8761ZM35.5785 8.4896C35.5785 7.24231 34.525 6.2218 33.2375 6.2218H12.9492C11.6617 6.2218 10.6082 7.24231 10.6082 8.4896V24.3642H35.5785V8.4896ZM32.4572 21.3405H13.7295V9.24554H32.4572V21.3405Z" fill="#000B4B"/>
</g>
<defs>
<filter id="filter0_d" x="0.486969" y="0.221802" width="51.2128" height="44.1899" filterUnits="userSpaceOnUse" color-interpolation-filters="sRGB">
<feFlood flood-opacity="0" result="BackgroundImageFix"/>
<feColorMatrix in="SourceAlpha" type="matrix" values="0 0 0 0 0 0 0 0 0 0 0 0 0 0 0 0 0 0 127 0"/>
<feOffset dx="3" dy="4"/>
<feGaussianBlur stdDeviation="5"/>
<feColorMatrix type="matrix" values="0 0 0 0 0.34902 0 0 0 0 0.376471 0 0 0 0 0.541176 0 0 0 0.37 0"/>
<feBlend mode="normal" in2="BackgroundImageFix" result="effect1_dropShadow"/>
<feBlend mode="normal" in="SourceGraphic" in2="effect1_dropShadow" result="shape"/>
</filter>
</defs>
</svg>
