<svg width="51" height="51" viewBox="0 0 51 51" fill="none" xmlns="http://www.w3.org/2000/svg">
<g opacity="0.65" filter="url(#filter0_d)">
<path d="M37.0934 21.6335C37.0934 13.3535 30.3734 6.63354 22.0934 6.63354C13.8134 6.63354 7.09335 13.3535 7.09335 21.6335C7.09335 29.9135 13.8134 36.6335 22.0934 36.6335C30.3734 36.6335 37.0934 29.9135 37.0934 21.6335ZM22.0934 8.14854C29.5484 8.14854 35.5784 14.1785 35.5784 21.6335C35.5784 29.0885 29.5484 35.1185 22.0934 35.1185C14.6384 35.1185 8.60835 29.0885 8.60835 21.6335C8.60835 14.1785 14.6384 8.14854 22.0934 8.14854ZM19.1084 28.8635L14.5334 16.5485C15.2684 16.5035 16.1084 16.4285 16.1084 16.4285C16.7534 16.3535 16.6784 14.9135 16.0184 14.9435C16.0184 14.9435 14.0834 15.0935 12.8234 15.0935C12.5984 15.0935 12.3284 15.0935 12.0434 15.0785C14.2034 11.8235 17.8934 9.67854 22.0934 9.67854C25.2284 9.67854 28.0784 10.8635 30.2084 12.8135C29.3084 12.6935 28.0334 13.3385 28.0334 14.9435C28.0334 15.9335 28.6034 16.7735 29.2184 17.7635C29.6834 18.5735 29.9684 19.5935 29.9684 21.0785C29.9684 23.0885 28.0634 27.7985 28.0634 27.7985L23.9984 16.5485C24.7184 16.5035 25.1234 16.3085 25.1234 16.3085C25.7684 16.2335 25.6934 14.6585 25.0484 14.6885C25.0484 14.6885 23.0984 14.8535 21.8384 14.8535C20.6684 14.8535 18.6734 14.6885 18.6734 14.6885C18.0284 14.6585 17.9534 16.2785 18.5984 16.3085L19.8584 16.4285L21.5384 20.9885L19.1084 28.8635ZM28.1384 32.0885L32.0534 21.6335C32.0534 21.6335 33.0584 19.0985 32.6384 15.9185C33.5834 17.6285 34.0484 19.5485 34.0484 21.6335C34.0484 26.0735 31.7084 30.0035 28.1384 32.0885ZM11.1134 16.7885L16.8434 32.5085C12.8384 30.5585 10.1384 26.3885 10.1384 21.6335C10.1384 19.8935 10.4384 18.2885 11.1134 16.7885ZM22.2884 23.5835L25.7234 32.9585C24.5984 33.3635 23.3684 33.5885 22.0934 33.5885C21.0134 33.5885 19.9784 33.4235 19.0034 33.1385L22.2884 23.5835Z" fill="#000B4B"/>
</g>
<defs>
<filter id="filter0_d" x="0.0933533" y="0.633545" width="50" height="50" filterUnits="userSpaceOnUse" color-interpolation-filters="sRGB">
<feFlood flood-opacity="0" result="BackgroundImageFix"/>
<feColorMatrix in="SourceAlpha" type="matrix" values="0 0 0 0 0 0 0 0 0 0 0 0 0 0 0 0 0 0 127 0"/>
<feOffset dx="3" dy="4"/>
<feGaussianBlur stdDeviation="5"/>
<feColorMatrix type="matrix" values="0 0 0 0 0.34902 0 0 0 0 0.376471 0 0 0 0 0.541176 0 0 0 0.37 0"/>
<feBlend mode="normal" in2="BackgroundImageFix" result="effect1_dropShadow"/>
<feBlend mode="normal" in="SourceGraphic" in2="effect1_dropShadow" result="shape"/>
</filter>
</defs>
</svg>
