<svg width="36" height="36" viewBox="0 0 36 36" fill="none" xmlns="http://www.w3.org/2000/svg">
<g filter="url(#filter0_d)">
<path d="M26.0696 6.26661L30.2462 2.12986C30.4236 1.95424 30.7169 1.9831 30.8566 2.18993L31.82 3.61633C31.9527 3.81281 31.8855 4.08098 31.6758 4.19159L26.5357 6.90193C26.4489 6.9477 26.3482 6.95981 26.253 6.93594C26.1578 6.91207 26.0748 6.85389 26.0199 6.77257C25.9679 6.69567 25.9444 6.60301 25.9535 6.51062C25.9625 6.41824 26.0036 6.33193 26.0696 6.26661ZM26.7603 9.81909C26.7759 9.89561 26.8193 9.96365 26.882 10.0102C26.9448 10.0567 27.0225 10.0784 27.1003 10.0711L31.704 9.6413C31.7483 9.63716 31.7913 9.62373 31.8301 9.60188C31.8689 9.58003 31.9026 9.55025 31.9291 9.51448C31.9556 9.47871 31.9743 9.43776 31.9839 9.39429C31.9936 9.35081 31.9939 9.3058 31.985 9.26219L31.7103 7.92031C31.6705 7.72577 31.4636 7.61533 31.2798 7.69057L26.9508 9.46217C26.8824 9.49015 26.826 9.54113 26.7912 9.60629C26.7564 9.67146 26.7455 9.74672 26.7603 9.81909ZM23.3229 4.93385C23.3881 4.97688 23.4669 4.99433 23.5441 4.98286C23.6213 4.97138 23.6916 4.93179 23.7415 4.87168L26.6929 1.31247C26.7213 1.27819 26.7422 1.23831 26.7542 1.19543C26.7661 1.15255 26.7689 1.10763 26.7624 1.06359C26.7559 1.01955 26.7401 0.97738 26.7162 0.939831C26.6923 0.902282 26.6607 0.870195 26.6235 0.845658L25.4805 0.0910499C25.3148 -0.0183401 25.0904 0.049841 25.0137 0.233029L23.2053 4.54684C23.1767 4.61496 23.1728 4.69091 23.1943 4.76157C23.2158 4.83223 23.2613 4.89317 23.3229 4.93385Z" fill="#000B4B"/>
<path d="M16.4283 26.5009L15.5391 27.0208C14.8164 27.4435 13.8879 27.2002 13.4652 26.4775L11.1078 22.4463C10.6851 21.7236 10.9284 20.7951 11.6511 20.3724L12.5403 19.8524C13.263 19.4298 14.1915 19.673 14.6142 20.3958L16.9716 24.427C17.3943 25.1497 17.151 26.0782 16.4283 26.5009Z" fill="#000B4B"/>
<path d="M10.9785 22.5451L19.5935 17.8547L13.7042 8.63367L5.91675 14.4192C5.86653 14.4513 3.7617 16.3772 6.07324 19.9965C8.38478 23.6158 10.9785 22.5451 10.9785 22.5451Z" fill="#000B4B"/>
<path d="M24.444 8.28181C27.0208 12.3164 28.5819 16.6872 27.5039 17.3757C26.4258 18.0642 23.1169 14.8097 20.5401 10.7751C17.9633 6.74045 16.4022 2.36975 17.4802 1.68121C18.5582 0.992666 21.8672 4.24717 24.444 8.28181Z" fill="#727272"/>
<path d="M23.2305 13.8804C24.1236 13.31 23.8677 11.3135 22.659 9.42106C21.4503 7.52867 19.7464 6.45699 18.8534 7.02741C17.9603 7.59783 18.2162 9.59433 19.4249 11.4867C20.6336 13.3791 22.3374 14.4508 23.2305 13.8804Z" fill="#B2B2B2"/>
<path d="M27.4569 17.4059C26.5152 18.0073 23.3168 14.6822 20.74 10.6475C18.1632 6.61291 16.4915 2.31277 17.4331 1.71138C17.4874 1.67673 17.5482 1.65388 17.6147 1.64125C17.1704 1.63107 16.7352 1.86276 16.4777 2.35526C15.3427 4.52571 12.4462 9.34121 12.4462 9.34121C12.4462 9.34121 11.0089 11.2765 13.5356 15.2325C16.0622 19.1885 18.5016 18.6935 18.5016 18.6935C18.5016 18.6935 24.043 18.1274 26.4778 18.0111C27.0542 17.9836 27.4556 17.6635 27.6224 17.2318C27.5782 17.3046 27.5234 17.3634 27.4569 17.4059Z" fill="#606585"/>
<path d="M7.22416 16.9543C7.09247 16.9545 6.96286 16.9214 6.84735 16.8582C6.73183 16.795 6.63414 16.7036 6.56331 16.5926C6.33046 16.228 6.43724 15.7437 6.80184 15.5109L10.0224 13.454C10.387 13.2212 10.8713 13.3279 11.1041 13.6925C11.337 14.0571 11.2302 14.5414 10.8656 14.7742L7.64504 16.8311C7.51943 16.9116 7.37335 16.9544 7.22416 16.9543Z" fill="#F2F2F2"/>
</g>
<defs>
<filter id="filter0_d" x="0.991638" y="0.0385132" width="34.9998" height="35.1899" filterUnits="userSpaceOnUse" color-interpolation-filters="sRGB">
<feFlood flood-opacity="0" result="BackgroundImageFix"/>
<feColorMatrix in="SourceAlpha" type="matrix" values="0 0 0 0 0 0 0 0 0 0 0 0 0 0 0 0 0 0 127 0"/>
<feOffset dy="4"/>
<feGaussianBlur stdDeviation="2"/>
<feColorMatrix type="matrix" values="0 0 0 0 0 0 0 0 0 0 0 0 0 0 0 0 0 0 0.25 0"/>
<feBlend mode="normal" in2="BackgroundImageFix" result="effect1_dropShadow"/>
<feBlend mode="normal" in="SourceGraphic" in2="effect1_dropShadow" result="shape"/>
</filter>
</defs>
</svg>
