<svg width="46" height="46" viewBox="0 0 46 46" fill="none" xmlns="http://www.w3.org/2000/svg">
<g filter="url(#filter0_d)">
<path d="M18.7214 10.0398C17.551 10.0398 16.4682 10.407 15.5776 11.032C15.5198 10.1366 15.3151 9.36008 14.9385 8.67258C16.1279 8.01436 17.4685 7.67789 18.8278 7.6964C20.1871 7.71492 21.518 8.08779 22.689 8.77817C23.86 9.46855 24.8307 10.4525 25.505 11.6329C26.1793 12.8133 26.5339 14.1491 26.5339 15.5085H30.0511C31.5605 15.507 32.7855 16.732 32.7855 18.2414V26.8351C32.7857 27.1945 32.715 27.5503 32.5776 27.8824C32.4402 28.2144 32.2387 28.5161 31.9846 28.7702C31.7305 29.0243 31.4288 29.2258 31.0968 29.3632C30.7647 29.5006 30.4089 29.5713 30.0495 29.5711H21.4557C20.7305 29.5711 20.035 29.283 19.5222 28.7702C19.0094 28.2574 18.7214 27.5619 18.7214 26.8367V23.3211C17.6345 23.3224 16.5593 23.0962 15.5651 22.657C15.5854 22.1257 15.5964 21.5679 15.5964 20.9773V20.8804C15.5964 20.6195 15.5964 20.3195 15.5917 19.9945C16.4792 20.6132 17.5573 20.9773 18.7214 20.9773V18.2429C18.7214 16.7335 19.9464 15.5085 21.4557 15.5085H24.1901C24.1901 14.0581 23.614 12.6671 22.5884 11.6415C21.5628 10.6159 20.1718 10.0398 18.7214 10.0398ZM26.1761 17.8523C25.7974 19.0521 25.1352 20.143 24.2455 21.0327C23.3558 21.9223 22.2649 22.5845 21.0651 22.9632V26.8367C21.0651 27.0523 21.2401 27.2273 21.4557 27.2273H30.0495C30.1531 27.2273 30.2525 27.1862 30.3257 27.1129C30.399 27.0396 30.4401 26.9403 30.4401 26.8367V18.2429C30.4401 18.1393 30.399 18.04 30.3257 17.9667C30.2525 17.8934 30.1531 17.8523 30.0495 17.8523H26.1761ZM23.6636 17.8523H21.4557C21.3521 17.8523 21.2528 17.8934 21.1795 17.9667C21.1063 18.04 21.0651 18.1393 21.0651 18.2429V20.4507C22.2039 19.9086 23.1215 18.9911 23.6636 17.8523Z" fill="#606585"/>
<path d="M11.8151 6.3288C11.945 6.44204 12.0339 6.59508 12.0678 6.76408C12.1017 6.93309 12.0788 7.10856 12.0026 7.26317C11.9893 7.30889 11.9825 7.35621 11.9823 7.4038C11.9823 7.50224 12.0073 7.68974 12.2432 7.92411C12.3573 8.03817 12.4448 8.11942 12.5401 8.20849C12.6182 8.28036 12.701 8.35536 12.8057 8.45849C13.0088 8.65224 13.2229 8.88036 13.4151 9.1663C13.8135 9.76474 14.0338 10.5132 14.0338 11.6022C14.0338 12.9351 13.5401 14.071 12.7698 14.7679L12.8698 14.8835C13.3073 15.421 13.562 16.1179 13.7213 16.8054C14.0338 18.1648 14.0338 19.7991 14.0338 20.9382V20.9773C14.0338 25.332 13.4416 27.8023 12.7901 29.2148C12.462 29.9257 12.1135 30.3789 11.8119 30.6632C11.6893 30.7809 11.5542 30.8846 11.4088 30.9726C11.3423 31.0127 11.2728 31.0477 11.201 31.0773C11.201 31.0773 11.0244 31.1335 10.9088 31.1335C10.7932 31.1335 10.6166 31.0773 10.6166 31.0773C10.5441 31.0494 10.4744 31.0143 10.4088 30.9726C10.2635 30.8846 10.1283 30.7809 10.0057 30.6632C9.70413 30.3773 9.35569 29.9257 9.02757 29.2148C8.376 27.8023 7.78381 25.332 7.78381 20.9773V20.9382C7.78381 19.7976 7.78381 18.1648 8.09631 16.8054C8.25569 16.1179 8.51038 15.421 8.94788 14.8835C8.97913 14.8444 9.0135 14.8054 9.04788 14.7679C8.27756 14.071 7.78381 12.9351 7.78381 11.6022C7.78381 11.0929 7.91975 10.4851 8.10725 9.92412C8.29475 9.36162 8.55725 8.78036 8.86038 8.31161C9.22132 7.70224 9.72913 7.1913 10.1229 6.84755C10.3388 6.6577 10.564 6.47882 10.7979 6.31161L10.8666 6.26473C11.0099 6.16923 11.1807 6.12373 11.3525 6.13532C11.5243 6.1469 11.6875 6.21492 11.8166 6.3288H11.8151Z" fill="#000B4B"/>
</g>
<defs>
<filter id="filter0_d" x="0.783813" y="0.133545" width="45.0016" height="45" filterUnits="userSpaceOnUse" color-interpolation-filters="sRGB">
<feFlood flood-opacity="0" result="BackgroundImageFix"/>
<feColorMatrix in="SourceAlpha" type="matrix" values="0 0 0 0 0 0 0 0 0 0 0 0 0 0 0 0 0 0 127 0"/>
<feOffset dx="3" dy="4"/>
<feGaussianBlur stdDeviation="5"/>
<feColorMatrix type="matrix" values="0 0 0 0 0.34902 0 0 0 0 0.376471 0 0 0 0 0.541176 0 0 0 0.37 0"/>
<feBlend mode="normal" in2="BackgroundImageFix" result="effect1_dropShadow"/>
<feBlend mode="normal" in="SourceGraphic" in2="effect1_dropShadow" result="shape"/>
</filter>
</defs>
</svg>
