<svg width="26" height="26" viewBox="0 0 26 26" fill="none" xmlns="http://www.w3.org/2000/svg">
<path opacity="0.65" d="M9.92571 4.36051V7.13829H2.98127V22.4161H18.259V15.4716H21.0368V23.805C21.0368 24.1733 20.8905 24.5266 20.63 24.7871C20.3696 25.0475 20.0163 25.1938 19.6479 25.1938H1.59238C1.22402 25.1938 0.870754 25.0475 0.610287 24.7871C0.34982 24.5266 0.203491 24.1733 0.203491 23.805V5.7494C0.203491 5.38105 0.34982 5.02778 0.610287 4.76731C0.870754 4.50684 1.22402 4.36051 1.59238 4.36051H9.92571ZM25.2035 0.193848V11.305H22.4257V4.93413L11.6021 15.7591L9.63821 13.7952L20.4604 2.97163H14.0924V0.193848H25.2035Z" fill="#000B4B"/>
</svg>
