<svg width="40" height="40" viewBox="0 0 40 40" fill="none" xmlns="http://www.w3.org/2000/svg">
<g clip-path="url(#clip0)" filter="url(#filter0_d)">
<path d="M32.1902 20.316C32.1905 22.1529 31.726 23.9606 30.8392 25.5738C29.9523 27.1871 28.6715 28.5544 27.1137 29.5508C25.5558 30.5472 23.7707 31.141 21.9215 31.2778C20.0723 31.4147 18.218 31.0902 16.528 30.3341C14.8381 29.5779 13.3664 28.4143 12.2475 26.9495C11.1285 25.4846 10.3981 23.7654 10.1229 21.9488C9.84767 20.1322 10.0365 18.2763 10.672 16.5507C11.3076 14.825 12.3696 13.2847 13.7611 12.0705C13.9945 11.8655 14.2366 11.6711 14.4875 11.4874C15.4295 10.7935 16.477 10.2526 17.5907 9.88512C19.2586 9.33681 21.0341 9.18853 22.7711 9.45247C24.5081 9.71642 26.1571 10.3851 27.5824 11.4034C29.0077 12.4217 30.1686 13.7607 30.9697 15.3101C31.7707 16.8595 32.189 18.5752 32.1902 20.316Z" fill="url(#paint0_radial)"/>
<path d="M30.7649 4.95985C30.9439 4.65384 30.8386 4.26204 30.5297 4.08473C30.2208 3.90741 29.8252 4.01174 29.6462 4.31774L26.8381 9.11833C26.6591 9.42434 26.7644 9.81614 27.0734 9.99346C27.3823 10.1708 27.7778 10.0664 27.9568 9.76044L30.7649 4.95985Z" fill="url(#paint1_linear)"/>
<path d="M37.2286 11.8328C37.5384 11.657 37.6456 11.2657 37.4681 10.9588C37.2907 10.652 36.8957 10.5457 36.5859 10.7215L31.726 13.4797C31.4163 13.6556 31.309 14.0468 31.4865 14.3537C31.664 14.6606 32.059 14.7668 32.3688 14.591L37.2286 11.8328Z" fill="url(#paint2_linear)"/>
<path d="M39.3499 20.9918C39.7069 20.9936 39.9978 20.7083 39.9995 20.3546C40.0013 20.0009 39.7133 19.7128 39.3562 19.7111L33.7553 19.684C33.3983 19.6823 33.1075 19.9676 33.1057 20.3212C33.104 20.6749 33.392 20.963 33.749 20.9647L39.3499 20.9918Z" fill="url(#paint3_linear)"/>
<path d="M36.4543 29.6639C36.7613 29.8442 37.1578 29.7439 37.3399 29.4398C37.522 29.1356 37.4207 28.7428 37.1137 28.5625L32.2968 25.7328C31.9898 25.5525 31.5933 25.6528 31.4112 25.957C31.2291 26.2611 31.3304 26.6539 31.6374 26.8343L36.4543 29.6639Z" fill="url(#paint4_linear)"/>
<path d="M29.5798 36.3391C29.7558 36.6468 30.1503 36.755 30.4609 36.5806C30.7716 36.4063 30.8807 36.0156 30.7048 35.7078L27.9442 30.8803C27.7682 30.5726 27.3737 30.4644 27.0631 30.6387C26.7524 30.813 26.6432 31.2038 26.8192 31.5115L29.5798 36.3391Z" fill="url(#paint5_linear)"/>
<path d="M24.2729 30.4528C24.2729 30.6063 24.2675 30.7583 24.2568 30.9087C22.0563 31.5515 19.7092 31.5065 17.5354 30.7798C15.3616 30.0532 13.4669 28.6803 12.1094 26.8482C12.6169 26.0817 13.2809 25.4292 14.0587 24.9326C14.8365 24.436 15.7108 24.1065 16.6251 23.9652V18.5554H15.8684C15.7827 18.5554 15.7005 18.5217 15.6399 18.4616C15.5793 18.4016 15.5452 18.3201 15.5452 18.2352C15.5452 18.1503 15.5793 18.0689 15.6399 18.0088C15.7005 17.9488 15.7827 17.915 15.8684 17.915H19.4232C19.5089 17.915 19.5912 17.9488 19.6518 18.0088C19.7124 18.0689 19.7464 18.1503 19.7464 18.2352C19.7464 18.3201 19.7124 18.4016 19.6518 18.4616C19.5912 18.5217 19.5089 18.5554 19.4232 18.5554H18.6713V23.9686C20.2321 24.2102 21.6544 24.9964 22.6816 26.1854C23.7087 27.3744 24.2731 28.8878 24.2729 30.4528Z" fill="white"/>
<path d="M18.5638 12.633C18.772 12.633 18.9407 12.4658 18.9407 12.2595C18.9407 12.0533 18.772 11.8861 18.5638 11.8861C18.3556 11.8861 18.1868 12.0533 18.1868 12.2595C18.1868 12.4658 18.3556 12.633 18.5638 12.633Z" fill="white"/>
<path d="M15.1702 14.9268C15.3784 14.9268 15.5472 14.7596 15.5472 14.5534C15.5472 14.3471 15.3784 14.1799 15.1702 14.1799C14.962 14.1799 14.7933 14.3471 14.7933 14.5534C14.7933 14.7596 14.962 14.9268 15.1702 14.9268Z" fill="white"/>
<path d="M18.133 14.5008C18.2521 14.5008 18.3487 14.4052 18.3487 14.2872C18.3487 14.1692 18.2521 14.0735 18.133 14.0735C18.0139 14.0735 17.9173 14.1692 17.9173 14.2872C17.9173 14.4052 18.0139 14.5008 18.133 14.5008Z" fill="white"/>
<path d="M16.8401 16.8479C17.1971 16.8479 17.4866 16.5612 17.4866 16.2075C17.4866 15.8538 17.1971 15.5671 16.8401 15.5671C16.4831 15.5671 16.1937 15.8538 16.1937 16.2075C16.1937 16.5612 16.4831 16.8479 16.8401 16.8479Z" fill="white"/>
<path d="M19.5334 14.9269C19.7713 14.9269 19.9642 14.7358 19.9642 14.5002C19.9642 14.2645 19.7713 14.0735 19.5334 14.0735C19.2955 14.0735 19.1027 14.2645 19.1027 14.5002C19.1027 14.7358 19.2955 14.9269 19.5334 14.9269Z" fill="white"/>
<path d="M16.1937 13.4337C16.3128 13.4337 16.4094 13.338 16.4094 13.22C16.4094 13.102 16.3128 13.0063 16.1937 13.0063C16.0745 13.0063 15.978 13.102 15.978 13.22C15.978 13.338 16.0745 13.4337 16.1937 13.4337Z" fill="white"/>
<path d="M18.5637 17.1681C18.7423 17.1681 18.887 17.0247 18.887 16.8479C18.887 16.6711 18.7423 16.5277 18.5637 16.5277C18.3852 16.5277 18.2405 16.6711 18.2405 16.8479C18.2405 17.0247 18.3852 17.1681 18.5637 17.1681Z" fill="white"/>
<path d="M20.2874 11.0853C20.5847 11.0853 20.8257 10.8466 20.8257 10.5521C20.8257 10.2576 20.5847 10.0189 20.2874 10.0189C19.9901 10.0189 19.7491 10.2576 19.7491 10.5521C19.7491 10.8466 19.9901 11.0853 20.2874 11.0853Z" fill="white"/>
<path d="M14.7933 11.9393C14.7952 12.0739 14.7456 12.2043 14.6544 12.3041C14.5632 12.404 14.4373 12.4659 14.3019 12.4775C14.1665 12.489 14.0317 12.4493 13.9246 12.3664C13.8175 12.2835 13.7461 12.1634 13.7248 12.0305C13.9595 11.8241 14.2028 11.6289 14.4546 11.4447C14.5545 11.4841 14.6402 11.5523 14.7006 11.6405C14.7609 11.7287 14.7932 11.8327 14.7933 11.9393Z" fill="white"/>
<path d="M17.7023 10.339C17.705 10.5919 17.6168 10.8374 17.4535 11.0317C17.2902 11.226 17.0625 11.3565 16.811 11.3997C16.5595 11.4429 16.3007 11.3961 16.0809 11.2676C15.861 11.1392 15.6945 10.9374 15.6111 10.6985C16.2356 10.3479 16.893 10.0581 17.5739 9.83313C17.6587 9.98852 17.7028 10.1624 17.7023 10.339Z" fill="white"/>
</g>
<defs>
<filter id="filter0_d" x="-5" y="-5" width="60" height="62.6666" filterUnits="userSpaceOnUse" color-interpolation-filters="sRGB">
<feFlood flood-opacity="0" result="BackgroundImageFix"/>
<feColorMatrix in="SourceAlpha" type="matrix" values="0 0 0 0 0 0 0 0 0 0 0 0 0 0 0 0 0 0 127 0"/>
<feOffset dy="4"/>
<feGaussianBlur stdDeviation="7.5"/>
<feColorMatrix type="matrix" values="0 0 0 0 0 0 0 0 0 0 0 0 0 0 0 0 0 0 0.05 0"/>
<feBlend mode="normal" in2="BackgroundImageFix" result="effect1_dropShadow"/>
<feBlend mode="normal" in="SourceGraphic" in2="effect1_dropShadow" result="shape"/>
</filter>
<radialGradient id="paint0_radial" cx="0" cy="0" r="1" gradientUnits="userSpaceOnUse" gradientTransform="translate(21.0951 20.316) scale(11.0951 10.9907)">
<stop stop-color="#F28705"/>
<stop offset="0.3" stop-color="#F28C05" stop-opacity="0.98"/>
<stop offset="0.57" stop-color="#F29C05" stop-opacity="0.94"/>
<stop offset="0.85" stop-color="#F2B705" stop-opacity="0.86"/>
<stop offset="1" stop-color="#F2CB05" stop-opacity="0.8"/>
</radialGradient>
<linearGradient id="paint1_linear" x1="27" y1="10.4388" x2="30.4509" y2="4.46689" gradientUnits="userSpaceOnUse">
<stop stop-color="#F29E05" stop-opacity="0.79"/>
<stop offset="0.916667" stop-color="#F2B905" stop-opacity="0.55"/>
<stop offset="0.994792" stop-color="#F2CB05" stop-opacity="0.4"/>
</linearGradient>
<linearGradient id="paint2_linear" x1="31.1975" y1="14.7026" x2="37.2066" y2="11.2505" gradientUnits="userSpaceOnUse">
<stop stop-color="#F29E05" stop-opacity="0.79"/>
<stop offset="0.916667" stop-color="#F2B905" stop-opacity="0.55"/>
<stop offset="0.994792" stop-color="#F2CB05" stop-opacity="0.4"/>
</linearGradient>
<linearGradient id="paint3_linear" x1="32.6791" y1="20.4796" x2="39.6251" y2="20.5342" gradientUnits="userSpaceOnUse">
<stop stop-color="#F29E05" stop-opacity="0.79"/>
<stop offset="0.916667" stop-color="#F2B905" stop-opacity="0.55"/>
<stop offset="0.994792" stop-color="#F2CB05" stop-opacity="0.4"/>
</linearGradient>
<linearGradient id="paint4_linear" x1="30.9624" y1="25.8798" x2="36.8961" y2="29.4556" gradientUnits="userSpaceOnUse">
<stop stop-color="#F29E05" stop-opacity="0.79"/>
<stop offset="0.916667" stop-color="#F2B905" stop-opacity="0.55"/>
<stop offset="0.994792" stop-color="#F2CB05" stop-opacity="0.4"/>
</linearGradient>
<linearGradient id="paint5_linear" x1="26.7123" y1="30.3508" x2="30.0697" y2="36.3748" gradientUnits="userSpaceOnUse">
<stop stop-color="#F29E05" stop-opacity="0.79"/>
<stop offset="0.916667" stop-color="#F2B905" stop-opacity="0.55"/>
<stop offset="0.994792" stop-color="#F2CB05" stop-opacity="0.4"/>
</linearGradient>
<clipPath id="clip0">
<rect width="30" height="32.6666" fill="white" transform="translate(10 4)"/>
</clipPath>
</defs>
</svg>
