<svg width="100%" height="341" viewBox="0 0 100 341" fill="none" xmlns="http://www.w3.org/2000/svg">
<path d="M1 63L213.966 21.3131C228.574 18.4536 243.526 17.7845 258.331 19.3277L389.5 33L543 49L862.879 72.3245C873.595 73.1059 884.364 72.7336 895.001 71.2141L1201 27.5V341H1V63Z" fill="#434343"/>
<path d="M0 55L213.179 13.3061C227.776 10.4512 242.716 9.78319 257.509 11.3239L388.824 25L542.452 41L862.624 64.3265C873.332 65.1066 884.092 64.7349 894.72 63.2179L1201 19.5V333H0V55Z" fill="#434343" fill-opacity="0.24"/>
<path d="M1 46L214.179 4.30607C228.776 1.45123 243.716 0.78319 258.509 2.32386L389.824 16L543.452 32L863.624 55.3265C874.332 56.1066 885.092 55.7349 895.72 54.2179L1202 10.5V324H1V46Z" fill="#434343" fill-opacity="0.24"/>
</svg>
